<?xml version="1.0" encoding="UTF-8" standalone="no"?>
<!DOCTYPE svg PUBLIC "-//W3C//DTD SVG 1.1//EN"
 "http://www.w3.org/Graphics/SVG/1.1/DTD/svg11.dtd">
<!-- Generated by graphviz version 2.36.0 (20140111.2315)
 -->
<!-- Title: controllers_diagram Pages: 1 -->
<svg width="1153pt" height="1171pt"
 viewBox="0.00 0.00 1153.23 1171.00" xmlns="http://www.w3.org/2000/svg" xmlns:xlink="http://www.w3.org/1999/xlink">
<g id="graph0" class="graph" transform="scale(1 1) rotate(0) translate(4 1167)">
<title>controllers_diagram</title>
<polygon fill="none" stroke="none" points="-4,4 -4,-1167 1149.23,-1167 1149.23,4 -4,4"/>
<!-- _diagram_info -->
<g id="node1" class="node"><title>_diagram_info</title>
<text text-anchor="start" x="168" y="-58.6" font-family="Times,serif" font-size="13.00">Controllers diagram</text>
<text text-anchor="start" x="168" y="-45.6" font-family="Times,serif" font-size="13.00">Date: Jan 26 2016 &#45; 16:29</text>
<text text-anchor="start" x="168" y="-32.6" font-family="Times,serif" font-size="13.00">Migration version: 20160126152926</text>
<text text-anchor="start" x="168" y="-19.6" font-family="Times,serif" font-size="13.00">Generated by RailRoady 1.4.2</text>
<text text-anchor="start" x="168" y="-6.6" font-family="Times,serif" font-size="13.00">http://railroady.prestonlee.com</text>
</g>
<!-- ApplicationController -->
<g id="node2" class="node"><title>ApplicationController</title>
<path fill="none" stroke="black" d="M192,-660.5C192,-660.5 307.642,-660.5 307.642,-660.5 313.642,-660.5 319.642,-666.5 319.642,-672.5 319.642,-672.5 319.642,-740.5 319.642,-740.5 319.642,-746.5 313.642,-752.5 307.642,-752.5 307.642,-752.5 192,-752.5 192,-752.5 186,-752.5 180,-746.5 180,-740.5 180,-740.5 180,-672.5 180,-672.5 180,-666.5 186,-660.5 192,-660.5"/>
<text text-anchor="middle" x="249.821" y="-737.3" font-family="Times,serif" font-size="14.00">ApplicationController</text>
<polyline fill="none" stroke="black" points="180,-730.5 319.642,-730.5 "/>
<polyline fill="none" stroke="black" points="180,-706.5 319.642,-706.5 "/>
<polyline fill="none" stroke="black" points="180,-682.5 319.642,-682.5 "/>
<text text-anchor="start" x="188" y="-667.3" font-family="Times,serif" font-size="14.00">_layout</text>
</g>
<!-- ComponentsController -->
<g id="node3" class="node"><title>ComponentsController</title>
<path fill="none" stroke="black" d="M192,-800.5C192,-800.5 312.324,-800.5 312.324,-800.5 318.324,-800.5 324.324,-806.5 324.324,-812.5 324.324,-812.5 324.324,-990.5 324.324,-990.5 324.324,-996.5 318.324,-1002.5 312.324,-1002.5 312.324,-1002.5 192,-1002.5 192,-1002.5 186,-1002.5 180,-996.5 180,-990.5 180,-990.5 180,-812.5 180,-812.5 180,-806.5 186,-800.5 192,-800.5"/>
<text text-anchor="middle" x="252.162" y="-987.3" font-family="Times,serif" font-size="14.00">ComponentsController</text>
<polyline fill="none" stroke="black" points="180,-980.5 324.324,-980.5 "/>
<text text-anchor="start" x="188" y="-965.3" font-family="Times,serif" font-size="14.00">create</text>
<text text-anchor="start" x="188" y="-951.3" font-family="Times,serif" font-size="14.00">destroy</text>
<text text-anchor="start" x="188" y="-937.3" font-family="Times,serif" font-size="14.00">edit</text>
<text text-anchor="start" x="188" y="-923.3" font-family="Times,serif" font-size="14.00">index</text>
<text text-anchor="start" x="188" y="-909.3" font-family="Times,serif" font-size="14.00">new</text>
<text text-anchor="start" x="188" y="-895.3" font-family="Times,serif" font-size="14.00">show</text>
<text text-anchor="start" x="188" y="-881.3" font-family="Times,serif" font-size="14.00">update</text>
<polyline fill="none" stroke="black" points="180,-874.5 324.324,-874.5 "/>
<polyline fill="none" stroke="black" points="180,-850.5 324.324,-850.5 "/>
<text text-anchor="start" x="188" y="-835.3" font-family="Times,serif" font-size="14.00">_layout</text>
<text text-anchor="start" x="188" y="-821.3" font-family="Times,serif" font-size="14.00">component_params</text>
<text text-anchor="start" x="188" y="-807.3" font-family="Times,serif" font-size="14.00">set_component</text>
</g>
<!-- DelphiEstimationsController -->
<g id="node4" class="node"><title>DelphiEstimationsController</title>
<path fill="none" stroke="black" d="M172,-140.5C172,-140.5 325.759,-140.5 325.759,-140.5 331.759,-140.5 337.759,-146.5 337.759,-152.5 337.759,-152.5 337.759,-330.5 337.759,-330.5 337.759,-336.5 331.759,-342.5 325.759,-342.5 325.759,-342.5 172,-342.5 172,-342.5 166,-342.5 160,-336.5 160,-330.5 160,-330.5 160,-152.5 160,-152.5 160,-146.5 166,-140.5 172,-140.5"/>
<text text-anchor="middle" x="248.879" y="-327.3" font-family="Times,serif" font-size="14.00">DelphiEstimationsController</text>
<polyline fill="none" stroke="black" points="160,-320.5 337.759,-320.5 "/>
<text text-anchor="start" x="168" y="-305.3" font-family="Times,serif" font-size="14.00">create</text>
<text text-anchor="start" x="168" y="-291.3" font-family="Times,serif" font-size="14.00">destroy</text>
<text text-anchor="start" x="168" y="-277.3" font-family="Times,serif" font-size="14.00">edit</text>
<text text-anchor="start" x="168" y="-263.3" font-family="Times,serif" font-size="14.00">index</text>
<text text-anchor="start" x="168" y="-249.3" font-family="Times,serif" font-size="14.00">new</text>
<text text-anchor="start" x="168" y="-235.3" font-family="Times,serif" font-size="14.00">show</text>
<text text-anchor="start" x="168" y="-221.3" font-family="Times,serif" font-size="14.00">update</text>
<polyline fill="none" stroke="black" points="160,-214.5 337.759,-214.5 "/>
<polyline fill="none" stroke="black" points="160,-190.5 337.759,-190.5 "/>
<text text-anchor="start" x="168" y="-175.3" font-family="Times,serif" font-size="14.00">_layout</text>
<text text-anchor="start" x="168" y="-161.3" font-family="Times,serif" font-size="14.00">delphi_estimation_params</text>
<text text-anchor="start" x="168" y="-147.3" font-family="Times,serif" font-size="14.00">set_delphi_estimation</text>
</g>
<!-- EstimationTemplatesController -->
<g id="node5" class="node"><title>EstimationTemplatesController</title>
<path fill="none" stroke="black" d="M172,-380.5C172,-380.5 339.54,-380.5 339.54,-380.5 345.54,-380.5 351.54,-386.5 351.54,-392.5 351.54,-392.5 351.54,-570.5 351.54,-570.5 351.54,-576.5 345.54,-582.5 339.54,-582.5 339.54,-582.5 172,-582.5 172,-582.5 166,-582.5 160,-576.5 160,-570.5 160,-570.5 160,-392.5 160,-392.5 160,-386.5 166,-380.5 172,-380.5"/>
<text text-anchor="middle" x="255.77" y="-567.3" font-family="Times,serif" font-size="14.00">EstimationTemplatesController</text>
<polyline fill="none" stroke="black" points="160,-560.5 351.54,-560.5 "/>
<text text-anchor="start" x="168" y="-545.3" font-family="Times,serif" font-size="14.00">create</text>
<text text-anchor="start" x="168" y="-531.3" font-family="Times,serif" font-size="14.00">destroy</text>
<text text-anchor="start" x="168" y="-517.3" font-family="Times,serif" font-size="14.00">edit</text>
<text text-anchor="start" x="168" y="-503.3" font-family="Times,serif" font-size="14.00">index</text>
<text text-anchor="start" x="168" y="-489.3" font-family="Times,serif" font-size="14.00">new</text>
<text text-anchor="start" x="168" y="-475.3" font-family="Times,serif" font-size="14.00">show</text>
<text text-anchor="start" x="168" y="-461.3" font-family="Times,serif" font-size="14.00">update</text>
<polyline fill="none" stroke="black" points="160,-454.5 351.54,-454.5 "/>
<polyline fill="none" stroke="black" points="160,-430.5 351.54,-430.5 "/>
<text text-anchor="start" x="168" y="-415.3" font-family="Times,serif" font-size="14.00">_layout</text>
<text text-anchor="start" x="168" y="-401.3" font-family="Times,serif" font-size="14.00">estimation_template_params</text>
<text text-anchor="start" x="168" y="-387.3" font-family="Times,serif" font-size="14.00">set_estimation_template</text>
</g>
<!-- EstimationsController -->
<g id="node6" class="node"><title>EstimationsController</title>
<path fill="none" stroke="black" d="M932,-60.5C932,-60.5 1047.66,-60.5 1047.66,-60.5 1053.66,-60.5 1059.66,-66.5 1059.66,-72.5 1059.66,-72.5 1059.66,-250.5 1059.66,-250.5 1059.66,-256.5 1053.66,-262.5 1047.66,-262.5 1047.66,-262.5 932,-262.5 932,-262.5 926,-262.5 920,-256.5 920,-250.5 920,-250.5 920,-72.5 920,-72.5 920,-66.5 926,-60.5 932,-60.5"/>
<text text-anchor="middle" x="989.828" y="-247.3" font-family="Times,serif" font-size="14.00">EstimationsController</text>
<polyline fill="none" stroke="black" points="920,-240.5 1059.66,-240.5 "/>
<text text-anchor="start" x="928" y="-225.3" font-family="Times,serif" font-size="14.00">create</text>
<text text-anchor="start" x="928" y="-211.3" font-family="Times,serif" font-size="14.00">destroy</text>
<text text-anchor="start" x="928" y="-197.3" font-family="Times,serif" font-size="14.00">edit</text>
<text text-anchor="start" x="928" y="-183.3" font-family="Times,serif" font-size="14.00">index</text>
<text text-anchor="start" x="928" y="-169.3" font-family="Times,serif" font-size="14.00">new</text>
<text text-anchor="start" x="928" y="-155.3" font-family="Times,serif" font-size="14.00">show</text>
<text text-anchor="start" x="928" y="-141.3" font-family="Times,serif" font-size="14.00">update</text>
<polyline fill="none" stroke="black" points="920,-134.5 1059.66,-134.5 "/>
<polyline fill="none" stroke="black" points="920,-110.5 1059.66,-110.5 "/>
<text text-anchor="start" x="928" y="-95.3" font-family="Times,serif" font-size="14.00">_layout</text>
<text text-anchor="start" x="928" y="-81.3" font-family="Times,serif" font-size="14.00">estimation_params</text>
<text text-anchor="start" x="928" y="-67.3" font-family="Times,serif" font-size="14.00">set_estimation</text>
</g>
<!-- ExpertFormsController -->
<g id="node7" class="node"><title>ExpertFormsController</title>
<path fill="none" stroke="black" d="M672,-820.5C672,-820.5 794.648,-820.5 794.648,-820.5 800.648,-820.5 806.648,-826.5 806.648,-832.5 806.648,-832.5 806.648,-1010.5 806.648,-1010.5 806.648,-1016.5 800.648,-1022.5 794.648,-1022.5 794.648,-1022.5 672,-1022.5 672,-1022.5 666,-1022.5 660,-1016.5 660,-1010.5 660,-1010.5 660,-832.5 660,-832.5 660,-826.5 666,-820.5 672,-820.5"/>
<text text-anchor="middle" x="733.324" y="-1007.3" font-family="Times,serif" font-size="14.00">ExpertFormsController</text>
<polyline fill="none" stroke="black" points="660,-1000.5 806.648,-1000.5 "/>
<text text-anchor="start" x="668" y="-985.3" font-family="Times,serif" font-size="14.00">create</text>
<text text-anchor="start" x="668" y="-971.3" font-family="Times,serif" font-size="14.00">destroy</text>
<text text-anchor="start" x="668" y="-957.3" font-family="Times,serif" font-size="14.00">edit</text>
<text text-anchor="start" x="668" y="-943.3" font-family="Times,serif" font-size="14.00">index</text>
<text text-anchor="start" x="668" y="-929.3" font-family="Times,serif" font-size="14.00">new</text>
<text text-anchor="start" x="668" y="-915.3" font-family="Times,serif" font-size="14.00">show</text>
<text text-anchor="start" x="668" y="-901.3" font-family="Times,serif" font-size="14.00">update</text>
<polyline fill="none" stroke="black" points="660,-894.5 806.648,-894.5 "/>
<polyline fill="none" stroke="black" points="660,-870.5 806.648,-870.5 "/>
<text text-anchor="start" x="668" y="-855.3" font-family="Times,serif" font-size="14.00">_layout</text>
<text text-anchor="start" x="668" y="-841.3" font-family="Times,serif" font-size="14.00">expert_form_params</text>
<text text-anchor="start" x="668" y="-827.3" font-family="Times,serif" font-size="14.00">set_expert_form</text>
</g>
<!-- FormTemplatesController -->
<g id="node8" class="node"><title>FormTemplatesController</title>
<path fill="none" stroke="black" d="M392,-120.5C392,-120.5 529.216,-120.5 529.216,-120.5 535.216,-120.5 541.216,-126.5 541.216,-132.5 541.216,-132.5 541.216,-310.5 541.216,-310.5 541.216,-316.5 535.216,-322.5 529.216,-322.5 529.216,-322.5 392,-322.5 392,-322.5 386,-322.5 380,-316.5 380,-310.5 380,-310.5 380,-132.5 380,-132.5 380,-126.5 386,-120.5 392,-120.5"/>
<text text-anchor="middle" x="460.608" y="-307.3" font-family="Times,serif" font-size="14.00">FormTemplatesController</text>
<polyline fill="none" stroke="black" points="380,-300.5 541.216,-300.5 "/>
<text text-anchor="start" x="388" y="-285.3" font-family="Times,serif" font-size="14.00">create</text>
<text text-anchor="start" x="388" y="-271.3" font-family="Times,serif" font-size="14.00">destroy</text>
<text text-anchor="start" x="388" y="-257.3" font-family="Times,serif" font-size="14.00">edit</text>
<text text-anchor="start" x="388" y="-243.3" font-family="Times,serif" font-size="14.00">index</text>
<text text-anchor="start" x="388" y="-229.3" font-family="Times,serif" font-size="14.00">new</text>
<text text-anchor="start" x="388" y="-215.3" font-family="Times,serif" font-size="14.00">show</text>
<text text-anchor="start" x="388" y="-201.3" font-family="Times,serif" font-size="14.00">update</text>
<polyline fill="none" stroke="black" points="380,-194.5 541.216,-194.5 "/>
<polyline fill="none" stroke="black" points="380,-170.5 541.216,-170.5 "/>
<text text-anchor="start" x="388" y="-155.3" font-family="Times,serif" font-size="14.00">_layout</text>
<text text-anchor="start" x="388" y="-141.3" font-family="Times,serif" font-size="14.00">form_template_params</text>
<text text-anchor="start" x="388" y="-127.3" font-family="Times,serif" font-size="14.00">set_form_template</text>
</g>
<!-- MilestonesController -->
<g id="node9" class="node"><title>MilestonesController</title>
<path fill="none" stroke="black" d="M592,-100.5C592,-100.5 702.986,-100.5 702.986,-100.5 708.986,-100.5 714.986,-106.5 714.986,-112.5 714.986,-112.5 714.986,-290.5 714.986,-290.5 714.986,-296.5 708.986,-302.5 702.986,-302.5 702.986,-302.5 592,-302.5 592,-302.5 586,-302.5 580,-296.5 580,-290.5 580,-290.5 580,-112.5 580,-112.5 580,-106.5 586,-100.5 592,-100.5"/>
<text text-anchor="middle" x="647.493" y="-287.3" font-family="Times,serif" font-size="14.00">MilestonesController</text>
<polyline fill="none" stroke="black" points="580,-280.5 714.986,-280.5 "/>
<text text-anchor="start" x="588" y="-265.3" font-family="Times,serif" font-size="14.00">create</text>
<text text-anchor="start" x="588" y="-251.3" font-family="Times,serif" font-size="14.00">destroy</text>
<text text-anchor="start" x="588" y="-237.3" font-family="Times,serif" font-size="14.00">edit</text>
<text text-anchor="start" x="588" y="-223.3" font-family="Times,serif" font-size="14.00">index</text>
<text text-anchor="start" x="588" y="-209.3" font-family="Times,serif" font-size="14.00">new</text>
<text text-anchor="start" x="588" y="-195.3" font-family="Times,serif" font-size="14.00">show</text>
<text text-anchor="start" x="588" y="-181.3" font-family="Times,serif" font-size="14.00">update</text>
<polyline fill="none" stroke="black" points="580,-174.5 714.986,-174.5 "/>
<polyline fill="none" stroke="black" points="580,-150.5 714.986,-150.5 "/>
<text text-anchor="start" x="588" y="-135.3" font-family="Times,serif" font-size="14.00">_layout</text>
<text text-anchor="start" x="588" y="-121.3" font-family="Times,serif" font-size="14.00">milestone_params</text>
<text text-anchor="start" x="588" y="-107.3" font-family="Times,serif" font-size="14.00">set_milestone</text>
</g>
<!-- ModulsController -->
<g id="node10" class="node"><title>ModulsController</title>
<path fill="none" stroke="black" d="M32,-960.5C32,-960.5 124.331,-960.5 124.331,-960.5 130.331,-960.5 136.331,-966.5 136.331,-972.5 136.331,-972.5 136.331,-1150.5 136.331,-1150.5 136.331,-1156.5 130.331,-1162.5 124.331,-1162.5 124.331,-1162.5 32,-1162.5 32,-1162.5 26,-1162.5 20,-1156.5 20,-1150.5 20,-1150.5 20,-972.5 20,-972.5 20,-966.5 26,-960.5 32,-960.5"/>
<text text-anchor="middle" x="78.1655" y="-1147.3" font-family="Times,serif" font-size="14.00">ModulsController</text>
<polyline fill="none" stroke="black" points="20,-1140.5 136.331,-1140.5 "/>
<text text-anchor="start" x="28" y="-1125.3" font-family="Times,serif" font-size="14.00">create</text>
<text text-anchor="start" x="28" y="-1111.3" font-family="Times,serif" font-size="14.00">destroy</text>
<text text-anchor="start" x="28" y="-1097.3" font-family="Times,serif" font-size="14.00">edit</text>
<text text-anchor="start" x="28" y="-1083.3" font-family="Times,serif" font-size="14.00">index</text>
<text text-anchor="start" x="28" y="-1069.3" font-family="Times,serif" font-size="14.00">new</text>
<text text-anchor="start" x="28" y="-1055.3" font-family="Times,serif" font-size="14.00">show</text>
<text text-anchor="start" x="28" y="-1041.3" font-family="Times,serif" font-size="14.00">update</text>
<polyline fill="none" stroke="black" points="20,-1034.5 136.331,-1034.5 "/>
<polyline fill="none" stroke="black" points="20,-1010.5 136.331,-1010.5 "/>
<text text-anchor="start" x="28" y="-995.3" font-family="Times,serif" font-size="14.00">_layout</text>
<text text-anchor="start" x="28" y="-981.3" font-family="Times,serif" font-size="14.00">modul_params</text>
<text text-anchor="start" x="28" y="-967.3" font-family="Times,serif" font-size="14.00">set_modul</text>
</g>
<!-- ProductBreakdownStructuresController -->
<g id="node11" class="node"><title>ProductBreakdownStructuresController</title>
<path fill="none" stroke="black" d="M372,-620.5C372,-620.5 586.4,-620.5 586.4,-620.5 592.4,-620.5 598.4,-626.5 598.4,-632.5 598.4,-632.5 598.4,-810.5 598.4,-810.5 598.4,-816.5 592.4,-822.5 586.4,-822.5 586.4,-822.5 372,-822.5 372,-822.5 366,-822.5 360,-816.5 360,-810.5 360,-810.5 360,-632.5 360,-632.5 360,-626.5 366,-620.5 372,-620.5"/>
<text text-anchor="middle" x="479.2" y="-807.3" font-family="Times,serif" font-size="14.00">ProductBreakdownStructuresController</text>
<polyline fill="none" stroke="black" points="360,-800.5 598.4,-800.5 "/>
<text text-anchor="start" x="368" y="-785.3" font-family="Times,serif" font-size="14.00">create</text>
<text text-anchor="start" x="368" y="-771.3" font-family="Times,serif" font-size="14.00">destroy</text>
<text text-anchor="start" x="368" y="-757.3" font-family="Times,serif" font-size="14.00">edit</text>
<text text-anchor="start" x="368" y="-743.3" font-family="Times,serif" font-size="14.00">index</text>
<text text-anchor="start" x="368" y="-729.3" font-family="Times,serif" font-size="14.00">new</text>
<text text-anchor="start" x="368" y="-715.3" font-family="Times,serif" font-size="14.00">show</text>
<text text-anchor="start" x="368" y="-701.3" font-family="Times,serif" font-size="14.00">update</text>
<polyline fill="none" stroke="black" points="360,-694.5 598.4,-694.5 "/>
<polyline fill="none" stroke="black" points="360,-670.5 598.4,-670.5 "/>
<text text-anchor="start" x="368" y="-655.3" font-family="Times,serif" font-size="14.00">_layout</text>
<text text-anchor="start" x="368" y="-641.3" font-family="Times,serif" font-size="14.00">product_breakdown_structure_params</text>
<text text-anchor="start" x="368" y="-627.3" font-family="Times,serif" font-size="14.00">set_product_breakdown_structure</text>
</g>
<!-- ProjectsController -->
<g id="node12" class="node"><title>ProjectsController</title>
<path fill="none" stroke="black" d="M12,-240.5C12,-240.5 106.648,-240.5 106.648,-240.5 112.648,-240.5 118.648,-246.5 118.648,-252.5 118.648,-252.5 118.648,-430.5 118.648,-430.5 118.648,-436.5 112.648,-442.5 106.648,-442.5 106.648,-442.5 12,-442.5 12,-442.5 6,-442.5 5.68434e-14,-436.5 5.68434e-14,-430.5 5.68434e-14,-430.5 5.68434e-14,-252.5 5.68434e-14,-252.5 5.68434e-14,-246.5 6,-240.5 12,-240.5"/>
<text text-anchor="middle" x="59.3242" y="-427.3" font-family="Times,serif" font-size="14.00">ProjectsController</text>
<polyline fill="none" stroke="black" points="5.68434e-14,-420.5 118.648,-420.5 "/>
<text text-anchor="start" x="8" y="-405.3" font-family="Times,serif" font-size="14.00">create</text>
<text text-anchor="start" x="8" y="-391.3" font-family="Times,serif" font-size="14.00">destroy</text>
<text text-anchor="start" x="8" y="-377.3" font-family="Times,serif" font-size="14.00">edit</text>
<text text-anchor="start" x="8" y="-363.3" font-family="Times,serif" font-size="14.00">index</text>
<text text-anchor="start" x="8" y="-349.3" font-family="Times,serif" font-size="14.00">new</text>
<text text-anchor="start" x="8" y="-335.3" font-family="Times,serif" font-size="14.00">show</text>
<text text-anchor="start" x="8" y="-321.3" font-family="Times,serif" font-size="14.00">update</text>
<polyline fill="none" stroke="black" points="5.68434e-14,-314.5 118.648,-314.5 "/>
<polyline fill="none" stroke="black" points="5.68434e-14,-290.5 118.648,-290.5 "/>
<text text-anchor="start" x="8" y="-275.3" font-family="Times,serif" font-size="14.00">_layout</text>
<text text-anchor="start" x="8" y="-261.3" font-family="Times,serif" font-size="14.00">project_params</text>
<text text-anchor="start" x="8" y="-247.3" font-family="Times,serif" font-size="14.00">set_project</text>
</g>
<!-- ResourceAllocationMatricesController -->
<g id="node13" class="node"><title>ResourceAllocationMatricesController</title>
<path fill="none" stroke="black" d="M652,-580.5C652,-580.5 861.711,-580.5 861.711,-580.5 867.711,-580.5 873.711,-586.5 873.711,-592.5 873.711,-592.5 873.711,-770.5 873.711,-770.5 873.711,-776.5 867.711,-782.5 861.711,-782.5 861.711,-782.5 652,-782.5 652,-782.5 646,-782.5 640,-776.5 640,-770.5 640,-770.5 640,-592.5 640,-592.5 640,-586.5 646,-580.5 652,-580.5"/>
<text text-anchor="middle" x="756.855" y="-767.3" font-family="Times,serif" font-size="14.00">ResourceAllocationMatricesController</text>
<polyline fill="none" stroke="black" points="640,-760.5 873.711,-760.5 "/>
<text text-anchor="start" x="648" y="-745.3" font-family="Times,serif" font-size="14.00">create</text>
<text text-anchor="start" x="648" y="-731.3" font-family="Times,serif" font-size="14.00">destroy</text>
<text text-anchor="start" x="648" y="-717.3" font-family="Times,serif" font-size="14.00">edit</text>
<text text-anchor="start" x="648" y="-703.3" font-family="Times,serif" font-size="14.00">index</text>
<text text-anchor="start" x="648" y="-689.3" font-family="Times,serif" font-size="14.00">new</text>
<text text-anchor="start" x="648" y="-675.3" font-family="Times,serif" font-size="14.00">show</text>
<text text-anchor="start" x="648" y="-661.3" font-family="Times,serif" font-size="14.00">update</text>
<polyline fill="none" stroke="black" points="640,-654.5 873.711,-654.5 "/>
<polyline fill="none" stroke="black" points="640,-630.5 873.711,-630.5 "/>
<text text-anchor="start" x="648" y="-615.3" font-family="Times,serif" font-size="14.00">_layout</text>
<text text-anchor="start" x="648" y="-601.3" font-family="Times,serif" font-size="14.00">resource_allocation_matrix_params</text>
<text text-anchor="start" x="648" y="-587.3" font-family="Times,serif" font-size="14.00">set_resource_allocation_matrix</text>
</g>
<!-- ResourceBreakdownStructuresController -->
<g id="node14" class="node"><title>ResourceBreakdownStructuresController</title>
<path fill="none" stroke="black" d="M652,-340.5C652,-340.5 874.938,-340.5 874.938,-340.5 880.938,-340.5 886.938,-346.5 886.938,-352.5 886.938,-352.5 886.938,-530.5 886.938,-530.5 886.938,-536.5 880.938,-542.5 874.938,-542.5 874.938,-542.5 652,-542.5 652,-542.5 646,-542.5 640,-536.5 640,-530.5 640,-530.5 640,-352.5 640,-352.5 640,-346.5 646,-340.5 652,-340.5"/>
<text text-anchor="middle" x="763.469" y="-527.3" font-family="Times,serif" font-size="14.00">ResourceBreakdownStructuresController</text>
<polyline fill="none" stroke="black" points="640,-520.5 886.938,-520.5 "/>
<text text-anchor="start" x="648" y="-505.3" font-family="Times,serif" font-size="14.00">create</text>
<text text-anchor="start" x="648" y="-491.3" font-family="Times,serif" font-size="14.00">destroy</text>
<text text-anchor="start" x="648" y="-477.3" font-family="Times,serif" font-size="14.00">edit</text>
<text text-anchor="start" x="648" y="-463.3" font-family="Times,serif" font-size="14.00">index</text>
<text text-anchor="start" x="648" y="-449.3" font-family="Times,serif" font-size="14.00">new</text>
<text text-anchor="start" x="648" y="-435.3" font-family="Times,serif" font-size="14.00">show</text>
<text text-anchor="start" x="648" y="-421.3" font-family="Times,serif" font-size="14.00">update</text>
<polyline fill="none" stroke="black" points="640,-414.5 886.938,-414.5 "/>
<polyline fill="none" stroke="black" points="640,-390.5 886.938,-390.5 "/>
<text text-anchor="start" x="648" y="-375.3" font-family="Times,serif" font-size="14.00">_layout</text>
<text text-anchor="start" x="648" y="-361.3" font-family="Times,serif" font-size="14.00">resource_breakdown_structure_params</text>
<text text-anchor="start" x="648" y="-347.3" font-family="Times,serif" font-size="14.00">set_resource_breakdown_structure</text>
</g>
<!-- ResourcesController -->
<g id="node15" class="node"><title>ResourcesController</title>
<path fill="none" stroke="black" d="M932,-300.5C932,-300.5 1039.08,-300.5 1039.08,-300.5 1045.08,-300.5 1051.08,-306.5 1051.08,-312.5 1051.08,-312.5 1051.08,-490.5 1051.08,-490.5 1051.08,-496.5 1045.08,-502.5 1039.08,-502.5 1039.08,-502.5 932,-502.5 932,-502.5 926,-502.5 920,-496.5 920,-490.5 920,-490.5 920,-312.5 920,-312.5 920,-306.5 926,-300.5 932,-300.5"/>
<text text-anchor="middle" x="985.542" y="-487.3" font-family="Times,serif" font-size="14.00">ResourcesController</text>
<polyline fill="none" stroke="black" points="920,-480.5 1051.08,-480.5 "/>
<text text-anchor="start" x="928" y="-465.3" font-family="Times,serif" font-size="14.00">create</text>
<text text-anchor="start" x="928" y="-451.3" font-family="Times,serif" font-size="14.00">destroy</text>
<text text-anchor="start" x="928" y="-437.3" font-family="Times,serif" font-size="14.00">edit</text>
<text text-anchor="start" x="928" y="-423.3" font-family="Times,serif" font-size="14.00">index</text>
<text text-anchor="start" x="928" y="-409.3" font-family="Times,serif" font-size="14.00">new</text>
<text text-anchor="start" x="928" y="-395.3" font-family="Times,serif" font-size="14.00">show</text>
<text text-anchor="start" x="928" y="-381.3" font-family="Times,serif" font-size="14.00">update</text>
<polyline fill="none" stroke="black" points="920,-374.5 1051.08,-374.5 "/>
<polyline fill="none" stroke="black" points="920,-350.5 1051.08,-350.5 "/>
<text text-anchor="start" x="928" y="-335.3" font-family="Times,serif" font-size="14.00">_layout</text>
<text text-anchor="start" x="928" y="-321.3" font-family="Times,serif" font-size="14.00">resource_params</text>
<text text-anchor="start" x="928" y="-307.3" font-family="Times,serif" font-size="14.00">set_resource</text>
</g>
<!-- RoadmapsController -->
<g id="node16" class="node"><title>RoadmapsController</title>
<path fill="none" stroke="black" d="M492,-860.5C492,-860.5 600.648,-860.5 600.648,-860.5 606.648,-860.5 612.648,-866.5 612.648,-872.5 612.648,-872.5 612.648,-1064.5 612.648,-1064.5 612.648,-1070.5 606.648,-1076.5 600.648,-1076.5 600.648,-1076.5 492,-1076.5 492,-1076.5 486,-1076.5 480,-1070.5 480,-1064.5 480,-1064.5 480,-872.5 480,-872.5 480,-866.5 486,-860.5 492,-860.5"/>
<text text-anchor="middle" x="546.324" y="-1061.3" font-family="Times,serif" font-size="14.00">RoadmapsController</text>
<polyline fill="none" stroke="black" points="480,-1054.5 612.648,-1054.5 "/>
<text text-anchor="start" x="488" y="-1039.3" font-family="Times,serif" font-size="14.00">create</text>
<text text-anchor="start" x="488" y="-1025.3" font-family="Times,serif" font-size="14.00">destroy</text>
<text text-anchor="start" x="488" y="-1011.3" font-family="Times,serif" font-size="14.00">edit</text>
<text text-anchor="start" x="488" y="-997.3" font-family="Times,serif" font-size="14.00">index</text>
<text text-anchor="start" x="488" y="-983.3" font-family="Times,serif" font-size="14.00">new</text>
<text text-anchor="start" x="488" y="-969.3" font-family="Times,serif" font-size="14.00">show</text>
<text text-anchor="start" x="488" y="-955.3" font-family="Times,serif" font-size="14.00">timeline</text>
<text text-anchor="start" x="488" y="-941.3" font-family="Times,serif" font-size="14.00">update</text>
<polyline fill="none" stroke="black" points="480,-934.5 612.648,-934.5 "/>
<polyline fill="none" stroke="black" points="480,-910.5 612.648,-910.5 "/>
<text text-anchor="start" x="488" y="-895.3" font-family="Times,serif" font-size="14.00">_layout</text>
<text text-anchor="start" x="488" y="-881.3" font-family="Times,serif" font-size="14.00">roadmap_params</text>
<text text-anchor="start" x="488" y="-867.3" font-family="Times,serif" font-size="14.00">set_roadmap</text>
</g>
<!-- RolesController -->
<g id="node17" class="node"><title>RolesController</title>
<path fill="none" stroke="black" d="M52,-720.5C52,-720.5 133.435,-720.5 133.435,-720.5 139.435,-720.5 145.435,-726.5 145.435,-732.5 145.435,-732.5 145.435,-910.5 145.435,-910.5 145.435,-916.5 139.435,-922.5 133.435,-922.5 133.435,-922.5 52,-922.5 52,-922.5 46,-922.5 40,-916.5 40,-910.5 40,-910.5 40,-732.5 40,-732.5 40,-726.5 46,-720.5 52,-720.5"/>
<text text-anchor="middle" x="92.7173" y="-907.3" font-family="Times,serif" font-size="14.00">RolesController</text>
<polyline fill="none" stroke="black" points="40,-900.5 145.435,-900.5 "/>
<text text-anchor="start" x="48" y="-885.3" font-family="Times,serif" font-size="14.00">create</text>
<text text-anchor="start" x="48" y="-871.3" font-family="Times,serif" font-size="14.00">destroy</text>
<text text-anchor="start" x="48" y="-857.3" font-family="Times,serif" font-size="14.00">edit</text>
<text text-anchor="start" x="48" y="-843.3" font-family="Times,serif" font-size="14.00">index</text>
<text text-anchor="start" x="48" y="-829.3" font-family="Times,serif" font-size="14.00">new</text>
<text text-anchor="start" x="48" y="-815.3" font-family="Times,serif" font-size="14.00">show</text>
<text text-anchor="start" x="48" y="-801.3" font-family="Times,serif" font-size="14.00">update</text>
<polyline fill="none" stroke="black" points="40,-794.5 145.435,-794.5 "/>
<polyline fill="none" stroke="black" points="40,-770.5 145.435,-770.5 "/>
<text text-anchor="start" x="48" y="-755.3" font-family="Times,serif" font-size="14.00">_layout</text>
<text text-anchor="start" x="48" y="-741.3" font-family="Times,serif" font-size="14.00">role_params</text>
<text text-anchor="start" x="48" y="-727.3" font-family="Times,serif" font-size="14.00">set_role</text>
</g>
<!-- RoundsController -->
<g id="node18" class="node"><title>RoundsController</title>
<path fill="none" stroke="black" d="M772,-80.5C772,-80.5 864.331,-80.5 864.331,-80.5 870.331,-80.5 876.331,-86.5 876.331,-92.5 876.331,-92.5 876.331,-284.5 876.331,-284.5 876.331,-290.5 870.331,-296.5 864.331,-296.5 864.331,-296.5 772,-296.5 772,-296.5 766,-296.5 760,-290.5 760,-284.5 760,-284.5 760,-92.5 760,-92.5 760,-86.5 766,-80.5 772,-80.5"/>
<text text-anchor="middle" x="818.166" y="-281.3" font-family="Times,serif" font-size="14.00">RoundsController</text>
<polyline fill="none" stroke="black" points="760,-274.5 876.331,-274.5 "/>
<text text-anchor="start" x="768" y="-259.3" font-family="Times,serif" font-size="14.00">close</text>
<text text-anchor="start" x="768" y="-245.3" font-family="Times,serif" font-size="14.00">create</text>
<text text-anchor="start" x="768" y="-231.3" font-family="Times,serif" font-size="14.00">destroy</text>
<text text-anchor="start" x="768" y="-217.3" font-family="Times,serif" font-size="14.00">edit</text>
<text text-anchor="start" x="768" y="-203.3" font-family="Times,serif" font-size="14.00">index</text>
<text text-anchor="start" x="768" y="-189.3" font-family="Times,serif" font-size="14.00">new</text>
<text text-anchor="start" x="768" y="-175.3" font-family="Times,serif" font-size="14.00">show</text>
<text text-anchor="start" x="768" y="-161.3" font-family="Times,serif" font-size="14.00">update</text>
<polyline fill="none" stroke="black" points="760,-154.5 876.331,-154.5 "/>
<polyline fill="none" stroke="black" points="760,-130.5 876.331,-130.5 "/>
<text text-anchor="start" x="768" y="-115.3" font-family="Times,serif" font-size="14.00">_layout</text>
<text text-anchor="start" x="768" y="-101.3" font-family="Times,serif" font-size="14.00">round_params</text>
<text text-anchor="start" x="768" y="-87.3" font-family="Times,serif" font-size="14.00">set_round</text>
</g>
<!-- SubproductsController -->
<g id="node19" class="node"><title>SubproductsController</title>
<path fill="none" stroke="black" d="M932,-540.5C932,-540.5 1051.54,-540.5 1051.54,-540.5 1057.54,-540.5 1063.54,-546.5 1063.54,-552.5 1063.54,-552.5 1063.54,-730.5 1063.54,-730.5 1063.54,-736.5 1057.54,-742.5 1051.54,-742.5 1051.54,-742.5 932,-742.5 932,-742.5 926,-742.5 920,-736.5 920,-730.5 920,-730.5 920,-552.5 920,-552.5 920,-546.5 926,-540.5 932,-540.5"/>
<text text-anchor="middle" x="991.772" y="-727.3" font-family="Times,serif" font-size="14.00">SubproductsController</text>
<polyline fill="none" stroke="black" points="920,-720.5 1063.54,-720.5 "/>
<text text-anchor="start" x="928" y="-705.3" font-family="Times,serif" font-size="14.00">create</text>
<text text-anchor="start" x="928" y="-691.3" font-family="Times,serif" font-size="14.00">destroy</text>
<text text-anchor="start" x="928" y="-677.3" font-family="Times,serif" font-size="14.00">edit</text>
<text text-anchor="start" x="928" y="-663.3" font-family="Times,serif" font-size="14.00">index</text>
<text text-anchor="start" x="928" y="-649.3" font-family="Times,serif" font-size="14.00">new</text>
<text text-anchor="start" x="928" y="-635.3" font-family="Times,serif" font-size="14.00">show</text>
<text text-anchor="start" x="928" y="-621.3" font-family="Times,serif" font-size="14.00">update</text>
<polyline fill="none" stroke="black" points="920,-614.5 1063.54,-614.5 "/>
<polyline fill="none" stroke="black" points="920,-590.5 1063.54,-590.5 "/>
<text text-anchor="start" x="928" y="-575.3" font-family="Times,serif" font-size="14.00">_layout</text>
<text text-anchor="start" x="928" y="-561.3" font-family="Times,serif" font-size="14.00">set_subproduct</text>
<text text-anchor="start" x="928" y="-547.3" font-family="Times,serif" font-size="14.00">subproduct_params</text>
</g>
<!-- SubtasksController -->
<g id="node20" class="node"><title>SubtasksController</title>
<path fill="none" stroke="black" d="M12,-0.5C12,-0.5 111.331,-0.5 111.331,-0.5 117.331,-0.5 123.331,-6.5 123.331,-12.5 123.331,-12.5 123.331,-190.5 123.331,-190.5 123.331,-196.5 117.331,-202.5 111.331,-202.5 111.331,-202.5 12,-202.5 12,-202.5 6,-202.5 5.68434e-14,-196.5 5.68434e-14,-190.5 5.68434e-14,-190.5 5.68434e-14,-12.5 5.68434e-14,-12.5 5.68434e-14,-6.5 6,-0.5 12,-0.5"/>
<text text-anchor="middle" x="61.6655" y="-187.3" font-family="Times,serif" font-size="14.00">SubtasksController</text>
<polyline fill="none" stroke="black" points="5.68434e-14,-180.5 123.331,-180.5 "/>
<text text-anchor="start" x="8" y="-165.3" font-family="Times,serif" font-size="14.00">create</text>
<text text-anchor="start" x="8" y="-151.3" font-family="Times,serif" font-size="14.00">destroy</text>
<text text-anchor="start" x="8" y="-137.3" font-family="Times,serif" font-size="14.00">edit</text>
<text text-anchor="start" x="8" y="-123.3" font-family="Times,serif" font-size="14.00">index</text>
<text text-anchor="start" x="8" y="-109.3" font-family="Times,serif" font-size="14.00">new</text>
<text text-anchor="start" x="8" y="-95.3" font-family="Times,serif" font-size="14.00">show</text>
<text text-anchor="start" x="8" y="-81.3" font-family="Times,serif" font-size="14.00">update</text>
<polyline fill="none" stroke="black" points="5.68434e-14,-74.5 123.331,-74.5 "/>
<polyline fill="none" stroke="black" points="5.68434e-14,-50.5 123.331,-50.5 "/>
<text text-anchor="start" x="8" y="-35.3" font-family="Times,serif" font-size="14.00">_layout</text>
<text text-anchor="start" x="8" y="-21.3" font-family="Times,serif" font-size="14.00">set_subtask</text>
<text text-anchor="start" x="8" y="-7.3" font-family="Times,serif" font-size="14.00">subtask_params</text>
</g>
<!-- TasksController -->
<g id="node21" class="node"><title>TasksController</title>
<path fill="none" stroke="black" d="M1052,-780.5C1052,-780.5 1133.23,-780.5 1133.23,-780.5 1139.23,-780.5 1145.23,-786.5 1145.23,-792.5 1145.23,-792.5 1145.23,-970.5 1145.23,-970.5 1145.23,-976.5 1139.23,-982.5 1133.23,-982.5 1133.23,-982.5 1052,-982.5 1052,-982.5 1046,-982.5 1040,-976.5 1040,-970.5 1040,-970.5 1040,-792.5 1040,-792.5 1040,-786.5 1046,-780.5 1052,-780.5"/>
<text text-anchor="middle" x="1092.61" y="-967.3" font-family="Times,serif" font-size="14.00">TasksController</text>
<polyline fill="none" stroke="black" points="1040,-960.5 1145.23,-960.5 "/>
<text text-anchor="start" x="1048" y="-945.3" font-family="Times,serif" font-size="14.00">create</text>
<text text-anchor="start" x="1048" y="-931.3" font-family="Times,serif" font-size="14.00">destroy</text>
<text text-anchor="start" x="1048" y="-917.3" font-family="Times,serif" font-size="14.00">edit</text>
<text text-anchor="start" x="1048" y="-903.3" font-family="Times,serif" font-size="14.00">index</text>
<text text-anchor="start" x="1048" y="-889.3" font-family="Times,serif" font-size="14.00">new</text>
<text text-anchor="start" x="1048" y="-875.3" font-family="Times,serif" font-size="14.00">show</text>
<text text-anchor="start" x="1048" y="-861.3" font-family="Times,serif" font-size="14.00">update</text>
<polyline fill="none" stroke="black" points="1040,-854.5 1145.23,-854.5 "/>
<polyline fill="none" stroke="black" points="1040,-830.5 1145.23,-830.5 "/>
<text text-anchor="start" x="1048" y="-815.3" font-family="Times,serif" font-size="14.00">_layout</text>
<text text-anchor="start" x="1048" y="-801.3" font-family="Times,serif" font-size="14.00">set_task</text>
<text text-anchor="start" x="1048" y="-787.3" font-family="Times,serif" font-size="14.00">task_params</text>
</g>
<!-- TypesController -->
<g id="node22" class="node"><title>TypesController</title>
<path fill="none" stroke="black" d="M32,-480.5C32,-480.5 114.781,-480.5 114.781,-480.5 120.781,-480.5 126.781,-486.5 126.781,-492.5 126.781,-492.5 126.781,-670.5 126.781,-670.5 126.781,-676.5 120.781,-682.5 114.781,-682.5 114.781,-682.5 32,-682.5 32,-682.5 26,-682.5 20,-676.5 20,-670.5 20,-670.5 20,-492.5 20,-492.5 20,-486.5 26,-480.5 32,-480.5"/>
<text text-anchor="middle" x="73.3906" y="-667.3" font-family="Times,serif" font-size="14.00">TypesController</text>
<polyline fill="none" stroke="black" points="20,-660.5 126.781,-660.5 "/>
<text text-anchor="start" x="28" y="-645.3" font-family="Times,serif" font-size="14.00">create</text>
<text text-anchor="start" x="28" y="-631.3" font-family="Times,serif" font-size="14.00">destroy</text>
<text text-anchor="start" x="28" y="-617.3" font-family="Times,serif" font-size="14.00">edit</text>
<text text-anchor="start" x="28" y="-603.3" font-family="Times,serif" font-size="14.00">index</text>
<text text-anchor="start" x="28" y="-589.3" font-family="Times,serif" font-size="14.00">new</text>
<text text-anchor="start" x="28" y="-575.3" font-family="Times,serif" font-size="14.00">show</text>
<text text-anchor="start" x="28" y="-561.3" font-family="Times,serif" font-size="14.00">update</text>
<polyline fill="none" stroke="black" points="20,-554.5 126.781,-554.5 "/>
<polyline fill="none" stroke="black" points="20,-530.5 126.781,-530.5 "/>
<text text-anchor="start" x="28" y="-515.3" font-family="Times,serif" font-size="14.00">_layout</text>
<text text-anchor="start" x="28" y="-501.3" font-family="Times,serif" font-size="14.00">set_type</text>
<text text-anchor="start" x="28" y="-487.3" font-family="Times,serif" font-size="14.00">type_params</text>
</g>
<!-- WorkBreakdownStructuresController -->
<g id="node23" class="node"><title>WorkBreakdownStructuresController</title>
<path fill="none" stroke="black" d="M392,-360.5C392,-360.5 593.61,-360.5 593.61,-360.5 599.61,-360.5 605.61,-366.5 605.61,-372.5 605.61,-372.5 605.61,-564.5 605.61,-564.5 605.61,-570.5 599.61,-576.5 593.61,-576.5 593.61,-576.5 392,-576.5 392,-576.5 386,-576.5 380,-570.5 380,-564.5 380,-564.5 380,-372.5 380,-372.5 380,-366.5 386,-360.5 392,-360.5"/>
<text text-anchor="middle" x="492.805" y="-561.3" font-family="Times,serif" font-size="14.00">WorkBreakdownStructuresController</text>
<polyline fill="none" stroke="black" points="380,-554.5 605.61,-554.5 "/>
<text text-anchor="start" x="388" y="-539.3" font-family="Times,serif" font-size="14.00">create</text>
<text text-anchor="start" x="388" y="-525.3" font-family="Times,serif" font-size="14.00">destroy</text>
<text text-anchor="start" x="388" y="-511.3" font-family="Times,serif" font-size="14.00">edit</text>
<text text-anchor="start" x="388" y="-497.3" font-family="Times,serif" font-size="14.00">index</text>
<text text-anchor="start" x="388" y="-483.3" font-family="Times,serif" font-size="14.00">new</text>
<text text-anchor="start" x="388" y="-469.3" font-family="Times,serif" font-size="14.00">show</text>
<text text-anchor="start" x="388" y="-455.3" font-family="Times,serif" font-size="14.00">update</text>
<text text-anchor="start" x="388" y="-441.3" font-family="Times,serif" font-size="14.00">work_breakdown_chart</text>
<polyline fill="none" stroke="black" points="380,-434.5 605.61,-434.5 "/>
<polyline fill="none" stroke="black" points="380,-410.5 605.61,-410.5 "/>
<text text-anchor="start" x="388" y="-395.3" font-family="Times,serif" font-size="14.00">_layout</text>
<text text-anchor="start" x="388" y="-381.3" font-family="Times,serif" font-size="14.00">set_work_breakdown_structure</text>
<text text-anchor="start" x="388" y="-367.3" font-family="Times,serif" font-size="14.00">work_breakdown_structure_params</text>
</g>
<!-- WorkpackagesController -->
<g id="node24" class="node"><title>WorkpackagesController</title>
<path fill="none" stroke="black" d="M852,-820.5C852,-820.5 983.61,-820.5 983.61,-820.5 989.61,-820.5 995.61,-826.5 995.61,-832.5 995.61,-832.5 995.61,-1010.5 995.61,-1010.5 995.61,-1016.5 989.61,-1022.5 983.61,-1022.5 983.61,-1022.5 852,-1022.5 852,-1022.5 846,-1022.5 840,-1016.5 840,-1010.5 840,-1010.5 840,-832.5 840,-832.5 840,-826.5 846,-820.5 852,-820.5"/>
<text text-anchor="middle" x="917.805" y="-1007.3" font-family="Times,serif" font-size="14.00">WorkpackagesController</text>
<polyline fill="none" stroke="black" points="840,-1000.5 995.61,-1000.5 "/>
<text text-anchor="start" x="848" y="-985.3" font-family="Times,serif" font-size="14.00">create</text>
<text text-anchor="start" x="848" y="-971.3" font-family="Times,serif" font-size="14.00">destroy</text>
<text text-anchor="start" x="848" y="-957.3" font-family="Times,serif" font-size="14.00">edit</text>
<text text-anchor="start" x="848" y="-943.3" font-family="Times,serif" font-size="14.00">index</text>
<text text-anchor="start" x="848" y="-929.3" font-family="Times,serif" font-size="14.00">new</text>
<text text-anchor="start" x="848" y="-915.3" font-family="Times,serif" font-size="14.00">show</text>
<text text-anchor="start" x="848" y="-901.3" font-family="Times,serif" font-size="14.00">update</text>
<polyline fill="none" stroke="black" points="840,-894.5 995.61,-894.5 "/>
<polyline fill="none" stroke="black" points="840,-870.5 995.61,-870.5 "/>
<text text-anchor="start" x="848" y="-855.3" font-family="Times,serif" font-size="14.00">_layout</text>
<text text-anchor="start" x="848" y="-841.3" font-family="Times,serif" font-size="14.00">set_workpackage</text>
<text text-anchor="start" x="848" y="-827.3" font-family="Times,serif" font-size="14.00">workpackage_params</text>
</g>
</g>
</svg>
