<?xml version="1.0" encoding="UTF-8" standalone="no"?>
<!DOCTYPE svg PUBLIC "-//W3C//DTD SVG 1.1//EN"
 "http://www.w3.org/Graphics/SVG/1.1/DTD/svg11.dtd">
<!-- Generated by graphviz version 2.36.0 (20140111.2315)
 -->
<!-- Title: controllers_diagram Pages: 1 -->
<svg width="1090pt" height="1198pt"
 viewBox="0.00 0.00 1090.33 1198.00" xmlns="http://www.w3.org/2000/svg" xmlns:xlink="http://www.w3.org/1999/xlink">
<g id="graph0" class="graph" transform="scale(1 1) rotate(0) translate(4 1194)">
<title>controllers_diagram</title>
<polygon fill="none" stroke="none" points="-4,4 -4,-1194 1086.33,-1194 1086.33,4 -4,4"/>
<!-- _diagram_info -->
<g id="node1" class="node"><title>_diagram_info</title>
<text text-anchor="start" x="155" y="-100.6" font-family="Times,serif" font-size="13.00">Controllers diagram</text>
<text text-anchor="start" x="155" y="-87.6" font-family="Times,serif" font-size="13.00">Date: Jan 19 2016 &#45; 17:45</text>
<text text-anchor="start" x="155" y="-74.6" font-family="Times,serif" font-size="13.00">Migration version: 20160119154558</text>
<text text-anchor="start" x="155" y="-61.6" font-family="Times,serif" font-size="13.00">Generated by RailRoady 1.4.2</text>
<text text-anchor="start" x="155" y="-48.6" font-family="Times,serif" font-size="13.00">http://railroady.prestonlee.com</text>
</g>
<!-- ApplicationController -->
<g id="node2" class="node"><title>ApplicationController</title>
<path fill="none" stroke="black" d="M411,-21.5C411,-21.5 526.642,-21.5 526.642,-21.5 532.642,-21.5 538.642,-27.5 538.642,-33.5 538.642,-33.5 538.642,-101.5 538.642,-101.5 538.642,-107.5 532.642,-113.5 526.642,-113.5 526.642,-113.5 411,-113.5 411,-113.5 405,-113.5 399,-107.5 399,-101.5 399,-101.5 399,-33.5 399,-33.5 399,-27.5 405,-21.5 411,-21.5"/>
<text text-anchor="middle" x="468.821" y="-98.3" font-family="Times,serif" font-size="14.00">ApplicationController</text>
<polyline fill="none" stroke="black" points="399,-91.5 538.642,-91.5 "/>
<polyline fill="none" stroke="black" points="399,-67.5 538.642,-67.5 "/>
<polyline fill="none" stroke="black" points="399,-43.5 538.642,-43.5 "/>
<text text-anchor="start" x="407" y="-28.3" font-family="Times,serif" font-size="14.00">_layout</text>
</g>
<!-- ComponentsController -->
<g id="node3" class="node"><title>ComponentsController</title>
<path fill="none" stroke="black" d="M495,-903.5C495,-903.5 615.324,-903.5 615.324,-903.5 621.324,-903.5 627.324,-909.5 627.324,-915.5 627.324,-915.5 627.324,-1093.5 627.324,-1093.5 627.324,-1099.5 621.324,-1105.5 615.324,-1105.5 615.324,-1105.5 495,-1105.5 495,-1105.5 489,-1105.5 483,-1099.5 483,-1093.5 483,-1093.5 483,-915.5 483,-915.5 483,-909.5 489,-903.5 495,-903.5"/>
<text text-anchor="middle" x="555.162" y="-1090.3" font-family="Times,serif" font-size="14.00">ComponentsController</text>
<polyline fill="none" stroke="black" points="483,-1083.5 627.324,-1083.5 "/>
<text text-anchor="start" x="491" y="-1068.3" font-family="Times,serif" font-size="14.00">create</text>
<text text-anchor="start" x="491" y="-1054.3" font-family="Times,serif" font-size="14.00">destroy</text>
<text text-anchor="start" x="491" y="-1040.3" font-family="Times,serif" font-size="14.00">edit</text>
<text text-anchor="start" x="491" y="-1026.3" font-family="Times,serif" font-size="14.00">index</text>
<text text-anchor="start" x="491" y="-1012.3" font-family="Times,serif" font-size="14.00">new</text>
<text text-anchor="start" x="491" y="-998.3" font-family="Times,serif" font-size="14.00">show</text>
<text text-anchor="start" x="491" y="-984.3" font-family="Times,serif" font-size="14.00">update</text>
<polyline fill="none" stroke="black" points="483,-977.5 627.324,-977.5 "/>
<polyline fill="none" stroke="black" points="483,-953.5 627.324,-953.5 "/>
<text text-anchor="start" x="491" y="-938.3" font-family="Times,serif" font-size="14.00">_layout</text>
<text text-anchor="start" x="491" y="-924.3" font-family="Times,serif" font-size="14.00">component_params</text>
<text text-anchor="start" x="491" y="-910.3" font-family="Times,serif" font-size="14.00">set_component</text>
</g>
<!-- DelphiEstimationsController -->
<g id="node4" class="node"><title>DelphiEstimationsController</title>
<path fill="none" stroke="black" d="M180,-504.5C180,-504.5 333.759,-504.5 333.759,-504.5 339.759,-504.5 345.759,-510.5 345.759,-516.5 345.759,-516.5 345.759,-694.5 345.759,-694.5 345.759,-700.5 339.759,-706.5 333.759,-706.5 333.759,-706.5 180,-706.5 180,-706.5 174,-706.5 168,-700.5 168,-694.5 168,-694.5 168,-516.5 168,-516.5 168,-510.5 174,-504.5 180,-504.5"/>
<text text-anchor="middle" x="256.879" y="-691.3" font-family="Times,serif" font-size="14.00">DelphiEstimationsController</text>
<polyline fill="none" stroke="black" points="168,-684.5 345.759,-684.5 "/>
<text text-anchor="start" x="176" y="-669.3" font-family="Times,serif" font-size="14.00">create</text>
<text text-anchor="start" x="176" y="-655.3" font-family="Times,serif" font-size="14.00">destroy</text>
<text text-anchor="start" x="176" y="-641.3" font-family="Times,serif" font-size="14.00">edit</text>
<text text-anchor="start" x="176" y="-627.3" font-family="Times,serif" font-size="14.00">index</text>
<text text-anchor="start" x="176" y="-613.3" font-family="Times,serif" font-size="14.00">new</text>
<text text-anchor="start" x="176" y="-599.3" font-family="Times,serif" font-size="14.00">show</text>
<text text-anchor="start" x="176" y="-585.3" font-family="Times,serif" font-size="14.00">update</text>
<polyline fill="none" stroke="black" points="168,-578.5 345.759,-578.5 "/>
<polyline fill="none" stroke="black" points="168,-554.5 345.759,-554.5 "/>
<text text-anchor="start" x="176" y="-539.3" font-family="Times,serif" font-size="14.00">_layout</text>
<text text-anchor="start" x="176" y="-525.3" font-family="Times,serif" font-size="14.00">delphi_estimation_params</text>
<text text-anchor="start" x="176" y="-511.3" font-family="Times,serif" font-size="14.00">set_delphi_estimation</text>
</g>
<!-- EstimationTemplatesController -->
<g id="node5" class="node"><title>EstimationTemplatesController</title>
<path fill="none" stroke="black" d="M159,-252.5C159,-252.5 326.54,-252.5 326.54,-252.5 332.54,-252.5 338.54,-258.5 338.54,-264.5 338.54,-264.5 338.54,-442.5 338.54,-442.5 338.54,-448.5 332.54,-454.5 326.54,-454.5 326.54,-454.5 159,-454.5 159,-454.5 153,-454.5 147,-448.5 147,-442.5 147,-442.5 147,-264.5 147,-264.5 147,-258.5 153,-252.5 159,-252.5"/>
<text text-anchor="middle" x="242.77" y="-439.3" font-family="Times,serif" font-size="14.00">EstimationTemplatesController</text>
<polyline fill="none" stroke="black" points="147,-432.5 338.54,-432.5 "/>
<text text-anchor="start" x="155" y="-417.3" font-family="Times,serif" font-size="14.00">create</text>
<text text-anchor="start" x="155" y="-403.3" font-family="Times,serif" font-size="14.00">destroy</text>
<text text-anchor="start" x="155" y="-389.3" font-family="Times,serif" font-size="14.00">edit</text>
<text text-anchor="start" x="155" y="-375.3" font-family="Times,serif" font-size="14.00">index</text>
<text text-anchor="start" x="155" y="-361.3" font-family="Times,serif" font-size="14.00">new</text>
<text text-anchor="start" x="155" y="-347.3" font-family="Times,serif" font-size="14.00">show</text>
<text text-anchor="start" x="155" y="-333.3" font-family="Times,serif" font-size="14.00">update</text>
<polyline fill="none" stroke="black" points="147,-326.5 338.54,-326.5 "/>
<polyline fill="none" stroke="black" points="147,-302.5 338.54,-302.5 "/>
<text text-anchor="start" x="155" y="-287.3" font-family="Times,serif" font-size="14.00">_layout</text>
<text text-anchor="start" x="155" y="-273.3" font-family="Times,serif" font-size="14.00">estimation_template_params</text>
<text text-anchor="start" x="155" y="-259.3" font-family="Times,serif" font-size="14.00">set_estimation_template</text>
</g>
<!-- EstimationsController -->
<g id="node6" class="node"><title>EstimationsController</title>
<path fill="none" stroke="black" d="M789,-105.5C789,-105.5 904.655,-105.5 904.655,-105.5 910.655,-105.5 916.655,-111.5 916.655,-117.5 916.655,-117.5 916.655,-295.5 916.655,-295.5 916.655,-301.5 910.655,-307.5 904.655,-307.5 904.655,-307.5 789,-307.5 789,-307.5 783,-307.5 777,-301.5 777,-295.5 777,-295.5 777,-117.5 777,-117.5 777,-111.5 783,-105.5 789,-105.5"/>
<text text-anchor="middle" x="846.828" y="-292.3" font-family="Times,serif" font-size="14.00">EstimationsController</text>
<polyline fill="none" stroke="black" points="777,-285.5 916.655,-285.5 "/>
<text text-anchor="start" x="785" y="-270.3" font-family="Times,serif" font-size="14.00">create</text>
<text text-anchor="start" x="785" y="-256.3" font-family="Times,serif" font-size="14.00">destroy</text>
<text text-anchor="start" x="785" y="-242.3" font-family="Times,serif" font-size="14.00">edit</text>
<text text-anchor="start" x="785" y="-228.3" font-family="Times,serif" font-size="14.00">index</text>
<text text-anchor="start" x="785" y="-214.3" font-family="Times,serif" font-size="14.00">new</text>
<text text-anchor="start" x="785" y="-200.3" font-family="Times,serif" font-size="14.00">show</text>
<text text-anchor="start" x="785" y="-186.3" font-family="Times,serif" font-size="14.00">update</text>
<polyline fill="none" stroke="black" points="777,-179.5 916.655,-179.5 "/>
<polyline fill="none" stroke="black" points="777,-155.5 916.655,-155.5 "/>
<text text-anchor="start" x="785" y="-140.3" font-family="Times,serif" font-size="14.00">_layout</text>
<text text-anchor="start" x="785" y="-126.3" font-family="Times,serif" font-size="14.00">estimation_params</text>
<text text-anchor="start" x="785" y="-112.3" font-family="Times,serif" font-size="14.00">set_estimation</text>
</g>
<!-- ExpertFormsController -->
<g id="node7" class="node"><title>ExpertFormsController</title>
<path fill="none" stroke="black" d="M600,-105.5C600,-105.5 722.648,-105.5 722.648,-105.5 728.648,-105.5 734.648,-111.5 734.648,-117.5 734.648,-117.5 734.648,-295.5 734.648,-295.5 734.648,-301.5 728.648,-307.5 722.648,-307.5 722.648,-307.5 600,-307.5 600,-307.5 594,-307.5 588,-301.5 588,-295.5 588,-295.5 588,-117.5 588,-117.5 588,-111.5 594,-105.5 600,-105.5"/>
<text text-anchor="middle" x="661.324" y="-292.3" font-family="Times,serif" font-size="14.00">ExpertFormsController</text>
<polyline fill="none" stroke="black" points="588,-285.5 734.648,-285.5 "/>
<text text-anchor="start" x="596" y="-270.3" font-family="Times,serif" font-size="14.00">create</text>
<text text-anchor="start" x="596" y="-256.3" font-family="Times,serif" font-size="14.00">destroy</text>
<text text-anchor="start" x="596" y="-242.3" font-family="Times,serif" font-size="14.00">edit</text>
<text text-anchor="start" x="596" y="-228.3" font-family="Times,serif" font-size="14.00">index</text>
<text text-anchor="start" x="596" y="-214.3" font-family="Times,serif" font-size="14.00">new</text>
<text text-anchor="start" x="596" y="-200.3" font-family="Times,serif" font-size="14.00">show</text>
<text text-anchor="start" x="596" y="-186.3" font-family="Times,serif" font-size="14.00">update</text>
<polyline fill="none" stroke="black" points="588,-179.5 734.648,-179.5 "/>
<polyline fill="none" stroke="black" points="588,-155.5 734.648,-155.5 "/>
<text text-anchor="start" x="596" y="-140.3" font-family="Times,serif" font-size="14.00">_layout</text>
<text text-anchor="start" x="596" y="-126.3" font-family="Times,serif" font-size="14.00">expert_form_params</text>
<text text-anchor="start" x="596" y="-112.3" font-family="Times,serif" font-size="14.00">set_expert_form</text>
</g>
<!-- FormTemplatesController -->
<g id="node8" class="node"><title>FormTemplatesController</title>
<path fill="none" stroke="black" d="M390,-147.5C390,-147.5 527.216,-147.5 527.216,-147.5 533.216,-147.5 539.216,-153.5 539.216,-159.5 539.216,-159.5 539.216,-337.5 539.216,-337.5 539.216,-343.5 533.216,-349.5 527.216,-349.5 527.216,-349.5 390,-349.5 390,-349.5 384,-349.5 378,-343.5 378,-337.5 378,-337.5 378,-159.5 378,-159.5 378,-153.5 384,-147.5 390,-147.5"/>
<text text-anchor="middle" x="458.608" y="-334.3" font-family="Times,serif" font-size="14.00">FormTemplatesController</text>
<polyline fill="none" stroke="black" points="378,-327.5 539.216,-327.5 "/>
<text text-anchor="start" x="386" y="-312.3" font-family="Times,serif" font-size="14.00">create</text>
<text text-anchor="start" x="386" y="-298.3" font-family="Times,serif" font-size="14.00">destroy</text>
<text text-anchor="start" x="386" y="-284.3" font-family="Times,serif" font-size="14.00">edit</text>
<text text-anchor="start" x="386" y="-270.3" font-family="Times,serif" font-size="14.00">index</text>
<text text-anchor="start" x="386" y="-256.3" font-family="Times,serif" font-size="14.00">new</text>
<text text-anchor="start" x="386" y="-242.3" font-family="Times,serif" font-size="14.00">show</text>
<text text-anchor="start" x="386" y="-228.3" font-family="Times,serif" font-size="14.00">update</text>
<polyline fill="none" stroke="black" points="378,-221.5 539.216,-221.5 "/>
<polyline fill="none" stroke="black" points="378,-197.5 539.216,-197.5 "/>
<text text-anchor="start" x="386" y="-182.3" font-family="Times,serif" font-size="14.00">_layout</text>
<text text-anchor="start" x="386" y="-168.3" font-family="Times,serif" font-size="14.00">form_template_params</text>
<text text-anchor="start" x="386" y="-154.3" font-family="Times,serif" font-size="14.00">set_form_template</text>
</g>
<!-- ModulsController -->
<g id="node9" class="node"><title>ModulsController</title>
<path fill="none" stroke="black" d="M936,-357.5C936,-357.5 1028.33,-357.5 1028.33,-357.5 1034.33,-357.5 1040.33,-363.5 1040.33,-369.5 1040.33,-369.5 1040.33,-547.5 1040.33,-547.5 1040.33,-553.5 1034.33,-559.5 1028.33,-559.5 1028.33,-559.5 936,-559.5 936,-559.5 930,-559.5 924,-553.5 924,-547.5 924,-547.5 924,-369.5 924,-369.5 924,-363.5 930,-357.5 936,-357.5"/>
<text text-anchor="middle" x="982.166" y="-544.3" font-family="Times,serif" font-size="14.00">ModulsController</text>
<polyline fill="none" stroke="black" points="924,-537.5 1040.33,-537.5 "/>
<text text-anchor="start" x="932" y="-522.3" font-family="Times,serif" font-size="14.00">create</text>
<text text-anchor="start" x="932" y="-508.3" font-family="Times,serif" font-size="14.00">destroy</text>
<text text-anchor="start" x="932" y="-494.3" font-family="Times,serif" font-size="14.00">edit</text>
<text text-anchor="start" x="932" y="-480.3" font-family="Times,serif" font-size="14.00">index</text>
<text text-anchor="start" x="932" y="-466.3" font-family="Times,serif" font-size="14.00">new</text>
<text text-anchor="start" x="932" y="-452.3" font-family="Times,serif" font-size="14.00">show</text>
<text text-anchor="start" x="932" y="-438.3" font-family="Times,serif" font-size="14.00">update</text>
<polyline fill="none" stroke="black" points="924,-431.5 1040.33,-431.5 "/>
<polyline fill="none" stroke="black" points="924,-407.5 1040.33,-407.5 "/>
<text text-anchor="start" x="932" y="-392.3" font-family="Times,serif" font-size="14.00">_layout</text>
<text text-anchor="start" x="932" y="-378.3" font-family="Times,serif" font-size="14.00">modul_params</text>
<text text-anchor="start" x="932" y="-364.3" font-family="Times,serif" font-size="14.00">set_modul</text>
</g>
<!-- ProductBreakdownStructuresController -->
<g id="node10" class="node"><title>ProductBreakdownStructuresController</title>
<path fill="none" stroke="black" d="M390,-399.5C390,-399.5 604.4,-399.5 604.4,-399.5 610.4,-399.5 616.4,-405.5 616.4,-411.5 616.4,-411.5 616.4,-589.5 616.4,-589.5 616.4,-595.5 610.4,-601.5 604.4,-601.5 604.4,-601.5 390,-601.5 390,-601.5 384,-601.5 378,-595.5 378,-589.5 378,-589.5 378,-411.5 378,-411.5 378,-405.5 384,-399.5 390,-399.5"/>
<text text-anchor="middle" x="497.2" y="-586.3" font-family="Times,serif" font-size="14.00">ProductBreakdownStructuresController</text>
<polyline fill="none" stroke="black" points="378,-579.5 616.4,-579.5 "/>
<text text-anchor="start" x="386" y="-564.3" font-family="Times,serif" font-size="14.00">create</text>
<text text-anchor="start" x="386" y="-550.3" font-family="Times,serif" font-size="14.00">destroy</text>
<text text-anchor="start" x="386" y="-536.3" font-family="Times,serif" font-size="14.00">edit</text>
<text text-anchor="start" x="386" y="-522.3" font-family="Times,serif" font-size="14.00">index</text>
<text text-anchor="start" x="386" y="-508.3" font-family="Times,serif" font-size="14.00">new</text>
<text text-anchor="start" x="386" y="-494.3" font-family="Times,serif" font-size="14.00">show</text>
<text text-anchor="start" x="386" y="-480.3" font-family="Times,serif" font-size="14.00">update</text>
<polyline fill="none" stroke="black" points="378,-473.5 616.4,-473.5 "/>
<polyline fill="none" stroke="black" points="378,-449.5 616.4,-449.5 "/>
<text text-anchor="start" x="386" y="-434.3" font-family="Times,serif" font-size="14.00">_layout</text>
<text text-anchor="start" x="386" y="-420.3" font-family="Times,serif" font-size="14.00">product_breakdown_structure_params</text>
<text text-anchor="start" x="386" y="-406.3" font-family="Times,serif" font-size="14.00">set_product_breakdown_structure</text>
</g>
<!-- ProjectsController -->
<g id="node11" class="node"><title>ProjectsController</title>
<path fill="none" stroke="black" d="M957,-609.5C957,-609.5 1051.65,-609.5 1051.65,-609.5 1057.65,-609.5 1063.65,-615.5 1063.65,-621.5 1063.65,-621.5 1063.65,-799.5 1063.65,-799.5 1063.65,-805.5 1057.65,-811.5 1051.65,-811.5 1051.65,-811.5 957,-811.5 957,-811.5 951,-811.5 945,-805.5 945,-799.5 945,-799.5 945,-621.5 945,-621.5 945,-615.5 951,-609.5 957,-609.5"/>
<text text-anchor="middle" x="1004.32" y="-796.3" font-family="Times,serif" font-size="14.00">ProjectsController</text>
<polyline fill="none" stroke="black" points="945,-789.5 1063.65,-789.5 "/>
<text text-anchor="start" x="953" y="-774.3" font-family="Times,serif" font-size="14.00">create</text>
<text text-anchor="start" x="953" y="-760.3" font-family="Times,serif" font-size="14.00">destroy</text>
<text text-anchor="start" x="953" y="-746.3" font-family="Times,serif" font-size="14.00">edit</text>
<text text-anchor="start" x="953" y="-732.3" font-family="Times,serif" font-size="14.00">index</text>
<text text-anchor="start" x="953" y="-718.3" font-family="Times,serif" font-size="14.00">new</text>
<text text-anchor="start" x="953" y="-704.3" font-family="Times,serif" font-size="14.00">show</text>
<text text-anchor="start" x="953" y="-690.3" font-family="Times,serif" font-size="14.00">update</text>
<polyline fill="none" stroke="black" points="945,-683.5 1063.65,-683.5 "/>
<polyline fill="none" stroke="black" points="945,-659.5 1063.65,-659.5 "/>
<text text-anchor="start" x="953" y="-644.3" font-family="Times,serif" font-size="14.00">_layout</text>
<text text-anchor="start" x="953" y="-630.3" font-family="Times,serif" font-size="14.00">project_params</text>
<text text-anchor="start" x="953" y="-616.3" font-family="Times,serif" font-size="14.00">set_project</text>
</g>
<!-- ResourceAllocationMatricesController -->
<g id="node12" class="node"><title>ResourceAllocationMatricesController</title>
<path fill="none" stroke="black" d="M390,-651.5C390,-651.5 599.711,-651.5 599.711,-651.5 605.711,-651.5 611.711,-657.5 611.711,-663.5 611.711,-663.5 611.711,-841.5 611.711,-841.5 611.711,-847.5 605.711,-853.5 599.711,-853.5 599.711,-853.5 390,-853.5 390,-853.5 384,-853.5 378,-847.5 378,-841.5 378,-841.5 378,-663.5 378,-663.5 378,-657.5 384,-651.5 390,-651.5"/>
<text text-anchor="middle" x="494.855" y="-838.3" font-family="Times,serif" font-size="14.00">ResourceAllocationMatricesController</text>
<polyline fill="none" stroke="black" points="378,-831.5 611.711,-831.5 "/>
<text text-anchor="start" x="386" y="-816.3" font-family="Times,serif" font-size="14.00">create</text>
<text text-anchor="start" x="386" y="-802.3" font-family="Times,serif" font-size="14.00">destroy</text>
<text text-anchor="start" x="386" y="-788.3" font-family="Times,serif" font-size="14.00">edit</text>
<text text-anchor="start" x="386" y="-774.3" font-family="Times,serif" font-size="14.00">index</text>
<text text-anchor="start" x="386" y="-760.3" font-family="Times,serif" font-size="14.00">new</text>
<text text-anchor="start" x="386" y="-746.3" font-family="Times,serif" font-size="14.00">show</text>
<text text-anchor="start" x="386" y="-732.3" font-family="Times,serif" font-size="14.00">update</text>
<polyline fill="none" stroke="black" points="378,-725.5 611.711,-725.5 "/>
<polyline fill="none" stroke="black" points="378,-701.5 611.711,-701.5 "/>
<text text-anchor="start" x="386" y="-686.3" font-family="Times,serif" font-size="14.00">_layout</text>
<text text-anchor="start" x="386" y="-672.3" font-family="Times,serif" font-size="14.00">resource_allocation_matrix_params</text>
<text text-anchor="start" x="386" y="-658.3" font-family="Times,serif" font-size="14.00">set_resource_allocation_matrix</text>
</g>
<!-- ResourceBreakdownStructuresController -->
<g id="node13" class="node"><title>ResourceBreakdownStructuresController</title>
<path fill="none" stroke="black" d="M663,-609.5C663,-609.5 885.938,-609.5 885.938,-609.5 891.938,-609.5 897.938,-615.5 897.938,-621.5 897.938,-621.5 897.938,-799.5 897.938,-799.5 897.938,-805.5 891.938,-811.5 885.938,-811.5 885.938,-811.5 663,-811.5 663,-811.5 657,-811.5 651,-805.5 651,-799.5 651,-799.5 651,-621.5 651,-621.5 651,-615.5 657,-609.5 663,-609.5"/>
<text text-anchor="middle" x="774.469" y="-796.3" font-family="Times,serif" font-size="14.00">ResourceBreakdownStructuresController</text>
<polyline fill="none" stroke="black" points="651,-789.5 897.938,-789.5 "/>
<text text-anchor="start" x="659" y="-774.3" font-family="Times,serif" font-size="14.00">create</text>
<text text-anchor="start" x="659" y="-760.3" font-family="Times,serif" font-size="14.00">destroy</text>
<text text-anchor="start" x="659" y="-746.3" font-family="Times,serif" font-size="14.00">edit</text>
<text text-anchor="start" x="659" y="-732.3" font-family="Times,serif" font-size="14.00">index</text>
<text text-anchor="start" x="659" y="-718.3" font-family="Times,serif" font-size="14.00">new</text>
<text text-anchor="start" x="659" y="-704.3" font-family="Times,serif" font-size="14.00">show</text>
<text text-anchor="start" x="659" y="-690.3" font-family="Times,serif" font-size="14.00">update</text>
<polyline fill="none" stroke="black" points="651,-683.5 897.938,-683.5 "/>
<polyline fill="none" stroke="black" points="651,-659.5 897.938,-659.5 "/>
<text text-anchor="start" x="659" y="-644.3" font-family="Times,serif" font-size="14.00">_layout</text>
<text text-anchor="start" x="659" y="-630.3" font-family="Times,serif" font-size="14.00">resource_breakdown_structure_params</text>
<text text-anchor="start" x="659" y="-616.3" font-family="Times,serif" font-size="14.00">set_resource_breakdown_structure</text>
</g>
<!-- ResourcesController -->
<g id="node14" class="node"><title>ResourcesController</title>
<path fill="none" stroke="black" d="M873,-861.5C873,-861.5 980.083,-861.5 980.083,-861.5 986.083,-861.5 992.083,-867.5 992.083,-873.5 992.083,-873.5 992.083,-1051.5 992.083,-1051.5 992.083,-1057.5 986.083,-1063.5 980.083,-1063.5 980.083,-1063.5 873,-1063.5 873,-1063.5 867,-1063.5 861,-1057.5 861,-1051.5 861,-1051.5 861,-873.5 861,-873.5 861,-867.5 867,-861.5 873,-861.5"/>
<text text-anchor="middle" x="926.542" y="-1048.3" font-family="Times,serif" font-size="14.00">ResourcesController</text>
<polyline fill="none" stroke="black" points="861,-1041.5 992.083,-1041.5 "/>
<text text-anchor="start" x="869" y="-1026.3" font-family="Times,serif" font-size="14.00">create</text>
<text text-anchor="start" x="869" y="-1012.3" font-family="Times,serif" font-size="14.00">destroy</text>
<text text-anchor="start" x="869" y="-998.3" font-family="Times,serif" font-size="14.00">edit</text>
<text text-anchor="start" x="869" y="-984.3" font-family="Times,serif" font-size="14.00">index</text>
<text text-anchor="start" x="869" y="-970.3" font-family="Times,serif" font-size="14.00">new</text>
<text text-anchor="start" x="869" y="-956.3" font-family="Times,serif" font-size="14.00">show</text>
<text text-anchor="start" x="869" y="-942.3" font-family="Times,serif" font-size="14.00">update</text>
<polyline fill="none" stroke="black" points="861,-935.5 992.083,-935.5 "/>
<polyline fill="none" stroke="black" points="861,-911.5 992.083,-911.5 "/>
<text text-anchor="start" x="869" y="-896.3" font-family="Times,serif" font-size="14.00">_layout</text>
<text text-anchor="start" x="869" y="-882.3" font-family="Times,serif" font-size="14.00">resource_params</text>
<text text-anchor="start" x="869" y="-868.3" font-family="Times,serif" font-size="14.00">set_resource</text>
</g>
<!-- RolesController -->
<g id="node15" class="node"><title>RolesController</title>
<path fill="none" stroke="black" d="M12,-0.5C12,-0.5 93.4346,-0.5 93.4346,-0.5 99.4346,-0.5 105.435,-6.5 105.435,-12.5 105.435,-12.5 105.435,-190.5 105.435,-190.5 105.435,-196.5 99.4346,-202.5 93.4346,-202.5 93.4346,-202.5 12,-202.5 12,-202.5 6,-202.5 0,-196.5 0,-190.5 0,-190.5 0,-12.5 0,-12.5 0,-6.5 6,-0.5 12,-0.5"/>
<text text-anchor="middle" x="52.7173" y="-187.3" font-family="Times,serif" font-size="14.00">RolesController</text>
<polyline fill="none" stroke="black" points="0,-180.5 105.435,-180.5 "/>
<text text-anchor="start" x="8" y="-165.3" font-family="Times,serif" font-size="14.00">create</text>
<text text-anchor="start" x="8" y="-151.3" font-family="Times,serif" font-size="14.00">destroy</text>
<text text-anchor="start" x="8" y="-137.3" font-family="Times,serif" font-size="14.00">edit</text>
<text text-anchor="start" x="8" y="-123.3" font-family="Times,serif" font-size="14.00">index</text>
<text text-anchor="start" x="8" y="-109.3" font-family="Times,serif" font-size="14.00">new</text>
<text text-anchor="start" x="8" y="-95.3" font-family="Times,serif" font-size="14.00">show</text>
<text text-anchor="start" x="8" y="-81.3" font-family="Times,serif" font-size="14.00">update</text>
<polyline fill="none" stroke="black" points="0,-74.5 105.435,-74.5 "/>
<polyline fill="none" stroke="black" points="0,-50.5 105.435,-50.5 "/>
<text text-anchor="start" x="8" y="-35.3" font-family="Times,serif" font-size="14.00">_layout</text>
<text text-anchor="start" x="8" y="-21.3" font-family="Times,serif" font-size="14.00">role_params</text>
<text text-anchor="start" x="8" y="-7.3" font-family="Times,serif" font-size="14.00">set_role</text>
</g>
<!-- RoundsController -->
<g id="node16" class="node"><title>RoundsController</title>
<path fill="none" stroke="black" d="M978,-42.5C978,-42.5 1070.33,-42.5 1070.33,-42.5 1076.33,-42.5 1082.33,-48.5 1082.33,-54.5 1082.33,-54.5 1082.33,-232.5 1082.33,-232.5 1082.33,-238.5 1076.33,-244.5 1070.33,-244.5 1070.33,-244.5 978,-244.5 978,-244.5 972,-244.5 966,-238.5 966,-232.5 966,-232.5 966,-54.5 966,-54.5 966,-48.5 972,-42.5 978,-42.5"/>
<text text-anchor="middle" x="1024.17" y="-229.3" font-family="Times,serif" font-size="14.00">RoundsController</text>
<polyline fill="none" stroke="black" points="966,-222.5 1082.33,-222.5 "/>
<text text-anchor="start" x="974" y="-207.3" font-family="Times,serif" font-size="14.00">create</text>
<text text-anchor="start" x="974" y="-193.3" font-family="Times,serif" font-size="14.00">destroy</text>
<text text-anchor="start" x="974" y="-179.3" font-family="Times,serif" font-size="14.00">edit</text>
<text text-anchor="start" x="974" y="-165.3" font-family="Times,serif" font-size="14.00">index</text>
<text text-anchor="start" x="974" y="-151.3" font-family="Times,serif" font-size="14.00">new</text>
<text text-anchor="start" x="974" y="-137.3" font-family="Times,serif" font-size="14.00">show</text>
<text text-anchor="start" x="974" y="-123.3" font-family="Times,serif" font-size="14.00">update</text>
<polyline fill="none" stroke="black" points="966,-116.5 1082.33,-116.5 "/>
<polyline fill="none" stroke="black" points="966,-92.5 1082.33,-92.5 "/>
<text text-anchor="start" x="974" y="-77.3" font-family="Times,serif" font-size="14.00">_layout</text>
<text text-anchor="start" x="974" y="-63.3" font-family="Times,serif" font-size="14.00">round_params</text>
<text text-anchor="start" x="974" y="-49.3" font-family="Times,serif" font-size="14.00">set_round</text>
</g>
<!-- SubproductsController -->
<g id="node17" class="node"><title>SubproductsController</title>
<path fill="none" stroke="black" d="M684,-861.5C684,-861.5 803.545,-861.5 803.545,-861.5 809.545,-861.5 815.545,-867.5 815.545,-873.5 815.545,-873.5 815.545,-1051.5 815.545,-1051.5 815.545,-1057.5 809.545,-1063.5 803.545,-1063.5 803.545,-1063.5 684,-1063.5 684,-1063.5 678,-1063.5 672,-1057.5 672,-1051.5 672,-1051.5 672,-873.5 672,-873.5 672,-867.5 678,-861.5 684,-861.5"/>
<text text-anchor="middle" x="743.772" y="-1048.3" font-family="Times,serif" font-size="14.00">SubproductsController</text>
<polyline fill="none" stroke="black" points="672,-1041.5 815.545,-1041.5 "/>
<text text-anchor="start" x="680" y="-1026.3" font-family="Times,serif" font-size="14.00">create</text>
<text text-anchor="start" x="680" y="-1012.3" font-family="Times,serif" font-size="14.00">destroy</text>
<text text-anchor="start" x="680" y="-998.3" font-family="Times,serif" font-size="14.00">edit</text>
<text text-anchor="start" x="680" y="-984.3" font-family="Times,serif" font-size="14.00">index</text>
<text text-anchor="start" x="680" y="-970.3" font-family="Times,serif" font-size="14.00">new</text>
<text text-anchor="start" x="680" y="-956.3" font-family="Times,serif" font-size="14.00">show</text>
<text text-anchor="start" x="680" y="-942.3" font-family="Times,serif" font-size="14.00">update</text>
<polyline fill="none" stroke="black" points="672,-935.5 815.545,-935.5 "/>
<polyline fill="none" stroke="black" points="672,-911.5 815.545,-911.5 "/>
<text text-anchor="start" x="680" y="-896.3" font-family="Times,serif" font-size="14.00">_layout</text>
<text text-anchor="start" x="680" y="-882.3" font-family="Times,serif" font-size="14.00">set_subproduct</text>
<text text-anchor="start" x="680" y="-868.3" font-family="Times,serif" font-size="14.00">subproduct_params</text>
</g>
<!-- SubtasksController -->
<g id="node18" class="node"><title>SubtasksController</title>
<path fill="none" stroke="black" d="M33,-987.5C33,-987.5 132.331,-987.5 132.331,-987.5 138.331,-987.5 144.331,-993.5 144.331,-999.5 144.331,-999.5 144.331,-1177.5 144.331,-1177.5 144.331,-1183.5 138.331,-1189.5 132.331,-1189.5 132.331,-1189.5 33,-1189.5 33,-1189.5 27,-1189.5 21,-1183.5 21,-1177.5 21,-1177.5 21,-999.5 21,-999.5 21,-993.5 27,-987.5 33,-987.5"/>
<text text-anchor="middle" x="82.6655" y="-1174.3" font-family="Times,serif" font-size="14.00">SubtasksController</text>
<polyline fill="none" stroke="black" points="21,-1167.5 144.331,-1167.5 "/>
<text text-anchor="start" x="29" y="-1152.3" font-family="Times,serif" font-size="14.00">create</text>
<text text-anchor="start" x="29" y="-1138.3" font-family="Times,serif" font-size="14.00">destroy</text>
<text text-anchor="start" x="29" y="-1124.3" font-family="Times,serif" font-size="14.00">edit</text>
<text text-anchor="start" x="29" y="-1110.3" font-family="Times,serif" font-size="14.00">index</text>
<text text-anchor="start" x="29" y="-1096.3" font-family="Times,serif" font-size="14.00">new</text>
<text text-anchor="start" x="29" y="-1082.3" font-family="Times,serif" font-size="14.00">show</text>
<text text-anchor="start" x="29" y="-1068.3" font-family="Times,serif" font-size="14.00">update</text>
<polyline fill="none" stroke="black" points="21,-1061.5 144.331,-1061.5 "/>
<polyline fill="none" stroke="black" points="21,-1037.5 144.331,-1037.5 "/>
<text text-anchor="start" x="29" y="-1022.3" font-family="Times,serif" font-size="14.00">_layout</text>
<text text-anchor="start" x="29" y="-1008.3" font-family="Times,serif" font-size="14.00">set_subtask</text>
<text text-anchor="start" x="29" y="-994.3" font-family="Times,serif" font-size="14.00">subtask_params</text>
</g>
<!-- TasksController -->
<g id="node19" class="node"><title>TasksController</title>
<path fill="none" stroke="black" d="M33,-504.5C33,-504.5 114.229,-504.5 114.229,-504.5 120.229,-504.5 126.229,-510.5 126.229,-516.5 126.229,-516.5 126.229,-694.5 126.229,-694.5 126.229,-700.5 120.229,-706.5 114.229,-706.5 114.229,-706.5 33,-706.5 33,-706.5 27,-706.5 21,-700.5 21,-694.5 21,-694.5 21,-516.5 21,-516.5 21,-510.5 27,-504.5 33,-504.5"/>
<text text-anchor="middle" x="73.6147" y="-691.3" font-family="Times,serif" font-size="14.00">TasksController</text>
<polyline fill="none" stroke="black" points="21,-684.5 126.229,-684.5 "/>
<text text-anchor="start" x="29" y="-669.3" font-family="Times,serif" font-size="14.00">create</text>
<text text-anchor="start" x="29" y="-655.3" font-family="Times,serif" font-size="14.00">destroy</text>
<text text-anchor="start" x="29" y="-641.3" font-family="Times,serif" font-size="14.00">edit</text>
<text text-anchor="start" x="29" y="-627.3" font-family="Times,serif" font-size="14.00">index</text>
<text text-anchor="start" x="29" y="-613.3" font-family="Times,serif" font-size="14.00">new</text>
<text text-anchor="start" x="29" y="-599.3" font-family="Times,serif" font-size="14.00">show</text>
<text text-anchor="start" x="29" y="-585.3" font-family="Times,serif" font-size="14.00">update</text>
<polyline fill="none" stroke="black" points="21,-578.5 126.229,-578.5 "/>
<polyline fill="none" stroke="black" points="21,-554.5 126.229,-554.5 "/>
<text text-anchor="start" x="29" y="-539.3" font-family="Times,serif" font-size="14.00">_layout</text>
<text text-anchor="start" x="29" y="-525.3" font-family="Times,serif" font-size="14.00">set_task</text>
<text text-anchor="start" x="29" y="-511.3" font-family="Times,serif" font-size="14.00">task_params</text>
</g>
<!-- TypesController -->
<g id="node20" class="node"><title>TypesController</title>
<path fill="none" stroke="black" d="M12,-252.5C12,-252.5 94.7812,-252.5 94.7812,-252.5 100.781,-252.5 106.781,-258.5 106.781,-264.5 106.781,-264.5 106.781,-442.5 106.781,-442.5 106.781,-448.5 100.781,-454.5 94.7812,-454.5 94.7812,-454.5 12,-454.5 12,-454.5 6,-454.5 0,-448.5 0,-442.5 0,-442.5 0,-264.5 0,-264.5 0,-258.5 6,-252.5 12,-252.5"/>
<text text-anchor="middle" x="53.3906" y="-439.3" font-family="Times,serif" font-size="14.00">TypesController</text>
<polyline fill="none" stroke="black" points="0,-432.5 106.781,-432.5 "/>
<text text-anchor="start" x="8" y="-417.3" font-family="Times,serif" font-size="14.00">create</text>
<text text-anchor="start" x="8" y="-403.3" font-family="Times,serif" font-size="14.00">destroy</text>
<text text-anchor="start" x="8" y="-389.3" font-family="Times,serif" font-size="14.00">edit</text>
<text text-anchor="start" x="8" y="-375.3" font-family="Times,serif" font-size="14.00">index</text>
<text text-anchor="start" x="8" y="-361.3" font-family="Times,serif" font-size="14.00">new</text>
<text text-anchor="start" x="8" y="-347.3" font-family="Times,serif" font-size="14.00">show</text>
<text text-anchor="start" x="8" y="-333.3" font-family="Times,serif" font-size="14.00">update</text>
<polyline fill="none" stroke="black" points="0,-326.5 106.781,-326.5 "/>
<polyline fill="none" stroke="black" points="0,-302.5 106.781,-302.5 "/>
<text text-anchor="start" x="8" y="-287.3" font-family="Times,serif" font-size="14.00">_layout</text>
<text text-anchor="start" x="8" y="-273.3" font-family="Times,serif" font-size="14.00">set_type</text>
<text text-anchor="start" x="8" y="-259.3" font-family="Times,serif" font-size="14.00">type_params</text>
</g>
<!-- WorkBreakdownStructuresController -->
<g id="node21" class="node"><title>WorkBreakdownStructuresController</title>
<path fill="none" stroke="black" d="M663,-357.5C663,-357.5 864.61,-357.5 864.61,-357.5 870.61,-357.5 876.61,-363.5 876.61,-369.5 876.61,-369.5 876.61,-561.5 876.61,-561.5 876.61,-567.5 870.61,-573.5 864.61,-573.5 864.61,-573.5 663,-573.5 663,-573.5 657,-573.5 651,-567.5 651,-561.5 651,-561.5 651,-369.5 651,-369.5 651,-363.5 657,-357.5 663,-357.5"/>
<text text-anchor="middle" x="763.805" y="-558.3" font-family="Times,serif" font-size="14.00">WorkBreakdownStructuresController</text>
<polyline fill="none" stroke="black" points="651,-551.5 876.61,-551.5 "/>
<text text-anchor="start" x="659" y="-536.3" font-family="Times,serif" font-size="14.00">create</text>
<text text-anchor="start" x="659" y="-522.3" font-family="Times,serif" font-size="14.00">destroy</text>
<text text-anchor="start" x="659" y="-508.3" font-family="Times,serif" font-size="14.00">edit</text>
<text text-anchor="start" x="659" y="-494.3" font-family="Times,serif" font-size="14.00">index</text>
<text text-anchor="start" x="659" y="-480.3" font-family="Times,serif" font-size="14.00">new</text>
<text text-anchor="start" x="659" y="-466.3" font-family="Times,serif" font-size="14.00">show</text>
<text text-anchor="start" x="659" y="-452.3" font-family="Times,serif" font-size="14.00">update</text>
<text text-anchor="start" x="659" y="-438.3" font-family="Times,serif" font-size="14.00">work_breakdown_chart</text>
<polyline fill="none" stroke="black" points="651,-431.5 876.61,-431.5 "/>
<polyline fill="none" stroke="black" points="651,-407.5 876.61,-407.5 "/>
<text text-anchor="start" x="659" y="-392.3" font-family="Times,serif" font-size="14.00">_layout</text>
<text text-anchor="start" x="659" y="-378.3" font-family="Times,serif" font-size="14.00">set_work_breakdown_structure</text>
<text text-anchor="start" x="659" y="-364.3" font-family="Times,serif" font-size="14.00">work_breakdown_structure_params</text>
</g>
<!-- WorkpackagesController -->
<g id="node22" class="node"><title>WorkpackagesController</title>
<path fill="none" stroke="black" d="M201,-819.5C201,-819.5 332.61,-819.5 332.61,-819.5 338.61,-819.5 344.61,-825.5 344.61,-831.5 344.61,-831.5 344.61,-1009.5 344.61,-1009.5 344.61,-1015.5 338.61,-1021.5 332.61,-1021.5 332.61,-1021.5 201,-1021.5 201,-1021.5 195,-1021.5 189,-1015.5 189,-1009.5 189,-1009.5 189,-831.5 189,-831.5 189,-825.5 195,-819.5 201,-819.5"/>
<text text-anchor="middle" x="266.805" y="-1006.3" font-family="Times,serif" font-size="14.00">WorkpackagesController</text>
<polyline fill="none" stroke="black" points="189,-999.5 344.61,-999.5 "/>
<text text-anchor="start" x="197" y="-984.3" font-family="Times,serif" font-size="14.00">create</text>
<text text-anchor="start" x="197" y="-970.3" font-family="Times,serif" font-size="14.00">destroy</text>
<text text-anchor="start" x="197" y="-956.3" font-family="Times,serif" font-size="14.00">edit</text>
<text text-anchor="start" x="197" y="-942.3" font-family="Times,serif" font-size="14.00">index</text>
<text text-anchor="start" x="197" y="-928.3" font-family="Times,serif" font-size="14.00">new</text>
<text text-anchor="start" x="197" y="-914.3" font-family="Times,serif" font-size="14.00">show</text>
<text text-anchor="start" x="197" y="-900.3" font-family="Times,serif" font-size="14.00">update</text>
<polyline fill="none" stroke="black" points="189,-893.5 344.61,-893.5 "/>
<polyline fill="none" stroke="black" points="189,-869.5 344.61,-869.5 "/>
<text text-anchor="start" x="197" y="-854.3" font-family="Times,serif" font-size="14.00">_layout</text>
<text text-anchor="start" x="197" y="-840.3" font-family="Times,serif" font-size="14.00">set_workpackage</text>
<text text-anchor="start" x="197" y="-826.3" font-family="Times,serif" font-size="14.00">workpackage_params</text>
</g>
</g>
</svg>
