<?xml version="1.0" encoding="UTF-8" standalone="no"?>
<!DOCTYPE svg PUBLIC "-//W3C//DTD SVG 1.1//EN"
 "http://www.w3.org/Graphics/SVG/1.1/DTD/svg11.dtd">
<!-- Generated by graphviz version 2.36.0 (20140111.2315)
 -->
<!-- Title: controllers_diagram Pages: 1 -->
<svg width="1097pt" height="1261pt"
 viewBox="0.00 0.00 1096.54 1261.00" xmlns="http://www.w3.org/2000/svg" xmlns:xlink="http://www.w3.org/1999/xlink">
<g id="graph0" class="graph" transform="scale(1 1) rotate(0) translate(4 1257)">
<title>controllers_diagram</title>
<polygon fill="none" stroke="none" points="-4,4 -4,-1257 1092.54,-1257 1092.54,4 -4,4"/>
<!-- _diagram_info -->
<g id="node1" class="node"><title>_diagram_info</title>
<text text-anchor="start" x="323" y="-79.6" font-family="Times,serif" font-size="13.00">Controllers diagram</text>
<text text-anchor="start" x="323" y="-66.6" font-family="Times,serif" font-size="13.00">Date: Jan 28 2016 &#45; 20:25</text>
<text text-anchor="start" x="323" y="-53.6" font-family="Times,serif" font-size="13.00">Migration version: 20160127163157</text>
<text text-anchor="start" x="323" y="-40.6" font-family="Times,serif" font-size="13.00">Generated by RailRoady 1.4.2</text>
<text text-anchor="start" x="323" y="-27.6" font-family="Times,serif" font-size="13.00">http://railroady.prestonlee.com</text>
</g>
<!-- ApplicationController -->
<g id="node2" class="node"><title>ApplicationController</title>
<path fill="none" stroke="black" d="M33,-819.5C33,-819.5 148.642,-819.5 148.642,-819.5 154.642,-819.5 160.642,-825.5 160.642,-831.5 160.642,-831.5 160.642,-899.5 160.642,-899.5 160.642,-905.5 154.642,-911.5 148.642,-911.5 148.642,-911.5 33,-911.5 33,-911.5 27,-911.5 21,-905.5 21,-899.5 21,-899.5 21,-831.5 21,-831.5 21,-825.5 27,-819.5 33,-819.5"/>
<text text-anchor="middle" x="90.8208" y="-896.3" font-family="Times,serif" font-size="14.00">ApplicationController</text>
<polyline fill="none" stroke="black" points="21,-889.5 160.642,-889.5 "/>
<polyline fill="none" stroke="black" points="21,-865.5 160.642,-865.5 "/>
<polyline fill="none" stroke="black" points="21,-841.5 160.642,-841.5 "/>
<text text-anchor="start" x="29" y="-826.3" font-family="Times,serif" font-size="14.00">_layout</text>
</g>
<!-- ComponentsController -->
<g id="node3" class="node"><title>ComponentsController</title>
<path fill="none" stroke="black" d="M936,-588.5C936,-588.5 1056.32,-588.5 1056.32,-588.5 1062.32,-588.5 1068.32,-594.5 1068.32,-600.5 1068.32,-600.5 1068.32,-778.5 1068.32,-778.5 1068.32,-784.5 1062.32,-790.5 1056.32,-790.5 1056.32,-790.5 936,-790.5 936,-790.5 930,-790.5 924,-784.5 924,-778.5 924,-778.5 924,-600.5 924,-600.5 924,-594.5 930,-588.5 936,-588.5"/>
<text text-anchor="middle" x="996.162" y="-775.3" font-family="Times,serif" font-size="14.00">ComponentsController</text>
<polyline fill="none" stroke="black" points="924,-768.5 1068.32,-768.5 "/>
<text text-anchor="start" x="932" y="-753.3" font-family="Times,serif" font-size="14.00">create</text>
<text text-anchor="start" x="932" y="-739.3" font-family="Times,serif" font-size="14.00">destroy</text>
<text text-anchor="start" x="932" y="-725.3" font-family="Times,serif" font-size="14.00">edit</text>
<text text-anchor="start" x="932" y="-711.3" font-family="Times,serif" font-size="14.00">index</text>
<text text-anchor="start" x="932" y="-697.3" font-family="Times,serif" font-size="14.00">new</text>
<text text-anchor="start" x="932" y="-683.3" font-family="Times,serif" font-size="14.00">show</text>
<text text-anchor="start" x="932" y="-669.3" font-family="Times,serif" font-size="14.00">update</text>
<polyline fill="none" stroke="black" points="924,-662.5 1068.32,-662.5 "/>
<polyline fill="none" stroke="black" points="924,-638.5 1068.32,-638.5 "/>
<text text-anchor="start" x="932" y="-623.3" font-family="Times,serif" font-size="14.00">_layout</text>
<text text-anchor="start" x="932" y="-609.3" font-family="Times,serif" font-size="14.00">component_params</text>
<text text-anchor="start" x="932" y="-595.3" font-family="Times,serif" font-size="14.00">set_component</text>
</g>
<!-- DelphiEstimationsController -->
<g id="node4" class="node"><title>DelphiEstimationsController</title>
<path fill="none" stroke="black" d="M180,-504.5C180,-504.5 333.759,-504.5 333.759,-504.5 339.759,-504.5 345.759,-510.5 345.759,-516.5 345.759,-516.5 345.759,-694.5 345.759,-694.5 345.759,-700.5 339.759,-706.5 333.759,-706.5 333.759,-706.5 180,-706.5 180,-706.5 174,-706.5 168,-700.5 168,-694.5 168,-694.5 168,-516.5 168,-516.5 168,-510.5 174,-504.5 180,-504.5"/>
<text text-anchor="middle" x="256.879" y="-691.3" font-family="Times,serif" font-size="14.00">DelphiEstimationsController</text>
<polyline fill="none" stroke="black" points="168,-684.5 345.759,-684.5 "/>
<text text-anchor="start" x="176" y="-669.3" font-family="Times,serif" font-size="14.00">create</text>
<text text-anchor="start" x="176" y="-655.3" font-family="Times,serif" font-size="14.00">destroy</text>
<text text-anchor="start" x="176" y="-641.3" font-family="Times,serif" font-size="14.00">edit</text>
<text text-anchor="start" x="176" y="-627.3" font-family="Times,serif" font-size="14.00">index</text>
<text text-anchor="start" x="176" y="-613.3" font-family="Times,serif" font-size="14.00">new</text>
<text text-anchor="start" x="176" y="-599.3" font-family="Times,serif" font-size="14.00">show</text>
<text text-anchor="start" x="176" y="-585.3" font-family="Times,serif" font-size="14.00">update</text>
<polyline fill="none" stroke="black" points="168,-578.5 345.759,-578.5 "/>
<polyline fill="none" stroke="black" points="168,-554.5 345.759,-554.5 "/>
<text text-anchor="start" x="176" y="-539.3" font-family="Times,serif" font-size="14.00">_layout</text>
<text text-anchor="start" x="176" y="-525.3" font-family="Times,serif" font-size="14.00">delphi_estimation_params</text>
<text text-anchor="start" x="176" y="-511.3" font-family="Times,serif" font-size="14.00">set_delphi_estimation</text>
</g>
<!-- EstimationTemplatesController -->
<g id="node5" class="node"><title>EstimationTemplatesController</title>
<path fill="none" stroke="black" d="M159,-252.5C159,-252.5 326.54,-252.5 326.54,-252.5 332.54,-252.5 338.54,-258.5 338.54,-264.5 338.54,-264.5 338.54,-442.5 338.54,-442.5 338.54,-448.5 332.54,-454.5 326.54,-454.5 326.54,-454.5 159,-454.5 159,-454.5 153,-454.5 147,-448.5 147,-442.5 147,-442.5 147,-264.5 147,-264.5 147,-258.5 153,-252.5 159,-252.5"/>
<text text-anchor="middle" x="242.77" y="-439.3" font-family="Times,serif" font-size="14.00">EstimationTemplatesController</text>
<polyline fill="none" stroke="black" points="147,-432.5 338.54,-432.5 "/>
<text text-anchor="start" x="155" y="-417.3" font-family="Times,serif" font-size="14.00">create</text>
<text text-anchor="start" x="155" y="-403.3" font-family="Times,serif" font-size="14.00">destroy</text>
<text text-anchor="start" x="155" y="-389.3" font-family="Times,serif" font-size="14.00">edit</text>
<text text-anchor="start" x="155" y="-375.3" font-family="Times,serif" font-size="14.00">index</text>
<text text-anchor="start" x="155" y="-361.3" font-family="Times,serif" font-size="14.00">new</text>
<text text-anchor="start" x="155" y="-347.3" font-family="Times,serif" font-size="14.00">show</text>
<text text-anchor="start" x="155" y="-333.3" font-family="Times,serif" font-size="14.00">update</text>
<polyline fill="none" stroke="black" points="147,-326.5 338.54,-326.5 "/>
<polyline fill="none" stroke="black" points="147,-302.5 338.54,-302.5 "/>
<text text-anchor="start" x="155" y="-287.3" font-family="Times,serif" font-size="14.00">_layout</text>
<text text-anchor="start" x="155" y="-273.3" font-family="Times,serif" font-size="14.00">estimation_template_params</text>
<text text-anchor="start" x="155" y="-259.3" font-family="Times,serif" font-size="14.00">set_estimation_template</text>
</g>
<!-- EstimationsController -->
<g id="node6" class="node"><title>EstimationsController</title>
<path fill="none" stroke="black" d="M936,-840.5C936,-840.5 1051.66,-840.5 1051.66,-840.5 1057.66,-840.5 1063.66,-846.5 1063.66,-852.5 1063.66,-852.5 1063.66,-1030.5 1063.66,-1030.5 1063.66,-1036.5 1057.66,-1042.5 1051.66,-1042.5 1051.66,-1042.5 936,-1042.5 936,-1042.5 930,-1042.5 924,-1036.5 924,-1030.5 924,-1030.5 924,-852.5 924,-852.5 924,-846.5 930,-840.5 936,-840.5"/>
<text text-anchor="middle" x="993.828" y="-1027.3" font-family="Times,serif" font-size="14.00">EstimationsController</text>
<polyline fill="none" stroke="black" points="924,-1020.5 1063.66,-1020.5 "/>
<text text-anchor="start" x="932" y="-1005.3" font-family="Times,serif" font-size="14.00">create</text>
<text text-anchor="start" x="932" y="-991.3" font-family="Times,serif" font-size="14.00">destroy</text>
<text text-anchor="start" x="932" y="-977.3" font-family="Times,serif" font-size="14.00">edit</text>
<text text-anchor="start" x="932" y="-963.3" font-family="Times,serif" font-size="14.00">index</text>
<text text-anchor="start" x="932" y="-949.3" font-family="Times,serif" font-size="14.00">new</text>
<text text-anchor="start" x="932" y="-935.3" font-family="Times,serif" font-size="14.00">show</text>
<text text-anchor="start" x="932" y="-921.3" font-family="Times,serif" font-size="14.00">update</text>
<polyline fill="none" stroke="black" points="924,-914.5 1063.66,-914.5 "/>
<polyline fill="none" stroke="black" points="924,-890.5 1063.66,-890.5 "/>
<text text-anchor="start" x="932" y="-875.3" font-family="Times,serif" font-size="14.00">_layout</text>
<text text-anchor="start" x="932" y="-861.3" font-family="Times,serif" font-size="14.00">estimation_params</text>
<text text-anchor="start" x="932" y="-847.3" font-family="Times,serif" font-size="14.00">set_estimation</text>
</g>
<!-- ExpertFormsController -->
<g id="node7" class="node"><title>ExpertFormsController</title>
<path fill="none" stroke="black" d="M747,-924.5C747,-924.5 869.648,-924.5 869.648,-924.5 875.648,-924.5 881.648,-930.5 881.648,-936.5 881.648,-936.5 881.648,-1114.5 881.648,-1114.5 881.648,-1120.5 875.648,-1126.5 869.648,-1126.5 869.648,-1126.5 747,-1126.5 747,-1126.5 741,-1126.5 735,-1120.5 735,-1114.5 735,-1114.5 735,-936.5 735,-936.5 735,-930.5 741,-924.5 747,-924.5"/>
<text text-anchor="middle" x="808.324" y="-1111.3" font-family="Times,serif" font-size="14.00">ExpertFormsController</text>
<polyline fill="none" stroke="black" points="735,-1104.5 881.648,-1104.5 "/>
<text text-anchor="start" x="743" y="-1089.3" font-family="Times,serif" font-size="14.00">create</text>
<text text-anchor="start" x="743" y="-1075.3" font-family="Times,serif" font-size="14.00">destroy</text>
<text text-anchor="start" x="743" y="-1061.3" font-family="Times,serif" font-size="14.00">edit</text>
<text text-anchor="start" x="743" y="-1047.3" font-family="Times,serif" font-size="14.00">index</text>
<text text-anchor="start" x="743" y="-1033.3" font-family="Times,serif" font-size="14.00">new</text>
<text text-anchor="start" x="743" y="-1019.3" font-family="Times,serif" font-size="14.00">show</text>
<text text-anchor="start" x="743" y="-1005.3" font-family="Times,serif" font-size="14.00">update</text>
<polyline fill="none" stroke="black" points="735,-998.5 881.648,-998.5 "/>
<polyline fill="none" stroke="black" points="735,-974.5 881.648,-974.5 "/>
<text text-anchor="start" x="743" y="-959.3" font-family="Times,serif" font-size="14.00">_layout</text>
<text text-anchor="start" x="743" y="-945.3" font-family="Times,serif" font-size="14.00">expert_form_params</text>
<text text-anchor="start" x="743" y="-931.3" font-family="Times,serif" font-size="14.00">set_expert_form</text>
</g>
<!-- FormTemplatesController -->
<g id="node8" class="node"><title>FormTemplatesController</title>
<path fill="none" stroke="black" d="M579,-84.5C579,-84.5 716.216,-84.5 716.216,-84.5 722.216,-84.5 728.216,-90.5 728.216,-96.5 728.216,-96.5 728.216,-274.5 728.216,-274.5 728.216,-280.5 722.216,-286.5 716.216,-286.5 716.216,-286.5 579,-286.5 579,-286.5 573,-286.5 567,-280.5 567,-274.5 567,-274.5 567,-96.5 567,-96.5 567,-90.5 573,-84.5 579,-84.5"/>
<text text-anchor="middle" x="647.608" y="-271.3" font-family="Times,serif" font-size="14.00">FormTemplatesController</text>
<polyline fill="none" stroke="black" points="567,-264.5 728.216,-264.5 "/>
<text text-anchor="start" x="575" y="-249.3" font-family="Times,serif" font-size="14.00">create</text>
<text text-anchor="start" x="575" y="-235.3" font-family="Times,serif" font-size="14.00">destroy</text>
<text text-anchor="start" x="575" y="-221.3" font-family="Times,serif" font-size="14.00">edit</text>
<text text-anchor="start" x="575" y="-207.3" font-family="Times,serif" font-size="14.00">index</text>
<text text-anchor="start" x="575" y="-193.3" font-family="Times,serif" font-size="14.00">new</text>
<text text-anchor="start" x="575" y="-179.3" font-family="Times,serif" font-size="14.00">show</text>
<text text-anchor="start" x="575" y="-165.3" font-family="Times,serif" font-size="14.00">update</text>
<polyline fill="none" stroke="black" points="567,-158.5 728.216,-158.5 "/>
<polyline fill="none" stroke="black" points="567,-134.5 728.216,-134.5 "/>
<text text-anchor="start" x="575" y="-119.3" font-family="Times,serif" font-size="14.00">_layout</text>
<text text-anchor="start" x="575" y="-105.3" font-family="Times,serif" font-size="14.00">form_template_params</text>
<text text-anchor="start" x="575" y="-91.3" font-family="Times,serif" font-size="14.00">set_form_template</text>
</g>
<!-- MilestonesController -->
<g id="node9" class="node"><title>MilestonesController</title>
<path fill="none" stroke="black" d="M579,-924.5C579,-924.5 689.986,-924.5 689.986,-924.5 695.986,-924.5 701.986,-930.5 701.986,-936.5 701.986,-936.5 701.986,-1114.5 701.986,-1114.5 701.986,-1120.5 695.986,-1126.5 689.986,-1126.5 689.986,-1126.5 579,-1126.5 579,-1126.5 573,-1126.5 567,-1120.5 567,-1114.5 567,-1114.5 567,-936.5 567,-936.5 567,-930.5 573,-924.5 579,-924.5"/>
<text text-anchor="middle" x="634.493" y="-1111.3" font-family="Times,serif" font-size="14.00">MilestonesController</text>
<polyline fill="none" stroke="black" points="567,-1104.5 701.986,-1104.5 "/>
<text text-anchor="start" x="575" y="-1089.3" font-family="Times,serif" font-size="14.00">create</text>
<text text-anchor="start" x="575" y="-1075.3" font-family="Times,serif" font-size="14.00">destroy</text>
<text text-anchor="start" x="575" y="-1061.3" font-family="Times,serif" font-size="14.00">edit</text>
<text text-anchor="start" x="575" y="-1047.3" font-family="Times,serif" font-size="14.00">index</text>
<text text-anchor="start" x="575" y="-1033.3" font-family="Times,serif" font-size="14.00">new</text>
<text text-anchor="start" x="575" y="-1019.3" font-family="Times,serif" font-size="14.00">show</text>
<text text-anchor="start" x="575" y="-1005.3" font-family="Times,serif" font-size="14.00">update</text>
<polyline fill="none" stroke="black" points="567,-998.5 701.986,-998.5 "/>
<polyline fill="none" stroke="black" points="567,-974.5 701.986,-974.5 "/>
<text text-anchor="start" x="575" y="-959.3" font-family="Times,serif" font-size="14.00">_layout</text>
<text text-anchor="start" x="575" y="-945.3" font-family="Times,serif" font-size="14.00">milestone_params</text>
<text text-anchor="start" x="575" y="-931.3" font-family="Times,serif" font-size="14.00">set_milestone</text>
</g>
<!-- ModulsController -->
<g id="node10" class="node"><title>ModulsController</title>
<path fill="none" stroke="black" d="M75,-945.5C75,-945.5 167.331,-945.5 167.331,-945.5 173.331,-945.5 179.331,-951.5 179.331,-957.5 179.331,-957.5 179.331,-1135.5 179.331,-1135.5 179.331,-1141.5 173.331,-1147.5 167.331,-1147.5 167.331,-1147.5 75,-1147.5 75,-1147.5 69,-1147.5 63,-1141.5 63,-1135.5 63,-1135.5 63,-957.5 63,-957.5 63,-951.5 69,-945.5 75,-945.5"/>
<text text-anchor="middle" x="121.166" y="-1132.3" font-family="Times,serif" font-size="14.00">ModulsController</text>
<polyline fill="none" stroke="black" points="63,-1125.5 179.331,-1125.5 "/>
<text text-anchor="start" x="71" y="-1110.3" font-family="Times,serif" font-size="14.00">create</text>
<text text-anchor="start" x="71" y="-1096.3" font-family="Times,serif" font-size="14.00">destroy</text>
<text text-anchor="start" x="71" y="-1082.3" font-family="Times,serif" font-size="14.00">edit</text>
<text text-anchor="start" x="71" y="-1068.3" font-family="Times,serif" font-size="14.00">index</text>
<text text-anchor="start" x="71" y="-1054.3" font-family="Times,serif" font-size="14.00">new</text>
<text text-anchor="start" x="71" y="-1040.3" font-family="Times,serif" font-size="14.00">show</text>
<text text-anchor="start" x="71" y="-1026.3" font-family="Times,serif" font-size="14.00">update</text>
<polyline fill="none" stroke="black" points="63,-1019.5 179.331,-1019.5 "/>
<polyline fill="none" stroke="black" points="63,-995.5 179.331,-995.5 "/>
<text text-anchor="start" x="71" y="-980.3" font-family="Times,serif" font-size="14.00">_layout</text>
<text text-anchor="start" x="71" y="-966.3" font-family="Times,serif" font-size="14.00">modul_params</text>
<text text-anchor="start" x="71" y="-952.3" font-family="Times,serif" font-size="14.00">set_modul</text>
</g>
<!-- ProductBreakdownStructuresController -->
<g id="node11" class="node"><title>ProductBreakdownStructuresController</title>
<path fill="none" stroke="black" d="M663,-651.5C663,-651.5 877.4,-651.5 877.4,-651.5 883.4,-651.5 889.4,-657.5 889.4,-663.5 889.4,-663.5 889.4,-869.5 889.4,-869.5 889.4,-875.5 883.4,-881.5 877.4,-881.5 877.4,-881.5 663,-881.5 663,-881.5 657,-881.5 651,-875.5 651,-869.5 651,-869.5 651,-663.5 651,-663.5 651,-657.5 657,-651.5 663,-651.5"/>
<text text-anchor="middle" x="770.2" y="-866.3" font-family="Times,serif" font-size="14.00">ProductBreakdownStructuresController</text>
<polyline fill="none" stroke="black" points="651,-859.5 889.4,-859.5 "/>
<text text-anchor="start" x="659" y="-844.3" font-family="Times,serif" font-size="14.00">chart</text>
<text text-anchor="start" x="659" y="-830.3" font-family="Times,serif" font-size="14.00">create</text>
<text text-anchor="start" x="659" y="-816.3" font-family="Times,serif" font-size="14.00">destroy</text>
<text text-anchor="start" x="659" y="-802.3" font-family="Times,serif" font-size="14.00">edit</text>
<text text-anchor="start" x="659" y="-788.3" font-family="Times,serif" font-size="14.00">index</text>
<text text-anchor="start" x="659" y="-774.3" font-family="Times,serif" font-size="14.00">new</text>
<text text-anchor="start" x="659" y="-760.3" font-family="Times,serif" font-size="14.00">product_breakdown_chart</text>
<text text-anchor="start" x="659" y="-746.3" font-family="Times,serif" font-size="14.00">show</text>
<text text-anchor="start" x="659" y="-732.3" font-family="Times,serif" font-size="14.00">update</text>
<polyline fill="none" stroke="black" points="651,-725.5 889.4,-725.5 "/>
<polyline fill="none" stroke="black" points="651,-701.5 889.4,-701.5 "/>
<text text-anchor="start" x="659" y="-686.3" font-family="Times,serif" font-size="14.00">_layout</text>
<text text-anchor="start" x="659" y="-672.3" font-family="Times,serif" font-size="14.00">product_breakdown_structure_params</text>
<text text-anchor="start" x="659" y="-658.3" font-family="Times,serif" font-size="14.00">set_product_breakdown_structure</text>
</g>
<!-- ProjectsController -->
<g id="node12" class="node"><title>ProjectsController</title>
<path fill="none" stroke="black" d="M12,-0.5C12,-0.5 106.648,-0.5 106.648,-0.5 112.648,-0.5 118.648,-6.5 118.648,-12.5 118.648,-12.5 118.648,-190.5 118.648,-190.5 118.648,-196.5 112.648,-202.5 106.648,-202.5 106.648,-202.5 12,-202.5 12,-202.5 6,-202.5 0,-196.5 0,-190.5 0,-190.5 0,-12.5 0,-12.5 0,-6.5 6,-0.5 12,-0.5"/>
<text text-anchor="middle" x="59.3242" y="-187.3" font-family="Times,serif" font-size="14.00">ProjectsController</text>
<polyline fill="none" stroke="black" points="0,-180.5 118.648,-180.5 "/>
<text text-anchor="start" x="8" y="-165.3" font-family="Times,serif" font-size="14.00">create</text>
<text text-anchor="start" x="8" y="-151.3" font-family="Times,serif" font-size="14.00">destroy</text>
<text text-anchor="start" x="8" y="-137.3" font-family="Times,serif" font-size="14.00">edit</text>
<text text-anchor="start" x="8" y="-123.3" font-family="Times,serif" font-size="14.00">index</text>
<text text-anchor="start" x="8" y="-109.3" font-family="Times,serif" font-size="14.00">new</text>
<text text-anchor="start" x="8" y="-95.3" font-family="Times,serif" font-size="14.00">show</text>
<text text-anchor="start" x="8" y="-81.3" font-family="Times,serif" font-size="14.00">update</text>
<polyline fill="none" stroke="black" points="0,-74.5 118.648,-74.5 "/>
<polyline fill="none" stroke="black" points="0,-50.5 118.648,-50.5 "/>
<text text-anchor="start" x="8" y="-35.3" font-family="Times,serif" font-size="14.00">_layout</text>
<text text-anchor="start" x="8" y="-21.3" font-family="Times,serif" font-size="14.00">project_params</text>
<text text-anchor="start" x="8" y="-7.3" font-family="Times,serif" font-size="14.00">set_project</text>
</g>
<!-- RamEntriesController -->
<g id="node13" class="node"><title>RamEntriesController</title>
<path fill="none" stroke="black" d="M789,-84.5C789,-84.5 904.642,-84.5 904.642,-84.5 910.642,-84.5 916.642,-90.5 916.642,-96.5 916.642,-96.5 916.642,-274.5 916.642,-274.5 916.642,-280.5 910.642,-286.5 904.642,-286.5 904.642,-286.5 789,-286.5 789,-286.5 783,-286.5 777,-280.5 777,-274.5 777,-274.5 777,-96.5 777,-96.5 777,-90.5 783,-84.5 789,-84.5"/>
<text text-anchor="middle" x="846.821" y="-271.3" font-family="Times,serif" font-size="14.00">RamEntriesController</text>
<polyline fill="none" stroke="black" points="777,-264.5 916.642,-264.5 "/>
<text text-anchor="start" x="785" y="-249.3" font-family="Times,serif" font-size="14.00">create</text>
<text text-anchor="start" x="785" y="-235.3" font-family="Times,serif" font-size="14.00">destroy</text>
<text text-anchor="start" x="785" y="-221.3" font-family="Times,serif" font-size="14.00">edit</text>
<text text-anchor="start" x="785" y="-207.3" font-family="Times,serif" font-size="14.00">index</text>
<text text-anchor="start" x="785" y="-193.3" font-family="Times,serif" font-size="14.00">new</text>
<text text-anchor="start" x="785" y="-179.3" font-family="Times,serif" font-size="14.00">show</text>
<text text-anchor="start" x="785" y="-165.3" font-family="Times,serif" font-size="14.00">update</text>
<polyline fill="none" stroke="black" points="777,-158.5 916.642,-158.5 "/>
<polyline fill="none" stroke="black" points="777,-134.5 916.642,-134.5 "/>
<text text-anchor="start" x="785" y="-119.3" font-family="Times,serif" font-size="14.00">_layout</text>
<text text-anchor="start" x="785" y="-105.3" font-family="Times,serif" font-size="14.00">ram_entry_params</text>
<text text-anchor="start" x="785" y="-91.3" font-family="Times,serif" font-size="14.00">set_ram_entry</text>
</g>
<!-- ResourceAllocationMatricesController -->
<g id="node14" class="node"><title>ResourceAllocationMatricesController</title>
<path fill="none" stroke="black" d="M684,-336.5C684,-336.5 893.711,-336.5 893.711,-336.5 899.711,-336.5 905.711,-342.5 905.711,-348.5 905.711,-348.5 905.711,-526.5 905.711,-526.5 905.711,-532.5 899.711,-538.5 893.711,-538.5 893.711,-538.5 684,-538.5 684,-538.5 678,-538.5 672,-532.5 672,-526.5 672,-526.5 672,-348.5 672,-348.5 672,-342.5 678,-336.5 684,-336.5"/>
<text text-anchor="middle" x="788.855" y="-523.3" font-family="Times,serif" font-size="14.00">ResourceAllocationMatricesController</text>
<polyline fill="none" stroke="black" points="672,-516.5 905.711,-516.5 "/>
<text text-anchor="start" x="680" y="-501.3" font-family="Times,serif" font-size="14.00">create</text>
<text text-anchor="start" x="680" y="-487.3" font-family="Times,serif" font-size="14.00">destroy</text>
<text text-anchor="start" x="680" y="-473.3" font-family="Times,serif" font-size="14.00">edit</text>
<text text-anchor="start" x="680" y="-459.3" font-family="Times,serif" font-size="14.00">index</text>
<text text-anchor="start" x="680" y="-445.3" font-family="Times,serif" font-size="14.00">new</text>
<text text-anchor="start" x="680" y="-431.3" font-family="Times,serif" font-size="14.00">show</text>
<text text-anchor="start" x="680" y="-417.3" font-family="Times,serif" font-size="14.00">update</text>
<polyline fill="none" stroke="black" points="672,-410.5 905.711,-410.5 "/>
<polyline fill="none" stroke="black" points="672,-386.5 905.711,-386.5 "/>
<text text-anchor="start" x="680" y="-371.3" font-family="Times,serif" font-size="14.00">_layout</text>
<text text-anchor="start" x="680" y="-357.3" font-family="Times,serif" font-size="14.00">resource_allocation_matrix_params</text>
<text text-anchor="start" x="680" y="-343.3" font-family="Times,serif" font-size="14.00">set_resource_allocation_matrix</text>
</g>
<!-- ResourceBreakdownStructuresController -->
<g id="node15" class="node"><title>ResourceBreakdownStructuresController</title>
<path fill="none" stroke="black" d="M390,-378.5C390,-378.5 612.938,-378.5 612.938,-378.5 618.938,-378.5 624.938,-384.5 624.938,-390.5 624.938,-390.5 624.938,-596.5 624.938,-596.5 624.938,-602.5 618.938,-608.5 612.938,-608.5 612.938,-608.5 390,-608.5 390,-608.5 384,-608.5 378,-602.5 378,-596.5 378,-596.5 378,-390.5 378,-390.5 378,-384.5 384,-378.5 390,-378.5"/>
<text text-anchor="middle" x="501.469" y="-593.3" font-family="Times,serif" font-size="14.00">ResourceBreakdownStructuresController</text>
<polyline fill="none" stroke="black" points="378,-586.5 624.938,-586.5 "/>
<text text-anchor="start" x="386" y="-571.3" font-family="Times,serif" font-size="14.00">chart</text>
<text text-anchor="start" x="386" y="-557.3" font-family="Times,serif" font-size="14.00">create</text>
<text text-anchor="start" x="386" y="-543.3" font-family="Times,serif" font-size="14.00">destroy</text>
<text text-anchor="start" x="386" y="-529.3" font-family="Times,serif" font-size="14.00">edit</text>
<text text-anchor="start" x="386" y="-515.3" font-family="Times,serif" font-size="14.00">index</text>
<text text-anchor="start" x="386" y="-501.3" font-family="Times,serif" font-size="14.00">new</text>
<text text-anchor="start" x="386" y="-487.3" font-family="Times,serif" font-size="14.00">resource_breakdown_chart</text>
<text text-anchor="start" x="386" y="-473.3" font-family="Times,serif" font-size="14.00">show</text>
<text text-anchor="start" x="386" y="-459.3" font-family="Times,serif" font-size="14.00">update</text>
<polyline fill="none" stroke="black" points="378,-452.5 624.938,-452.5 "/>
<polyline fill="none" stroke="black" points="378,-428.5 624.938,-428.5 "/>
<text text-anchor="start" x="386" y="-413.3" font-family="Times,serif" font-size="14.00">_layout</text>
<text text-anchor="start" x="386" y="-399.3" font-family="Times,serif" font-size="14.00">resource_breakdown_structure_params</text>
<text text-anchor="start" x="386" y="-385.3" font-family="Times,serif" font-size="14.00">set_resource_breakdown_structure</text>
</g>
<!-- ResourcesController -->
<g id="node16" class="node"><title>ResourcesController</title>
<path fill="none" stroke="black" d="M411,-924.5C411,-924.5 518.083,-924.5 518.083,-924.5 524.083,-924.5 530.083,-930.5 530.083,-936.5 530.083,-936.5 530.083,-1114.5 530.083,-1114.5 530.083,-1120.5 524.083,-1126.5 518.083,-1126.5 518.083,-1126.5 411,-1126.5 411,-1126.5 405,-1126.5 399,-1120.5 399,-1114.5 399,-1114.5 399,-936.5 399,-936.5 399,-930.5 405,-924.5 411,-924.5"/>
<text text-anchor="middle" x="464.542" y="-1111.3" font-family="Times,serif" font-size="14.00">ResourcesController</text>
<polyline fill="none" stroke="black" points="399,-1104.5 530.083,-1104.5 "/>
<text text-anchor="start" x="407" y="-1089.3" font-family="Times,serif" font-size="14.00">create</text>
<text text-anchor="start" x="407" y="-1075.3" font-family="Times,serif" font-size="14.00">destroy</text>
<text text-anchor="start" x="407" y="-1061.3" font-family="Times,serif" font-size="14.00">edit</text>
<text text-anchor="start" x="407" y="-1047.3" font-family="Times,serif" font-size="14.00">index</text>
<text text-anchor="start" x="407" y="-1033.3" font-family="Times,serif" font-size="14.00">new</text>
<text text-anchor="start" x="407" y="-1019.3" font-family="Times,serif" font-size="14.00">show</text>
<text text-anchor="start" x="407" y="-1005.3" font-family="Times,serif" font-size="14.00">update</text>
<polyline fill="none" stroke="black" points="399,-998.5 530.083,-998.5 "/>
<polyline fill="none" stroke="black" points="399,-974.5 530.083,-974.5 "/>
<text text-anchor="start" x="407" y="-959.3" font-family="Times,serif" font-size="14.00">_layout</text>
<text text-anchor="start" x="407" y="-945.3" font-family="Times,serif" font-size="14.00">resource_params</text>
<text text-anchor="start" x="407" y="-931.3" font-family="Times,serif" font-size="14.00">set_resource</text>
</g>
<!-- RoadmapsController -->
<g id="node17" class="node"><title>RoadmapsController</title>
<path fill="none" stroke="black" d="M222,-798.5C222,-798.5 330.648,-798.5 330.648,-798.5 336.648,-798.5 342.648,-804.5 342.648,-810.5 342.648,-810.5 342.648,-1002.5 342.648,-1002.5 342.648,-1008.5 336.648,-1014.5 330.648,-1014.5 330.648,-1014.5 222,-1014.5 222,-1014.5 216,-1014.5 210,-1008.5 210,-1002.5 210,-1002.5 210,-810.5 210,-810.5 210,-804.5 216,-798.5 222,-798.5"/>
<text text-anchor="middle" x="276.324" y="-999.3" font-family="Times,serif" font-size="14.00">RoadmapsController</text>
<polyline fill="none" stroke="black" points="210,-992.5 342.648,-992.5 "/>
<text text-anchor="start" x="218" y="-977.3" font-family="Times,serif" font-size="14.00">create</text>
<text text-anchor="start" x="218" y="-963.3" font-family="Times,serif" font-size="14.00">destroy</text>
<text text-anchor="start" x="218" y="-949.3" font-family="Times,serif" font-size="14.00">edit</text>
<text text-anchor="start" x="218" y="-935.3" font-family="Times,serif" font-size="14.00">index</text>
<text text-anchor="start" x="218" y="-921.3" font-family="Times,serif" font-size="14.00">new</text>
<text text-anchor="start" x="218" y="-907.3" font-family="Times,serif" font-size="14.00">show</text>
<text text-anchor="start" x="218" y="-893.3" font-family="Times,serif" font-size="14.00">timeline</text>
<text text-anchor="start" x="218" y="-879.3" font-family="Times,serif" font-size="14.00">update</text>
<polyline fill="none" stroke="black" points="210,-872.5 342.648,-872.5 "/>
<polyline fill="none" stroke="black" points="210,-848.5 342.648,-848.5 "/>
<text text-anchor="start" x="218" y="-833.3" font-family="Times,serif" font-size="14.00">_layout</text>
<text text-anchor="start" x="218" y="-819.3" font-family="Times,serif" font-size="14.00">roadmap_params</text>
<text text-anchor="start" x="218" y="-805.3" font-family="Times,serif" font-size="14.00">set_roadmap</text>
</g>
<!-- RolesController -->
<g id="node18" class="node"><title>RolesController</title>
<path fill="none" stroke="black" d="M180,-0.5C180,-0.5 261.435,-0.5 261.435,-0.5 267.435,-0.5 273.435,-6.5 273.435,-12.5 273.435,-12.5 273.435,-190.5 273.435,-190.5 273.435,-196.5 267.435,-202.5 261.435,-202.5 261.435,-202.5 180,-202.5 180,-202.5 174,-202.5 168,-196.5 168,-190.5 168,-190.5 168,-12.5 168,-12.5 168,-6.5 174,-0.5 180,-0.5"/>
<text text-anchor="middle" x="220.717" y="-187.3" font-family="Times,serif" font-size="14.00">RolesController</text>
<polyline fill="none" stroke="black" points="168,-180.5 273.435,-180.5 "/>
<text text-anchor="start" x="176" y="-165.3" font-family="Times,serif" font-size="14.00">create</text>
<text text-anchor="start" x="176" y="-151.3" font-family="Times,serif" font-size="14.00">destroy</text>
<text text-anchor="start" x="176" y="-137.3" font-family="Times,serif" font-size="14.00">edit</text>
<text text-anchor="start" x="176" y="-123.3" font-family="Times,serif" font-size="14.00">index</text>
<text text-anchor="start" x="176" y="-109.3" font-family="Times,serif" font-size="14.00">new</text>
<text text-anchor="start" x="176" y="-95.3" font-family="Times,serif" font-size="14.00">show</text>
<text text-anchor="start" x="176" y="-81.3" font-family="Times,serif" font-size="14.00">update</text>
<polyline fill="none" stroke="black" points="168,-74.5 273.435,-74.5 "/>
<polyline fill="none" stroke="black" points="168,-50.5 273.435,-50.5 "/>
<text text-anchor="start" x="176" y="-35.3" font-family="Times,serif" font-size="14.00">_layout</text>
<text text-anchor="start" x="176" y="-21.3" font-family="Times,serif" font-size="14.00">role_params</text>
<text text-anchor="start" x="176" y="-7.3" font-family="Times,serif" font-size="14.00">set_role</text>
</g>
<!-- RoundsController -->
<g id="node19" class="node"><title>RoundsController</title>
<path fill="none" stroke="black" d="M978,-42.5C978,-42.5 1070.33,-42.5 1070.33,-42.5 1076.33,-42.5 1082.33,-48.5 1082.33,-54.5 1082.33,-54.5 1082.33,-232.5 1082.33,-232.5 1082.33,-238.5 1076.33,-244.5 1070.33,-244.5 1070.33,-244.5 978,-244.5 978,-244.5 972,-244.5 966,-238.5 966,-232.5 966,-232.5 966,-54.5 966,-54.5 966,-48.5 972,-42.5 978,-42.5"/>
<text text-anchor="middle" x="1024.17" y="-229.3" font-family="Times,serif" font-size="14.00">RoundsController</text>
<polyline fill="none" stroke="black" points="966,-222.5 1082.33,-222.5 "/>
<text text-anchor="start" x="974" y="-207.3" font-family="Times,serif" font-size="14.00">create</text>
<text text-anchor="start" x="974" y="-193.3" font-family="Times,serif" font-size="14.00">destroy</text>
<text text-anchor="start" x="974" y="-179.3" font-family="Times,serif" font-size="14.00">edit</text>
<text text-anchor="start" x="974" y="-165.3" font-family="Times,serif" font-size="14.00">index</text>
<text text-anchor="start" x="974" y="-151.3" font-family="Times,serif" font-size="14.00">new</text>
<text text-anchor="start" x="974" y="-137.3" font-family="Times,serif" font-size="14.00">show</text>
<text text-anchor="start" x="974" y="-123.3" font-family="Times,serif" font-size="14.00">update</text>
<polyline fill="none" stroke="black" points="966,-116.5 1082.33,-116.5 "/>
<polyline fill="none" stroke="black" points="966,-92.5 1082.33,-92.5 "/>
<text text-anchor="start" x="974" y="-77.3" font-family="Times,serif" font-size="14.00">_layout</text>
<text text-anchor="start" x="974" y="-63.3" font-family="Times,serif" font-size="14.00">round_params</text>
<text text-anchor="start" x="974" y="-49.3" font-family="Times,serif" font-size="14.00">set_round</text>
</g>
<!-- SubproductsController -->
<g id="node20" class="node"><title>SubproductsController</title>
<path fill="none" stroke="black" d="M957,-336.5C957,-336.5 1076.54,-336.5 1076.54,-336.5 1082.54,-336.5 1088.54,-342.5 1088.54,-348.5 1088.54,-348.5 1088.54,-526.5 1088.54,-526.5 1088.54,-532.5 1082.54,-538.5 1076.54,-538.5 1076.54,-538.5 957,-538.5 957,-538.5 951,-538.5 945,-532.5 945,-526.5 945,-526.5 945,-348.5 945,-348.5 945,-342.5 951,-336.5 957,-336.5"/>
<text text-anchor="middle" x="1016.77" y="-523.3" font-family="Times,serif" font-size="14.00">SubproductsController</text>
<polyline fill="none" stroke="black" points="945,-516.5 1088.54,-516.5 "/>
<text text-anchor="start" x="953" y="-501.3" font-family="Times,serif" font-size="14.00">create</text>
<text text-anchor="start" x="953" y="-487.3" font-family="Times,serif" font-size="14.00">destroy</text>
<text text-anchor="start" x="953" y="-473.3" font-family="Times,serif" font-size="14.00">edit</text>
<text text-anchor="start" x="953" y="-459.3" font-family="Times,serif" font-size="14.00">index</text>
<text text-anchor="start" x="953" y="-445.3" font-family="Times,serif" font-size="14.00">new</text>
<text text-anchor="start" x="953" y="-431.3" font-family="Times,serif" font-size="14.00">show</text>
<text text-anchor="start" x="953" y="-417.3" font-family="Times,serif" font-size="14.00">update</text>
<polyline fill="none" stroke="black" points="945,-410.5 1088.54,-410.5 "/>
<polyline fill="none" stroke="black" points="945,-386.5 1088.54,-386.5 "/>
<text text-anchor="start" x="953" y="-371.3" font-family="Times,serif" font-size="14.00">_layout</text>
<text text-anchor="start" x="953" y="-357.3" font-family="Times,serif" font-size="14.00">set_subproduct</text>
<text text-anchor="start" x="953" y="-343.3" font-family="Times,serif" font-size="14.00">subproduct_params</text>
</g>
<!-- SubtasksController -->
<g id="node21" class="node"><title>SubtasksController</title>
<path fill="none" stroke="black" d="M12,-504.5C12,-504.5 111.331,-504.5 111.331,-504.5 117.331,-504.5 123.331,-510.5 123.331,-516.5 123.331,-516.5 123.331,-694.5 123.331,-694.5 123.331,-700.5 117.331,-706.5 111.331,-706.5 111.331,-706.5 12,-706.5 12,-706.5 6,-706.5 0,-700.5 0,-694.5 0,-694.5 0,-516.5 0,-516.5 0,-510.5 6,-504.5 12,-504.5"/>
<text text-anchor="middle" x="61.6655" y="-691.3" font-family="Times,serif" font-size="14.00">SubtasksController</text>
<polyline fill="none" stroke="black" points="0,-684.5 123.331,-684.5 "/>
<text text-anchor="start" x="8" y="-669.3" font-family="Times,serif" font-size="14.00">create</text>
<text text-anchor="start" x="8" y="-655.3" font-family="Times,serif" font-size="14.00">destroy</text>
<text text-anchor="start" x="8" y="-641.3" font-family="Times,serif" font-size="14.00">edit</text>
<text text-anchor="start" x="8" y="-627.3" font-family="Times,serif" font-size="14.00">index</text>
<text text-anchor="start" x="8" y="-613.3" font-family="Times,serif" font-size="14.00">new</text>
<text text-anchor="start" x="8" y="-599.3" font-family="Times,serif" font-size="14.00">show</text>
<text text-anchor="start" x="8" y="-585.3" font-family="Times,serif" font-size="14.00">update</text>
<polyline fill="none" stroke="black" points="0,-578.5 123.331,-578.5 "/>
<polyline fill="none" stroke="black" points="0,-554.5 123.331,-554.5 "/>
<text text-anchor="start" x="8" y="-539.3" font-family="Times,serif" font-size="14.00">_layout</text>
<text text-anchor="start" x="8" y="-525.3" font-family="Times,serif" font-size="14.00">set_subtask</text>
<text text-anchor="start" x="8" y="-511.3" font-family="Times,serif" font-size="14.00">subtask_params</text>
</g>
<!-- TasksController -->
<g id="node22" class="node"><title>TasksController</title>
<path fill="none" stroke="black" d="M12,-252.5C12,-252.5 93.2295,-252.5 93.2295,-252.5 99.2295,-252.5 105.229,-258.5 105.229,-264.5 105.229,-264.5 105.229,-442.5 105.229,-442.5 105.229,-448.5 99.2295,-454.5 93.2295,-454.5 93.2295,-454.5 12,-454.5 12,-454.5 6,-454.5 0,-448.5 0,-442.5 0,-442.5 0,-264.5 0,-264.5 0,-258.5 6,-252.5 12,-252.5"/>
<text text-anchor="middle" x="52.6147" y="-439.3" font-family="Times,serif" font-size="14.00">TasksController</text>
<polyline fill="none" stroke="black" points="0,-432.5 105.229,-432.5 "/>
<text text-anchor="start" x="8" y="-417.3" font-family="Times,serif" font-size="14.00">create</text>
<text text-anchor="start" x="8" y="-403.3" font-family="Times,serif" font-size="14.00">destroy</text>
<text text-anchor="start" x="8" y="-389.3" font-family="Times,serif" font-size="14.00">edit</text>
<text text-anchor="start" x="8" y="-375.3" font-family="Times,serif" font-size="14.00">index</text>
<text text-anchor="start" x="8" y="-361.3" font-family="Times,serif" font-size="14.00">new</text>
<text text-anchor="start" x="8" y="-347.3" font-family="Times,serif" font-size="14.00">show</text>
<text text-anchor="start" x="8" y="-333.3" font-family="Times,serif" font-size="14.00">update</text>
<polyline fill="none" stroke="black" points="0,-326.5 105.229,-326.5 "/>
<polyline fill="none" stroke="black" points="0,-302.5 105.229,-302.5 "/>
<text text-anchor="start" x="8" y="-287.3" font-family="Times,serif" font-size="14.00">_layout</text>
<text text-anchor="start" x="8" y="-273.3" font-family="Times,serif" font-size="14.00">set_task</text>
<text text-anchor="start" x="8" y="-259.3" font-family="Times,serif" font-size="14.00">task_params</text>
</g>
<!-- TypesController -->
<g id="node23" class="node"><title>TypesController</title>
<path fill="none" stroke="black" d="M264,-1050.5C264,-1050.5 346.781,-1050.5 346.781,-1050.5 352.781,-1050.5 358.781,-1056.5 358.781,-1062.5 358.781,-1062.5 358.781,-1240.5 358.781,-1240.5 358.781,-1246.5 352.781,-1252.5 346.781,-1252.5 346.781,-1252.5 264,-1252.5 264,-1252.5 258,-1252.5 252,-1246.5 252,-1240.5 252,-1240.5 252,-1062.5 252,-1062.5 252,-1056.5 258,-1050.5 264,-1050.5"/>
<text text-anchor="middle" x="305.391" y="-1237.3" font-family="Times,serif" font-size="14.00">TypesController</text>
<polyline fill="none" stroke="black" points="252,-1230.5 358.781,-1230.5 "/>
<text text-anchor="start" x="260" y="-1215.3" font-family="Times,serif" font-size="14.00">create</text>
<text text-anchor="start" x="260" y="-1201.3" font-family="Times,serif" font-size="14.00">destroy</text>
<text text-anchor="start" x="260" y="-1187.3" font-family="Times,serif" font-size="14.00">edit</text>
<text text-anchor="start" x="260" y="-1173.3" font-family="Times,serif" font-size="14.00">index</text>
<text text-anchor="start" x="260" y="-1159.3" font-family="Times,serif" font-size="14.00">new</text>
<text text-anchor="start" x="260" y="-1145.3" font-family="Times,serif" font-size="14.00">show</text>
<text text-anchor="start" x="260" y="-1131.3" font-family="Times,serif" font-size="14.00">update</text>
<polyline fill="none" stroke="black" points="252,-1124.5 358.781,-1124.5 "/>
<polyline fill="none" stroke="black" points="252,-1100.5 358.781,-1100.5 "/>
<text text-anchor="start" x="260" y="-1085.3" font-family="Times,serif" font-size="14.00">_layout</text>
<text text-anchor="start" x="260" y="-1071.3" font-family="Times,serif" font-size="14.00">set_type</text>
<text text-anchor="start" x="260" y="-1057.3" font-family="Times,serif" font-size="14.00">type_params</text>
</g>
<!-- WorkBreakdownStructuresController -->
<g id="node24" class="node"><title>WorkBreakdownStructuresController</title>
<path fill="none" stroke="black" d="M390,-651.5C390,-651.5 591.61,-651.5 591.61,-651.5 597.61,-651.5 603.61,-657.5 603.61,-663.5 603.61,-663.5 603.61,-869.5 603.61,-869.5 603.61,-875.5 597.61,-881.5 591.61,-881.5 591.61,-881.5 390,-881.5 390,-881.5 384,-881.5 378,-875.5 378,-869.5 378,-869.5 378,-663.5 378,-663.5 378,-657.5 384,-651.5 390,-651.5"/>
<text text-anchor="middle" x="490.805" y="-866.3" font-family="Times,serif" font-size="14.00">WorkBreakdownStructuresController</text>
<polyline fill="none" stroke="black" points="378,-859.5 603.61,-859.5 "/>
<text text-anchor="start" x="386" y="-844.3" font-family="Times,serif" font-size="14.00">chart</text>
<text text-anchor="start" x="386" y="-830.3" font-family="Times,serif" font-size="14.00">create</text>
<text text-anchor="start" x="386" y="-816.3" font-family="Times,serif" font-size="14.00">destroy</text>
<text text-anchor="start" x="386" y="-802.3" font-family="Times,serif" font-size="14.00">edit</text>
<text text-anchor="start" x="386" y="-788.3" font-family="Times,serif" font-size="14.00">index</text>
<text text-anchor="start" x="386" y="-774.3" font-family="Times,serif" font-size="14.00">new</text>
<text text-anchor="start" x="386" y="-760.3" font-family="Times,serif" font-size="14.00">show</text>
<text text-anchor="start" x="386" y="-746.3" font-family="Times,serif" font-size="14.00">update</text>
<text text-anchor="start" x="386" y="-732.3" font-family="Times,serif" font-size="14.00">work_breakdown_chart</text>
<polyline fill="none" stroke="black" points="378,-725.5 603.61,-725.5 "/>
<polyline fill="none" stroke="black" points="378,-701.5 603.61,-701.5 "/>
<text text-anchor="start" x="386" y="-686.3" font-family="Times,serif" font-size="14.00">_layout</text>
<text text-anchor="start" x="386" y="-672.3" font-family="Times,serif" font-size="14.00">set_work_breakdown_structure</text>
<text text-anchor="start" x="386" y="-658.3" font-family="Times,serif" font-size="14.00">work_breakdown_structure_params</text>
</g>
<!-- WorkpackagesController -->
<g id="node25" class="node"><title>WorkpackagesController</title>
<path fill="none" stroke="black" d="M390,-126.5C390,-126.5 521.61,-126.5 521.61,-126.5 527.61,-126.5 533.61,-132.5 533.61,-138.5 533.61,-138.5 533.61,-316.5 533.61,-316.5 533.61,-322.5 527.61,-328.5 521.61,-328.5 521.61,-328.5 390,-328.5 390,-328.5 384,-328.5 378,-322.5 378,-316.5 378,-316.5 378,-138.5 378,-138.5 378,-132.5 384,-126.5 390,-126.5"/>
<text text-anchor="middle" x="455.805" y="-313.3" font-family="Times,serif" font-size="14.00">WorkpackagesController</text>
<polyline fill="none" stroke="black" points="378,-306.5 533.61,-306.5 "/>
<text text-anchor="start" x="386" y="-291.3" font-family="Times,serif" font-size="14.00">create</text>
<text text-anchor="start" x="386" y="-277.3" font-family="Times,serif" font-size="14.00">destroy</text>
<text text-anchor="start" x="386" y="-263.3" font-family="Times,serif" font-size="14.00">edit</text>
<text text-anchor="start" x="386" y="-249.3" font-family="Times,serif" font-size="14.00">index</text>
<text text-anchor="start" x="386" y="-235.3" font-family="Times,serif" font-size="14.00">new</text>
<text text-anchor="start" x="386" y="-221.3" font-family="Times,serif" font-size="14.00">show</text>
<text text-anchor="start" x="386" y="-207.3" font-family="Times,serif" font-size="14.00">update</text>
<polyline fill="none" stroke="black" points="378,-200.5 533.61,-200.5 "/>
<polyline fill="none" stroke="black" points="378,-176.5 533.61,-176.5 "/>
<text text-anchor="start" x="386" y="-161.3" font-family="Times,serif" font-size="14.00">_layout</text>
<text text-anchor="start" x="386" y="-147.3" font-family="Times,serif" font-size="14.00">set_workpackage</text>
<text text-anchor="start" x="386" y="-133.3" font-family="Times,serif" font-size="14.00">workpackage_params</text>
</g>
</g>
</svg>
