<?xml version="1.0" encoding="UTF-8" standalone="no"?>
<!DOCTYPE svg PUBLIC "-//W3C//DTD SVG 1.1//EN"
 "http://www.w3.org/Graphics/SVG/1.1/DTD/svg11.dtd">
<!-- Generated by graphviz version 2.36.0 (20140111.2315)
 -->
<!-- Title: controllers_diagram Pages: 1 -->
<svg width="1153pt" height="1171pt"
 viewBox="0.00 0.00 1153.23 1171.00" xmlns="http://www.w3.org/2000/svg" xmlns:xlink="http://www.w3.org/1999/xlink">
<g id="graph0" class="graph" transform="scale(1 1) rotate(0) translate(4 1167)">
<title>controllers_diagram</title>
<polygon fill="none" stroke="none" points="-4,4 -4,-1167 1149.23,-1167 1149.23,4 -4,4"/>
<!-- _diagram_info -->
<g id="node1" class="node"><title>_diagram_info</title>
<text text-anchor="start" x="168" y="-78.6" font-family="Times,serif" font-size="13.00">Controllers diagram</text>
<text text-anchor="start" x="168" y="-65.6" font-family="Times,serif" font-size="13.00">Date: Jan 26 2016 &#45; 17:16</text>
<text text-anchor="start" x="168" y="-52.6" font-family="Times,serif" font-size="13.00">Migration version: 20160126152926</text>
<text text-anchor="start" x="168" y="-39.6" font-family="Times,serif" font-size="13.00">Generated by RailRoady 1.4.2</text>
<text text-anchor="start" x="168" y="-26.6" font-family="Times,serif" font-size="13.00">http://railroady.prestonlee.com</text>
</g>
<!-- ApplicationController -->
<g id="node2" class="node"><title>ApplicationController</title>
<path fill="none" stroke="black" d="M192,-680.5C192,-680.5 307.642,-680.5 307.642,-680.5 313.642,-680.5 319.642,-686.5 319.642,-692.5 319.642,-692.5 319.642,-760.5 319.642,-760.5 319.642,-766.5 313.642,-772.5 307.642,-772.5 307.642,-772.5 192,-772.5 192,-772.5 186,-772.5 180,-766.5 180,-760.5 180,-760.5 180,-692.5 180,-692.5 180,-686.5 186,-680.5 192,-680.5"/>
<text text-anchor="middle" x="249.821" y="-757.3" font-family="Times,serif" font-size="14.00">ApplicationController</text>
<polyline fill="none" stroke="black" points="180,-750.5 319.642,-750.5 "/>
<polyline fill="none" stroke="black" points="180,-726.5 319.642,-726.5 "/>
<polyline fill="none" stroke="black" points="180,-702.5 319.642,-702.5 "/>
<text text-anchor="start" x="188" y="-687.3" font-family="Times,serif" font-size="14.00">_layout</text>
</g>
<!-- ComponentsController -->
<g id="node3" class="node"><title>ComponentsController</title>
<path fill="none" stroke="black" d="M192,-820.5C192,-820.5 312.324,-820.5 312.324,-820.5 318.324,-820.5 324.324,-826.5 324.324,-832.5 324.324,-832.5 324.324,-1010.5 324.324,-1010.5 324.324,-1016.5 318.324,-1022.5 312.324,-1022.5 312.324,-1022.5 192,-1022.5 192,-1022.5 186,-1022.5 180,-1016.5 180,-1010.5 180,-1010.5 180,-832.5 180,-832.5 180,-826.5 186,-820.5 192,-820.5"/>
<text text-anchor="middle" x="252.162" y="-1007.3" font-family="Times,serif" font-size="14.00">ComponentsController</text>
<polyline fill="none" stroke="black" points="180,-1000.5 324.324,-1000.5 "/>
<text text-anchor="start" x="188" y="-985.3" font-family="Times,serif" font-size="14.00">create</text>
<text text-anchor="start" x="188" y="-971.3" font-family="Times,serif" font-size="14.00">destroy</text>
<text text-anchor="start" x="188" y="-957.3" font-family="Times,serif" font-size="14.00">edit</text>
<text text-anchor="start" x="188" y="-943.3" font-family="Times,serif" font-size="14.00">index</text>
<text text-anchor="start" x="188" y="-929.3" font-family="Times,serif" font-size="14.00">new</text>
<text text-anchor="start" x="188" y="-915.3" font-family="Times,serif" font-size="14.00">show</text>
<text text-anchor="start" x="188" y="-901.3" font-family="Times,serif" font-size="14.00">update</text>
<polyline fill="none" stroke="black" points="180,-894.5 324.324,-894.5 "/>
<polyline fill="none" stroke="black" points="180,-870.5 324.324,-870.5 "/>
<text text-anchor="start" x="188" y="-855.3" font-family="Times,serif" font-size="14.00">_layout</text>
<text text-anchor="start" x="188" y="-841.3" font-family="Times,serif" font-size="14.00">component_params</text>
<text text-anchor="start" x="188" y="-827.3" font-family="Times,serif" font-size="14.00">set_component</text>
</g>
<!-- DelphiEstimationsController -->
<g id="node4" class="node"><title>DelphiEstimationsController</title>
<path fill="none" stroke="black" d="M172,-160.5C172,-160.5 325.759,-160.5 325.759,-160.5 331.759,-160.5 337.759,-166.5 337.759,-172.5 337.759,-172.5 337.759,-350.5 337.759,-350.5 337.759,-356.5 331.759,-362.5 325.759,-362.5 325.759,-362.5 172,-362.5 172,-362.5 166,-362.5 160,-356.5 160,-350.5 160,-350.5 160,-172.5 160,-172.5 160,-166.5 166,-160.5 172,-160.5"/>
<text text-anchor="middle" x="248.879" y="-347.3" font-family="Times,serif" font-size="14.00">DelphiEstimationsController</text>
<polyline fill="none" stroke="black" points="160,-340.5 337.759,-340.5 "/>
<text text-anchor="start" x="168" y="-325.3" font-family="Times,serif" font-size="14.00">create</text>
<text text-anchor="start" x="168" y="-311.3" font-family="Times,serif" font-size="14.00">destroy</text>
<text text-anchor="start" x="168" y="-297.3" font-family="Times,serif" font-size="14.00">edit</text>
<text text-anchor="start" x="168" y="-283.3" font-family="Times,serif" font-size="14.00">index</text>
<text text-anchor="start" x="168" y="-269.3" font-family="Times,serif" font-size="14.00">new</text>
<text text-anchor="start" x="168" y="-255.3" font-family="Times,serif" font-size="14.00">show</text>
<text text-anchor="start" x="168" y="-241.3" font-family="Times,serif" font-size="14.00">update</text>
<polyline fill="none" stroke="black" points="160,-234.5 337.759,-234.5 "/>
<polyline fill="none" stroke="black" points="160,-210.5 337.759,-210.5 "/>
<text text-anchor="start" x="168" y="-195.3" font-family="Times,serif" font-size="14.00">_layout</text>
<text text-anchor="start" x="168" y="-181.3" font-family="Times,serif" font-size="14.00">delphi_estimation_params</text>
<text text-anchor="start" x="168" y="-167.3" font-family="Times,serif" font-size="14.00">set_delphi_estimation</text>
</g>
<!-- EstimationTemplatesController -->
<g id="node5" class="node"><title>EstimationTemplatesController</title>
<path fill="none" stroke="black" d="M172,-400.5C172,-400.5 339.54,-400.5 339.54,-400.5 345.54,-400.5 351.54,-406.5 351.54,-412.5 351.54,-412.5 351.54,-590.5 351.54,-590.5 351.54,-596.5 345.54,-602.5 339.54,-602.5 339.54,-602.5 172,-602.5 172,-602.5 166,-602.5 160,-596.5 160,-590.5 160,-590.5 160,-412.5 160,-412.5 160,-406.5 166,-400.5 172,-400.5"/>
<text text-anchor="middle" x="255.77" y="-587.3" font-family="Times,serif" font-size="14.00">EstimationTemplatesController</text>
<polyline fill="none" stroke="black" points="160,-580.5 351.54,-580.5 "/>
<text text-anchor="start" x="168" y="-565.3" font-family="Times,serif" font-size="14.00">create</text>
<text text-anchor="start" x="168" y="-551.3" font-family="Times,serif" font-size="14.00">destroy</text>
<text text-anchor="start" x="168" y="-537.3" font-family="Times,serif" font-size="14.00">edit</text>
<text text-anchor="start" x="168" y="-523.3" font-family="Times,serif" font-size="14.00">index</text>
<text text-anchor="start" x="168" y="-509.3" font-family="Times,serif" font-size="14.00">new</text>
<text text-anchor="start" x="168" y="-495.3" font-family="Times,serif" font-size="14.00">show</text>
<text text-anchor="start" x="168" y="-481.3" font-family="Times,serif" font-size="14.00">update</text>
<polyline fill="none" stroke="black" points="160,-474.5 351.54,-474.5 "/>
<polyline fill="none" stroke="black" points="160,-450.5 351.54,-450.5 "/>
<text text-anchor="start" x="168" y="-435.3" font-family="Times,serif" font-size="14.00">_layout</text>
<text text-anchor="start" x="168" y="-421.3" font-family="Times,serif" font-size="14.00">estimation_template_params</text>
<text text-anchor="start" x="168" y="-407.3" font-family="Times,serif" font-size="14.00">set_estimation_template</text>
</g>
<!-- EstimationsController -->
<g id="node6" class="node"><title>EstimationsController</title>
<path fill="none" stroke="black" d="M932,-360.5C932,-360.5 1047.66,-360.5 1047.66,-360.5 1053.66,-360.5 1059.66,-366.5 1059.66,-372.5 1059.66,-372.5 1059.66,-550.5 1059.66,-550.5 1059.66,-556.5 1053.66,-562.5 1047.66,-562.5 1047.66,-562.5 932,-562.5 932,-562.5 926,-562.5 920,-556.5 920,-550.5 920,-550.5 920,-372.5 920,-372.5 920,-366.5 926,-360.5 932,-360.5"/>
<text text-anchor="middle" x="989.828" y="-547.3" font-family="Times,serif" font-size="14.00">EstimationsController</text>
<polyline fill="none" stroke="black" points="920,-540.5 1059.66,-540.5 "/>
<text text-anchor="start" x="928" y="-525.3" font-family="Times,serif" font-size="14.00">create</text>
<text text-anchor="start" x="928" y="-511.3" font-family="Times,serif" font-size="14.00">destroy</text>
<text text-anchor="start" x="928" y="-497.3" font-family="Times,serif" font-size="14.00">edit</text>
<text text-anchor="start" x="928" y="-483.3" font-family="Times,serif" font-size="14.00">index</text>
<text text-anchor="start" x="928" y="-469.3" font-family="Times,serif" font-size="14.00">new</text>
<text text-anchor="start" x="928" y="-455.3" font-family="Times,serif" font-size="14.00">show</text>
<text text-anchor="start" x="928" y="-441.3" font-family="Times,serif" font-size="14.00">update</text>
<polyline fill="none" stroke="black" points="920,-434.5 1059.66,-434.5 "/>
<polyline fill="none" stroke="black" points="920,-410.5 1059.66,-410.5 "/>
<text text-anchor="start" x="928" y="-395.3" font-family="Times,serif" font-size="14.00">_layout</text>
<text text-anchor="start" x="928" y="-381.3" font-family="Times,serif" font-size="14.00">estimation_params</text>
<text text-anchor="start" x="928" y="-367.3" font-family="Times,serif" font-size="14.00">set_estimation</text>
</g>
<!-- ExpertFormsController -->
<g id="node7" class="node"><title>ExpertFormsController</title>
<path fill="none" stroke="black" d="M672,-840.5C672,-840.5 794.648,-840.5 794.648,-840.5 800.648,-840.5 806.648,-846.5 806.648,-852.5 806.648,-852.5 806.648,-1030.5 806.648,-1030.5 806.648,-1036.5 800.648,-1042.5 794.648,-1042.5 794.648,-1042.5 672,-1042.5 672,-1042.5 666,-1042.5 660,-1036.5 660,-1030.5 660,-1030.5 660,-852.5 660,-852.5 660,-846.5 666,-840.5 672,-840.5"/>
<text text-anchor="middle" x="733.324" y="-1027.3" font-family="Times,serif" font-size="14.00">ExpertFormsController</text>
<polyline fill="none" stroke="black" points="660,-1020.5 806.648,-1020.5 "/>
<text text-anchor="start" x="668" y="-1005.3" font-family="Times,serif" font-size="14.00">create</text>
<text text-anchor="start" x="668" y="-991.3" font-family="Times,serif" font-size="14.00">destroy</text>
<text text-anchor="start" x="668" y="-977.3" font-family="Times,serif" font-size="14.00">edit</text>
<text text-anchor="start" x="668" y="-963.3" font-family="Times,serif" font-size="14.00">index</text>
<text text-anchor="start" x="668" y="-949.3" font-family="Times,serif" font-size="14.00">new</text>
<text text-anchor="start" x="668" y="-935.3" font-family="Times,serif" font-size="14.00">show</text>
<text text-anchor="start" x="668" y="-921.3" font-family="Times,serif" font-size="14.00">update</text>
<polyline fill="none" stroke="black" points="660,-914.5 806.648,-914.5 "/>
<polyline fill="none" stroke="black" points="660,-890.5 806.648,-890.5 "/>
<text text-anchor="start" x="668" y="-875.3" font-family="Times,serif" font-size="14.00">_layout</text>
<text text-anchor="start" x="668" y="-861.3" font-family="Times,serif" font-size="14.00">expert_form_params</text>
<text text-anchor="start" x="668" y="-847.3" font-family="Times,serif" font-size="14.00">set_expert_form</text>
</g>
<!-- FormTemplatesController -->
<g id="node8" class="node"><title>FormTemplatesController</title>
<path fill="none" stroke="black" d="M392,-140.5C392,-140.5 529.216,-140.5 529.216,-140.5 535.216,-140.5 541.216,-146.5 541.216,-152.5 541.216,-152.5 541.216,-330.5 541.216,-330.5 541.216,-336.5 535.216,-342.5 529.216,-342.5 529.216,-342.5 392,-342.5 392,-342.5 386,-342.5 380,-336.5 380,-330.5 380,-330.5 380,-152.5 380,-152.5 380,-146.5 386,-140.5 392,-140.5"/>
<text text-anchor="middle" x="460.608" y="-327.3" font-family="Times,serif" font-size="14.00">FormTemplatesController</text>
<polyline fill="none" stroke="black" points="380,-320.5 541.216,-320.5 "/>
<text text-anchor="start" x="388" y="-305.3" font-family="Times,serif" font-size="14.00">create</text>
<text text-anchor="start" x="388" y="-291.3" font-family="Times,serif" font-size="14.00">destroy</text>
<text text-anchor="start" x="388" y="-277.3" font-family="Times,serif" font-size="14.00">edit</text>
<text text-anchor="start" x="388" y="-263.3" font-family="Times,serif" font-size="14.00">index</text>
<text text-anchor="start" x="388" y="-249.3" font-family="Times,serif" font-size="14.00">new</text>
<text text-anchor="start" x="388" y="-235.3" font-family="Times,serif" font-size="14.00">show</text>
<text text-anchor="start" x="388" y="-221.3" font-family="Times,serif" font-size="14.00">update</text>
<polyline fill="none" stroke="black" points="380,-214.5 541.216,-214.5 "/>
<polyline fill="none" stroke="black" points="380,-190.5 541.216,-190.5 "/>
<text text-anchor="start" x="388" y="-175.3" font-family="Times,serif" font-size="14.00">_layout</text>
<text text-anchor="start" x="388" y="-161.3" font-family="Times,serif" font-size="14.00">form_template_params</text>
<text text-anchor="start" x="388" y="-147.3" font-family="Times,serif" font-size="14.00">set_form_template</text>
</g>
<!-- MilestonesController -->
<g id="node9" class="node"><title>MilestonesController</title>
<path fill="none" stroke="black" d="M772,-120.5C772,-120.5 882.986,-120.5 882.986,-120.5 888.986,-120.5 894.986,-126.5 894.986,-132.5 894.986,-132.5 894.986,-310.5 894.986,-310.5 894.986,-316.5 888.986,-322.5 882.986,-322.5 882.986,-322.5 772,-322.5 772,-322.5 766,-322.5 760,-316.5 760,-310.5 760,-310.5 760,-132.5 760,-132.5 760,-126.5 766,-120.5 772,-120.5"/>
<text text-anchor="middle" x="827.493" y="-307.3" font-family="Times,serif" font-size="14.00">MilestonesController</text>
<polyline fill="none" stroke="black" points="760,-300.5 894.986,-300.5 "/>
<text text-anchor="start" x="768" y="-285.3" font-family="Times,serif" font-size="14.00">create</text>
<text text-anchor="start" x="768" y="-271.3" font-family="Times,serif" font-size="14.00">destroy</text>
<text text-anchor="start" x="768" y="-257.3" font-family="Times,serif" font-size="14.00">edit</text>
<text text-anchor="start" x="768" y="-243.3" font-family="Times,serif" font-size="14.00">index</text>
<text text-anchor="start" x="768" y="-229.3" font-family="Times,serif" font-size="14.00">new</text>
<text text-anchor="start" x="768" y="-215.3" font-family="Times,serif" font-size="14.00">show</text>
<text text-anchor="start" x="768" y="-201.3" font-family="Times,serif" font-size="14.00">update</text>
<polyline fill="none" stroke="black" points="760,-194.5 894.986,-194.5 "/>
<polyline fill="none" stroke="black" points="760,-170.5 894.986,-170.5 "/>
<text text-anchor="start" x="768" y="-155.3" font-family="Times,serif" font-size="14.00">_layout</text>
<text text-anchor="start" x="768" y="-141.3" font-family="Times,serif" font-size="14.00">milestone_params</text>
<text text-anchor="start" x="768" y="-127.3" font-family="Times,serif" font-size="14.00">set_milestone</text>
</g>
<!-- ModulsController -->
<g id="node10" class="node"><title>ModulsController</title>
<path fill="none" stroke="black" d="M952,-60.5C952,-60.5 1044.33,-60.5 1044.33,-60.5 1050.33,-60.5 1056.33,-66.5 1056.33,-72.5 1056.33,-72.5 1056.33,-250.5 1056.33,-250.5 1056.33,-256.5 1050.33,-262.5 1044.33,-262.5 1044.33,-262.5 952,-262.5 952,-262.5 946,-262.5 940,-256.5 940,-250.5 940,-250.5 940,-72.5 940,-72.5 940,-66.5 946,-60.5 952,-60.5"/>
<text text-anchor="middle" x="998.166" y="-247.3" font-family="Times,serif" font-size="14.00">ModulsController</text>
<polyline fill="none" stroke="black" points="940,-240.5 1056.33,-240.5 "/>
<text text-anchor="start" x="948" y="-225.3" font-family="Times,serif" font-size="14.00">create</text>
<text text-anchor="start" x="948" y="-211.3" font-family="Times,serif" font-size="14.00">destroy</text>
<text text-anchor="start" x="948" y="-197.3" font-family="Times,serif" font-size="14.00">edit</text>
<text text-anchor="start" x="948" y="-183.3" font-family="Times,serif" font-size="14.00">index</text>
<text text-anchor="start" x="948" y="-169.3" font-family="Times,serif" font-size="14.00">new</text>
<text text-anchor="start" x="948" y="-155.3" font-family="Times,serif" font-size="14.00">show</text>
<text text-anchor="start" x="948" y="-141.3" font-family="Times,serif" font-size="14.00">update</text>
<polyline fill="none" stroke="black" points="940,-134.5 1056.33,-134.5 "/>
<polyline fill="none" stroke="black" points="940,-110.5 1056.33,-110.5 "/>
<text text-anchor="start" x="948" y="-95.3" font-family="Times,serif" font-size="14.00">_layout</text>
<text text-anchor="start" x="948" y="-81.3" font-family="Times,serif" font-size="14.00">modul_params</text>
<text text-anchor="start" x="948" y="-67.3" font-family="Times,serif" font-size="14.00">set_modul</text>
</g>
<!-- ProductBreakdownStructuresController -->
<g id="node11" class="node"><title>ProductBreakdownStructuresController</title>
<path fill="none" stroke="black" d="M372,-640.5C372,-640.5 586.4,-640.5 586.4,-640.5 592.4,-640.5 598.4,-646.5 598.4,-652.5 598.4,-652.5 598.4,-830.5 598.4,-830.5 598.4,-836.5 592.4,-842.5 586.4,-842.5 586.4,-842.5 372,-842.5 372,-842.5 366,-842.5 360,-836.5 360,-830.5 360,-830.5 360,-652.5 360,-652.5 360,-646.5 366,-640.5 372,-640.5"/>
<text text-anchor="middle" x="479.2" y="-827.3" font-family="Times,serif" font-size="14.00">ProductBreakdownStructuresController</text>
<polyline fill="none" stroke="black" points="360,-820.5 598.4,-820.5 "/>
<text text-anchor="start" x="368" y="-805.3" font-family="Times,serif" font-size="14.00">create</text>
<text text-anchor="start" x="368" y="-791.3" font-family="Times,serif" font-size="14.00">destroy</text>
<text text-anchor="start" x="368" y="-777.3" font-family="Times,serif" font-size="14.00">edit</text>
<text text-anchor="start" x="368" y="-763.3" font-family="Times,serif" font-size="14.00">index</text>
<text text-anchor="start" x="368" y="-749.3" font-family="Times,serif" font-size="14.00">new</text>
<text text-anchor="start" x="368" y="-735.3" font-family="Times,serif" font-size="14.00">show</text>
<text text-anchor="start" x="368" y="-721.3" font-family="Times,serif" font-size="14.00">update</text>
<polyline fill="none" stroke="black" points="360,-714.5 598.4,-714.5 "/>
<polyline fill="none" stroke="black" points="360,-690.5 598.4,-690.5 "/>
<text text-anchor="start" x="368" y="-675.3" font-family="Times,serif" font-size="14.00">_layout</text>
<text text-anchor="start" x="368" y="-661.3" font-family="Times,serif" font-size="14.00">product_breakdown_structure_params</text>
<text text-anchor="start" x="368" y="-647.3" font-family="Times,serif" font-size="14.00">set_product_breakdown_structure</text>
</g>
<!-- ProjectsController -->
<g id="node12" class="node"><title>ProjectsController</title>
<path fill="none" stroke="black" d="M12,-240.5C12,-240.5 106.648,-240.5 106.648,-240.5 112.648,-240.5 118.648,-246.5 118.648,-252.5 118.648,-252.5 118.648,-430.5 118.648,-430.5 118.648,-436.5 112.648,-442.5 106.648,-442.5 106.648,-442.5 12,-442.5 12,-442.5 6,-442.5 5.68434e-14,-436.5 5.68434e-14,-430.5 5.68434e-14,-430.5 5.68434e-14,-252.5 5.68434e-14,-252.5 5.68434e-14,-246.5 6,-240.5 12,-240.5"/>
<text text-anchor="middle" x="59.3242" y="-427.3" font-family="Times,serif" font-size="14.00">ProjectsController</text>
<polyline fill="none" stroke="black" points="5.68434e-14,-420.5 118.648,-420.5 "/>
<text text-anchor="start" x="8" y="-405.3" font-family="Times,serif" font-size="14.00">create</text>
<text text-anchor="start" x="8" y="-391.3" font-family="Times,serif" font-size="14.00">destroy</text>
<text text-anchor="start" x="8" y="-377.3" font-family="Times,serif" font-size="14.00">edit</text>
<text text-anchor="start" x="8" y="-363.3" font-family="Times,serif" font-size="14.00">index</text>
<text text-anchor="start" x="8" y="-349.3" font-family="Times,serif" font-size="14.00">new</text>
<text text-anchor="start" x="8" y="-335.3" font-family="Times,serif" font-size="14.00">show</text>
<text text-anchor="start" x="8" y="-321.3" font-family="Times,serif" font-size="14.00">update</text>
<polyline fill="none" stroke="black" points="5.68434e-14,-314.5 118.648,-314.5 "/>
<polyline fill="none" stroke="black" points="5.68434e-14,-290.5 118.648,-290.5 "/>
<text text-anchor="start" x="8" y="-275.3" font-family="Times,serif" font-size="14.00">_layout</text>
<text text-anchor="start" x="8" y="-261.3" font-family="Times,serif" font-size="14.00">project_params</text>
<text text-anchor="start" x="8" y="-247.3" font-family="Times,serif" font-size="14.00">set_project</text>
</g>
<!-- ResourceAllocationMatricesController -->
<g id="node13" class="node"><title>ResourceAllocationMatricesController</title>
<path fill="none" stroke="black" d="M652,-600.5C652,-600.5 861.711,-600.5 861.711,-600.5 867.711,-600.5 873.711,-606.5 873.711,-612.5 873.711,-612.5 873.711,-790.5 873.711,-790.5 873.711,-796.5 867.711,-802.5 861.711,-802.5 861.711,-802.5 652,-802.5 652,-802.5 646,-802.5 640,-796.5 640,-790.5 640,-790.5 640,-612.5 640,-612.5 640,-606.5 646,-600.5 652,-600.5"/>
<text text-anchor="middle" x="756.855" y="-787.3" font-family="Times,serif" font-size="14.00">ResourceAllocationMatricesController</text>
<polyline fill="none" stroke="black" points="640,-780.5 873.711,-780.5 "/>
<text text-anchor="start" x="648" y="-765.3" font-family="Times,serif" font-size="14.00">create</text>
<text text-anchor="start" x="648" y="-751.3" font-family="Times,serif" font-size="14.00">destroy</text>
<text text-anchor="start" x="648" y="-737.3" font-family="Times,serif" font-size="14.00">edit</text>
<text text-anchor="start" x="648" y="-723.3" font-family="Times,serif" font-size="14.00">index</text>
<text text-anchor="start" x="648" y="-709.3" font-family="Times,serif" font-size="14.00">new</text>
<text text-anchor="start" x="648" y="-695.3" font-family="Times,serif" font-size="14.00">show</text>
<text text-anchor="start" x="648" y="-681.3" font-family="Times,serif" font-size="14.00">update</text>
<polyline fill="none" stroke="black" points="640,-674.5 873.711,-674.5 "/>
<polyline fill="none" stroke="black" points="640,-650.5 873.711,-650.5 "/>
<text text-anchor="start" x="648" y="-635.3" font-family="Times,serif" font-size="14.00">_layout</text>
<text text-anchor="start" x="648" y="-621.3" font-family="Times,serif" font-size="14.00">resource_allocation_matrix_params</text>
<text text-anchor="start" x="648" y="-607.3" font-family="Times,serif" font-size="14.00">set_resource_allocation_matrix</text>
</g>
<!-- ResourceBreakdownStructuresController -->
<g id="node14" class="node"><title>ResourceBreakdownStructuresController</title>
<path fill="none" stroke="black" d="M652,-360.5C652,-360.5 874.938,-360.5 874.938,-360.5 880.938,-360.5 886.938,-366.5 886.938,-372.5 886.938,-372.5 886.938,-550.5 886.938,-550.5 886.938,-556.5 880.938,-562.5 874.938,-562.5 874.938,-562.5 652,-562.5 652,-562.5 646,-562.5 640,-556.5 640,-550.5 640,-550.5 640,-372.5 640,-372.5 640,-366.5 646,-360.5 652,-360.5"/>
<text text-anchor="middle" x="763.469" y="-547.3" font-family="Times,serif" font-size="14.00">ResourceBreakdownStructuresController</text>
<polyline fill="none" stroke="black" points="640,-540.5 886.938,-540.5 "/>
<text text-anchor="start" x="648" y="-525.3" font-family="Times,serif" font-size="14.00">create</text>
<text text-anchor="start" x="648" y="-511.3" font-family="Times,serif" font-size="14.00">destroy</text>
<text text-anchor="start" x="648" y="-497.3" font-family="Times,serif" font-size="14.00">edit</text>
<text text-anchor="start" x="648" y="-483.3" font-family="Times,serif" font-size="14.00">index</text>
<text text-anchor="start" x="648" y="-469.3" font-family="Times,serif" font-size="14.00">new</text>
<text text-anchor="start" x="648" y="-455.3" font-family="Times,serif" font-size="14.00">show</text>
<text text-anchor="start" x="648" y="-441.3" font-family="Times,serif" font-size="14.00">update</text>
<polyline fill="none" stroke="black" points="640,-434.5 886.938,-434.5 "/>
<polyline fill="none" stroke="black" points="640,-410.5 886.938,-410.5 "/>
<text text-anchor="start" x="648" y="-395.3" font-family="Times,serif" font-size="14.00">_layout</text>
<text text-anchor="start" x="648" y="-381.3" font-family="Times,serif" font-size="14.00">resource_breakdown_structure_params</text>
<text text-anchor="start" x="648" y="-367.3" font-family="Times,serif" font-size="14.00">set_resource_breakdown_structure</text>
</g>
<!-- ResourcesController -->
<g id="node15" class="node"><title>ResourcesController</title>
<path fill="none" stroke="black" d="M932,-600.5C932,-600.5 1039.08,-600.5 1039.08,-600.5 1045.08,-600.5 1051.08,-606.5 1051.08,-612.5 1051.08,-612.5 1051.08,-790.5 1051.08,-790.5 1051.08,-796.5 1045.08,-802.5 1039.08,-802.5 1039.08,-802.5 932,-802.5 932,-802.5 926,-802.5 920,-796.5 920,-790.5 920,-790.5 920,-612.5 920,-612.5 920,-606.5 926,-600.5 932,-600.5"/>
<text text-anchor="middle" x="985.542" y="-787.3" font-family="Times,serif" font-size="14.00">ResourcesController</text>
<polyline fill="none" stroke="black" points="920,-780.5 1051.08,-780.5 "/>
<text text-anchor="start" x="928" y="-765.3" font-family="Times,serif" font-size="14.00">create</text>
<text text-anchor="start" x="928" y="-751.3" font-family="Times,serif" font-size="14.00">destroy</text>
<text text-anchor="start" x="928" y="-737.3" font-family="Times,serif" font-size="14.00">edit</text>
<text text-anchor="start" x="928" y="-723.3" font-family="Times,serif" font-size="14.00">index</text>
<text text-anchor="start" x="928" y="-709.3" font-family="Times,serif" font-size="14.00">new</text>
<text text-anchor="start" x="928" y="-695.3" font-family="Times,serif" font-size="14.00">show</text>
<text text-anchor="start" x="928" y="-681.3" font-family="Times,serif" font-size="14.00">update</text>
<polyline fill="none" stroke="black" points="920,-674.5 1051.08,-674.5 "/>
<polyline fill="none" stroke="black" points="920,-650.5 1051.08,-650.5 "/>
<text text-anchor="start" x="928" y="-635.3" font-family="Times,serif" font-size="14.00">_layout</text>
<text text-anchor="start" x="928" y="-621.3" font-family="Times,serif" font-size="14.00">resource_params</text>
<text text-anchor="start" x="928" y="-607.3" font-family="Times,serif" font-size="14.00">set_resource</text>
</g>
<!-- RoadmapsController -->
<g id="node16" class="node"><title>RoadmapsController</title>
<path fill="none" stroke="black" d="M492,-880.5C492,-880.5 600.648,-880.5 600.648,-880.5 606.648,-880.5 612.648,-886.5 612.648,-892.5 612.648,-892.5 612.648,-1084.5 612.648,-1084.5 612.648,-1090.5 606.648,-1096.5 600.648,-1096.5 600.648,-1096.5 492,-1096.5 492,-1096.5 486,-1096.5 480,-1090.5 480,-1084.5 480,-1084.5 480,-892.5 480,-892.5 480,-886.5 486,-880.5 492,-880.5"/>
<text text-anchor="middle" x="546.324" y="-1081.3" font-family="Times,serif" font-size="14.00">RoadmapsController</text>
<polyline fill="none" stroke="black" points="480,-1074.5 612.648,-1074.5 "/>
<text text-anchor="start" x="488" y="-1059.3" font-family="Times,serif" font-size="14.00">create</text>
<text text-anchor="start" x="488" y="-1045.3" font-family="Times,serif" font-size="14.00">destroy</text>
<text text-anchor="start" x="488" y="-1031.3" font-family="Times,serif" font-size="14.00">edit</text>
<text text-anchor="start" x="488" y="-1017.3" font-family="Times,serif" font-size="14.00">index</text>
<text text-anchor="start" x="488" y="-1003.3" font-family="Times,serif" font-size="14.00">new</text>
<text text-anchor="start" x="488" y="-989.3" font-family="Times,serif" font-size="14.00">show</text>
<text text-anchor="start" x="488" y="-975.3" font-family="Times,serif" font-size="14.00">timeline</text>
<text text-anchor="start" x="488" y="-961.3" font-family="Times,serif" font-size="14.00">update</text>
<polyline fill="none" stroke="black" points="480,-954.5 612.648,-954.5 "/>
<polyline fill="none" stroke="black" points="480,-930.5 612.648,-930.5 "/>
<text text-anchor="start" x="488" y="-915.3" font-family="Times,serif" font-size="14.00">_layout</text>
<text text-anchor="start" x="488" y="-901.3" font-family="Times,serif" font-size="14.00">roadmap_params</text>
<text text-anchor="start" x="488" y="-887.3" font-family="Times,serif" font-size="14.00">set_roadmap</text>
</g>
<!-- RolesController -->
<g id="node17" class="node"><title>RolesController</title>
<path fill="none" stroke="black" d="M52,-960.5C52,-960.5 133.435,-960.5 133.435,-960.5 139.435,-960.5 145.435,-966.5 145.435,-972.5 145.435,-972.5 145.435,-1150.5 145.435,-1150.5 145.435,-1156.5 139.435,-1162.5 133.435,-1162.5 133.435,-1162.5 52,-1162.5 52,-1162.5 46,-1162.5 40,-1156.5 40,-1150.5 40,-1150.5 40,-972.5 40,-972.5 40,-966.5 46,-960.5 52,-960.5"/>
<text text-anchor="middle" x="92.7173" y="-1147.3" font-family="Times,serif" font-size="14.00">RolesController</text>
<polyline fill="none" stroke="black" points="40,-1140.5 145.435,-1140.5 "/>
<text text-anchor="start" x="48" y="-1125.3" font-family="Times,serif" font-size="14.00">create</text>
<text text-anchor="start" x="48" y="-1111.3" font-family="Times,serif" font-size="14.00">destroy</text>
<text text-anchor="start" x="48" y="-1097.3" font-family="Times,serif" font-size="14.00">edit</text>
<text text-anchor="start" x="48" y="-1083.3" font-family="Times,serif" font-size="14.00">index</text>
<text text-anchor="start" x="48" y="-1069.3" font-family="Times,serif" font-size="14.00">new</text>
<text text-anchor="start" x="48" y="-1055.3" font-family="Times,serif" font-size="14.00">show</text>
<text text-anchor="start" x="48" y="-1041.3" font-family="Times,serif" font-size="14.00">update</text>
<polyline fill="none" stroke="black" points="40,-1034.5 145.435,-1034.5 "/>
<polyline fill="none" stroke="black" points="40,-1010.5 145.435,-1010.5 "/>
<text text-anchor="start" x="48" y="-995.3" font-family="Times,serif" font-size="14.00">_layout</text>
<text text-anchor="start" x="48" y="-981.3" font-family="Times,serif" font-size="14.00">role_params</text>
<text text-anchor="start" x="48" y="-967.3" font-family="Times,serif" font-size="14.00">set_role</text>
</g>
<!-- RoundsController -->
<g id="node18" class="node"><title>RoundsController</title>
<path fill="none" stroke="black" d="M32,-720.5C32,-720.5 124.331,-720.5 124.331,-720.5 130.331,-720.5 136.331,-726.5 136.331,-732.5 136.331,-732.5 136.331,-910.5 136.331,-910.5 136.331,-916.5 130.331,-922.5 124.331,-922.5 124.331,-922.5 32,-922.5 32,-922.5 26,-922.5 20,-916.5 20,-910.5 20,-910.5 20,-732.5 20,-732.5 20,-726.5 26,-720.5 32,-720.5"/>
<text text-anchor="middle" x="78.1655" y="-907.3" font-family="Times,serif" font-size="14.00">RoundsController</text>
<polyline fill="none" stroke="black" points="20,-900.5 136.331,-900.5 "/>
<text text-anchor="start" x="28" y="-885.3" font-family="Times,serif" font-size="14.00">create</text>
<text text-anchor="start" x="28" y="-871.3" font-family="Times,serif" font-size="14.00">destroy</text>
<text text-anchor="start" x="28" y="-857.3" font-family="Times,serif" font-size="14.00">edit</text>
<text text-anchor="start" x="28" y="-843.3" font-family="Times,serif" font-size="14.00">index</text>
<text text-anchor="start" x="28" y="-829.3" font-family="Times,serif" font-size="14.00">new</text>
<text text-anchor="start" x="28" y="-815.3" font-family="Times,serif" font-size="14.00">show</text>
<text text-anchor="start" x="28" y="-801.3" font-family="Times,serif" font-size="14.00">update</text>
<polyline fill="none" stroke="black" points="20,-794.5 136.331,-794.5 "/>
<polyline fill="none" stroke="black" points="20,-770.5 136.331,-770.5 "/>
<text text-anchor="start" x="28" y="-755.3" font-family="Times,serif" font-size="14.00">_layout</text>
<text text-anchor="start" x="28" y="-741.3" font-family="Times,serif" font-size="14.00">round_params</text>
<text text-anchor="start" x="28" y="-727.3" font-family="Times,serif" font-size="14.00">set_round</text>
</g>
<!-- SubproductsController -->
<g id="node19" class="node"><title>SubproductsController</title>
<path fill="none" stroke="black" d="M592,-120.5C592,-120.5 711.545,-120.5 711.545,-120.5 717.545,-120.5 723.545,-126.5 723.545,-132.5 723.545,-132.5 723.545,-310.5 723.545,-310.5 723.545,-316.5 717.545,-322.5 711.545,-322.5 711.545,-322.5 592,-322.5 592,-322.5 586,-322.5 580,-316.5 580,-310.5 580,-310.5 580,-132.5 580,-132.5 580,-126.5 586,-120.5 592,-120.5"/>
<text text-anchor="middle" x="651.772" y="-307.3" font-family="Times,serif" font-size="14.00">SubproductsController</text>
<polyline fill="none" stroke="black" points="580,-300.5 723.545,-300.5 "/>
<text text-anchor="start" x="588" y="-285.3" font-family="Times,serif" font-size="14.00">create</text>
<text text-anchor="start" x="588" y="-271.3" font-family="Times,serif" font-size="14.00">destroy</text>
<text text-anchor="start" x="588" y="-257.3" font-family="Times,serif" font-size="14.00">edit</text>
<text text-anchor="start" x="588" y="-243.3" font-family="Times,serif" font-size="14.00">index</text>
<text text-anchor="start" x="588" y="-229.3" font-family="Times,serif" font-size="14.00">new</text>
<text text-anchor="start" x="588" y="-215.3" font-family="Times,serif" font-size="14.00">show</text>
<text text-anchor="start" x="588" y="-201.3" font-family="Times,serif" font-size="14.00">update</text>
<polyline fill="none" stroke="black" points="580,-194.5 723.545,-194.5 "/>
<polyline fill="none" stroke="black" points="580,-170.5 723.545,-170.5 "/>
<text text-anchor="start" x="588" y="-155.3" font-family="Times,serif" font-size="14.00">_layout</text>
<text text-anchor="start" x="588" y="-141.3" font-family="Times,serif" font-size="14.00">set_subproduct</text>
<text text-anchor="start" x="588" y="-127.3" font-family="Times,serif" font-size="14.00">subproduct_params</text>
</g>
<!-- SubtasksController -->
<g id="node20" class="node"><title>SubtasksController</title>
<path fill="none" stroke="black" d="M12,-0.5C12,-0.5 111.331,-0.5 111.331,-0.5 117.331,-0.5 123.331,-6.5 123.331,-12.5 123.331,-12.5 123.331,-190.5 123.331,-190.5 123.331,-196.5 117.331,-202.5 111.331,-202.5 111.331,-202.5 12,-202.5 12,-202.5 6,-202.5 5.68434e-14,-196.5 5.68434e-14,-190.5 5.68434e-14,-190.5 5.68434e-14,-12.5 5.68434e-14,-12.5 5.68434e-14,-6.5 6,-0.5 12,-0.5"/>
<text text-anchor="middle" x="61.6655" y="-187.3" font-family="Times,serif" font-size="14.00">SubtasksController</text>
<polyline fill="none" stroke="black" points="5.68434e-14,-180.5 123.331,-180.5 "/>
<text text-anchor="start" x="8" y="-165.3" font-family="Times,serif" font-size="14.00">create</text>
<text text-anchor="start" x="8" y="-151.3" font-family="Times,serif" font-size="14.00">destroy</text>
<text text-anchor="start" x="8" y="-137.3" font-family="Times,serif" font-size="14.00">edit</text>
<text text-anchor="start" x="8" y="-123.3" font-family="Times,serif" font-size="14.00">index</text>
<text text-anchor="start" x="8" y="-109.3" font-family="Times,serif" font-size="14.00">new</text>
<text text-anchor="start" x="8" y="-95.3" font-family="Times,serif" font-size="14.00">show</text>
<text text-anchor="start" x="8" y="-81.3" font-family="Times,serif" font-size="14.00">update</text>
<polyline fill="none" stroke="black" points="5.68434e-14,-74.5 123.331,-74.5 "/>
<polyline fill="none" stroke="black" points="5.68434e-14,-50.5 123.331,-50.5 "/>
<text text-anchor="start" x="8" y="-35.3" font-family="Times,serif" font-size="14.00">_layout</text>
<text text-anchor="start" x="8" y="-21.3" font-family="Times,serif" font-size="14.00">set_subtask</text>
<text text-anchor="start" x="8" y="-7.3" font-family="Times,serif" font-size="14.00">subtask_params</text>
</g>
<!-- TasksController -->
<g id="node21" class="node"><title>TasksController</title>
<path fill="none" stroke="black" d="M1052,-840.5C1052,-840.5 1133.23,-840.5 1133.23,-840.5 1139.23,-840.5 1145.23,-846.5 1145.23,-852.5 1145.23,-852.5 1145.23,-1030.5 1145.23,-1030.5 1145.23,-1036.5 1139.23,-1042.5 1133.23,-1042.5 1133.23,-1042.5 1052,-1042.5 1052,-1042.5 1046,-1042.5 1040,-1036.5 1040,-1030.5 1040,-1030.5 1040,-852.5 1040,-852.5 1040,-846.5 1046,-840.5 1052,-840.5"/>
<text text-anchor="middle" x="1092.61" y="-1027.3" font-family="Times,serif" font-size="14.00">TasksController</text>
<polyline fill="none" stroke="black" points="1040,-1020.5 1145.23,-1020.5 "/>
<text text-anchor="start" x="1048" y="-1005.3" font-family="Times,serif" font-size="14.00">create</text>
<text text-anchor="start" x="1048" y="-991.3" font-family="Times,serif" font-size="14.00">destroy</text>
<text text-anchor="start" x="1048" y="-977.3" font-family="Times,serif" font-size="14.00">edit</text>
<text text-anchor="start" x="1048" y="-963.3" font-family="Times,serif" font-size="14.00">index</text>
<text text-anchor="start" x="1048" y="-949.3" font-family="Times,serif" font-size="14.00">new</text>
<text text-anchor="start" x="1048" y="-935.3" font-family="Times,serif" font-size="14.00">show</text>
<text text-anchor="start" x="1048" y="-921.3" font-family="Times,serif" font-size="14.00">update</text>
<polyline fill="none" stroke="black" points="1040,-914.5 1145.23,-914.5 "/>
<polyline fill="none" stroke="black" points="1040,-890.5 1145.23,-890.5 "/>
<text text-anchor="start" x="1048" y="-875.3" font-family="Times,serif" font-size="14.00">_layout</text>
<text text-anchor="start" x="1048" y="-861.3" font-family="Times,serif" font-size="14.00">set_task</text>
<text text-anchor="start" x="1048" y="-847.3" font-family="Times,serif" font-size="14.00">task_params</text>
</g>
<!-- TypesController -->
<g id="node22" class="node"><title>TypesController</title>
<path fill="none" stroke="black" d="M32,-480.5C32,-480.5 114.781,-480.5 114.781,-480.5 120.781,-480.5 126.781,-486.5 126.781,-492.5 126.781,-492.5 126.781,-670.5 126.781,-670.5 126.781,-676.5 120.781,-682.5 114.781,-682.5 114.781,-682.5 32,-682.5 32,-682.5 26,-682.5 20,-676.5 20,-670.5 20,-670.5 20,-492.5 20,-492.5 20,-486.5 26,-480.5 32,-480.5"/>
<text text-anchor="middle" x="73.3906" y="-667.3" font-family="Times,serif" font-size="14.00">TypesController</text>
<polyline fill="none" stroke="black" points="20,-660.5 126.781,-660.5 "/>
<text text-anchor="start" x="28" y="-645.3" font-family="Times,serif" font-size="14.00">create</text>
<text text-anchor="start" x="28" y="-631.3" font-family="Times,serif" font-size="14.00">destroy</text>
<text text-anchor="start" x="28" y="-617.3" font-family="Times,serif" font-size="14.00">edit</text>
<text text-anchor="start" x="28" y="-603.3" font-family="Times,serif" font-size="14.00">index</text>
<text text-anchor="start" x="28" y="-589.3" font-family="Times,serif" font-size="14.00">new</text>
<text text-anchor="start" x="28" y="-575.3" font-family="Times,serif" font-size="14.00">show</text>
<text text-anchor="start" x="28" y="-561.3" font-family="Times,serif" font-size="14.00">update</text>
<polyline fill="none" stroke="black" points="20,-554.5 126.781,-554.5 "/>
<polyline fill="none" stroke="black" points="20,-530.5 126.781,-530.5 "/>
<text text-anchor="start" x="28" y="-515.3" font-family="Times,serif" font-size="14.00">_layout</text>
<text text-anchor="start" x="28" y="-501.3" font-family="Times,serif" font-size="14.00">set_type</text>
<text text-anchor="start" x="28" y="-487.3" font-family="Times,serif" font-size="14.00">type_params</text>
</g>
<!-- WorkBreakdownStructuresController -->
<g id="node23" class="node"><title>WorkBreakdownStructuresController</title>
<path fill="none" stroke="black" d="M392,-380.5C392,-380.5 593.61,-380.5 593.61,-380.5 599.61,-380.5 605.61,-386.5 605.61,-392.5 605.61,-392.5 605.61,-584.5 605.61,-584.5 605.61,-590.5 599.61,-596.5 593.61,-596.5 593.61,-596.5 392,-596.5 392,-596.5 386,-596.5 380,-590.5 380,-584.5 380,-584.5 380,-392.5 380,-392.5 380,-386.5 386,-380.5 392,-380.5"/>
<text text-anchor="middle" x="492.805" y="-581.3" font-family="Times,serif" font-size="14.00">WorkBreakdownStructuresController</text>
<polyline fill="none" stroke="black" points="380,-574.5 605.61,-574.5 "/>
<text text-anchor="start" x="388" y="-559.3" font-family="Times,serif" font-size="14.00">create</text>
<text text-anchor="start" x="388" y="-545.3" font-family="Times,serif" font-size="14.00">destroy</text>
<text text-anchor="start" x="388" y="-531.3" font-family="Times,serif" font-size="14.00">edit</text>
<text text-anchor="start" x="388" y="-517.3" font-family="Times,serif" font-size="14.00">index</text>
<text text-anchor="start" x="388" y="-503.3" font-family="Times,serif" font-size="14.00">new</text>
<text text-anchor="start" x="388" y="-489.3" font-family="Times,serif" font-size="14.00">show</text>
<text text-anchor="start" x="388" y="-475.3" font-family="Times,serif" font-size="14.00">update</text>
<text text-anchor="start" x="388" y="-461.3" font-family="Times,serif" font-size="14.00">work_breakdown_chart</text>
<polyline fill="none" stroke="black" points="380,-454.5 605.61,-454.5 "/>
<polyline fill="none" stroke="black" points="380,-430.5 605.61,-430.5 "/>
<text text-anchor="start" x="388" y="-415.3" font-family="Times,serif" font-size="14.00">_layout</text>
<text text-anchor="start" x="388" y="-401.3" font-family="Times,serif" font-size="14.00">set_work_breakdown_structure</text>
<text text-anchor="start" x="388" y="-387.3" font-family="Times,serif" font-size="14.00">work_breakdown_structure_params</text>
</g>
<!-- WorkpackagesController -->
<g id="node24" class="node"><title>WorkpackagesController</title>
<path fill="none" stroke="black" d="M852,-840.5C852,-840.5 983.61,-840.5 983.61,-840.5 989.61,-840.5 995.61,-846.5 995.61,-852.5 995.61,-852.5 995.61,-1030.5 995.61,-1030.5 995.61,-1036.5 989.61,-1042.5 983.61,-1042.5 983.61,-1042.5 852,-1042.5 852,-1042.5 846,-1042.5 840,-1036.5 840,-1030.5 840,-1030.5 840,-852.5 840,-852.5 840,-846.5 846,-840.5 852,-840.5"/>
<text text-anchor="middle" x="917.805" y="-1027.3" font-family="Times,serif" font-size="14.00">WorkpackagesController</text>
<polyline fill="none" stroke="black" points="840,-1020.5 995.61,-1020.5 "/>
<text text-anchor="start" x="848" y="-1005.3" font-family="Times,serif" font-size="14.00">create</text>
<text text-anchor="start" x="848" y="-991.3" font-family="Times,serif" font-size="14.00">destroy</text>
<text text-anchor="start" x="848" y="-977.3" font-family="Times,serif" font-size="14.00">edit</text>
<text text-anchor="start" x="848" y="-963.3" font-family="Times,serif" font-size="14.00">index</text>
<text text-anchor="start" x="848" y="-949.3" font-family="Times,serif" font-size="14.00">new</text>
<text text-anchor="start" x="848" y="-935.3" font-family="Times,serif" font-size="14.00">show</text>
<text text-anchor="start" x="848" y="-921.3" font-family="Times,serif" font-size="14.00">update</text>
<polyline fill="none" stroke="black" points="840,-914.5 995.61,-914.5 "/>
<polyline fill="none" stroke="black" points="840,-890.5 995.61,-890.5 "/>
<text text-anchor="start" x="848" y="-875.3" font-family="Times,serif" font-size="14.00">_layout</text>
<text text-anchor="start" x="848" y="-861.3" font-family="Times,serif" font-size="14.00">set_workpackage</text>
<text text-anchor="start" x="848" y="-847.3" font-family="Times,serif" font-size="14.00">workpackage_params</text>
</g>
</g>
</svg>
