<?xml version="1.0" encoding="UTF-8" standalone="no"?>
<!DOCTYPE svg PUBLIC "-//W3C//DTD SVG 1.1//EN"
 "http://www.w3.org/Graphics/SVG/1.1/DTD/svg11.dtd">
<!-- Generated by graphviz version 2.36.0 (20140111.2315)
 -->
<!-- Title: models_diagram Pages: 1 -->
<svg width="851pt" height="658pt"
 viewBox="0.00 0.00 851.00 658.00" xmlns="http://www.w3.org/2000/svg" xmlns:xlink="http://www.w3.org/1999/xlink">
<g id="graph0" class="graph" transform="scale(1 1) rotate(0) translate(4 654)">
<title>models_diagram</title>
<polygon fill="none" stroke="none" points="-4,4 -4,-654 847,-654 847,4 -4,4"/>
<!-- _diagram_info -->
<g id="node1" class="node"><title>_diagram_info</title>
<text text-anchor="start" x="145.312" y="-635.1" font-family="Times,serif" font-size="13.00">Models diagram</text>
<text text-anchor="start" x="145.312" y="-622.1" font-family="Times,serif" font-size="13.00">Date: Jan 30 2016 &#45; 12:27</text>
<text text-anchor="start" x="145.312" y="-609.1" font-family="Times,serif" font-size="13.00">Migration version: 20160127163157</text>
<text text-anchor="start" x="145.312" y="-596.1" font-family="Times,serif" font-size="13.00">Generated by RailRoady 1.4.2</text>
<text text-anchor="start" x="145.312" y="-583.1" font-family="Times,serif" font-size="13.00">http://railroady.prestonlee.com</text>
</g>
<!-- Component -->
<g id="node2" class="node"><title>Component</title>
<ellipse fill="none" stroke="black" cx="370" cy="-90" rx="51.0631" ry="18"/>
<text text-anchor="middle" x="370" y="-85.8" font-family="Times,serif" font-size="14.00">Component</text>
</g>
<!-- Milestone -->
<g id="node8" class="node"><title>Milestone</title>
<ellipse fill="none" stroke="black" cx="268" cy="-18" rx="45.2147" ry="18"/>
<text text-anchor="middle" x="268" y="-13.8" font-family="Times,serif" font-size="14.00">Milestone</text>
</g>
<!-- Component&#45;&gt;Milestone -->
<g id="edge1" class="edge"><title>Component&#45;&gt;Milestone</title>
<path fill="none" stroke="#0256db" d="M340.873,-69.0112C326.977,-59.4748 310.409,-48.104 296.583,-38.6161"/>
<ellipse fill="none" stroke="#0256db" cx="344.318" cy="-71.3748" rx="4.00002" ry="4.00002"/>
<ellipse fill="#0256db" stroke="#0256db" cx="292.931" cy="-36.1093" rx="4.00002" ry="4.00002"/>
</g>
<!-- DelphiEstimation -->
<g id="node3" class="node"><title>DelphiEstimation</title>
<ellipse fill="none" stroke="black" cx="494" cy="-522" rx="72.2421" ry="18"/>
<text text-anchor="middle" x="494" y="-517.8" font-family="Times,serif" font-size="14.00">DelphiEstimation</text>
</g>
<!-- Round -->
<g id="node18" class="node"><title>Round</title>
<ellipse fill="none" stroke="black" cx="494" cy="-450" rx="33.5375" ry="18"/>
<text text-anchor="middle" x="494" y="-445.8" font-family="Times,serif" font-size="14.00">Round</text>
</g>
<!-- DelphiEstimation&#45;&gt;Round -->
<g id="edge2" class="edge"><title>DelphiEstimation&#45;&gt;Round</title>
<path fill="none" stroke="#f59e73" d="M494,-495.64C494,-490.063 494,-484.132 494,-478.476"/>
<ellipse fill="none" stroke="#f59e73" cx="494" cy="-499.697" rx="4" ry="4"/>
<polygon fill="#f59e73" stroke="#f59e73" points="494,-478.104 498.5,-468.104 494,-473.104 494,-468.104 494,-468.104 494,-468.104 494,-473.104 489.5,-468.104 494,-478.104 494,-478.104"/>
</g>
<!-- Estimation -->
<g id="node4" class="node"><title>Estimation</title>
<ellipse fill="none" stroke="black" cx="518" cy="-306" rx="48.1389" ry="18"/>
<text text-anchor="middle" x="518" y="-301.8" font-family="Times,serif" font-size="14.00">Estimation</text>
</g>
<!-- Workpackage -->
<g id="node24" class="node"><title>Workpackage</title>
<ellipse fill="none" stroke="black" cx="370" cy="-234" rx="58.2561" ry="18"/>
<text text-anchor="middle" x="370" y="-229.8" font-family="Times,serif" font-size="14.00">Workpackage</text>
</g>
<!-- Estimation&#45;&gt;Workpackage -->
<g id="edge3" class="edge"><title>Estimation&#45;&gt;Workpackage</title>
<path fill="none" stroke="#bd3fc1" d="M481.658,-287.811C459.303,-277.238 430.698,-263.708 408.037,-252.991"/>
<ellipse fill="none" stroke="#bd3fc1" cx="485.497" cy="-289.627" rx="4.00002" ry="4.00002"/>
<ellipse fill="#bd3fc1" stroke="#bd3fc1" cx="404.214" cy="-251.182" rx="4.00002" ry="4.00002"/>
</g>
<!-- EstimationTemplate -->
<g id="node5" class="node"><title>EstimationTemplate</title>
<ellipse fill="none" stroke="black" cx="370" cy="-306" rx="81.3002" ry="18"/>
<text text-anchor="middle" x="370" y="-301.8" font-family="Times,serif" font-size="14.00">EstimationTemplate</text>
</g>
<!-- EstimationTemplate&#45;&gt;Workpackage -->
<g id="edge4" class="edge"><title>EstimationTemplate&#45;&gt;Workpackage</title>
<path fill="none" stroke="#c3b368" d="M370,-279.64C370,-273.348 370,-266.605 370,-260.316"/>
<ellipse fill="none" stroke="#c3b368" cx="370" cy="-283.697" rx="4" ry="4"/>
<ellipse fill="#c3b368" stroke="#c3b368" cx="370" cy="-256.104" rx="4" ry="4"/>
</g>
<!-- ExpertForm -->
<g id="node6" class="node"><title>ExpertForm</title>
<ellipse fill="none" stroke="black" cx="510" cy="-378" rx="52.2663" ry="18"/>
<text text-anchor="middle" x="510" y="-373.8" font-family="Times,serif" font-size="14.00">ExpertForm</text>
</g>
<!-- ExpertForm&#45;&gt;Estimation -->
<g id="edge5" class="edge"><title>ExpertForm&#45;&gt;Estimation</title>
<path fill="none" stroke="#f97f22" d="M512.898,-351.64C513.552,-345.92 514.248,-339.828 514.91,-334.042"/>
<ellipse fill="none" stroke="#f97f22" cx="512.432" cy="-355.722" rx="4.00001" ry="4.00001"/>
<polygon fill="#f97f22" stroke="#f97f22" points="514.91,-334.04 520.516,-324.615 515.477,-329.072 516.045,-324.104 516.045,-324.104 516.045,-324.104 515.477,-329.072 511.574,-323.593 514.91,-334.04 514.91,-334.04"/>
</g>
<!-- FormTemplate -->
<g id="node7" class="node"><title>FormTemplate</title>
<ellipse fill="none" stroke="black" cx="372" cy="-378" rx="62.0674" ry="18"/>
<text text-anchor="middle" x="372" y="-373.8" font-family="Times,serif" font-size="14.00">FormTemplate</text>
</g>
<!-- FormTemplate&#45;&gt;EstimationTemplate -->
<g id="edge6" class="edge"><title>FormTemplate&#45;&gt;EstimationTemplate</title>
<path fill="none" stroke="#be117d" d="M371.275,-351.64C371.116,-346.063 370.947,-340.132 370.785,-334.476"/>
<ellipse fill="none" stroke="#be117d" cx="371.391" cy="-355.698" rx="4" ry="4"/>
<polygon fill="#be117d" stroke="#be117d" points="370.774,-334.1 374.987,-323.976 370.632,-329.102 370.489,-324.104 370.489,-324.104 370.489,-324.104 370.632,-329.102 365.991,-324.233 370.774,-334.1 370.774,-334.1"/>
</g>
<!-- Modul -->
<g id="node9" class="node"><title>Modul</title>
<ellipse fill="none" stroke="black" cx="575" cy="-162" rx="33.5375" ry="18"/>
<text text-anchor="middle" x="575" y="-157.8" font-family="Times,serif" font-size="14.00">Modul</text>
</g>
<!-- Modul&#45;&gt;Component -->
<g id="edge7" class="edge"><title>Modul&#45;&gt;Component</title>
<path fill="none" stroke="#a44d9d" d="M539.68,-148.939C505.201,-137.166 452.598,-119.204 415.109,-106.403"/>
<ellipse fill="none" stroke="#a44d9d" cx="543.567" cy="-150.267" rx="4.00001" ry="4.00001"/>
<polygon fill="#a44d9d" stroke="#a44d9d" points="414.909,-106.335 406.899,-98.8446 410.177,-104.719 405.445,-103.103 405.445,-103.103 405.445,-103.103 410.177,-104.719 403.991,-107.362 414.909,-106.335 414.909,-106.335"/>
</g>
<!-- ProductBreakdownStructure -->
<g id="node10" class="node"><title>ProductBreakdownStructure</title>
<ellipse fill="none" stroke="black" cx="733" cy="-522" rx="110.202" ry="18"/>
<text text-anchor="middle" x="733" y="-517.8" font-family="Times,serif" font-size="14.00">ProductBreakdownStructure</text>
</g>
<!-- Subproduct -->
<g id="node19" class="node"><title>Subproduct</title>
<ellipse fill="none" stroke="black" cx="725" cy="-450" rx="50.3252" ry="18"/>
<text text-anchor="middle" x="725" y="-445.8" font-family="Times,serif" font-size="14.00">Subproduct</text>
</g>
<!-- ProductBreakdownStructure&#45;&gt;Subproduct -->
<g id="edge8" class="edge"><title>ProductBreakdownStructure&#45;&gt;Subproduct</title>
<path fill="none" stroke="#8b7970" d="M730.102,-495.64C729.448,-489.92 728.752,-483.828 728.09,-478.042"/>
<ellipse fill="none" stroke="#8b7970" cx="730.568" cy="-499.722" rx="4.00001" ry="4.00001"/>
<polygon fill="#8b7970" stroke="#8b7970" points="728.09,-478.04 731.426,-467.593 727.523,-473.072 726.955,-468.104 726.955,-468.104 726.955,-468.104 727.523,-473.072 722.484,-468.615 728.09,-478.04 728.09,-478.04"/>
</g>
<!-- Project -->
<g id="node11" class="node"><title>Project</title>
<ellipse fill="none" stroke="black" cx="398" cy="-613" rx="35.2345" ry="18"/>
<text text-anchor="middle" x="398" y="-608.8" font-family="Times,serif" font-size="14.00">Project</text>
</g>
<!-- Project&#45;&gt;DelphiEstimation -->
<g id="edge13" class="edge"><title>Project&#45;&gt;DelphiEstimation</title>
<path fill="none" stroke="#7182c6" d="M420.227,-591.394C435.052,-577.65 454.539,-559.583 469.762,-545.47"/>
<ellipse fill="none" stroke="#7182c6" cx="417.218" cy="-594.183" rx="4.00002" ry="4.00002"/>
<ellipse fill="#7182c6" stroke="#7182c6" cx="473.066" cy="-542.407" rx="4.00002" ry="4.00002"/>
</g>
<!-- Project&#45;&gt;ProductBreakdownStructure -->
<g id="edge10" class="edge"><title>Project&#45;&gt;ProductBreakdownStructure</title>
<path fill="none" stroke="#996719" d="M436.302,-601.824C493.324,-586.675 601.186,-558.019 669.954,-539.75"/>
<ellipse fill="none" stroke="#996719" cx="432.186" cy="-602.918" rx="4.00001" ry="4.00001"/>
<ellipse fill="#996719" stroke="#996719" cx="673.86" cy="-538.712" rx="4.00001" ry="4.00001"/>
</g>
<!-- ResourceAllocationMatrix -->
<g id="node14" class="node"><title>ResourceAllocationMatrix</title>
<ellipse fill="none" stroke="black" cx="572" cy="-234" rx="104.115" ry="18"/>
<text text-anchor="middle" x="572" y="-229.8" font-family="Times,serif" font-size="14.00">ResourceAllocationMatrix</text>
</g>
<!-- Project&#45;&gt;ResourceAllocationMatrix -->
<g id="edge14" class="edge"><title>Project&#45;&gt;ResourceAllocationMatrix</title>
<path fill="none" stroke="#6cbdbd" d="M439.997,-606.312C480.664,-598.529 541.016,-580.562 575,-540 600.976,-508.997 594,-491.447 594,-451 594,-451 594,-451 594,-377 594,-335.853 584.868,-288.782 578.371,-260.501"/>
<ellipse fill="none" stroke="#6cbdbd" cx="435.823" cy="-607.067" rx="4.00001" ry="4.00001"/>
<ellipse fill="#6cbdbd" stroke="#6cbdbd" cx="577.369" cy="-256.248" rx="4.00001" ry="4.00001"/>
</g>
<!-- ResourceBreakdownStructure -->
<g id="node15" class="node"><title>ResourceBreakdownStructure</title>
<ellipse fill="none" stroke="black" cx="162" cy="-450" rx="116.291" ry="18"/>
<text text-anchor="middle" x="162" y="-445.8" font-family="Times,serif" font-size="14.00">ResourceBreakdownStructure</text>
</g>
<!-- Project&#45;&gt;ResourceBreakdownStructure -->
<g id="edge11" class="edge"><title>Project&#45;&gt;ResourceBreakdownStructure</title>
<path fill="none" stroke="#8760dc" d="M376.456,-591.465C369.432,-585.715 361.295,-579.96 353,-576 285.657,-543.85 243.796,-590.657 189,-540 171.363,-523.696 165.107,-496.29 162.96,-476.189"/>
<ellipse fill="none" stroke="#8760dc" cx="379.528" cy="-594.093" rx="4.00002" ry="4.00002"/>
<ellipse fill="#8760dc" stroke="#8760dc" cx="162.609" cy="-472.061" rx="4" ry="4"/>
</g>
<!-- Roadmap -->
<g id="node16" class="node"><title>Roadmap</title>
<ellipse fill="none" stroke="black" cx="43" cy="-234" rx="43.4994" ry="18"/>
<text text-anchor="middle" x="43" y="-229.8" font-family="Times,serif" font-size="14.00">Roadmap</text>
</g>
<!-- Project&#45;&gt;Roadmap -->
<g id="edge12" class="edge"><title>Project&#45;&gt;Roadmap</title>
<path fill="none" stroke="#564e4f" d="M376.519,-591.333C369.497,-585.576 361.346,-579.852 353,-576 208.714,-509.397 18,-609.916 18,-451 18,-451 18,-451 18,-377 18,-335.535 28.4673,-288.277 35.8559,-260.084"/>
<ellipse fill="none" stroke="#564e4f" cx="379.588" cy="-593.969" rx="4.00002" ry="4.00002"/>
<ellipse fill="#564e4f" stroke="#564e4f" cx="36.9039" cy="-256.179" rx="4.00001" ry="4.00001"/>
</g>
<!-- WorkBreakdownStructure -->
<g id="node23" class="node"><title>WorkBreakdownStructure</title>
<ellipse fill="none" stroke="black" cx="301" cy="-522" rx="102.582" ry="18"/>
<text text-anchor="middle" x="301" y="-517.8" font-family="Times,serif" font-size="14.00">WorkBreakdownStructure</text>
</g>
<!-- Project&#45;&gt;WorkBreakdownStructure -->
<g id="edge9" class="edge"><title>Project&#45;&gt;WorkBreakdownStructure</title>
<path fill="none" stroke="#b817cd" d="M375.581,-591.43C360.703,-577.779 341.166,-559.853 325.82,-545.773"/>
<ellipse fill="none" stroke="#b817cd" cx="378.598" cy="-594.198" rx="4.00002" ry="4.00002"/>
<ellipse fill="#b817cd" stroke="#b817cd" cx="322.473" cy="-542.702" rx="4.00002" ry="4.00002"/>
</g>
<!-- RamEntry -->
<g id="node12" class="node"><title>RamEntry</title>
<ellipse fill="none" stroke="black" cx="370" cy="-162" rx="46.1851" ry="18"/>
<text text-anchor="middle" x="370" y="-157.8" font-family="Times,serif" font-size="14.00">RamEntry</text>
</g>
<!-- RamEntry&#45;&gt;Component -->
<g id="edge16" class="edge"><title>RamEntry&#45;&gt;Component</title>
<path fill="none" stroke="#83b700" d="M370,-135.64C370,-129.348 370,-122.605 370,-116.316"/>
<ellipse fill="none" stroke="#83b700" cx="370" cy="-139.697" rx="4" ry="4"/>
<ellipse fill="#83b700" stroke="#83b700" cx="370" cy="-112.104" rx="4" ry="4"/>
</g>
<!-- Resource -->
<g id="node13" class="node"><title>Resource</title>
<ellipse fill="none" stroke="black" cx="244" cy="-90" rx="43.0161" ry="18"/>
<text text-anchor="middle" x="244" y="-85.8" font-family="Times,serif" font-size="14.00">Resource</text>
</g>
<!-- RamEntry&#45;&gt;Resource -->
<g id="edge15" class="edge"><title>RamEntry&#45;&gt;Resource</title>
<path fill="none" stroke="#a30a2c" d="M337.242,-142.801C318.437,-132.354 294.918,-119.288 276.205,-108.892"/>
<ellipse fill="none" stroke="#a30a2c" cx="341.005" cy="-144.892" rx="4.00002" ry="4.00002"/>
<ellipse fill="#a30a2c" stroke="#a30a2c" cx="272.527" cy="-106.848" rx="4.00002" ry="4.00002"/>
</g>
<!-- ResourceAllocationMatrix&#45;&gt;RamEntry -->
<g id="edge17" class="edge"><title>ResourceAllocationMatrix&#45;&gt;RamEntry</title>
<path fill="none" stroke="#5eaa0b" d="M520.003,-214.981C486.805,-203.477 444.283,-188.742 412.995,-177.899"/>
<ellipse fill="none" stroke="#5eaa0b" cx="523.891" cy="-216.328" rx="4.00001" ry="4.00001"/>
<polygon fill="#5eaa0b" stroke="#5eaa0b" points="412.707,-177.799 404.732,-170.273 407.982,-176.162 403.258,-174.525 403.258,-174.525 403.258,-174.525 407.982,-176.162 401.785,-178.777 412.707,-177.799 412.707,-177.799"/>
</g>
<!-- Type -->
<g id="node22" class="node"><title>Type</title>
<ellipse fill="none" stroke="black" cx="149" cy="-306" rx="27.4888" ry="18"/>
<text text-anchor="middle" x="149" y="-301.8" font-family="Times,serif" font-size="14.00">Type</text>
</g>
<!-- ResourceBreakdownStructure&#45;&gt;Type -->
<g id="edge18" class="edge"><title>ResourceBreakdownStructure&#45;&gt;Type</title>
<path fill="none" stroke="#f73d68" d="M159.671,-423.558C157.372,-398.444 153.867,-360.164 151.508,-334.393"/>
<ellipse fill="none" stroke="#f73d68" cx="160.067" cy="-427.888" rx="4" ry="4"/>
<polygon fill="#f73d68" stroke="#f73d68" points="151.485,-334.148 155.055,-323.779 151.03,-329.168 150.574,-324.189 150.574,-324.189 150.574,-324.189 151.03,-329.168 146.092,-324.6 151.485,-334.148 151.485,-334.148"/>
</g>
<!-- Roadmap&#45;&gt;Milestone -->
<g id="edge19" class="edge"><title>Roadmap&#45;&gt;Milestone</title>
<path fill="none" stroke="#e2e20a" d="M61.6871,-209.843C88.6279,-177.183 140.789,-116.602 192,-72 205.662,-60.1015 222.012,-48.4142 236.042,-39.0552"/>
<ellipse fill="none" stroke="#e2e20a" cx="58.8674" cy="-213.28" rx="4.00002" ry="4.00002"/>
<polygon fill="#e2e20a" stroke="#e2e20a" points="236.073,-39.0352 246.902,-37.3097 240.253,-36.2914 244.433,-33.5477 244.433,-33.5477 244.433,-33.5477 240.253,-36.2914 241.963,-29.7858 236.073,-39.0352 236.073,-39.0352"/>
</g>
<!-- Role -->
<g id="node17" class="node"><title>Role</title>
<ellipse fill="none" stroke="black" cx="217" cy="-162" rx="27" ry="18"/>
<text text-anchor="middle" x="217" y="-157.8" font-family="Times,serif" font-size="14.00">Role</text>
</g>
<!-- Role&#45;&gt;Resource -->
<g id="edge20" class="edge"><title>Role&#45;&gt;Resource</title>
<path fill="none" stroke="#6b127c" d="M226.343,-136.778C228.747,-130.544 231.347,-123.805 233.793,-117.463"/>
<ellipse fill="none" stroke="#6b127c" cx="224.838" cy="-140.679" rx="4.00001" ry="4.00001"/>
<polygon fill="#6b127c" stroke="#6b127c" points="233.861,-117.286 241.658,-109.576 235.66,-112.621 237.46,-107.956 237.46,-107.956 237.46,-107.956 235.66,-112.621 233.261,-106.337 233.861,-117.286 233.861,-117.286"/>
</g>
<!-- Round&#45;&gt;ExpertForm -->
<g id="edge21" class="edge"><title>Round&#45;&gt;ExpertForm</title>
<path fill="none" stroke="#afbdb1" d="M499.717,-423.987C501.029,-418.249 502.429,-412.121 503.762,-406.293"/>
<ellipse fill="none" stroke="#afbdb1" cx="498.764" cy="-428.156" rx="4.00001" ry="4.00001"/>
<polygon fill="#afbdb1" stroke="#afbdb1" points="503.823,-406.024 510.438,-397.278 504.937,-401.15 506.051,-396.275 506.051,-396.275 506.051,-396.275 504.937,-401.15 501.664,-395.273 503.823,-406.024 503.823,-406.024"/>
</g>
<!-- Round&#45;&gt;FormTemplate -->
<g id="edge22" class="edge"><title>Round&#45;&gt;FormTemplate</title>
<path fill="none" stroke="#277862" d="M464.808,-432.25C447.042,-422.057 424.279,-408.996 405.743,-398.361"/>
<ellipse fill="none" stroke="#277862" cx="468.437" cy="-434.333" rx="4.00002" ry="4.00002"/>
<ellipse fill="#277862" stroke="#277862" cx="402.076" cy="-396.257" rx="4.00002" ry="4.00002"/>
</g>
<!-- Subproduct&#45;&gt;Modul -->
<g id="edge23" class="edge"><title>Subproduct&#45;&gt;Modul</title>
<path fill="none" stroke="#f9f74c" d="M727.694,-423.748C731.227,-377.599 732.212,-278.635 685,-216 668.01,-193.46 638.935,-180.029 614.943,-172.329"/>
<ellipse fill="none" stroke="#f9f74c" cx="727.354" cy="-427.744" rx="4" ry="4"/>
<polygon fill="#f9f74c" stroke="#f9f74c" points="614.941,-172.329 606.649,-165.153 610.151,-170.896 605.36,-169.464 605.36,-169.464 605.36,-169.464 610.151,-170.896 604.071,-173.775 614.941,-172.329 614.941,-172.329"/>
</g>
<!-- Subtask -->
<g id="node20" class="node"><title>Subtask</title>
<ellipse fill="none" stroke="black" cx="233" cy="-306" rx="38.1712" ry="18"/>
<text text-anchor="middle" x="233" y="-301.8" font-family="Times,serif" font-size="14.00">Subtask</text>
</g>
<!-- Subtask&#45;&gt;Workpackage -->
<g id="edge24" class="edge"><title>Subtask&#45;&gt;Workpackage</title>
<path fill="none" stroke="#a16d94" d="M264.992,-288.654C285.049,-278.405 311.007,-265.142 332.095,-254.367"/>
<ellipse fill="none" stroke="#a16d94" cx="261.372" cy="-290.504" rx="4.00002" ry="4.00002"/>
<polygon fill="#a16d94" stroke="#a16d94" points="332.198,-254.315 343.15,-253.772 336.65,-252.04 341.103,-249.765 341.103,-249.765 341.103,-249.765 336.65,-252.04 339.055,-245.758 332.198,-254.315 332.198,-254.315"/>
</g>
<!-- Task -->
<g id="node21" class="node"><title>Task</title>
<ellipse fill="none" stroke="black" cx="249" cy="-378" rx="27" ry="18"/>
<text text-anchor="middle" x="249" y="-373.8" font-family="Times,serif" font-size="14.00">Task</text>
</g>
<!-- Task&#45;&gt;Subtask -->
<g id="edge25" class="edge"><title>Task&#45;&gt;Subtask</title>
<path fill="none" stroke="#a73da6" d="M243.283,-351.987C241.971,-346.249 240.571,-340.121 239.238,-334.293"/>
<ellipse fill="none" stroke="#a73da6" cx="244.236" cy="-356.156" rx="4.00001" ry="4.00001"/>
<polygon fill="#a73da6" stroke="#a73da6" points="239.177,-334.024 241.336,-323.273 238.063,-329.15 236.949,-324.275 236.949,-324.275 236.949,-324.275 238.063,-329.15 232.562,-325.278 239.177,-334.024 239.177,-334.024"/>
</g>
<!-- Type&#45;&gt;Role -->
<g id="edge26" class="edge"><title>Type&#45;&gt;Role</title>
<path fill="none" stroke="#1ac133" d="M160.261,-281.485C172.536,-255.851 192.113,-214.969 204.761,-188.557"/>
<ellipse fill="none" stroke="#1ac133" cx="158.528" cy="-285.103" rx="4.00002" ry="4.00002"/>
<polygon fill="#1ac133" stroke="#1ac133" points="204.762,-188.556 213.14,-181.48 206.921,-184.046 209.081,-179.537 209.081,-179.537 209.081,-179.537 206.921,-184.046 205.022,-177.593 204.762,-188.556 204.762,-188.556"/>
</g>
<!-- WorkBreakdownStructure&#45;&gt;Task -->
<g id="edge27" class="edge"><title>WorkBreakdownStructure&#45;&gt;Task</title>
<path fill="none" stroke="#0c82e5" d="M300.125,-495.586C298.759,-477.311 295.361,-452.397 287,-432 282.639,-421.362 275.759,-410.824 269.044,-401.981"/>
<ellipse fill="none" stroke="#0c82e5" cx="300.397" cy="-499.982" rx="4" ry="4"/>
<polygon fill="#0c82e5" stroke="#0c82e5" points="268.976,-401.895 266.264,-391.27 265.86,-397.984 262.744,-394.074 262.744,-394.074 262.744,-394.074 265.86,-397.984 259.225,-396.878 268.976,-401.895 268.976,-401.895"/>
</g>
<!-- Workpackage&#45;&gt;RamEntry -->
<g id="edge28" class="edge"><title>Workpackage&#45;&gt;RamEntry</title>
<path fill="none" stroke="#b88238" d="M370,-207.64C370,-201.348 370,-194.605 370,-188.316"/>
<ellipse fill="none" stroke="#b88238" cx="370" cy="-211.697" rx="4" ry="4"/>
<ellipse fill="#b88238" stroke="#b88238" cx="370" cy="-184.104" rx="4" ry="4"/>
</g>
</g>
</svg>
