<?xml version="1.0" encoding="UTF-8" standalone="no"?>
<!DOCTYPE svg PUBLIC "-//W3C//DTD SVG 1.1//EN"
 "http://www.w3.org/Graphics/SVG/1.1/DTD/svg11.dtd">
<!-- Generated by graphviz version 2.36.0 (20140111.2315)
 -->
<!-- Title: models_diagram Pages: 1 -->
<svg width="906pt" height="442pt"
 viewBox="0.00 0.00 906.00 442.00" xmlns="http://www.w3.org/2000/svg" xmlns:xlink="http://www.w3.org/1999/xlink">
<g id="graph0" class="graph" transform="scale(1 1) rotate(0) translate(4 438)">
<title>models_diagram</title>
<polygon fill="none" stroke="none" points="-4,4 -4,-438 902,-438 902,4 -4,4"/>
<!-- _diagram_info -->
<g id="node1" class="node"><title>_diagram_info</title>
<text text-anchor="start" x="108.55" y="-419.1" font-family="Times,serif" font-size="13.00">Models diagram</text>
<text text-anchor="start" x="108.55" y="-406.1" font-family="Times,serif" font-size="13.00">Date: Jan 19 2016 &#45; 17:45</text>
<text text-anchor="start" x="108.55" y="-393.1" font-family="Times,serif" font-size="13.00">Migration version: 20160119154558</text>
<text text-anchor="start" x="108.55" y="-380.1" font-family="Times,serif" font-size="13.00">Generated by RailRoady 1.4.2</text>
<text text-anchor="start" x="108.55" y="-367.1" font-family="Times,serif" font-size="13.00">http://railroady.prestonlee.com</text>
</g>
<!-- Component -->
<g id="node2" class="node"><title>Component</title>
<ellipse fill="none" stroke="black" cx="110" cy="-90" rx="51.0631" ry="18"/>
<text text-anchor="middle" x="110" y="-85.8" font-family="Times,serif" font-size="14.00">Component</text>
</g>
<!-- DelphiEstimation -->
<g id="node3" class="node"><title>DelphiEstimation</title>
<ellipse fill="none" stroke="black" cx="311" cy="-306" rx="72.2421" ry="18"/>
<text text-anchor="middle" x="311" y="-301.8" font-family="Times,serif" font-size="14.00">DelphiEstimation</text>
</g>
<!-- Round -->
<g id="node15" class="node"><title>Round</title>
<ellipse fill="none" stroke="black" cx="311" cy="-234" rx="33.5375" ry="18"/>
<text text-anchor="middle" x="311" y="-229.8" font-family="Times,serif" font-size="14.00">Round</text>
</g>
<!-- DelphiEstimation&#45;&gt;Round -->
<g id="edge1" class="edge"><title>DelphiEstimation&#45;&gt;Round</title>
<path fill="none" stroke="#e2236d" d="M311,-279.64C311,-274.063 311,-268.132 311,-262.476"/>
<ellipse fill="none" stroke="#e2236d" cx="311" cy="-283.697" rx="4" ry="4"/>
<polygon fill="#e2236d" stroke="#e2236d" points="311,-262.104 315.5,-252.104 311,-257.104 311,-252.104 311,-252.104 311,-252.104 311,-257.104 306.5,-252.104 311,-262.104 311,-262.104"/>
</g>
<!-- Estimation -->
<g id="node4" class="node"><title>Estimation</title>
<ellipse fill="none" stroke="black" cx="238" cy="-90" rx="48.1389" ry="18"/>
<text text-anchor="middle" x="238" y="-85.8" font-family="Times,serif" font-size="14.00">Estimation</text>
</g>
<!-- Workpackage -->
<g id="node21" class="node"><title>Workpackage</title>
<ellipse fill="none" stroke="black" cx="386" cy="-18" rx="58.2561" ry="18"/>
<text text-anchor="middle" x="386" y="-13.8" font-family="Times,serif" font-size="14.00">Workpackage</text>
</g>
<!-- Estimation&#45;&gt;Workpackage -->
<g id="edge2" class="edge"><title>Estimation&#45;&gt;Workpackage</title>
<path fill="none" stroke="#7dcdbe" d="M274.342,-71.8113C296.697,-61.2381 325.302,-47.7085 347.963,-36.9905"/>
<ellipse fill="none" stroke="#7dcdbe" cx="270.503" cy="-73.6268" rx="4.00002" ry="4.00002"/>
<ellipse fill="#7dcdbe" stroke="#7dcdbe" cx="351.786" cy="-35.1821" rx="4.00002" ry="4.00002"/>
</g>
<!-- EstimationTemplate -->
<g id="node5" class="node"><title>EstimationTemplate</title>
<ellipse fill="none" stroke="black" cx="386" cy="-90" rx="81.3002" ry="18"/>
<text text-anchor="middle" x="386" y="-85.8" font-family="Times,serif" font-size="14.00">EstimationTemplate</text>
</g>
<!-- EstimationTemplate&#45;&gt;Workpackage -->
<g id="edge3" class="edge"><title>EstimationTemplate&#45;&gt;Workpackage</title>
<path fill="none" stroke="#7b479a" d="M386,-63.6398C386,-57.348 386,-50.6053 386,-44.3156"/>
<ellipse fill="none" stroke="#7b479a" cx="386" cy="-67.6966" rx="4" ry="4"/>
<ellipse fill="#7b479a" stroke="#7b479a" cx="386" cy="-40.1043" rx="4" ry="4"/>
</g>
<!-- ExpertForm -->
<g id="node6" class="node"><title>ExpertForm</title>
<ellipse fill="none" stroke="black" cx="242" cy="-162" rx="52.2663" ry="18"/>
<text text-anchor="middle" x="242" y="-157.8" font-family="Times,serif" font-size="14.00">ExpertForm</text>
</g>
<!-- ExpertForm&#45;&gt;Estimation -->
<g id="edge4" class="edge"><title>ExpertForm&#45;&gt;Estimation</title>
<path fill="none" stroke="#41e9af" d="M240.551,-135.64C240.232,-130.063 239.893,-124.132 239.57,-118.476"/>
<ellipse fill="none" stroke="#41e9af" cx="240.783" cy="-139.703" rx="4" ry="4"/>
<polygon fill="#41e9af" stroke="#41e9af" points="239.548,-118.088 243.47,-107.848 239.263,-113.096 238.977,-108.104 238.977,-108.104 238.977,-108.104 239.263,-113.096 234.485,-108.361 239.548,-118.088 239.548,-118.088"/>
</g>
<!-- FormTemplate -->
<g id="node7" class="node"><title>FormTemplate</title>
<ellipse fill="none" stroke="black" cx="382" cy="-162" rx="62.0674" ry="18"/>
<text text-anchor="middle" x="382" y="-157.8" font-family="Times,serif" font-size="14.00">FormTemplate</text>
</g>
<!-- FormTemplate&#45;&gt;EstimationTemplate -->
<g id="edge5" class="edge"><title>FormTemplate&#45;&gt;EstimationTemplate</title>
<path fill="none" stroke="#5eafea" d="M383.449,-135.64C383.768,-130.063 384.107,-124.132 384.43,-118.476"/>
<ellipse fill="none" stroke="#5eafea" cx="383.217" cy="-139.703" rx="4" ry="4"/>
<polygon fill="#5eafea" stroke="#5eafea" points="384.452,-118.088 389.515,-108.361 384.737,-113.096 385.023,-108.104 385.023,-108.104 385.023,-108.104 384.737,-113.096 380.53,-107.848 384.452,-118.088 384.452,-118.088"/>
</g>
<!-- Modul -->
<g id="node8" class="node"><title>Modul</title>
<ellipse fill="none" stroke="black" cx="110" cy="-162" rx="33.5375" ry="18"/>
<text text-anchor="middle" x="110" y="-157.8" font-family="Times,serif" font-size="14.00">Modul</text>
</g>
<!-- Modul&#45;&gt;Component -->
<g id="edge6" class="edge"><title>Modul&#45;&gt;Component</title>
<path fill="none" stroke="#28532e" d="M110,-135.64C110,-130.063 110,-124.132 110,-118.476"/>
<ellipse fill="none" stroke="#28532e" cx="110" cy="-139.697" rx="4" ry="4"/>
<polygon fill="#28532e" stroke="#28532e" points="110,-118.104 114.5,-108.104 110,-113.104 110,-108.104 110,-108.104 110,-108.104 110,-113.104 105.5,-108.104 110,-118.104 110,-118.104"/>
</g>
<!-- ProductBreakdownStructure -->
<g id="node9" class="node"><title>ProductBreakdownStructure</title>
<ellipse fill="none" stroke="black" cx="110" cy="-306" rx="110.202" ry="18"/>
<text text-anchor="middle" x="110" y="-301.8" font-family="Times,serif" font-size="14.00">ProductBreakdownStructure</text>
</g>
<!-- Subproduct -->
<g id="node16" class="node"><title>Subproduct</title>
<ellipse fill="none" stroke="black" cx="110" cy="-234" rx="50.3252" ry="18"/>
<text text-anchor="middle" x="110" y="-229.8" font-family="Times,serif" font-size="14.00">Subproduct</text>
</g>
<!-- ProductBreakdownStructure&#45;&gt;Subproduct -->
<g id="edge7" class="edge"><title>ProductBreakdownStructure&#45;&gt;Subproduct</title>
<path fill="none" stroke="#ca6d80" d="M110,-279.64C110,-274.063 110,-268.132 110,-262.476"/>
<ellipse fill="none" stroke="#ca6d80" cx="110" cy="-283.697" rx="4" ry="4"/>
<polygon fill="#ca6d80" stroke="#ca6d80" points="110,-262.104 114.5,-252.104 110,-257.104 110,-252.104 110,-252.104 110,-252.104 110,-257.104 105.5,-252.104 110,-262.104 110,-262.104"/>
</g>
<!-- Project -->
<g id="node10" class="node"><title>Project</title>
<ellipse fill="none" stroke="black" cx="361" cy="-397" rx="35.2345" ry="18"/>
<text text-anchor="middle" x="361" y="-392.8" font-family="Times,serif" font-size="14.00">Project</text>
</g>
<!-- Project&#45;&gt;DelphiEstimation -->
<g id="edge11" class="edge"><title>Project&#45;&gt;DelphiEstimation</title>
<path fill="none" stroke="#4bd2c1" d="M347.613,-372.171C340.472,-359.46 331.705,-343.856 324.541,-331.103"/>
<ellipse fill="none" stroke="#4bd2c1" cx="349.636" cy="-375.772" rx="4.00002" ry="4.00002"/>
<ellipse fill="#4bd2c1" stroke="#4bd2c1" cx="322.492" cy="-327.455" rx="4.00002" ry="4.00002"/>
</g>
<!-- Project&#45;&gt;ProductBreakdownStructure -->
<g id="edge9" class="edge"><title>Project&#45;&gt;ProductBreakdownStructure</title>
<path fill="none" stroke="#05950b" d="M338.589,-375.014C331.743,-369.48 323.921,-363.957 316,-360 278.527,-341.281 233.818,-328.744 195.642,-320.587"/>
<ellipse fill="none" stroke="#05950b" cx="342.02" cy="-377.913" rx="4.00002" ry="4.00002"/>
<ellipse fill="#05950b" stroke="#05950b" cx="191.516" cy="-319.728" rx="4.00001" ry="4.00001"/>
</g>
<!-- ResourceBreakdownStructure -->
<g id="node13" class="node"><title>ResourceBreakdownStructure</title>
<ellipse fill="none" stroke="black" cx="782" cy="-306" rx="116.291" ry="18"/>
<text text-anchor="middle" x="782" y="-301.8" font-family="Times,serif" font-size="14.00">ResourceBreakdownStructure</text>
</g>
<!-- Project&#45;&gt;ResourceBreakdownStructure -->
<g id="edge10" class="edge"><title>Project&#45;&gt;ResourceBreakdownStructure</title>
<path fill="none" stroke="#95caf7" d="M401.017,-387.54C471.543,-372.631 618.941,-341.471 708.306,-322.579"/>
<ellipse fill="none" stroke="#95caf7" cx="396.902" cy="-388.41" rx="4.00001" ry="4.00001"/>
<ellipse fill="#95caf7" stroke="#95caf7" cx="712.322" cy="-321.73" rx="4.00001" ry="4.00001"/>
</g>
<!-- WorkBreakdownStructure -->
<g id="node20" class="node"><title>WorkBreakdownStructure</title>
<ellipse fill="none" stroke="black" cx="523" cy="-234" rx="102.582" ry="18"/>
<text text-anchor="middle" x="523" y="-229.8" font-family="Times,serif" font-size="14.00">WorkBreakdownStructure</text>
</g>
<!-- Project&#45;&gt;WorkBreakdownStructure -->
<g id="edge8" class="edge"><title>Project&#45;&gt;WorkBreakdownStructure</title>
<path fill="none" stroke="#9c2299" d="M372.01,-372.05C383.769,-348.456 404.245,-312.485 430,-288 444.016,-274.675 462.004,-263.426 478.419,-254.766"/>
<ellipse fill="none" stroke="#9c2299" cx="370.256" cy="-375.65" rx="4.00002" ry="4.00002"/>
<ellipse fill="#9c2299" stroke="#9c2299" cx="482.27" cy="-252.795" rx="4.00002" ry="4.00002"/>
</g>
<!-- Resource -->
<g id="node11" class="node"><title>Resource</title>
<ellipse fill="none" stroke="black" cx="722" cy="-90" rx="43.0161" ry="18"/>
<text text-anchor="middle" x="722" y="-85.8" font-family="Times,serif" font-size="14.00">Resource</text>
</g>
<!-- ResourceAllocationMatrix -->
<g id="node12" class="node"><title>ResourceAllocationMatrix</title>
<ellipse fill="none" stroke="black" cx="543" cy="-306" rx="104.115" ry="18"/>
<text text-anchor="middle" x="543" y="-301.8" font-family="Times,serif" font-size="14.00">ResourceAllocationMatrix</text>
</g>
<!-- Role -->
<g id="node14" class="node"><title>Role</title>
<ellipse fill="none" stroke="black" cx="722" cy="-162" rx="27" ry="18"/>
<text text-anchor="middle" x="722" y="-157.8" font-family="Times,serif" font-size="14.00">Role</text>
</g>
<!-- ResourceAllocationMatrix&#45;&gt;Role -->
<g id="edge13" class="edge"><title>ResourceAllocationMatrix&#45;&gt;Role</title>
<path fill="none" stroke="#5d0255" d="M582.854,-284.783C599.32,-275.682 618.209,-264.236 634,-252 659.85,-231.97 685.72,-204.731 702.653,-185.682"/>
<ellipse fill="none" stroke="#5d0255" cx="578.993" cy="-286.883" rx="4.00002" ry="4.00002"/>
<polygon fill="#5d0255" stroke="#5d0255" points="702.741,-185.581 712.719,-181.032 706.039,-181.823 709.336,-178.064 709.336,-178.064 709.336,-178.064 706.039,-181.823 705.954,-175.097 702.741,-185.581 702.741,-185.581"/>
</g>
<!-- ResourceAllocationMatrix&#45;&gt;WorkBreakdownStructure -->
<g id="edge12" class="edge"><title>ResourceAllocationMatrix&#45;&gt;WorkBreakdownStructure</title>
<path fill="none" stroke="#1e2f11" d="M535.834,-279.92C533.981,-273.433 531.986,-266.451 530.134,-259.97"/>
<ellipse fill="none" stroke="#1e2f11" cx="536.957" cy="-283.851" rx="4.00001" ry="4.00001"/>
<ellipse fill="#1e2f11" stroke="#1e2f11" cx="528.986" cy="-255.95" rx="4.00001" ry="4.00001"/>
</g>
<!-- Type -->
<g id="node19" class="node"><title>Type</title>
<ellipse fill="none" stroke="black" cx="771" cy="-234" rx="27.4888" ry="18"/>
<text text-anchor="middle" x="771" y="-229.8" font-family="Times,serif" font-size="14.00">Type</text>
</g>
<!-- ResourceBreakdownStructure&#45;&gt;Type -->
<g id="edge14" class="edge"><title>ResourceBreakdownStructure&#45;&gt;Type</title>
<path fill="none" stroke="#756a4f" d="M778.015,-279.64C777.116,-273.92 776.159,-267.828 775.249,-262.042"/>
<ellipse fill="none" stroke="#756a4f" cx="778.66" cy="-283.745" rx="4.00001" ry="4.00001"/>
<polygon fill="#756a4f" stroke="#756a4f" points="775.24,-261.983 778.133,-251.406 774.464,-257.044 773.688,-252.104 773.688,-252.104 773.688,-252.104 774.464,-257.044 769.242,-252.803 775.24,-261.983 775.24,-261.983"/>
</g>
<!-- Role&#45;&gt;Resource -->
<g id="edge15" class="edge"><title>Role&#45;&gt;Resource</title>
<path fill="none" stroke="#0ff8ef" d="M722,-135.64C722,-130.063 722,-124.132 722,-118.476"/>
<ellipse fill="none" stroke="#0ff8ef" cx="722" cy="-139.697" rx="4" ry="4"/>
<polygon fill="#0ff8ef" stroke="#0ff8ef" points="722,-118.104 726.5,-108.104 722,-113.104 722,-108.104 722,-108.104 722,-108.104 722,-113.104 717.5,-108.104 722,-118.104 722,-118.104"/>
</g>
<!-- Round&#45;&gt;ExpertForm -->
<g id="edge16" class="edge"><title>Round&#45;&gt;ExpertForm</title>
<path fill="none" stroke="#d2ae96" d="M290.275,-211.975C282.461,-204.047 273.519,-194.976 265.471,-186.811"/>
<ellipse fill="none" stroke="#d2ae96" cx="293.22" cy="-214.962" rx="4.00002" ry="4.00002"/>
<polygon fill="#d2ae96" stroke="#d2ae96" points="265.41,-186.75 261.595,-176.469 261.9,-183.189 258.39,-179.628 258.39,-179.628 258.39,-179.628 261.9,-183.189 255.186,-182.787 265.41,-186.75 265.41,-186.75"/>
</g>
<!-- Round&#45;&gt;FormTemplate -->
<g id="edge17" class="edge"><title>Round&#45;&gt;FormTemplate</title>
<path fill="none" stroke="#7a6f7b" d="M332.37,-211.931C340.968,-203.454 350.888,-193.674 359.589,-185.096"/>
<ellipse fill="none" stroke="#7a6f7b" cx="329.254" cy="-215.003" rx="4.00002" ry="4.00002"/>
<ellipse fill="#7a6f7b" stroke="#7a6f7b" cx="362.537" cy="-182.188" rx="4.00002" ry="4.00002"/>
</g>
<!-- Subproduct&#45;&gt;Modul -->
<g id="edge18" class="edge"><title>Subproduct&#45;&gt;Modul</title>
<path fill="none" stroke="#3064ac" d="M110,-207.64C110,-202.063 110,-196.132 110,-190.476"/>
<ellipse fill="none" stroke="#3064ac" cx="110" cy="-211.697" rx="4" ry="4"/>
<polygon fill="#3064ac" stroke="#3064ac" points="110,-190.104 114.5,-180.104 110,-185.104 110,-180.104 110,-180.104 110,-180.104 110,-185.104 105.5,-180.104 110,-190.104 110,-190.104"/>
</g>
<!-- Subtask -->
<g id="node17" class="node"><title>Subtask</title>
<ellipse fill="none" stroke="black" cx="523" cy="-90" rx="38.1712" ry="18"/>
<text text-anchor="middle" x="523" y="-85.8" font-family="Times,serif" font-size="14.00">Subtask</text>
</g>
<!-- Subtask&#45;&gt;Workpackage -->
<g id="edge19" class="edge"><title>Subtask&#45;&gt;Workpackage</title>
<path fill="none" stroke="#112124" d="M491.008,-72.6539C470.951,-62.4055 444.993,-49.1424 423.905,-38.3673"/>
<ellipse fill="none" stroke="#112124" cx="494.628" cy="-74.5035" rx="4.00002" ry="4.00002"/>
<polygon fill="#112124" stroke="#112124" points="423.802,-38.315 416.945,-29.7578 419.35,-36.04 414.897,-33.765 414.897,-33.765 414.897,-33.765 419.35,-36.04 412.85,-37.7722 423.802,-38.315 423.802,-38.315"/>
</g>
<!-- Task -->
<g id="node18" class="node"><title>Task</title>
<ellipse fill="none" stroke="black" cx="523" cy="-162" rx="27" ry="18"/>
<text text-anchor="middle" x="523" y="-157.8" font-family="Times,serif" font-size="14.00">Task</text>
</g>
<!-- Task&#45;&gt;Subtask -->
<g id="edge20" class="edge"><title>Task&#45;&gt;Subtask</title>
<path fill="none" stroke="#149bf7" d="M523,-135.64C523,-130.063 523,-124.132 523,-118.476"/>
<ellipse fill="none" stroke="#149bf7" cx="523" cy="-139.697" rx="4" ry="4"/>
<polygon fill="#149bf7" stroke="#149bf7" points="523,-118.104 527.5,-108.104 523,-113.104 523,-108.104 523,-108.104 523,-108.104 523,-113.104 518.5,-108.104 523,-118.104 523,-118.104"/>
</g>
<!-- Type&#45;&gt;Role -->
<g id="edge21" class="edge"><title>Type&#45;&gt;Role</title>
<path fill="none" stroke="#3be46a" d="M755.498,-210.855C750.144,-203.206 744.125,-194.607 738.68,-186.829"/>
<ellipse fill="none" stroke="#3be46a" cx="757.831" cy="-214.188" rx="4.00002" ry="4.00002"/>
<polygon fill="#3be46a" stroke="#3be46a" points="738.579,-186.684 736.531,-175.911 735.712,-182.588 732.844,-178.492 732.844,-178.492 732.844,-178.492 735.712,-182.588 729.158,-181.072 738.579,-186.684 738.579,-186.684"/>
</g>
<!-- WorkBreakdownStructure&#45;&gt;Task -->
<g id="edge22" class="edge"><title>WorkBreakdownStructure&#45;&gt;Task</title>
<path fill="none" stroke="#637c05" d="M523,-207.64C523,-202.063 523,-196.132 523,-190.476"/>
<ellipse fill="none" stroke="#637c05" cx="523" cy="-211.697" rx="4" ry="4"/>
<polygon fill="#637c05" stroke="#637c05" points="523,-190.104 527.5,-180.104 523,-185.104 523,-180.104 523,-180.104 523,-180.104 523,-185.104 518.5,-180.104 523,-190.104 523,-190.104"/>
</g>
</g>
</svg>
