<?xml version="1.0" encoding="UTF-8" standalone="no"?>
<!DOCTYPE svg PUBLIC "-//W3C//DTD SVG 1.1//EN"
 "http://www.w3.org/Graphics/SVG/1.1/DTD/svg11.dtd">
<!-- Generated by graphviz version 2.36.0 (20140111.2315)
 -->
<!-- Title: models_diagram Pages: 1 -->
<svg width="951pt" height="1284pt"
 viewBox="0.00 0.00 951.00 1284.00" xmlns="http://www.w3.org/2000/svg" xmlns:xlink="http://www.w3.org/1999/xlink">
<g id="graph0" class="graph" transform="scale(1 1) rotate(0) translate(4 1280)">
<title>models_diagram</title>
<polygon fill="none" stroke="none" points="-4,4 -4,-1280 947,-1280 947,4 -4,4"/>
<!-- _diagram_info -->
<g id="node1" class="node"><title>_diagram_info</title>
<text text-anchor="start" x="91.3123" y="-1254.1" font-family="Times,serif" font-size="13.00">Models diagram</text>
<text text-anchor="start" x="91.3123" y="-1241.1" font-family="Times,serif" font-size="13.00">Date: Jan 30 2016 &#45; 13:04</text>
<text text-anchor="start" x="91.3123" y="-1228.1" font-family="Times,serif" font-size="13.00">Migration version: 20160127163157</text>
<text text-anchor="start" x="91.3123" y="-1215.1" font-family="Times,serif" font-size="13.00">Generated by RailRoady 1.4.2</text>
<text text-anchor="start" x="91.3123" y="-1202.1" font-family="Times,serif" font-size="13.00">http://railroady.prestonlee.com</text>
</g>
<!-- Component -->
<g id="node2" class="node"><title>Component</title>
<path fill="none" stroke="black" d="M403.495,-167C403.495,-167 512.505,-167 512.505,-167 518.505,-167 524.505,-173 524.505,-179 524.505,-179 524.505,-255 524.505,-255 524.505,-261 518.505,-267 512.505,-267 512.505,-267 403.495,-267 403.495,-267 397.495,-267 391.495,-261 391.495,-255 391.495,-255 391.495,-179 391.495,-179 391.495,-173 397.495,-167 403.495,-167"/>
<text text-anchor="middle" x="458" y="-251.8" font-family="Times,serif" font-size="14.00">Component</text>
<polyline fill="none" stroke="black" points="391.495,-245 524.505,-245 "/>
<text text-anchor="start" x="399.495" y="-229.8" font-family="Times,serif" font-size="14.00">id :INTEGER</text>
<text text-anchor="start" x="399.495" y="-215.8" font-family="Times,serif" font-size="14.00">name :varchar</text>
<text text-anchor="start" x="399.495" y="-201.8" font-family="Times,serif" font-size="14.00">modul_id :integer</text>
<text text-anchor="start" x="399.495" y="-187.8" font-family="Times,serif" font-size="14.00">created_at :datetime</text>
<text text-anchor="start" x="399.495" y="-173.8" font-family="Times,serif" font-size="14.00">updated_at :datetime</text>
</g>
<!-- Milestone -->
<g id="node8" class="node"><title>Milestone</title>
<path fill="none" stroke="black" d="M191.822,-1C191.822,-1 310.178,-1 310.178,-1 316.178,-1 322.178,-7 322.178,-13 322.178,-13 322.178,-103 322.178,-103 322.178,-109 316.178,-115 310.178,-115 310.178,-115 191.822,-115 191.822,-115 185.822,-115 179.822,-109 179.822,-103 179.822,-103 179.822,-13 179.822,-13 179.822,-7 185.822,-1 191.822,-1"/>
<text text-anchor="middle" x="251" y="-99.8" font-family="Times,serif" font-size="14.00">Milestone</text>
<polyline fill="none" stroke="black" points="179.822,-93 322.178,-93 "/>
<text text-anchor="start" x="187.822" y="-77.8" font-family="Times,serif" font-size="14.00">id :INTEGER</text>
<text text-anchor="start" x="187.822" y="-63.8" font-family="Times,serif" font-size="14.00">roadmap_id :integer</text>
<text text-anchor="start" x="187.822" y="-49.8" font-family="Times,serif" font-size="14.00">component_id :integer</text>
<text text-anchor="start" x="187.822" y="-35.8" font-family="Times,serif" font-size="14.00">date :datetime</text>
<text text-anchor="start" x="187.822" y="-21.8" font-family="Times,serif" font-size="14.00">created_at :datetime</text>
<text text-anchor="start" x="187.822" y="-7.8" font-family="Times,serif" font-size="14.00">updated_at :datetime</text>
</g>
<!-- Component&#45;&gt;Milestone -->
<g id="edge1" class="edge"><title>Component&#45;&gt;Milestone</title>
<path fill="none" stroke="#a32aad" d="M386.945,-162.108C368.192,-147.885 347.858,-132.462 328.771,-117.986"/>
<ellipse fill="none" stroke="#a32aad" cx="390.168" cy="-164.553" rx="4.00002" ry="4.00002"/>
<ellipse fill="#a32aad" stroke="#a32aad" cx="325.537" cy="-115.533" rx="4.00002" ry="4.00002"/>
</g>
<!-- DelphiEstimation -->
<g id="node3" class="node"><title>DelphiEstimation</title>
<path fill="none" stroke="black" d="M403.495,-1065C403.495,-1065 512.505,-1065 512.505,-1065 518.505,-1065 524.505,-1071 524.505,-1077 524.505,-1077 524.505,-1139 524.505,-1139 524.505,-1145 518.505,-1151 512.505,-1151 512.505,-1151 403.495,-1151 403.495,-1151 397.495,-1151 391.495,-1145 391.495,-1139 391.495,-1139 391.495,-1077 391.495,-1077 391.495,-1071 397.495,-1065 403.495,-1065"/>
<text text-anchor="middle" x="458" y="-1135.8" font-family="Times,serif" font-size="14.00">DelphiEstimation</text>
<polyline fill="none" stroke="black" points="391.495,-1129 524.505,-1129 "/>
<text text-anchor="start" x="399.495" y="-1113.8" font-family="Times,serif" font-size="14.00">id :INTEGER</text>
<text text-anchor="start" x="399.495" y="-1099.8" font-family="Times,serif" font-size="14.00">p_id :integer</text>
<text text-anchor="start" x="399.495" y="-1085.8" font-family="Times,serif" font-size="14.00">created_at :datetime</text>
<text text-anchor="start" x="399.495" y="-1071.8" font-family="Times,serif" font-size="14.00">updated_at :datetime</text>
</g>
<!-- Round -->
<g id="node18" class="node"><title>Round</title>
<path fill="none" stroke="black" d="M382.098,-913C382.098,-913 533.902,-913 533.902,-913 539.902,-913 545.902,-919 545.902,-925 545.902,-925 545.902,-1015 545.902,-1015 545.902,-1021 539.902,-1027 533.902,-1027 533.902,-1027 382.098,-1027 382.098,-1027 376.098,-1027 370.098,-1021 370.098,-1015 370.098,-1015 370.098,-925 370.098,-925 370.098,-919 376.098,-913 382.098,-913"/>
<text text-anchor="middle" x="458" y="-1011.8" font-family="Times,serif" font-size="14.00">Round</text>
<polyline fill="none" stroke="black" points="370.098,-1005 545.902,-1005 "/>
<text text-anchor="start" x="378.098" y="-989.8" font-family="Times,serif" font-size="14.00">id :INTEGER</text>
<text text-anchor="start" x="378.098" y="-975.8" font-family="Times,serif" font-size="14.00">delphiEstimation_id :integer</text>
<text text-anchor="start" x="378.098" y="-961.8" font-family="Times,serif" font-size="14.00">count :integer</text>
<text text-anchor="start" x="378.098" y="-947.8" font-family="Times,serif" font-size="14.00">closed :boolean</text>
<text text-anchor="start" x="378.098" y="-933.8" font-family="Times,serif" font-size="14.00">created_at :datetime</text>
<text text-anchor="start" x="378.098" y="-919.8" font-family="Times,serif" font-size="14.00">updated_at :datetime</text>
</g>
<!-- DelphiEstimation&#45;&gt;Round -->
<g id="edge2" class="edge"><title>DelphiEstimation&#45;&gt;Round</title>
<path fill="none" stroke="#93eb67" d="M458,-1056.49C458,-1050.24 458,-1043.78 458,-1037.34"/>
<ellipse fill="none" stroke="#93eb67" cx="458" cy="-1060.71" rx="4" ry="4"/>
<polygon fill="#93eb67" stroke="#93eb67" points="458,-1037.26 462.5,-1027.26 458,-1032.26 458,-1027.26 458,-1027.26 458,-1027.26 458,-1032.26 453.5,-1027.26 458,-1037.26 458,-1037.26"/>
</g>
<!-- Estimation -->
<g id="node4" class="node"><title>Estimation</title>
<path fill="none" stroke="black" d="M569.612,-623C569.612,-623 700.388,-623 700.388,-623 706.388,-623 712.388,-629 712.388,-635 712.388,-635 712.388,-725 712.388,-725 712.388,-731 706.388,-737 700.388,-737 700.388,-737 569.612,-737 569.612,-737 563.612,-737 557.612,-731 557.612,-725 557.612,-725 557.612,-635 557.612,-635 557.612,-629 563.612,-623 569.612,-623"/>
<text text-anchor="middle" x="635" y="-721.8" font-family="Times,serif" font-size="14.00">Estimation</text>
<polyline fill="none" stroke="black" points="557.612,-715 712.388,-715 "/>
<text text-anchor="start" x="565.612" y="-699.8" font-family="Times,serif" font-size="14.00">id :INTEGER</text>
<text text-anchor="start" x="565.612" y="-685.8" font-family="Times,serif" font-size="14.00">expert_form_id :integer</text>
<text text-anchor="start" x="565.612" y="-671.8" font-family="Times,serif" font-size="14.00">workpackage_id :integer</text>
<text text-anchor="start" x="565.612" y="-657.8" font-family="Times,serif" font-size="14.00">duration :integer</text>
<text text-anchor="start" x="565.612" y="-643.8" font-family="Times,serif" font-size="14.00">created_at :datetime</text>
<text text-anchor="start" x="565.612" y="-629.8" font-family="Times,serif" font-size="14.00">updated_at :datetime</text>
</g>
<!-- Workpackage -->
<g id="node24" class="node"><title>Workpackage</title>
<path fill="none" stroke="black" d="M403.495,-485C403.495,-485 512.505,-485 512.505,-485 518.505,-485 524.505,-491 524.505,-497 524.505,-497 524.505,-573 524.505,-573 524.505,-579 518.505,-585 512.505,-585 512.505,-585 403.495,-585 403.495,-585 397.495,-585 391.495,-579 391.495,-573 391.495,-573 391.495,-497 391.495,-497 391.495,-491 397.495,-485 403.495,-485"/>
<text text-anchor="middle" x="458" y="-569.8" font-family="Times,serif" font-size="14.00">Workpackage</text>
<polyline fill="none" stroke="black" points="391.495,-563 524.505,-563 "/>
<text text-anchor="start" x="399.495" y="-547.8" font-family="Times,serif" font-size="14.00">id :INTEGER</text>
<text text-anchor="start" x="399.495" y="-533.8" font-family="Times,serif" font-size="14.00">name :varchar</text>
<text text-anchor="start" x="399.495" y="-519.8" font-family="Times,serif" font-size="14.00">subtask_id :integer</text>
<text text-anchor="start" x="399.495" y="-505.8" font-family="Times,serif" font-size="14.00">created_at :datetime</text>
<text text-anchor="start" x="399.495" y="-491.8" font-family="Times,serif" font-size="14.00">updated_at :datetime</text>
</g>
<!-- Estimation&#45;&gt;Workpackage -->
<g id="edge3" class="edge"><title>Estimation&#45;&gt;Workpackage</title>
<path fill="none" stroke="#faa926" d="M559.014,-617.61C547.816,-608.563 536.346,-599.296 525.339,-590.404"/>
<ellipse fill="none" stroke="#faa926" cx="562.441" cy="-620.379" rx="4.00002" ry="4.00002"/>
<ellipse fill="#faa926" stroke="#faa926" cx="522.03" cy="-587.73" rx="4.00002" ry="4.00002"/>
</g>
<!-- EstimationTemplate -->
<g id="node5" class="node"><title>EstimationTemplate</title>
<path fill="none" stroke="black" d="M388.719,-623C388.719,-623 527.281,-623 527.281,-623 533.281,-623 539.281,-629 539.281,-635 539.281,-635 539.281,-725 539.281,-725 539.281,-731 533.281,-737 527.281,-737 527.281,-737 388.719,-737 388.719,-737 382.719,-737 376.719,-731 376.719,-725 376.719,-725 376.719,-635 376.719,-635 376.719,-629 382.719,-623 388.719,-623"/>
<text text-anchor="middle" x="458" y="-721.8" font-family="Times,serif" font-size="14.00">EstimationTemplate</text>
<polyline fill="none" stroke="black" points="376.719,-715 539.281,-715 "/>
<text text-anchor="start" x="384.719" y="-699.8" font-family="Times,serif" font-size="14.00">id :INTEGER</text>
<text text-anchor="start" x="384.719" y="-685.8" font-family="Times,serif" font-size="14.00">form_template_id :integer</text>
<text text-anchor="start" x="384.719" y="-671.8" font-family="Times,serif" font-size="14.00">workpackage_id :integer</text>
<text text-anchor="start" x="384.719" y="-657.8" font-family="Times,serif" font-size="14.00">comment :varchar</text>
<text text-anchor="start" x="384.719" y="-643.8" font-family="Times,serif" font-size="14.00">created_at :datetime</text>
<text text-anchor="start" x="384.719" y="-629.8" font-family="Times,serif" font-size="14.00">updated_at :datetime</text>
</g>
<!-- EstimationTemplate&#45;&gt;Workpackage -->
<g id="edge4" class="edge"><title>EstimationTemplate&#45;&gt;Workpackage</title>
<path fill="none" stroke="#d4963e" d="M458,-614.704C458,-607.646 458,-600.493 458,-593.525"/>
<ellipse fill="none" stroke="#d4963e" cx="458" cy="-618.893" rx="4" ry="4"/>
<ellipse fill="#d4963e" stroke="#d4963e" cx="458" cy="-589.446" rx="4" ry="4"/>
</g>
<!-- ExpertForm -->
<g id="node6" class="node"><title>ExpertForm</title>
<path fill="none" stroke="black" d="M567.119,-775C567.119,-775 676.881,-775 676.881,-775 682.881,-775 688.881,-781 688.881,-787 688.881,-787 688.881,-863 688.881,-863 688.881,-869 682.881,-875 676.881,-875 676.881,-875 567.119,-875 567.119,-875 561.119,-875 555.119,-869 555.119,-863 555.119,-863 555.119,-787 555.119,-787 555.119,-781 561.119,-775 567.119,-775"/>
<text text-anchor="middle" x="622" y="-859.8" font-family="Times,serif" font-size="14.00">ExpertForm</text>
<polyline fill="none" stroke="black" points="555.119,-853 688.881,-853 "/>
<text text-anchor="start" x="563.119" y="-837.8" font-family="Times,serif" font-size="14.00">id :INTEGER</text>
<text text-anchor="start" x="563.119" y="-823.8" font-family="Times,serif" font-size="14.00">round_id :integer</text>
<text text-anchor="start" x="563.119" y="-809.8" font-family="Times,serif" font-size="14.00">expertName :varchar</text>
<text text-anchor="start" x="563.119" y="-795.8" font-family="Times,serif" font-size="14.00">created_at :datetime</text>
<text text-anchor="start" x="563.119" y="-781.8" font-family="Times,serif" font-size="14.00">updated_at :datetime</text>
</g>
<!-- ExpertForm&#45;&gt;Estimation -->
<g id="edge5" class="edge"><title>ExpertForm&#45;&gt;Estimation</title>
<path fill="none" stroke="#e11f64" d="M627.208,-766.715C627.788,-760.328 628.383,-753.784 628.973,-747.297"/>
<ellipse fill="none" stroke="#e11f64" cx="626.836" cy="-770.804" rx="4" ry="4"/>
<polygon fill="#e11f64" stroke="#e11f64" points="628.987,-747.14 634.374,-737.588 629.44,-742.16 629.893,-737.181 629.893,-737.181 629.893,-737.181 629.44,-742.16 625.411,-736.773 628.987,-747.14 628.987,-747.14"/>
</g>
<!-- FormTemplate -->
<g id="node7" class="node"><title>FormTemplate</title>
<path fill="none" stroke="black" d="M403.495,-782C403.495,-782 512.505,-782 512.505,-782 518.505,-782 524.505,-788 524.505,-794 524.505,-794 524.505,-856 524.505,-856 524.505,-862 518.505,-868 512.505,-868 512.505,-868 403.495,-868 403.495,-868 397.495,-868 391.495,-862 391.495,-856 391.495,-856 391.495,-794 391.495,-794 391.495,-788 397.495,-782 403.495,-782"/>
<text text-anchor="middle" x="458" y="-852.8" font-family="Times,serif" font-size="14.00">FormTemplate</text>
<polyline fill="none" stroke="black" points="391.495,-846 524.505,-846 "/>
<text text-anchor="start" x="399.495" y="-830.8" font-family="Times,serif" font-size="14.00">id :INTEGER</text>
<text text-anchor="start" x="399.495" y="-816.8" font-family="Times,serif" font-size="14.00">round_id :integer</text>
<text text-anchor="start" x="399.495" y="-802.8" font-family="Times,serif" font-size="14.00">created_at :datetime</text>
<text text-anchor="start" x="399.495" y="-788.8" font-family="Times,serif" font-size="14.00">updated_at :datetime</text>
</g>
<!-- FormTemplate&#45;&gt;EstimationTemplate -->
<g id="edge6" class="edge"><title>FormTemplate&#45;&gt;EstimationTemplate</title>
<path fill="none" stroke="#14ab4a" d="M458,-773.817C458,-765.203 458,-756.135 458,-747.179"/>
<ellipse fill="none" stroke="#14ab4a" cx="458" cy="-777.869" rx="4" ry="4"/>
<polygon fill="#14ab4a" stroke="#14ab4a" points="458,-747.145 462.5,-737.145 458,-742.145 458,-737.145 458,-737.145 458,-737.145 458,-742.145 453.5,-737.145 458,-747.145 458,-747.145"/>
</g>
<!-- Modul -->
<g id="node9" class="node"><title>Modul</title>
<path fill="none" stroke="black" d="M680.819,-333C680.819,-333 799.181,-333 799.181,-333 805.181,-333 811.181,-339 811.181,-345 811.181,-345 811.181,-421 811.181,-421 811.181,-427 805.181,-433 799.181,-433 799.181,-433 680.819,-433 680.819,-433 674.819,-433 668.819,-427 668.819,-421 668.819,-421 668.819,-345 668.819,-345 668.819,-339 674.819,-333 680.819,-333"/>
<text text-anchor="middle" x="740" y="-417.8" font-family="Times,serif" font-size="14.00">Modul</text>
<polyline fill="none" stroke="black" points="668.819,-411 811.181,-411 "/>
<text text-anchor="start" x="676.819" y="-395.8" font-family="Times,serif" font-size="14.00">id :INTEGER</text>
<text text-anchor="start" x="676.819" y="-381.8" font-family="Times,serif" font-size="14.00">name :varchar</text>
<text text-anchor="start" x="676.819" y="-367.8" font-family="Times,serif" font-size="14.00">subproduct_id :integer</text>
<text text-anchor="start" x="676.819" y="-353.8" font-family="Times,serif" font-size="14.00">created_at :datetime</text>
<text text-anchor="start" x="676.819" y="-339.8" font-family="Times,serif" font-size="14.00">updated_at :datetime</text>
</g>
<!-- Modul&#45;&gt;Component -->
<g id="edge7" class="edge"><title>Modul&#45;&gt;Component</title>
<path fill="none" stroke="#5e088b" d="M661.381,-336.279C621.371,-313.01 572.968,-284.861 533.42,-261.861"/>
<ellipse fill="none" stroke="#5e088b" cx="665.017" cy="-338.393" rx="4.00002" ry="4.00002"/>
<polygon fill="#5e088b" stroke="#5e088b" points="533.251,-261.763 526.868,-252.845 528.928,-259.249 524.606,-256.735 524.606,-256.735 524.606,-256.735 528.928,-259.249 522.344,-260.625 533.251,-261.763 533.251,-261.763"/>
</g>
<!-- ProductBreakdownStructure -->
<g id="node10" class="node"><title>ProductBreakdownStructure</title>
<path fill="none" stroke="black" d="M780.296,-1065C780.296,-1065 931.704,-1065 931.704,-1065 937.704,-1065 943.704,-1071 943.704,-1077 943.704,-1077 943.704,-1139 943.704,-1139 943.704,-1145 937.704,-1151 931.704,-1151 931.704,-1151 780.296,-1151 780.296,-1151 774.296,-1151 768.296,-1145 768.296,-1139 768.296,-1139 768.296,-1077 768.296,-1077 768.296,-1071 774.296,-1065 780.296,-1065"/>
<text text-anchor="middle" x="856" y="-1135.8" font-family="Times,serif" font-size="14.00">ProductBreakdownStructure</text>
<polyline fill="none" stroke="black" points="768.296,-1129 943.704,-1129 "/>
<text text-anchor="start" x="776.296" y="-1113.8" font-family="Times,serif" font-size="14.00">id :INTEGER</text>
<text text-anchor="start" x="776.296" y="-1099.8" font-family="Times,serif" font-size="14.00">p_id :integer</text>
<text text-anchor="start" x="776.296" y="-1085.8" font-family="Times,serif" font-size="14.00">created_at :datetime</text>
<text text-anchor="start" x="776.296" y="-1071.8" font-family="Times,serif" font-size="14.00">updated_at :datetime</text>
</g>
<!-- Subproduct -->
<g id="node19" class="node"><title>Subproduct</title>
<path fill="none" stroke="black" d="M791.495,-920C791.495,-920 900.505,-920 900.505,-920 906.505,-920 912.505,-926 912.505,-932 912.505,-932 912.505,-1008 912.505,-1008 912.505,-1014 906.505,-1020 900.505,-1020 900.505,-1020 791.495,-1020 791.495,-1020 785.495,-1020 779.495,-1014 779.495,-1008 779.495,-1008 779.495,-932 779.495,-932 779.495,-926 785.495,-920 791.495,-920"/>
<text text-anchor="middle" x="846" y="-1004.8" font-family="Times,serif" font-size="14.00">Subproduct</text>
<polyline fill="none" stroke="black" points="779.495,-998 912.505,-998 "/>
<text text-anchor="start" x="787.495" y="-982.8" font-family="Times,serif" font-size="14.00">id :INTEGER</text>
<text text-anchor="start" x="787.495" y="-968.8" font-family="Times,serif" font-size="14.00">name :varchar</text>
<text text-anchor="start" x="787.495" y="-954.8" font-family="Times,serif" font-size="14.00">pbs_id :integer</text>
<text text-anchor="start" x="787.495" y="-940.8" font-family="Times,serif" font-size="14.00">created_at :datetime</text>
<text text-anchor="start" x="787.495" y="-926.8" font-family="Times,serif" font-size="14.00">updated_at :datetime</text>
</g>
<!-- ProductBreakdownStructure&#45;&gt;Subproduct -->
<g id="edge8" class="edge"><title>ProductBreakdownStructure&#45;&gt;Subproduct</title>
<path fill="none" stroke="#d9c7c3" d="M852.298,-1056.66C851.673,-1048.15 851.018,-1039.24 850.376,-1030.52"/>
<ellipse fill="none" stroke="#d9c7c3" cx="852.597" cy="-1060.73" rx="4" ry="4"/>
<polygon fill="#d9c7c3" stroke="#d9c7c3" points="850.366,-1030.38 854.121,-1020.08 849.999,-1025.39 849.633,-1020.41 849.633,-1020.41 849.633,-1020.41 849.999,-1025.39 845.145,-1020.74 850.366,-1030.38 850.366,-1030.38"/>
</g>
<!-- Project -->
<g id="node11" class="node"><title>Project</title>
<path fill="none" stroke="black" d="M320.495,-1189C320.495,-1189 429.505,-1189 429.505,-1189 435.505,-1189 441.505,-1195 441.505,-1201 441.505,-1201 441.505,-1263 441.505,-1263 441.505,-1269 435.505,-1275 429.505,-1275 429.505,-1275 320.495,-1275 320.495,-1275 314.495,-1275 308.495,-1269 308.495,-1263 308.495,-1263 308.495,-1201 308.495,-1201 308.495,-1195 314.495,-1189 320.495,-1189"/>
<text text-anchor="middle" x="375" y="-1259.8" font-family="Times,serif" font-size="14.00">Project</text>
<polyline fill="none" stroke="black" points="308.495,-1253 441.505,-1253 "/>
<text text-anchor="start" x="316.495" y="-1237.8" font-family="Times,serif" font-size="14.00">id :INTEGER</text>
<text text-anchor="start" x="316.495" y="-1223.8" font-family="Times,serif" font-size="14.00">name :varchar</text>
<text text-anchor="start" x="316.495" y="-1209.8" font-family="Times,serif" font-size="14.00">created_at :datetime</text>
<text text-anchor="start" x="316.495" y="-1195.8" font-family="Times,serif" font-size="14.00">updated_at :datetime</text>
</g>
<!-- Project&#45;&gt;DelphiEstimation -->
<g id="edge13" class="edge"><title>Project&#45;&gt;DelphiEstimation</title>
<path fill="none" stroke="#26b702" d="M408.302,-1182.05C413.614,-1174.24 419.113,-1166.16 424.431,-1158.34"/>
<ellipse fill="none" stroke="#26b702" cx="406.046" cy="-1185.37" rx="4.00002" ry="4.00002"/>
<ellipse fill="#26b702" stroke="#26b702" cx="427.004" cy="-1154.56" rx="4.00002" ry="4.00002"/>
</g>
<!-- Project&#45;&gt;ProductBreakdownStructure -->
<g id="edge10" class="edge"><title>Project&#45;&gt;ProductBreakdownStructure</title>
<path fill="none" stroke="#e30c96" d="M449.975,-1219.77C527.225,-1207.19 650.609,-1184.24 754,-1152 756.193,-1151.32 758.404,-1150.6 760.625,-1149.86"/>
<ellipse fill="none" stroke="#e30c96" cx="445.667" cy="-1220.47" rx="4.00001" ry="4.00001"/>
<ellipse fill="#e30c96" stroke="#e30c96" cx="764.43" cy="-1148.56" rx="4.00001" ry="4.00001"/>
</g>
<!-- ResourceAllocationMatrix -->
<g id="node14" class="node"><title>ResourceAllocationMatrix</title>
<path fill="none" stroke="black" d="M612.355,-492C612.355,-492 753.645,-492 753.645,-492 759.645,-492 765.645,-498 765.645,-504 765.645,-504 765.645,-566 765.645,-566 765.645,-572 759.645,-578 753.645,-578 753.645,-578 612.355,-578 612.355,-578 606.355,-578 600.355,-572 600.355,-566 600.355,-566 600.355,-504 600.355,-504 600.355,-498 606.355,-492 612.355,-492"/>
<text text-anchor="middle" x="683" y="-562.8" font-family="Times,serif" font-size="14.00">ResourceAllocationMatrix</text>
<polyline fill="none" stroke="black" points="600.355,-556 765.645,-556 "/>
<text text-anchor="start" x="608.355" y="-540.8" font-family="Times,serif" font-size="14.00">id :INTEGER</text>
<text text-anchor="start" x="608.355" y="-526.8" font-family="Times,serif" font-size="14.00">p_id :integer</text>
<text text-anchor="start" x="608.355" y="-512.8" font-family="Times,serif" font-size="14.00">created_at :datetime</text>
<text text-anchor="start" x="608.355" y="-498.8" font-family="Times,serif" font-size="14.00">updated_at :datetime</text>
</g>
<!-- Project&#45;&gt;ResourceAllocationMatrix -->
<g id="edge14" class="edge"><title>Project&#45;&gt;ResourceAllocationMatrix</title>
<path fill="none" stroke="#41b4f1" d="M449.386,-1213.73C556.119,-1184.04 740,-1112.37 740,-971 740,-971 740,-971 740,-824 740,-733.826 743.739,-709.26 721,-622 717.86,-609.95 713.216,-597.444 708.245,-585.825"/>
<ellipse fill="none" stroke="#41b4f1" cx="445.38" cy="-1214.83" rx="4.00001" ry="4.00001"/>
<ellipse fill="#41b4f1" stroke="#41b4f1" cx="706.556" cy="-581.991" rx="4.00002" ry="4.00002"/>
</g>
<!-- ResourceBreakdownStructure -->
<g id="node15" class="node"><title>ResourceBreakdownStructure</title>
<path fill="none" stroke="black" d="M89.0273,-927C89.0273,-927 248.973,-927 248.973,-927 254.973,-927 260.973,-933 260.973,-939 260.973,-939 260.973,-1001 260.973,-1001 260.973,-1007 254.973,-1013 248.973,-1013 248.973,-1013 89.0273,-1013 89.0273,-1013 83.0273,-1013 77.0273,-1007 77.0273,-1001 77.0273,-1001 77.0273,-939 77.0273,-939 77.0273,-933 83.0273,-927 89.0273,-927"/>
<text text-anchor="middle" x="169" y="-997.8" font-family="Times,serif" font-size="14.00">ResourceBreakdownStructure</text>
<polyline fill="none" stroke="black" points="77.0273,-991 260.973,-991 "/>
<text text-anchor="start" x="85.0273" y="-975.8" font-family="Times,serif" font-size="14.00">id :INTEGER</text>
<text text-anchor="start" x="85.0273" y="-961.8" font-family="Times,serif" font-size="14.00">p_id :integer</text>
<text text-anchor="start" x="85.0273" y="-947.8" font-family="Times,serif" font-size="14.00">created_at :datetime</text>
<text text-anchor="start" x="85.0273" y="-933.8" font-family="Times,serif" font-size="14.00">updated_at :datetime</text>
</g>
<!-- Project&#45;&gt;ResourceBreakdownStructure -->
<g id="edge11" class="edge"><title>Project&#45;&gt;ResourceBreakdownStructure</title>
<path fill="none" stroke="#b5393d" d="M300.705,-1188.8C300.136,-1188.53 299.567,-1188.26 299,-1188 257.301,-1168.62 231.549,-1187.23 202,-1152 171.66,-1115.82 165.355,-1061.08 165.444,-1021.27"/>
<ellipse fill="none" stroke="#b5393d" cx="304.57" cy="-1190.67" rx="4.00002" ry="4.00002"/>
<ellipse fill="#b5393d" stroke="#b5393d" cx="165.496" cy="-1017.27" rx="4" ry="4"/>
</g>
<!-- Roadmap -->
<g id="node16" class="node"><title>Roadmap</title>
<path fill="none" stroke="black" d="M11.4946,-492C11.4946,-492 120.505,-492 120.505,-492 126.505,-492 132.505,-498 132.505,-504 132.505,-504 132.505,-566 132.505,-566 132.505,-572 126.505,-578 120.505,-578 120.505,-578 11.4946,-578 11.4946,-578 5.49463,-578 -0.505371,-572 -0.505371,-566 -0.505371,-566 -0.505371,-504 -0.505371,-504 -0.505371,-498 5.49463,-492 11.4946,-492"/>
<text text-anchor="middle" x="66" y="-562.8" font-family="Times,serif" font-size="14.00">Roadmap</text>
<polyline fill="none" stroke="black" points="-0.505371,-556 132.505,-556 "/>
<text text-anchor="start" x="7.49463" y="-540.8" font-family="Times,serif" font-size="14.00">id :INTEGER</text>
<text text-anchor="start" x="7.49463" y="-526.8" font-family="Times,serif" font-size="14.00">p_id :integer</text>
<text text-anchor="start" x="7.49463" y="-512.8" font-family="Times,serif" font-size="14.00">created_at :datetime</text>
<text text-anchor="start" x="7.49463" y="-498.8" font-family="Times,serif" font-size="14.00">updated_at :datetime</text>
</g>
<!-- Project&#45;&gt;Roadmap -->
<g id="edge12" class="edge"><title>Project&#45;&gt;Roadmap</title>
<path fill="none" stroke="#901916" d="M300.739,-1188.72C300.158,-1188.48 299.579,-1188.24 299,-1188 241.932,-1164.63 216.423,-1186.04 165,-1152 84.7206,-1098.86 46,-1067.27 46,-971 46,-971 46,-971 46,-824 46,-740.64 54.4419,-644.032 60.3565,-586.577"/>
<ellipse fill="none" stroke="#901916" cx="304.664" cy="-1190.45" rx="4.00002" ry="4.00002"/>
<ellipse fill="#901916" stroke="#901916" cx="60.7949" cy="-582.369" rx="4" ry="4"/>
</g>
<!-- WorkBreakdownStructure -->
<g id="node23" class="node"><title>WorkBreakdownStructure</title>
<path fill="none" stroke="black" d="M222.691,-1065C222.691,-1065 361.309,-1065 361.309,-1065 367.309,-1065 373.309,-1071 373.309,-1077 373.309,-1077 373.309,-1139 373.309,-1139 373.309,-1145 367.309,-1151 361.309,-1151 361.309,-1151 222.691,-1151 222.691,-1151 216.691,-1151 210.691,-1145 210.691,-1139 210.691,-1139 210.691,-1077 210.691,-1077 210.691,-1071 216.691,-1065 222.691,-1065"/>
<text text-anchor="middle" x="292" y="-1135.8" font-family="Times,serif" font-size="14.00">WorkBreakdownStructure</text>
<polyline fill="none" stroke="black" points="210.691,-1129 373.309,-1129 "/>
<text text-anchor="start" x="218.691" y="-1113.8" font-family="Times,serif" font-size="14.00">id :INTEGER</text>
<text text-anchor="start" x="218.691" y="-1099.8" font-family="Times,serif" font-size="14.00">p_id :integer</text>
<text text-anchor="start" x="218.691" y="-1085.8" font-family="Times,serif" font-size="14.00">created_at :datetime</text>
<text text-anchor="start" x="218.691" y="-1071.8" font-family="Times,serif" font-size="14.00">updated_at :datetime</text>
</g>
<!-- Project&#45;&gt;WorkBreakdownStructure -->
<g id="edge9" class="edge"><title>Project&#45;&gt;WorkBreakdownStructure</title>
<path fill="none" stroke="#11b506" d="M341.698,-1182.05C336.386,-1174.24 330.887,-1166.16 325.569,-1158.34"/>
<ellipse fill="none" stroke="#11b506" cx="343.954" cy="-1185.37" rx="4.00002" ry="4.00002"/>
<ellipse fill="#11b506" stroke="#11b506" cx="322.996" cy="-1154.56" rx="4.00002" ry="4.00002"/>
</g>
<!-- RamEntry -->
<g id="node12" class="node"><title>RamEntry</title>
<path fill="none" stroke="black" d="M392.612,-319C392.612,-319 523.388,-319 523.388,-319 529.388,-319 535.388,-325 535.388,-331 535.388,-331 535.388,-435 535.388,-435 535.388,-441 529.388,-447 523.388,-447 523.388,-447 392.612,-447 392.612,-447 386.612,-447 380.612,-441 380.612,-435 380.612,-435 380.612,-331 380.612,-331 380.612,-325 386.612,-319 392.612,-319"/>
<text text-anchor="middle" x="458" y="-431.8" font-family="Times,serif" font-size="14.00">RamEntry</text>
<polyline fill="none" stroke="black" points="380.612,-425 535.388,-425 "/>
<text text-anchor="start" x="388.612" y="-409.8" font-family="Times,serif" font-size="14.00">id :INTEGER</text>
<text text-anchor="start" x="388.612" y="-395.8" font-family="Times,serif" font-size="14.00">ram_id :integer</text>
<text text-anchor="start" x="388.612" y="-381.8" font-family="Times,serif" font-size="14.00">workpackage_id :integer</text>
<text text-anchor="start" x="388.612" y="-367.8" font-family="Times,serif" font-size="14.00">component_id :integer</text>
<text text-anchor="start" x="388.612" y="-353.8" font-family="Times,serif" font-size="14.00">resource_id :integer</text>
<text text-anchor="start" x="388.612" y="-339.8" font-family="Times,serif" font-size="14.00">created_at :datetime</text>
<text text-anchor="start" x="388.612" y="-325.8" font-family="Times,serif" font-size="14.00">updated_at :datetime</text>
</g>
<!-- RamEntry&#45;&gt;Component -->
<g id="edge16" class="edge"><title>RamEntry&#45;&gt;Component</title>
<path fill="none" stroke="#40897b" d="M458,-310.537C458,-298.783 458,-286.735 458,-275.382"/>
<ellipse fill="none" stroke="#40897b" cx="458" cy="-314.593" rx="4" ry="4"/>
<ellipse fill="#40897b" stroke="#40897b" cx="458" cy="-271.251" rx="4" ry="4"/>
</g>
<!-- Resource -->
<g id="node13" class="node"><title>Resource</title>
<path fill="none" stroke="black" d="M167.329,-153C167.329,-153 278.671,-153 278.671,-153 284.671,-153 290.671,-159 290.671,-165 290.671,-165 290.671,-269 290.671,-269 290.671,-275 284.671,-281 278.671,-281 278.671,-281 167.329,-281 167.329,-281 161.329,-281 155.329,-275 155.329,-269 155.329,-269 155.329,-165 155.329,-165 155.329,-159 161.329,-153 167.329,-153"/>
<text text-anchor="middle" x="223" y="-265.8" font-family="Times,serif" font-size="14.00">Resource</text>
<polyline fill="none" stroke="black" points="155.329,-259 290.671,-259 "/>
<text text-anchor="start" x="163.329" y="-243.8" font-family="Times,serif" font-size="14.00">id :INTEGER</text>
<text text-anchor="start" x="163.329" y="-229.8" font-family="Times,serif" font-size="14.00">role_id :integer</text>
<text text-anchor="start" x="163.329" y="-215.8" font-family="Times,serif" font-size="14.00">qualification :varchar</text>
<text text-anchor="start" x="163.329" y="-201.8" font-family="Times,serif" font-size="14.00">experience :varchar</text>
<text text-anchor="start" x="163.329" y="-187.8" font-family="Times,serif" font-size="14.00">quantitiy :decimal</text>
<text text-anchor="start" x="163.329" y="-173.8" font-family="Times,serif" font-size="14.00">created_at :datetime</text>
<text text-anchor="start" x="163.329" y="-159.8" font-family="Times,serif" font-size="14.00">updated_at :datetime</text>
</g>
<!-- RamEntry&#45;&gt;Resource -->
<g id="edge15" class="edge"><title>RamEntry&#45;&gt;Resource</title>
<path fill="none" stroke="#c38cb7" d="M373.57,-323.079C348.798,-305.791 321.891,-287.014 297.767,-270.178"/>
<ellipse fill="none" stroke="#c38cb7" cx="377.121" cy="-325.557" rx="4.00002" ry="4.00002"/>
<ellipse fill="#c38cb7" stroke="#c38cb7" cx="294.321" cy="-267.773" rx="4.00002" ry="4.00002"/>
</g>
<!-- ResourceAllocationMatrix&#45;&gt;RamEntry -->
<g id="edge17" class="edge"><title>ResourceAllocationMatrix&#45;&gt;RamEntry</title>
<path fill="none" stroke="#8dd60f" d="M612.898,-487.265C591.057,-472.704 566.718,-456.479 543.924,-441.283"/>
<ellipse fill="none" stroke="#8dd60f" cx="616.398" cy="-489.599" rx="4.00002" ry="4.00002"/>
<polygon fill="#8dd60f" stroke="#8dd60f" points="543.924,-441.283 538.099,-431.991 539.764,-438.509 535.603,-435.736 535.603,-435.736 535.603,-435.736 539.764,-438.509 533.107,-439.48 543.924,-441.283 543.924,-441.283"/>
</g>
<!-- Type -->
<g id="node22" class="node"><title>Type</title>
<path fill="none" stroke="black" d="M86.4946,-630C86.4946,-630 195.505,-630 195.505,-630 201.505,-630 207.505,-636 207.505,-642 207.505,-642 207.505,-718 207.505,-718 207.505,-724 201.505,-730 195.505,-730 195.505,-730 86.4946,-730 86.4946,-730 80.4946,-730 74.4946,-724 74.4946,-718 74.4946,-718 74.4946,-642 74.4946,-642 74.4946,-636 80.4946,-630 86.4946,-630"/>
<text text-anchor="middle" x="141" y="-714.8" font-family="Times,serif" font-size="14.00">Type</text>
<polyline fill="none" stroke="black" points="74.4946,-708 207.505,-708 "/>
<text text-anchor="start" x="82.4946" y="-692.8" font-family="Times,serif" font-size="14.00">id :INTEGER</text>
<text text-anchor="start" x="82.4946" y="-678.8" font-family="Times,serif" font-size="14.00">name :varchar</text>
<text text-anchor="start" x="82.4946" y="-664.8" font-family="Times,serif" font-size="14.00">rbs_id :integer</text>
<text text-anchor="start" x="82.4946" y="-650.8" font-family="Times,serif" font-size="14.00">created_at :datetime</text>
<text text-anchor="start" x="82.4946" y="-636.8" font-family="Times,serif" font-size="14.00">updated_at :datetime</text>
</g>
<!-- ResourceBreakdownStructure&#45;&gt;Type -->
<g id="edge18" class="edge"><title>ResourceBreakdownStructure&#45;&gt;Type</title>
<path fill="none" stroke="#ed4312" d="M164.097,-918.565C159.261,-868.829 151.872,-792.831 146.76,-740.245"/>
<ellipse fill="none" stroke="#ed4312" cx="164.511" cy="-922.833" rx="4" ry="4"/>
<polygon fill="#ed4312" stroke="#ed4312" points="146.737,-740.008 150.248,-729.619 146.253,-735.031 145.769,-730.055 145.769,-730.055 145.769,-730.055 146.253,-735.031 141.29,-730.49 146.737,-740.008 146.737,-740.008"/>
</g>
<!-- Roadmap&#45;&gt;Milestone -->
<g id="edge19" class="edge"><title>Roadmap&#45;&gt;Milestone</title>
<path fill="none" stroke="#80b3f1" d="M66.6456,-483.876C69.703,-407.304 83.9431,-258.847 146,-152 153.105,-139.767 162.392,-128.297 172.506,-117.873"/>
<ellipse fill="none" stroke="#80b3f1" cx="66.4984" cy="-487.957" rx="4" ry="4"/>
<polygon fill="#80b3f1" stroke="#80b3f1" points="172.516,-117.863 182.789,-114.026 176.07,-114.345 179.623,-110.828 179.623,-110.828 179.623,-110.828 176.07,-114.345 176.457,-107.63 172.516,-117.863 172.516,-117.863"/>
</g>
<!-- Role -->
<g id="node17" class="node"><title>Role</title>
<path fill="none" stroke="black" d="M165.495,-333C165.495,-333 274.505,-333 274.505,-333 280.505,-333 286.505,-339 286.505,-345 286.505,-345 286.505,-421 286.505,-421 286.505,-427 280.505,-433 274.505,-433 274.505,-433 165.495,-433 165.495,-433 159.495,-433 153.495,-427 153.495,-421 153.495,-421 153.495,-345 153.495,-345 153.495,-339 159.495,-333 165.495,-333"/>
<text text-anchor="middle" x="220" y="-417.8" font-family="Times,serif" font-size="14.00">Role</text>
<polyline fill="none" stroke="black" points="153.495,-411 286.505,-411 "/>
<text text-anchor="start" x="161.495" y="-395.8" font-family="Times,serif" font-size="14.00">id :INTEGER</text>
<text text-anchor="start" x="161.495" y="-381.8" font-family="Times,serif" font-size="14.00">name :varchar</text>
<text text-anchor="start" x="161.495" y="-367.8" font-family="Times,serif" font-size="14.00">type_id :integer</text>
<text text-anchor="start" x="161.495" y="-353.8" font-family="Times,serif" font-size="14.00">created_at :datetime</text>
<text text-anchor="start" x="161.495" y="-339.8" font-family="Times,serif" font-size="14.00">updated_at :datetime</text>
</g>
<!-- Role&#45;&gt;Resource -->
<g id="edge20" class="edge"><title>Role&#45;&gt;Resource</title>
<path fill="none" stroke="#9fdafc" d="M221.049,-324.656C221.246,-313.894 221.454,-302.507 221.658,-291.338"/>
<ellipse fill="none" stroke="#9fdafc" cx="220.973" cy="-328.795" rx="4" ry="4"/>
<polygon fill="#9fdafc" stroke="#9fdafc" points="221.662,-291.163 226.344,-281.247 221.753,-286.164 221.845,-281.165 221.845,-281.165 221.845,-281.165 221.753,-286.164 217.345,-281.082 221.662,-291.163 221.662,-291.163"/>
</g>
<!-- Round&#45;&gt;ExpertForm -->
<g id="edge21" class="edge"><title>Round&#45;&gt;ExpertForm</title>
<path fill="none" stroke="#8e0405" d="M528.405,-907.61C538.199,-899.071 548.217,-890.335 557.887,-881.904"/>
<ellipse fill="none" stroke="#8e0405" cx="525.361" cy="-910.264" rx="4.00002" ry="4.00002"/>
<polygon fill="#8e0405" stroke="#8e0405" points="558.019,-881.788 568.513,-878.608 561.787,-878.502 565.556,-875.216 565.556,-875.216 565.556,-875.216 561.787,-878.502 562.599,-871.825 558.019,-881.788 558.019,-881.788"/>
</g>
<!-- Round&#45;&gt;FormTemplate -->
<g id="edge22" class="edge"><title>Round&#45;&gt;FormTemplate</title>
<path fill="none" stroke="#7e68e5" d="M458,-904.804C458,-895.312 458,-885.647 458,-876.487"/>
<ellipse fill="none" stroke="#7e68e5" cx="458" cy="-908.893" rx="4" ry="4"/>
<ellipse fill="#7e68e5" stroke="#7e68e5" cx="458" cy="-872.235" rx="4" ry="4"/>
</g>
<!-- Subproduct&#45;&gt;Modul -->
<g id="edge23" class="edge"><title>Subproduct&#45;&gt;Modul</title>
<path fill="none" stroke="#b692fb" d="M840.892,-911.896C831.972,-820.563 810.898,-636.388 774,-484 770.719,-470.448 766.387,-456.123 761.918,-442.681"/>
<ellipse fill="none" stroke="#b692fb" cx="841.282" cy="-915.927" rx="4" ry="4"/>
<polygon fill="#b692fb" stroke="#b692fb" points="761.87,-442.541 762.913,-431.624 760.261,-437.806 758.653,-433.072 758.653,-433.072 758.653,-433.072 760.261,-437.806 754.392,-434.52 761.87,-442.541 761.87,-442.541"/>
</g>
<!-- Subtask -->
<g id="node20" class="node"><title>Subtask</title>
<path fill="none" stroke="black" d="M237.495,-630C237.495,-630 346.505,-630 346.505,-630 352.505,-630 358.505,-636 358.505,-642 358.505,-642 358.505,-718 358.505,-718 358.505,-724 352.505,-730 346.505,-730 346.505,-730 237.495,-730 237.495,-730 231.495,-730 225.495,-724 225.495,-718 225.495,-718 225.495,-642 225.495,-642 225.495,-636 231.495,-630 237.495,-630"/>
<text text-anchor="middle" x="292" y="-714.8" font-family="Times,serif" font-size="14.00">Subtask</text>
<polyline fill="none" stroke="black" points="225.495,-708 358.505,-708 "/>
<text text-anchor="start" x="233.495" y="-692.8" font-family="Times,serif" font-size="14.00">id :INTEGER</text>
<text text-anchor="start" x="233.495" y="-678.8" font-family="Times,serif" font-size="14.00">name :varchar</text>
<text text-anchor="start" x="233.495" y="-664.8" font-family="Times,serif" font-size="14.00">task_id :integer</text>
<text text-anchor="start" x="233.495" y="-650.8" font-family="Times,serif" font-size="14.00">created_at :datetime</text>
<text text-anchor="start" x="233.495" y="-636.8" font-family="Times,serif" font-size="14.00">updated_at :datetime</text>
</g>
<!-- Subtask&#45;&gt;Workpackage -->
<g id="edge24" class="edge"><title>Subtask&#45;&gt;Workpackage</title>
<path fill="none" stroke="#917c13" d="M355.49,-624.306C367.903,-613.613 380.934,-602.389 393.383,-591.664"/>
<ellipse fill="none" stroke="#917c13" cx="352.158" cy="-627.177" rx="4.00002" ry="4.00002"/>
<polygon fill="#917c13" stroke="#917c13" points="393.472,-591.588 403.985,-588.47 397.26,-588.324 401.048,-585.061 401.048,-585.061 401.048,-585.061 397.26,-588.324 398.111,-581.651 393.472,-591.588 393.472,-591.588"/>
</g>
<!-- Task -->
<g id="node21" class="node"><title>Task</title>
<path fill="none" stroke="black" d="M237.495,-775C237.495,-775 346.505,-775 346.505,-775 352.505,-775 358.505,-781 358.505,-787 358.505,-787 358.505,-863 358.505,-863 358.505,-869 352.505,-875 346.505,-875 346.505,-875 237.495,-875 237.495,-875 231.495,-875 225.495,-869 225.495,-863 225.495,-863 225.495,-787 225.495,-787 225.495,-781 231.495,-775 237.495,-775"/>
<text text-anchor="middle" x="292" y="-859.8" font-family="Times,serif" font-size="14.00">Task</text>
<polyline fill="none" stroke="black" points="225.495,-853 358.505,-853 "/>
<text text-anchor="start" x="233.495" y="-837.8" font-family="Times,serif" font-size="14.00">id :INTEGER</text>
<text text-anchor="start" x="233.495" y="-823.8" font-family="Times,serif" font-size="14.00">name :varchar</text>
<text text-anchor="start" x="233.495" y="-809.8" font-family="Times,serif" font-size="14.00">wbs_id :integer</text>
<text text-anchor="start" x="233.495" y="-795.8" font-family="Times,serif" font-size="14.00">created_at :datetime</text>
<text text-anchor="start" x="233.495" y="-781.8" font-family="Times,serif" font-size="14.00">updated_at :datetime</text>
</g>
<!-- Task&#45;&gt;Subtask -->
<g id="edge25" class="edge"><title>Task&#45;&gt;Subtask</title>
<path fill="none" stroke="#d669b4" d="M292,-766.575C292,-757.939 292,-749.018 292,-740.342"/>
<ellipse fill="none" stroke="#d669b4" cx="292" cy="-770.788" rx="4" ry="4"/>
<polygon fill="#d669b4" stroke="#d669b4" points="292,-740.303 296.5,-730.303 292,-735.303 292,-730.303 292,-730.303 292,-730.303 292,-735.303 287.5,-730.303 292,-740.303 292,-740.303"/>
</g>
<!-- Type&#45;&gt;Role -->
<g id="edge26" class="edge"><title>Type&#45;&gt;Role</title>
<path fill="none" stroke="#2c25c7" d="M156.245,-622.072C170.036,-570.574 190.263,-495.043 204.218,-442.932"/>
<ellipse fill="none" stroke="#2c25c7" cx="155.169" cy="-626.092" rx="4.00001" ry="4.00001"/>
<polygon fill="#2c25c7" stroke="#2c25c7" points="204.248,-442.821 211.182,-434.326 205.541,-437.991 206.835,-433.162 206.835,-433.162 206.835,-433.162 205.541,-437.991 202.488,-431.998 204.248,-442.821 204.248,-442.821"/>
</g>
<!-- WorkBreakdownStructure&#45;&gt;Task -->
<g id="edge27" class="edge"><title>WorkBreakdownStructure&#45;&gt;Task</title>
<path fill="none" stroke="#82271c" d="M292,-1056.64C292,-1008.68 292,-936.47 292,-885.652"/>
<ellipse fill="none" stroke="#82271c" cx="292" cy="-1060.93" rx="4" ry="4"/>
<polygon fill="#82271c" stroke="#82271c" points="292,-885.468 296.5,-875.468 292,-880.468 292,-875.468 292,-875.468 292,-875.468 292,-880.468 287.5,-875.468 292,-885.468 292,-885.468"/>
</g>
<!-- Workpackage&#45;&gt;RamEntry -->
<g id="edge28" class="edge"><title>Workpackage&#45;&gt;RamEntry</title>
<path fill="none" stroke="#997eca" d="M458,-476.848C458,-469.873 458,-462.68 458,-455.529"/>
<ellipse fill="none" stroke="#997eca" cx="458" cy="-480.884" rx="4" ry="4"/>
<ellipse fill="#997eca" stroke="#997eca" cx="458" cy="-451.169" rx="4" ry="4"/>
</g>
</g>
</svg>
