<?xml version="1.0" encoding="UTF-8" standalone="no"?>
<!DOCTYPE svg PUBLIC "-//W3C//DTD SVG 1.1//EN"
 "http://www.w3.org/Graphics/SVG/1.1/DTD/svg11.dtd">
<!-- Generated by graphviz version 2.36.0 (20140111.2315)
 -->
<!-- Title: models_diagram Pages: 1 -->
<svg width="1088pt" height="814pt"
 viewBox="0.00 0.00 1088.00 814.00" xmlns="http://www.w3.org/2000/svg" xmlns:xlink="http://www.w3.org/1999/xlink">
<g id="graph0" class="graph" transform="scale(1 1) rotate(0) translate(4 810)">
<title>models_diagram</title>
<polygon fill="none" stroke="none" points="-4,4 -4,-810 1084,-810 1084,4 -4,4"/>
<!-- _diagram_info -->
<g id="node1" class="node"><title>_diagram_info</title>
<text text-anchor="start" x="177.312" y="-784.1" font-family="Times,serif" font-size="13.00">Models diagram</text>
<text text-anchor="start" x="177.312" y="-771.1" font-family="Times,serif" font-size="13.00">Date: Jan 26 2016 &#45; 16:22</text>
<text text-anchor="start" x="177.312" y="-758.1" font-family="Times,serif" font-size="13.00">Migration version: 20160123133426</text>
<text text-anchor="start" x="177.312" y="-745.1" font-family="Times,serif" font-size="13.00">Generated by RailRoady 1.4.2</text>
<text text-anchor="start" x="177.312" y="-732.1" font-family="Times,serif" font-size="13.00">http://railroady.prestonlee.com</text>
</g>
<!-- Component -->
<g id="node2" class="node"><title>Component</title>
<path fill="none" stroke="black" d="M32.4946,-153C32.4946,-153 141.505,-153 141.505,-153 147.505,-153 153.505,-159 153.505,-165 153.505,-165 153.505,-241 153.505,-241 153.505,-247 147.505,-253 141.505,-253 141.505,-253 32.4946,-253 32.4946,-253 26.4946,-253 20.4946,-247 20.4946,-241 20.4946,-241 20.4946,-165 20.4946,-165 20.4946,-159 26.4946,-153 32.4946,-153"/>
<text text-anchor="middle" x="87" y="-237.8" font-family="Times,serif" font-size="14.00">Component</text>
<polyline fill="none" stroke="black" points="20.4946,-231 153.505,-231 "/>
<text text-anchor="start" x="28.4946" y="-215.8" font-family="Times,serif" font-size="14.00">id :INTEGER</text>
<text text-anchor="start" x="28.4946" y="-201.8" font-family="Times,serif" font-size="14.00">name :varchar</text>
<text text-anchor="start" x="28.4946" y="-187.8" font-family="Times,serif" font-size="14.00">modul_id :integer</text>
<text text-anchor="start" x="28.4946" y="-173.8" font-family="Times,serif" font-size="14.00">created_at :datetime</text>
<text text-anchor="start" x="28.4946" y="-159.8" font-family="Times,serif" font-size="14.00">updated_at :datetime</text>
</g>
<!-- DelphiEstimation -->
<g id="node3" class="node"><title>DelphiEstimation</title>
<path fill="none" stroke="black" d="M785.495,-595C785.495,-595 894.505,-595 894.505,-595 900.505,-595 906.505,-601 906.505,-607 906.505,-607 906.505,-669 906.505,-669 906.505,-675 900.505,-681 894.505,-681 894.505,-681 785.495,-681 785.495,-681 779.495,-681 773.495,-675 773.495,-669 773.495,-669 773.495,-607 773.495,-607 773.495,-601 779.495,-595 785.495,-595"/>
<text text-anchor="middle" x="840" y="-665.8" font-family="Times,serif" font-size="14.00">DelphiEstimation</text>
<polyline fill="none" stroke="black" points="773.495,-659 906.505,-659 "/>
<text text-anchor="start" x="781.495" y="-643.8" font-family="Times,serif" font-size="14.00">id :INTEGER</text>
<text text-anchor="start" x="781.495" y="-629.8" font-family="Times,serif" font-size="14.00">p_id :integer</text>
<text text-anchor="start" x="781.495" y="-615.8" font-family="Times,serif" font-size="14.00">created_at :datetime</text>
<text text-anchor="start" x="781.495" y="-601.8" font-family="Times,serif" font-size="14.00">updated_at :datetime</text>
</g>
<!-- Round -->
<g id="node17" class="node"><title>Round</title>
<path fill="none" stroke="black" d="M775.098,-443C775.098,-443 926.902,-443 926.902,-443 932.902,-443 938.902,-449 938.902,-455 938.902,-455 938.902,-545 938.902,-545 938.902,-551 932.902,-557 926.902,-557 926.902,-557 775.098,-557 775.098,-557 769.098,-557 763.098,-551 763.098,-545 763.098,-545 763.098,-455 763.098,-455 763.098,-449 769.098,-443 775.098,-443"/>
<text text-anchor="middle" x="851" y="-541.8" font-family="Times,serif" font-size="14.00">Round</text>
<polyline fill="none" stroke="black" points="763.098,-535 938.902,-535 "/>
<text text-anchor="start" x="771.098" y="-519.8" font-family="Times,serif" font-size="14.00">id :INTEGER</text>
<text text-anchor="start" x="771.098" y="-505.8" font-family="Times,serif" font-size="14.00">delphiEstimation_id :integer</text>
<text text-anchor="start" x="771.098" y="-491.8" font-family="Times,serif" font-size="14.00">count :integer</text>
<text text-anchor="start" x="771.098" y="-477.8" font-family="Times,serif" font-size="14.00">closed :boolean</text>
<text text-anchor="start" x="771.098" y="-463.8" font-family="Times,serif" font-size="14.00">created_at :datetime</text>
<text text-anchor="start" x="771.098" y="-449.8" font-family="Times,serif" font-size="14.00">updated_at :datetime</text>
</g>
<!-- DelphiEstimation&#45;&gt;Round -->
<g id="edge1" class="edge"><title>DelphiEstimation&#45;&gt;Round</title>
<path fill="none" stroke="#9408bf" d="M844.085,-586.491C844.591,-580.24 845.114,-573.778 845.635,-567.335"/>
<ellipse fill="none" stroke="#9408bf" cx="843.743" cy="-590.727" rx="4" ry="4"/>
<polygon fill="#9408bf" stroke="#9408bf" points="845.643,-567.229 850.935,-557.624 846.046,-562.245 846.449,-557.261 846.449,-557.261 846.449,-557.261 846.046,-562.245 841.964,-556.898 845.643,-567.229 845.643,-567.229"/>
</g>
<!-- Estimation -->
<g id="node4" class="node"><title>Estimation</title>
<path fill="none" stroke="black" d="M760.612,-153C760.612,-153 891.388,-153 891.388,-153 897.388,-153 903.388,-159 903.388,-165 903.388,-165 903.388,-241 903.388,-241 903.388,-247 897.388,-253 891.388,-253 891.388,-253 760.612,-253 760.612,-253 754.612,-253 748.612,-247 748.612,-241 748.612,-241 748.612,-165 748.612,-165 748.612,-159 754.612,-153 760.612,-153"/>
<text text-anchor="middle" x="826" y="-237.8" font-family="Times,serif" font-size="14.00">Estimation</text>
<polyline fill="none" stroke="black" points="748.612,-231 903.388,-231 "/>
<text text-anchor="start" x="756.612" y="-215.8" font-family="Times,serif" font-size="14.00">id :INTEGER</text>
<text text-anchor="start" x="756.612" y="-201.8" font-family="Times,serif" font-size="14.00">workpackage_id :integer</text>
<text text-anchor="start" x="756.612" y="-187.8" font-family="Times,serif" font-size="14.00">duration :integer</text>
<text text-anchor="start" x="756.612" y="-173.8" font-family="Times,serif" font-size="14.00">created_at :datetime</text>
<text text-anchor="start" x="756.612" y="-159.8" font-family="Times,serif" font-size="14.00">updated_at :datetime</text>
</g>
<!-- Workpackage -->
<g id="node23" class="node"><title>Workpackage</title>
<path fill="none" stroke="black" d="M771.495,-1C771.495,-1 880.505,-1 880.505,-1 886.505,-1 892.505,-7 892.505,-13 892.505,-13 892.505,-89 892.505,-89 892.505,-95 886.505,-101 880.505,-101 880.505,-101 771.495,-101 771.495,-101 765.495,-101 759.495,-95 759.495,-89 759.495,-89 759.495,-13 759.495,-13 759.495,-7 765.495,-1 771.495,-1"/>
<text text-anchor="middle" x="826" y="-85.8" font-family="Times,serif" font-size="14.00">Workpackage</text>
<polyline fill="none" stroke="black" points="759.495,-79 892.505,-79 "/>
<text text-anchor="start" x="767.495" y="-63.8" font-family="Times,serif" font-size="14.00">id :INTEGER</text>
<text text-anchor="start" x="767.495" y="-49.8" font-family="Times,serif" font-size="14.00">name :varchar</text>
<text text-anchor="start" x="767.495" y="-35.8" font-family="Times,serif" font-size="14.00">subtask_id :integer</text>
<text text-anchor="start" x="767.495" y="-21.8" font-family="Times,serif" font-size="14.00">created_at :datetime</text>
<text text-anchor="start" x="767.495" y="-7.8" font-family="Times,serif" font-size="14.00">updated_at :datetime</text>
</g>
<!-- Estimation&#45;&gt;Workpackage -->
<g id="edge2" class="edge"><title>Estimation&#45;&gt;Workpackage</title>
<path fill="none" stroke="#b06420" d="M826,-144.588C826,-133.083 826,-120.993 826,-109.485"/>
<ellipse fill="none" stroke="#b06420" cx="826" cy="-148.884" rx="4" ry="4"/>
<ellipse fill="#b06420" stroke="#b06420" cx="826" cy="-105.226" rx="4" ry="4"/>
</g>
<!-- EstimationTemplate -->
<g id="node5" class="node"><title>EstimationTemplate</title>
<path fill="none" stroke="black" d="M933.376,-146C933.376,-146 1068.62,-146 1068.62,-146 1074.62,-146 1080.62,-152 1080.62,-158 1080.62,-158 1080.62,-248 1080.62,-248 1080.62,-254 1074.62,-260 1068.62,-260 1068.62,-260 933.376,-260 933.376,-260 927.376,-260 921.376,-254 921.376,-248 921.376,-248 921.376,-158 921.376,-158 921.376,-152 927.376,-146 933.376,-146"/>
<text text-anchor="middle" x="1001" y="-244.8" font-family="Times,serif" font-size="14.00">EstimationTemplate</text>
<polyline fill="none" stroke="black" points="921.376,-238 1080.62,-238 "/>
<text text-anchor="start" x="929.376" y="-222.8" font-family="Times,serif" font-size="14.00">id :INTEGER</text>
<text text-anchor="start" x="929.376" y="-208.8" font-family="Times,serif" font-size="14.00">formTemplate_id :integer</text>
<text text-anchor="start" x="929.376" y="-194.8" font-family="Times,serif" font-size="14.00">workpackage_id :integer</text>
<text text-anchor="start" x="929.376" y="-180.8" font-family="Times,serif" font-size="14.00">comment :varchar</text>
<text text-anchor="start" x="929.376" y="-166.8" font-family="Times,serif" font-size="14.00">created_at :datetime</text>
<text text-anchor="start" x="929.376" y="-152.8" font-family="Times,serif" font-size="14.00">updated_at :datetime</text>
</g>
<!-- EstimationTemplate&#45;&gt;Workpackage -->
<g id="edge3" class="edge"><title>EstimationTemplate&#45;&gt;Workpackage</title>
<path fill="none" stroke="#d4c83c" d="M928.887,-140.189C915.863,-129.025 902.368,-117.458 889.608,-106.521"/>
<ellipse fill="none" stroke="#d4c83c" cx="932.302" cy="-143.116" rx="4.00002" ry="4.00002"/>
<ellipse fill="#d4c83c" stroke="#d4c83c" cx="886.445" cy="-103.81" rx="4.00002" ry="4.00002"/>
</g>
<!-- ExpertForm -->
<g id="node6" class="node"><title>ExpertForm</title>
<path fill="none" stroke="black" d="M777.119,-305C777.119,-305 886.881,-305 886.881,-305 892.881,-305 898.881,-311 898.881,-317 898.881,-317 898.881,-393 898.881,-393 898.881,-399 892.881,-405 886.881,-405 886.881,-405 777.119,-405 777.119,-405 771.119,-405 765.119,-399 765.119,-393 765.119,-393 765.119,-317 765.119,-317 765.119,-311 771.119,-305 777.119,-305"/>
<text text-anchor="middle" x="832" y="-389.8" font-family="Times,serif" font-size="14.00">ExpertForm</text>
<polyline fill="none" stroke="black" points="765.119,-383 898.881,-383 "/>
<text text-anchor="start" x="773.119" y="-367.8" font-family="Times,serif" font-size="14.00">id :INTEGER</text>
<text text-anchor="start" x="773.119" y="-353.8" font-family="Times,serif" font-size="14.00">round_id :integer</text>
<text text-anchor="start" x="773.119" y="-339.8" font-family="Times,serif" font-size="14.00">expertName :varchar</text>
<text text-anchor="start" x="773.119" y="-325.8" font-family="Times,serif" font-size="14.00">created_at :datetime</text>
<text text-anchor="start" x="773.119" y="-311.8" font-family="Times,serif" font-size="14.00">updated_at :datetime</text>
</g>
<!-- ExpertForm&#45;&gt;Estimation -->
<g id="edge4" class="edge"><title>ExpertForm&#45;&gt;Estimation</title>
<path fill="none" stroke="#61d06e" d="M829.704,-296.588C829.27,-285.753 828.816,-274.399 828.38,-263.502"/>
<ellipse fill="none" stroke="#61d06e" cx="829.875" cy="-300.888" rx="4" ry="4"/>
<polygon fill="#61d06e" stroke="#61d06e" points="828.369,-263.218 832.465,-253.046 828.169,-258.222 827.969,-253.226 827.969,-253.226 827.969,-253.226 828.169,-258.222 823.473,-253.406 828.369,-263.218 828.369,-263.218"/>
</g>
<!-- FormTemplate -->
<g id="node7" class="node"><title>FormTemplate</title>
<path fill="none" stroke="black" d="M940.495,-312C940.495,-312 1049.51,-312 1049.51,-312 1055.51,-312 1061.51,-318 1061.51,-324 1061.51,-324 1061.51,-386 1061.51,-386 1061.51,-392 1055.51,-398 1049.51,-398 1049.51,-398 940.495,-398 940.495,-398 934.495,-398 928.495,-392 928.495,-386 928.495,-386 928.495,-324 928.495,-324 928.495,-318 934.495,-312 940.495,-312"/>
<text text-anchor="middle" x="995" y="-382.8" font-family="Times,serif" font-size="14.00">FormTemplate</text>
<polyline fill="none" stroke="black" points="928.495,-376 1061.51,-376 "/>
<text text-anchor="start" x="936.495" y="-360.8" font-family="Times,serif" font-size="14.00">id :INTEGER</text>
<text text-anchor="start" x="936.495" y="-346.8" font-family="Times,serif" font-size="14.00">round_id :integer</text>
<text text-anchor="start" x="936.495" y="-332.8" font-family="Times,serif" font-size="14.00">created_at :datetime</text>
<text text-anchor="start" x="936.495" y="-318.8" font-family="Times,serif" font-size="14.00">updated_at :datetime</text>
</g>
<!-- FormTemplate&#45;&gt;EstimationTemplate -->
<g id="edge5" class="edge"><title>FormTemplate&#45;&gt;EstimationTemplate</title>
<path fill="none" stroke="#d91179" d="M997.01,-303.743C997.439,-293.027 997.898,-281.552 998.346,-270.339"/>
<ellipse fill="none" stroke="#d91179" cx="996.847" cy="-307.821" rx="4" ry="4"/>
<polygon fill="#d91179" stroke="#d91179" points="998.354,-270.136 1003.25,-260.324 998.554,-265.14 998.754,-260.144 998.754,-260.144 998.754,-260.144 998.554,-265.14 994.258,-259.964 998.354,-270.136 998.354,-270.136"/>
</g>
<!-- Milestone -->
<g id="node8" class="node"><title>Milestone</title>
<path fill="none" stroke="black" d="M396.822,-443C396.822,-443 515.178,-443 515.178,-443 521.178,-443 527.178,-449 527.178,-455 527.178,-455 527.178,-545 527.178,-545 527.178,-551 521.178,-557 515.178,-557 515.178,-557 396.822,-557 396.822,-557 390.822,-557 384.822,-551 384.822,-545 384.822,-545 384.822,-455 384.822,-455 384.822,-449 390.822,-443 396.822,-443"/>
<text text-anchor="middle" x="456" y="-541.8" font-family="Times,serif" font-size="14.00">Milestone</text>
<polyline fill="none" stroke="black" points="384.822,-535 527.178,-535 "/>
<text text-anchor="start" x="392.822" y="-519.8" font-family="Times,serif" font-size="14.00">id :INTEGER</text>
<text text-anchor="start" x="392.822" y="-505.8" font-family="Times,serif" font-size="14.00">roadmap_id :integer</text>
<text text-anchor="start" x="392.822" y="-491.8" font-family="Times,serif" font-size="14.00">component_id :integer</text>
<text text-anchor="start" x="392.822" y="-477.8" font-family="Times,serif" font-size="14.00">date :datetime</text>
<text text-anchor="start" x="392.822" y="-463.8" font-family="Times,serif" font-size="14.00">created_at :datetime</text>
<text text-anchor="start" x="392.822" y="-449.8" font-family="Times,serif" font-size="14.00">updated_at :datetime</text>
</g>
<!-- Modul -->
<g id="node9" class="node"><title>Modul</title>
<path fill="none" stroke="black" d="M27.8188,-305C27.8188,-305 146.181,-305 146.181,-305 152.181,-305 158.181,-311 158.181,-317 158.181,-317 158.181,-393 158.181,-393 158.181,-399 152.181,-405 146.181,-405 146.181,-405 27.8188,-405 27.8188,-405 21.8188,-405 15.8188,-399 15.8188,-393 15.8188,-393 15.8188,-317 15.8188,-317 15.8188,-311 21.8188,-305 27.8188,-305"/>
<text text-anchor="middle" x="87" y="-389.8" font-family="Times,serif" font-size="14.00">Modul</text>
<polyline fill="none" stroke="black" points="15.8188,-383 158.181,-383 "/>
<text text-anchor="start" x="23.8188" y="-367.8" font-family="Times,serif" font-size="14.00">id :INTEGER</text>
<text text-anchor="start" x="23.8188" y="-353.8" font-family="Times,serif" font-size="14.00">name :varchar</text>
<text text-anchor="start" x="23.8188" y="-339.8" font-family="Times,serif" font-size="14.00">subproduct_id :integer</text>
<text text-anchor="start" x="23.8188" y="-325.8" font-family="Times,serif" font-size="14.00">created_at :datetime</text>
<text text-anchor="start" x="23.8188" y="-311.8" font-family="Times,serif" font-size="14.00">updated_at :datetime</text>
</g>
<!-- Modul&#45;&gt;Component -->
<g id="edge6" class="edge"><title>Modul&#45;&gt;Component</title>
<path fill="none" stroke="#b4cc0c" d="M87,-296.588C87,-285.753 87,-274.399 87,-263.502"/>
<ellipse fill="none" stroke="#b4cc0c" cx="87" cy="-300.884" rx="4" ry="4"/>
<polygon fill="#b4cc0c" stroke="#b4cc0c" points="87.0001,-263.226 91.5,-253.226 87,-258.226 87,-253.226 87,-253.226 87,-253.226 87,-258.226 82.5,-253.226 87.0001,-263.226 87.0001,-263.226"/>
</g>
<!-- ProductBreakdownStructure -->
<g id="node10" class="node"><title>ProductBreakdownStructure</title>
<path fill="none" stroke="black" d="M11.2964,-595C11.2964,-595 162.704,-595 162.704,-595 168.704,-595 174.704,-601 174.704,-607 174.704,-607 174.704,-669 174.704,-669 174.704,-675 168.704,-681 162.704,-681 162.704,-681 11.2964,-681 11.2964,-681 5.29639,-681 -0.703613,-675 -0.703613,-669 -0.703613,-669 -0.703613,-607 -0.703613,-607 -0.703613,-601 5.29639,-595 11.2964,-595"/>
<text text-anchor="middle" x="87" y="-665.8" font-family="Times,serif" font-size="14.00">ProductBreakdownStructure</text>
<polyline fill="none" stroke="black" points="-0.703613,-659 174.704,-659 "/>
<text text-anchor="start" x="7.29639" y="-643.8" font-family="Times,serif" font-size="14.00">id :INTEGER</text>
<text text-anchor="start" x="7.29639" y="-629.8" font-family="Times,serif" font-size="14.00">p_id :integer</text>
<text text-anchor="start" x="7.29639" y="-615.8" font-family="Times,serif" font-size="14.00">created_at :datetime</text>
<text text-anchor="start" x="7.29639" y="-601.8" font-family="Times,serif" font-size="14.00">updated_at :datetime</text>
</g>
<!-- Subproduct -->
<g id="node18" class="node"><title>Subproduct</title>
<path fill="none" stroke="black" d="M32.4946,-450C32.4946,-450 141.505,-450 141.505,-450 147.505,-450 153.505,-456 153.505,-462 153.505,-462 153.505,-538 153.505,-538 153.505,-544 147.505,-550 141.505,-550 141.505,-550 32.4946,-550 32.4946,-550 26.4946,-550 20.4946,-544 20.4946,-538 20.4946,-538 20.4946,-462 20.4946,-462 20.4946,-456 26.4946,-450 32.4946,-450"/>
<text text-anchor="middle" x="87" y="-534.8" font-family="Times,serif" font-size="14.00">Subproduct</text>
<polyline fill="none" stroke="black" points="20.4946,-528 153.505,-528 "/>
<text text-anchor="start" x="28.4946" y="-512.8" font-family="Times,serif" font-size="14.00">id :INTEGER</text>
<text text-anchor="start" x="28.4946" y="-498.8" font-family="Times,serif" font-size="14.00">name :varchar</text>
<text text-anchor="start" x="28.4946" y="-484.8" font-family="Times,serif" font-size="14.00">pbs_id :integer</text>
<text text-anchor="start" x="28.4946" y="-470.8" font-family="Times,serif" font-size="14.00">created_at :datetime</text>
<text text-anchor="start" x="28.4946" y="-456.8" font-family="Times,serif" font-size="14.00">updated_at :datetime</text>
</g>
<!-- ProductBreakdownStructure&#45;&gt;Subproduct -->
<g id="edge7" class="edge"><title>ProductBreakdownStructure&#45;&gt;Subproduct</title>
<path fill="none" stroke="#f0b226" d="M87,-586.658C87,-578.146 87,-569.238 87,-560.519"/>
<ellipse fill="none" stroke="#f0b226" cx="87" cy="-590.714" rx="4" ry="4"/>
<polygon fill="#f0b226" stroke="#f0b226" points="87.0001,-560.406 91.5,-550.406 87,-555.406 87,-550.406 87,-550.406 87,-550.406 87,-555.406 82.5,-550.406 87.0001,-560.406 87.0001,-560.406"/>
</g>
<!-- Project -->
<g id="node11" class="node"><title>Project</title>
<path fill="none" stroke="black" d="M406.495,-719C406.495,-719 515.505,-719 515.505,-719 521.505,-719 527.505,-725 527.505,-731 527.505,-731 527.505,-793 527.505,-793 527.505,-799 521.505,-805 515.505,-805 515.505,-805 406.495,-805 406.495,-805 400.495,-805 394.495,-799 394.495,-793 394.495,-793 394.495,-731 394.495,-731 394.495,-725 400.495,-719 406.495,-719"/>
<text text-anchor="middle" x="461" y="-789.8" font-family="Times,serif" font-size="14.00">Project</text>
<polyline fill="none" stroke="black" points="394.495,-783 527.505,-783 "/>
<text text-anchor="start" x="402.495" y="-767.8" font-family="Times,serif" font-size="14.00">id :INTEGER</text>
<text text-anchor="start" x="402.495" y="-753.8" font-family="Times,serif" font-size="14.00">name :varchar</text>
<text text-anchor="start" x="402.495" y="-739.8" font-family="Times,serif" font-size="14.00">created_at :datetime</text>
<text text-anchor="start" x="402.495" y="-725.8" font-family="Times,serif" font-size="14.00">updated_at :datetime</text>
</g>
<!-- Project&#45;&gt;DelphiEstimation -->
<g id="edge12" class="edge"><title>Project&#45;&gt;DelphiEstimation</title>
<path fill="none" stroke="#9e77a1" d="M535.577,-745.058C595.342,-731.279 680.84,-709.296 753,-682 757.137,-680.435 761.34,-678.739 765.552,-676.955"/>
<ellipse fill="none" stroke="#9e77a1" cx="531.585" cy="-745.972" rx="4.00001" ry="4.00001"/>
<ellipse fill="#9e77a1" stroke="#9e77a1" cx="769.464" cy="-675.254" rx="4.00002" ry="4.00002"/>
</g>
<!-- Project&#45;&gt;ProductBreakdownStructure -->
<g id="edge9" class="edge"><title>Project&#45;&gt;ProductBreakdownStructure</title>
<path fill="none" stroke="#93cbd9" d="M386.767,-718.649C386.177,-718.429 385.588,-718.212 385,-718 299.625,-687.217 270.775,-708.581 184,-682 183.532,-681.857 183.064,-681.712 182.594,-681.565"/>
<ellipse fill="none" stroke="#93cbd9" cx="390.739" cy="-720.244" rx="4.00001" ry="4.00001"/>
<ellipse fill="#93cbd9" stroke="#93cbd9" cx="178.745" cy="-680.304" rx="4.00001" ry="4.00001"/>
</g>
<!-- ResourceBreakdownStructure -->
<g id="node14" class="node"><title>ResourceBreakdownStructure</title>
<path fill="none" stroke="black" d="M205.027,-595C205.027,-595 364.973,-595 364.973,-595 370.973,-595 376.973,-601 376.973,-607 376.973,-607 376.973,-669 376.973,-669 376.973,-675 370.973,-681 364.973,-681 364.973,-681 205.027,-681 205.027,-681 199.027,-681 193.027,-675 193.027,-669 193.027,-669 193.027,-607 193.027,-607 193.027,-601 199.027,-595 205.027,-595"/>
<text text-anchor="middle" x="285" y="-665.8" font-family="Times,serif" font-size="14.00">ResourceBreakdownStructure</text>
<polyline fill="none" stroke="black" points="193.027,-659 376.973,-659 "/>
<text text-anchor="start" x="201.027" y="-643.8" font-family="Times,serif" font-size="14.00">id :INTEGER</text>
<text text-anchor="start" x="201.027" y="-629.8" font-family="Times,serif" font-size="14.00">p_id :integer</text>
<text text-anchor="start" x="201.027" y="-615.8" font-family="Times,serif" font-size="14.00">created_at :datetime</text>
<text text-anchor="start" x="201.027" y="-601.8" font-family="Times,serif" font-size="14.00">updated_at :datetime</text>
</g>
<!-- Project&#45;&gt;ResourceBreakdownStructure -->
<g id="edge10" class="edge"><title>Project&#45;&gt;ResourceBreakdownStructure</title>
<path fill="none" stroke="#61fc5d" d="M393.28,-714.057C379.927,-704.802 365.916,-695.09 352.569,-685.838"/>
<ellipse fill="none" stroke="#61fc5d" cx="396.65" cy="-716.394" rx="4.00002" ry="4.00002"/>
<ellipse fill="#61fc5d" stroke="#61fc5d" cx="348.944" cy="-683.325" rx="4.00002" ry="4.00002"/>
</g>
<!-- Roadmap -->
<g id="node15" class="node"><title>Roadmap</title>
<path fill="none" stroke="black" d="M406.495,-595C406.495,-595 515.505,-595 515.505,-595 521.505,-595 527.505,-601 527.505,-607 527.505,-607 527.505,-669 527.505,-669 527.505,-675 521.505,-681 515.505,-681 515.505,-681 406.495,-681 406.495,-681 400.495,-681 394.495,-675 394.495,-669 394.495,-669 394.495,-607 394.495,-607 394.495,-601 400.495,-595 406.495,-595"/>
<text text-anchor="middle" x="461" y="-665.8" font-family="Times,serif" font-size="14.00">Roadmap</text>
<polyline fill="none" stroke="black" points="394.495,-659 527.505,-659 "/>
<text text-anchor="start" x="402.495" y="-643.8" font-family="Times,serif" font-size="14.00">id :INTEGER</text>
<text text-anchor="start" x="402.495" y="-629.8" font-family="Times,serif" font-size="14.00">p_id :integer</text>
<text text-anchor="start" x="402.495" y="-615.8" font-family="Times,serif" font-size="14.00">created_at :datetime</text>
<text text-anchor="start" x="402.495" y="-601.8" font-family="Times,serif" font-size="14.00">updated_at :datetime</text>
</g>
<!-- Project&#45;&gt;Roadmap -->
<g id="edge11" class="edge"><title>Project&#45;&gt;Roadmap</title>
<path fill="none" stroke="#79c276" d="M461,-710.591C461,-703.581 461,-696.378 461,-689.369"/>
<ellipse fill="none" stroke="#79c276" cx="461" cy="-714.673" rx="4" ry="4"/>
<ellipse fill="#79c276" stroke="#79c276" cx="461" cy="-685.252" rx="4" ry="4"/>
</g>
<!-- WorkBreakdownStructure -->
<g id="node22" class="node"><title>WorkBreakdownStructure</title>
<path fill="none" stroke="black" d="M594.691,-457C594.691,-457 733.309,-457 733.309,-457 739.309,-457 745.309,-463 745.309,-469 745.309,-469 745.309,-531 745.309,-531 745.309,-537 739.309,-543 733.309,-543 733.309,-543 594.691,-543 594.691,-543 588.691,-543 582.691,-537 582.691,-531 582.691,-531 582.691,-469 582.691,-469 582.691,-463 588.691,-457 594.691,-457"/>
<text text-anchor="middle" x="664" y="-527.8" font-family="Times,serif" font-size="14.00">WorkBreakdownStructure</text>
<polyline fill="none" stroke="black" points="582.691,-521 745.309,-521 "/>
<text text-anchor="start" x="590.691" y="-505.8" font-family="Times,serif" font-size="14.00">id :INTEGER</text>
<text text-anchor="start" x="590.691" y="-491.8" font-family="Times,serif" font-size="14.00">p_id :integer</text>
<text text-anchor="start" x="590.691" y="-477.8" font-family="Times,serif" font-size="14.00">created_at :datetime</text>
<text text-anchor="start" x="590.691" y="-463.8" font-family="Times,serif" font-size="14.00">updated_at :datetime</text>
</g>
<!-- Project&#45;&gt;WorkBreakdownStructure -->
<g id="edge8" class="edge"><title>Project&#45;&gt;WorkBreakdownStructure</title>
<path fill="none" stroke="#70da62" d="M535.708,-748.232C603.786,-734.894 696.983,-711.767 719,-682 747.773,-643.098 725.211,-589.024 700.872,-550.126"/>
<ellipse fill="none" stroke="#70da62" cx="531.464" cy="-749.051" rx="4.00001" ry="4.00001"/>
<ellipse fill="#70da62" stroke="#70da62" cx="698.483" cy="-546.41" rx="4.00002" ry="4.00002"/>
</g>
<!-- Resource -->
<g id="node12" class="node"><title>Resource</title>
<path fill="none" stroke="black" d="M345.329,-139C345.329,-139 456.671,-139 456.671,-139 462.671,-139 468.671,-145 468.671,-151 468.671,-151 468.671,-255 468.671,-255 468.671,-261 462.671,-267 456.671,-267 456.671,-267 345.329,-267 345.329,-267 339.329,-267 333.329,-261 333.329,-255 333.329,-255 333.329,-151 333.329,-151 333.329,-145 339.329,-139 345.329,-139"/>
<text text-anchor="middle" x="401" y="-251.8" font-family="Times,serif" font-size="14.00">Resource</text>
<polyline fill="none" stroke="black" points="333.329,-245 468.671,-245 "/>
<text text-anchor="start" x="341.329" y="-229.8" font-family="Times,serif" font-size="14.00">id :INTEGER</text>
<text text-anchor="start" x="341.329" y="-215.8" font-family="Times,serif" font-size="14.00">role_id :integer</text>
<text text-anchor="start" x="341.329" y="-201.8" font-family="Times,serif" font-size="14.00">qualification :varchar</text>
<text text-anchor="start" x="341.329" y="-187.8" font-family="Times,serif" font-size="14.00">experience :varchar</text>
<text text-anchor="start" x="341.329" y="-173.8" font-family="Times,serif" font-size="14.00">quantitiy :decimal</text>
<text text-anchor="start" x="341.329" y="-159.8" font-family="Times,serif" font-size="14.00">created_at :datetime</text>
<text text-anchor="start" x="341.329" y="-145.8" font-family="Times,serif" font-size="14.00">updated_at :datetime</text>
</g>
<!-- ResourceAllocationMatrix -->
<g id="node13" class="node"><title>ResourceAllocationMatrix</title>
<path fill="none" stroke="black" d="M557.355,-595C557.355,-595 698.645,-595 698.645,-595 704.645,-595 710.645,-601 710.645,-607 710.645,-607 710.645,-669 710.645,-669 710.645,-675 704.645,-681 698.645,-681 698.645,-681 557.355,-681 557.355,-681 551.355,-681 545.355,-675 545.355,-669 545.355,-669 545.355,-607 545.355,-607 545.355,-601 551.355,-595 557.355,-595"/>
<text text-anchor="middle" x="628" y="-665.8" font-family="Times,serif" font-size="14.00">ResourceAllocationMatrix</text>
<polyline fill="none" stroke="black" points="545.355,-659 710.645,-659 "/>
<text text-anchor="start" x="553.355" y="-643.8" font-family="Times,serif" font-size="14.00">id :INTEGER</text>
<text text-anchor="start" x="553.355" y="-629.8" font-family="Times,serif" font-size="14.00">p_id :integer</text>
<text text-anchor="start" x="553.355" y="-615.8" font-family="Times,serif" font-size="14.00">created_at :datetime</text>
<text text-anchor="start" x="553.355" y="-601.8" font-family="Times,serif" font-size="14.00">updated_at :datetime</text>
</g>
<!-- Role -->
<g id="node16" class="node"><title>Role</title>
<path fill="none" stroke="black" d="M346.495,-305C346.495,-305 455.505,-305 455.505,-305 461.505,-305 467.505,-311 467.505,-317 467.505,-317 467.505,-393 467.505,-393 467.505,-399 461.505,-405 455.505,-405 455.505,-405 346.495,-405 346.495,-405 340.495,-405 334.495,-399 334.495,-393 334.495,-393 334.495,-317 334.495,-317 334.495,-311 340.495,-305 346.495,-305"/>
<text text-anchor="middle" x="401" y="-389.8" font-family="Times,serif" font-size="14.00">Role</text>
<polyline fill="none" stroke="black" points="334.495,-383 467.505,-383 "/>
<text text-anchor="start" x="342.495" y="-367.8" font-family="Times,serif" font-size="14.00">id :INTEGER</text>
<text text-anchor="start" x="342.495" y="-353.8" font-family="Times,serif" font-size="14.00">name :varchar</text>
<text text-anchor="start" x="342.495" y="-339.8" font-family="Times,serif" font-size="14.00">type_id :integer</text>
<text text-anchor="start" x="342.495" y="-325.8" font-family="Times,serif" font-size="14.00">created_at :datetime</text>
<text text-anchor="start" x="342.495" y="-311.8" font-family="Times,serif" font-size="14.00">updated_at :datetime</text>
</g>
<!-- ResourceAllocationMatrix&#45;&gt;Role -->
<g id="edge14" class="edge"><title>ResourceAllocationMatrix&#45;&gt;Role</title>
<path fill="none" stroke="#861042" d="M591.375,-587.98C585.074,-578.332 578.966,-568.072 574,-558 550.008,-509.342 569.266,-484.856 536,-442 520.205,-421.652 498.149,-404.764 476.436,-391.498"/>
<ellipse fill="none" stroke="#861042" cx="593.763" cy="-591.558" rx="4.00002" ry="4.00002"/>
<polygon fill="#861042" stroke="#861042" points="476.432,-391.496 470.113,-382.533 472.127,-388.951 467.823,-386.407 467.823,-386.407 467.823,-386.407 472.127,-388.951 465.533,-390.281 476.432,-391.496 476.432,-391.496"/>
</g>
<!-- ResourceAllocationMatrix&#45;&gt;WorkBreakdownStructure -->
<g id="edge13" class="edge"><title>ResourceAllocationMatrix&#45;&gt;WorkBreakdownStructure</title>
<path fill="none" stroke="#8e265a" d="M641.266,-586.886C644.349,-575.238 647.631,-562.837 650.715,-551.187"/>
<ellipse fill="none" stroke="#8e265a" cx="640.217" cy="-590.847" rx="4.00001" ry="4.00001"/>
<ellipse fill="#8e265a" stroke="#8e265a" cx="651.79" cy="-547.126" rx="4.00001" ry="4.00001"/>
</g>
<!-- Type -->
<g id="node21" class="node"><title>Type</title>
<path fill="none" stroke="black" d="M235.495,-450C235.495,-450 344.505,-450 344.505,-450 350.505,-450 356.505,-456 356.505,-462 356.505,-462 356.505,-538 356.505,-538 356.505,-544 350.505,-550 344.505,-550 344.505,-550 235.495,-550 235.495,-550 229.495,-550 223.495,-544 223.495,-538 223.495,-538 223.495,-462 223.495,-462 223.495,-456 229.495,-450 235.495,-450"/>
<text text-anchor="middle" x="290" y="-534.8" font-family="Times,serif" font-size="14.00">Type</text>
<polyline fill="none" stroke="black" points="223.495,-528 356.505,-528 "/>
<text text-anchor="start" x="231.495" y="-512.8" font-family="Times,serif" font-size="14.00">id :INTEGER</text>
<text text-anchor="start" x="231.495" y="-498.8" font-family="Times,serif" font-size="14.00">name :varchar</text>
<text text-anchor="start" x="231.495" y="-484.8" font-family="Times,serif" font-size="14.00">rbs_id :integer</text>
<text text-anchor="start" x="231.495" y="-470.8" font-family="Times,serif" font-size="14.00">created_at :datetime</text>
<text text-anchor="start" x="231.495" y="-456.8" font-family="Times,serif" font-size="14.00">updated_at :datetime</text>
</g>
<!-- ResourceBreakdownStructure&#45;&gt;Type -->
<g id="edge15" class="edge"><title>ResourceBreakdownStructure&#45;&gt;Type</title>
<path fill="none" stroke="#b31266" d="M286.851,-586.658C287.164,-578.146 287.491,-569.238 287.812,-560.519"/>
<ellipse fill="none" stroke="#b31266" cx="286.702" cy="-590.717" rx="4" ry="4"/>
<polygon fill="#b31266" stroke="#b31266" points="287.816,-560.399 292.681,-550.571 288,-555.402 288.184,-550.406 288.184,-550.406 288.184,-550.406 288,-555.402 283.687,-550.24 287.816,-560.399 287.816,-560.399"/>
</g>
<!-- Roadmap&#45;&gt;Milestone -->
<g id="edge16" class="edge"><title>Roadmap&#45;&gt;Milestone</title>
<path fill="none" stroke="#3e6967" d="M459.143,-586.491C458.913,-580.24 458.676,-573.778 458.439,-567.335"/>
<ellipse fill="none" stroke="#3e6967" cx="459.298" cy="-590.717" rx="4" ry="4"/>
<polygon fill="#3e6967" stroke="#3e6967" points="458.436,-567.255 462.565,-557.096 458.252,-562.258 458.068,-557.261 458.068,-557.261 458.068,-557.261 458.252,-562.258 453.571,-557.427 458.436,-567.255 458.436,-567.255"/>
</g>
<!-- Role&#45;&gt;Resource -->
<g id="edge17" class="edge"><title>Role&#45;&gt;Resource</title>
<path fill="none" stroke="#9cb65f" d="M401,-296.848C401,-290.48 401,-283.929 401,-277.395"/>
<ellipse fill="none" stroke="#9cb65f" cx="401" cy="-300.884" rx="4" ry="4"/>
<polygon fill="#9cb65f" stroke="#9cb65f" points="401,-277.169 405.5,-267.169 401,-272.169 401,-267.169 401,-267.169 401,-267.169 401,-272.169 396.5,-267.169 401,-277.169 401,-277.169"/>
</g>
<!-- Round&#45;&gt;ExpertForm -->
<g id="edge18" class="edge"><title>Round&#45;&gt;ExpertForm</title>
<path fill="none" stroke="#e4b149" d="M842.457,-434.704C841.621,-428.413 840.775,-422.047 839.946,-415.803"/>
<ellipse fill="none" stroke="#e4b149" cx="843.018" cy="-438.928" rx="4.00001" ry="4.00001"/>
<polygon fill="#e4b149" stroke="#e4b149" points="839.887,-415.358 843.03,-404.853 839.228,-410.402 838.57,-405.446 838.57,-405.446 838.57,-405.446 839.228,-410.402 834.109,-406.038 839.887,-415.358 839.887,-415.358"/>
</g>
<!-- Round&#45;&gt;FormTemplate -->
<g id="edge19" class="edge"><title>Round&#45;&gt;FormTemplate</title>
<path fill="none" stroke="#f9f2e0" d="M913.507,-436.927C924.608,-425.903 936.015,-414.575 946.649,-404.016"/>
<ellipse fill="none" stroke="#f9f2e0" cx="910.338" cy="-440.074" rx="4.00002" ry="4.00002"/>
<ellipse fill="#f9f2e0" stroke="#f9f2e0" cx="949.631" cy="-401.054" rx="4.00002" ry="4.00002"/>
</g>
<!-- Subproduct&#45;&gt;Modul -->
<g id="edge20" class="edge"><title>Subproduct&#45;&gt;Modul</title>
<path fill="none" stroke="#2d83ac" d="M87,-441.575C87,-432.939 87,-424.018 87,-415.342"/>
<ellipse fill="none" stroke="#2d83ac" cx="87" cy="-445.788" rx="4" ry="4"/>
<polygon fill="#2d83ac" stroke="#2d83ac" points="87.0001,-415.303 91.5,-405.303 87,-410.303 87,-405.303 87,-405.303 87,-405.303 87,-410.303 82.5,-405.303 87.0001,-415.303 87.0001,-415.303"/>
</g>
<!-- Subtask -->
<g id="node19" class="node"><title>Subtask</title>
<path fill="none" stroke="black" d="M609.495,-153C609.495,-153 718.505,-153 718.505,-153 724.505,-153 730.505,-159 730.505,-165 730.505,-165 730.505,-241 730.505,-241 730.505,-247 724.505,-253 718.505,-253 718.505,-253 609.495,-253 609.495,-253 603.495,-253 597.495,-247 597.495,-241 597.495,-241 597.495,-165 597.495,-165 597.495,-159 603.495,-153 609.495,-153"/>
<text text-anchor="middle" x="664" y="-237.8" font-family="Times,serif" font-size="14.00">Subtask</text>
<polyline fill="none" stroke="black" points="597.495,-231 730.505,-231 "/>
<text text-anchor="start" x="605.495" y="-215.8" font-family="Times,serif" font-size="14.00">id :INTEGER</text>
<text text-anchor="start" x="605.495" y="-201.8" font-family="Times,serif" font-size="14.00">name :varchar</text>
<text text-anchor="start" x="605.495" y="-187.8" font-family="Times,serif" font-size="14.00">task_id :integer</text>
<text text-anchor="start" x="605.495" y="-173.8" font-family="Times,serif" font-size="14.00">created_at :datetime</text>
<text text-anchor="start" x="605.495" y="-159.8" font-family="Times,serif" font-size="14.00">updated_at :datetime</text>
</g>
<!-- Subtask&#45;&gt;Workpackage -->
<g id="edge21" class="edge"><title>Subtask&#45;&gt;Workpackage</title>
<path fill="none" stroke="#4ea419" d="M722.988,-147.381C736.745,-134.644 751.418,-121.057 765.25,-108.25"/>
<ellipse fill="none" stroke="#4ea419" cx="719.98" cy="-150.167" rx="4.00002" ry="4.00002"/>
<polygon fill="#4ea419" stroke="#4ea419" points="765.498,-108.02 775.893,-104.528 769.167,-104.623 772.836,-101.226 772.836,-101.226 772.836,-101.226 769.167,-104.623 769.779,-97.924 765.498,-108.02 765.498,-108.02"/>
</g>
<!-- Task -->
<g id="node20" class="node"><title>Task</title>
<path fill="none" stroke="black" d="M609.495,-305C609.495,-305 718.505,-305 718.505,-305 724.505,-305 730.505,-311 730.505,-317 730.505,-317 730.505,-393 730.505,-393 730.505,-399 724.505,-405 718.505,-405 718.505,-405 609.495,-405 609.495,-405 603.495,-405 597.495,-399 597.495,-393 597.495,-393 597.495,-317 597.495,-317 597.495,-311 603.495,-305 609.495,-305"/>
<text text-anchor="middle" x="664" y="-389.8" font-family="Times,serif" font-size="14.00">Task</text>
<polyline fill="none" stroke="black" points="597.495,-383 730.505,-383 "/>
<text text-anchor="start" x="605.495" y="-367.8" font-family="Times,serif" font-size="14.00">id :INTEGER</text>
<text text-anchor="start" x="605.495" y="-353.8" font-family="Times,serif" font-size="14.00">name :varchar</text>
<text text-anchor="start" x="605.495" y="-339.8" font-family="Times,serif" font-size="14.00">wbs_id :integer</text>
<text text-anchor="start" x="605.495" y="-325.8" font-family="Times,serif" font-size="14.00">created_at :datetime</text>
<text text-anchor="start" x="605.495" y="-311.8" font-family="Times,serif" font-size="14.00">updated_at :datetime</text>
</g>
<!-- Task&#45;&gt;Subtask -->
<g id="edge22" class="edge"><title>Task&#45;&gt;Subtask</title>
<path fill="none" stroke="#09050b" d="M664,-296.588C664,-285.753 664,-274.399 664,-263.502"/>
<ellipse fill="none" stroke="#09050b" cx="664" cy="-300.884" rx="4" ry="4"/>
<polygon fill="#09050b" stroke="#09050b" points="664,-263.226 668.5,-253.226 664,-258.226 664,-253.226 664,-253.226 664,-253.226 664,-258.226 659.5,-253.226 664,-263.226 664,-263.226"/>
</g>
<!-- Type&#45;&gt;Role -->
<g id="edge23" class="edge"><title>Type&#45;&gt;Role</title>
<path fill="none" stroke="#299ef4" d="M333.233,-443.304C340.833,-433.512 348.757,-423.303 356.395,-413.464"/>
<ellipse fill="none" stroke="#299ef4" cx="330.653" cy="-446.628" rx="4.00002" ry="4.00002"/>
<polygon fill="#299ef4" stroke="#299ef4" points="356.598,-413.203 366.284,-408.063 359.664,-409.253 362.73,-405.303 362.73,-405.303 362.73,-405.303 359.664,-409.253 359.175,-402.544 356.598,-413.203 356.598,-413.203"/>
</g>
<!-- WorkBreakdownStructure&#45;&gt;Task -->
<g id="edge24" class="edge"><title>WorkBreakdownStructure&#45;&gt;Task</title>
<path fill="none" stroke="#66ec73" d="M664,-448.702C664,-437.875 664,-426.335 664,-415.205"/>
<ellipse fill="none" stroke="#66ec73" cx="664" cy="-452.869" rx="4" ry="4"/>
<polygon fill="#66ec73" stroke="#66ec73" points="664,-415.131 668.5,-405.131 664,-410.131 664,-405.131 664,-405.131 664,-405.131 664,-410.131 659.5,-405.131 664,-415.131 664,-415.131"/>
</g>
</g>
</svg>
