<?xml version="1.0" encoding="UTF-8" standalone="no"?>
<!DOCTYPE svg PUBLIC "-//W3C//DTD SVG 1.1//EN"
 "http://www.w3.org/Graphics/SVG/1.1/DTD/svg11.dtd">
<!-- Generated by graphviz version 2.36.0 (20140111.2315)
 -->
<!-- Title: models_diagram Pages: 1 -->
<svg width="830pt" height="586pt"
 viewBox="0.00 0.00 830.00 586.00" xmlns="http://www.w3.org/2000/svg" xmlns:xlink="http://www.w3.org/1999/xlink">
<g id="graph0" class="graph" transform="scale(1 1) rotate(0) translate(4 582)">
<title>models_diagram</title>
<polygon fill="none" stroke="none" points="-4,4 -4,-582 826,-582 826,4 -4,4"/>
<!-- _diagram_info -->
<g id="node1" class="node"><title>_diagram_info</title>
<text text-anchor="start" x="203.312" y="-563.1" font-family="Times,serif" font-size="13.00">Models diagram</text>
<text text-anchor="start" x="203.312" y="-550.1" font-family="Times,serif" font-size="13.00">Date: Jan 28 2016 &#45; 13:16</text>
<text text-anchor="start" x="203.312" y="-537.1" font-family="Times,serif" font-size="13.00">Migration version: 20160127163157</text>
<text text-anchor="start" x="203.312" y="-524.1" font-family="Times,serif" font-size="13.00">Generated by RailRoady 1.4.2</text>
<text text-anchor="start" x="203.312" y="-511.1" font-family="Times,serif" font-size="13.00">http://railroady.prestonlee.com</text>
</g>
<!-- Component -->
<g id="node2" class="node"><title>Component</title>
<ellipse fill="none" stroke="black" cx="423" cy="-18" rx="51.0631" ry="18"/>
<text text-anchor="middle" x="423" y="-13.8" font-family="Times,serif" font-size="14.00">Component</text>
</g>
<!-- DelphiEstimation -->
<g id="node3" class="node"><title>DelphiEstimation</title>
<ellipse fill="none" stroke="black" cx="332" cy="-450" rx="72.2421" ry="18"/>
<text text-anchor="middle" x="332" y="-445.8" font-family="Times,serif" font-size="14.00">DelphiEstimation</text>
</g>
<!-- Round -->
<g id="node18" class="node"><title>Round</title>
<ellipse fill="none" stroke="black" cx="308" cy="-378" rx="33.5375" ry="18"/>
<text text-anchor="middle" x="308" y="-373.8" font-family="Times,serif" font-size="14.00">Round</text>
</g>
<!-- DelphiEstimation&#45;&gt;Round -->
<g id="edge1" class="edge"><title>DelphiEstimation&#45;&gt;Round</title>
<path fill="none" stroke="#d9a991" d="M323.576,-424.431C321.496,-418.362 319.257,-411.833 317.144,-405.67"/>
<ellipse fill="none" stroke="#d9a991" cx="324.893" cy="-428.271" rx="4.00001" ry="4.00001"/>
<polygon fill="#d9a991" stroke="#d9a991" points="317,-405.248 318.013,-394.33 315.378,-400.519 313.756,-395.789 313.756,-395.789 313.756,-395.789 315.378,-400.519 309.499,-397.248 317,-405.248 317,-405.248"/>
</g>
<!-- Estimation -->
<g id="node4" class="node"><title>Estimation</title>
<ellipse fill="none" stroke="black" cx="384" cy="-234" rx="48.1389" ry="18"/>
<text text-anchor="middle" x="384" y="-229.8" font-family="Times,serif" font-size="14.00">Estimation</text>
</g>
<!-- Workpackage -->
<g id="node24" class="node"><title>Workpackage</title>
<ellipse fill="none" stroke="black" cx="376" cy="-162" rx="58.2561" ry="18"/>
<text text-anchor="middle" x="376" y="-157.8" font-family="Times,serif" font-size="14.00">Workpackage</text>
</g>
<!-- Estimation&#45;&gt;Workpackage -->
<g id="edge2" class="edge"><title>Estimation&#45;&gt;Workpackage</title>
<path fill="none" stroke="#4ba9eb" d="M381.102,-207.64C380.383,-201.348 379.612,-194.605 378.893,-188.316"/>
<ellipse fill="none" stroke="#4ba9eb" cx="381.568" cy="-211.722" rx="4.00001" ry="4.00001"/>
<ellipse fill="#4ba9eb" stroke="#4ba9eb" cx="378.409" cy="-184.078" rx="4.00001" ry="4.00001"/>
</g>
<!-- EstimationTemplate -->
<g id="node5" class="node"><title>EstimationTemplate</title>
<ellipse fill="none" stroke="black" cx="236" cy="-234" rx="81.3002" ry="18"/>
<text text-anchor="middle" x="236" y="-229.8" font-family="Times,serif" font-size="14.00">EstimationTemplate</text>
</g>
<!-- EstimationTemplate&#45;&gt;Workpackage -->
<g id="edge3" class="edge"><title>EstimationTemplate&#45;&gt;Workpackage</title>
<path fill="none" stroke="#37c15e" d="M274.592,-213.704C294.762,-203.619 319.323,-191.339 339.221,-181.39"/>
<ellipse fill="none" stroke="#37c15e" cx="270.996" cy="-215.502" rx="4.00002" ry="4.00002"/>
<ellipse fill="#37c15e" stroke="#37c15e" cx="343.022" cy="-179.489" rx="4.00002" ry="4.00002"/>
</g>
<!-- ExpertForm -->
<g id="node6" class="node"><title>ExpertForm</title>
<ellipse fill="none" stroke="black" cx="380" cy="-306" rx="52.2663" ry="18"/>
<text text-anchor="middle" x="380" y="-301.8" font-family="Times,serif" font-size="14.00">ExpertForm</text>
</g>
<!-- ExpertForm&#45;&gt;Estimation -->
<g id="edge4" class="edge"><title>ExpertForm&#45;&gt;Estimation</title>
<path fill="none" stroke="#9ad023" d="M381.449,-279.64C381.768,-274.063 382.107,-268.132 382.43,-262.476"/>
<ellipse fill="none" stroke="#9ad023" cx="381.217" cy="-283.703" rx="4" ry="4"/>
<polygon fill="#9ad023" stroke="#9ad023" points="382.452,-262.088 387.515,-252.361 382.737,-257.096 383.023,-252.104 383.023,-252.104 383.023,-252.104 382.737,-257.096 378.53,-251.848 382.452,-262.088 382.452,-262.088"/>
</g>
<!-- FormTemplate -->
<g id="node7" class="node"><title>FormTemplate</title>
<ellipse fill="none" stroke="black" cx="243" cy="-306" rx="62.0674" ry="18"/>
<text text-anchor="middle" x="243" y="-301.8" font-family="Times,serif" font-size="14.00">FormTemplate</text>
</g>
<!-- FormTemplate&#45;&gt;EstimationTemplate -->
<g id="edge5" class="edge"><title>FormTemplate&#45;&gt;EstimationTemplate</title>
<path fill="none" stroke="#cc5685" d="M240.464,-279.64C239.906,-274.063 239.313,-268.132 238.748,-262.476"/>
<ellipse fill="none" stroke="#cc5685" cx="240.872" cy="-283.716" rx="4" ry="4"/>
<polygon fill="#cc5685" stroke="#cc5685" points="238.706,-262.055 242.188,-251.657 238.208,-257.08 237.71,-252.104 237.71,-252.104 237.71,-252.104 238.208,-257.08 233.233,-252.552 238.706,-262.055 238.706,-262.055"/>
</g>
<!-- Milestone -->
<g id="node8" class="node"><title>Milestone</title>
<ellipse fill="none" stroke="black" cx="628" cy="-378" rx="45.2147" ry="18"/>
<text text-anchor="middle" x="628" y="-373.8" font-family="Times,serif" font-size="14.00">Milestone</text>
</g>
<!-- Modul -->
<g id="node9" class="node"><title>Modul</title>
<ellipse fill="none" stroke="black" cx="371" cy="-90" rx="33.5375" ry="18"/>
<text text-anchor="middle" x="371" y="-85.8" font-family="Times,serif" font-size="14.00">Modul</text>
</g>
<!-- Modul&#45;&gt;Component -->
<g id="edge6" class="edge"><title>Modul&#45;&gt;Component</title>
<path fill="none" stroke="#31de8b" d="M387.708,-66.5087C393.033,-59.3406 398.956,-51.3666 404.406,-44.0303"/>
<ellipse fill="none" stroke="#31de8b" cx="385.185" cy="-69.9049" rx="4.00002" ry="4.00002"/>
<polygon fill="#31de8b" stroke="#31de8b" points="404.559,-43.8248 414.134,-38.4808 407.54,-39.8111 410.522,-35.7973 410.522,-35.7973 410.522,-35.7973 407.54,-39.8111 406.91,-33.1139 404.559,-43.8248 404.559,-43.8248"/>
</g>
<!-- ProductBreakdownStructure -->
<g id="node10" class="node"><title>ProductBreakdownStructure</title>
<ellipse fill="none" stroke="black" cx="110" cy="-378" rx="110.202" ry="18"/>
<text text-anchor="middle" x="110" y="-373.8" font-family="Times,serif" font-size="14.00">ProductBreakdownStructure</text>
</g>
<!-- Subproduct -->
<g id="node19" class="node"><title>Subproduct</title>
<ellipse fill="none" stroke="black" cx="86" cy="-234" rx="50.3252" ry="18"/>
<text text-anchor="middle" x="86" y="-229.8" font-family="Times,serif" font-size="14.00">Subproduct</text>
</g>
<!-- ProductBreakdownStructure&#45;&gt;Subproduct -->
<g id="edge7" class="edge"><title>ProductBreakdownStructure&#45;&gt;Subproduct</title>
<path fill="none" stroke="#fc87e7" d="M105.763,-351.929C101.503,-326.725 94.9568,-287.994 90.5794,-262.095"/>
<ellipse fill="none" stroke="#fc87e7" cx="106.438" cy="-355.927" rx="4.00001" ry="4.00001"/>
<polygon fill="#fc87e7" stroke="#fc87e7" points="90.5718,-262.049 93.3423,-251.439 89.7385,-257.119 88.9052,-252.189 88.9052,-252.189 88.9052,-252.189 89.7385,-257.119 84.4682,-252.939 90.5718,-262.049 90.5718,-262.049"/>
</g>
<!-- Project -->
<g id="node11" class="node"><title>Project</title>
<ellipse fill="none" stroke="black" cx="456" cy="-541" rx="35.2345" ry="18"/>
<text text-anchor="middle" x="456" y="-536.8" font-family="Times,serif" font-size="14.00">Project</text>
</g>
<!-- Project&#45;&gt;DelphiEstimation -->
<g id="edge12" class="edge"><title>Project&#45;&gt;DelphiEstimation</title>
<path fill="none" stroke="#72604a" d="M431.885,-520.097C425.208,-514.755 417.898,-509.059 411,-504 395.778,-492.836 378.401,-481.075 363.827,-471.477"/>
<ellipse fill="none" stroke="#72604a" cx="435.2" cy="-522.773" rx="4.00002" ry="4.00002"/>
<ellipse fill="#72604a" stroke="#72604a" cx="360.266" cy="-469.143" rx="4.00002" ry="4.00002"/>
</g>
<!-- Project&#45;&gt;ProductBreakdownStructure -->
<g id="edge9" class="edge"><title>Project&#45;&gt;ProductBreakdownStructure</title>
<path fill="none" stroke="#cf4338" d="M434.444,-519.492C427.419,-513.742 419.285,-507.982 411,-504 345.305,-472.425 318.355,-495.859 251,-468 209.078,-450.661 165.641,-421.197 138.256,-400.951"/>
<ellipse fill="none" stroke="#cf4338" cx="437.515" cy="-522.119" rx="4.00002" ry="4.00002"/>
<ellipse fill="#cf4338" stroke="#cf4338" cx="134.854" cy="-398.41" rx="4.00002" ry="4.00002"/>
</g>
<!-- ResourceBreakdownStructure -->
<g id="node15" class="node"><title>ResourceBreakdownStructure</title>
<ellipse fill="none" stroke="black" cx="706" cy="-450" rx="116.291" ry="18"/>
<text text-anchor="middle" x="706" y="-445.8" font-family="Times,serif" font-size="14.00">ResourceBreakdownStructure</text>
</g>
<!-- Project&#45;&gt;ResourceBreakdownStructure -->
<g id="edge10" class="edge"><title>Project&#45;&gt;ResourceBreakdownStructure</title>
<path fill="none" stroke="#ed7bf8" d="M491.919,-527.213C534.525,-512.045 605.873,-486.645 654.387,-469.374"/>
<ellipse fill="none" stroke="#ed7bf8" cx="487.961" cy="-528.622" rx="4.00001" ry="4.00001"/>
<ellipse fill="#ed7bf8" stroke="#ed7bf8" cx="658.201" cy="-468.017" rx="4.00001" ry="4.00001"/>
</g>
<!-- Roadmap -->
<g id="node16" class="node"><title>Roadmap</title>
<ellipse fill="none" stroke="black" cx="528" cy="-450" rx="43.4994" ry="18"/>
<text text-anchor="middle" x="528" y="-445.8" font-family="Times,serif" font-size="14.00">Roadmap</text>
</g>
<!-- Project&#45;&gt;Roadmap -->
<g id="edge11" class="edge"><title>Project&#45;&gt;Roadmap</title>
<path fill="none" stroke="#6a3eb3" d="M474.023,-517.721C484.896,-504.282 498.711,-487.204 509.643,-473.692"/>
<ellipse fill="none" stroke="#6a3eb3" cx="471.388" cy="-520.979" rx="4.00002" ry="4.00002"/>
<ellipse fill="#6a3eb3" stroke="#6a3eb3" cx="512.236" cy="-470.486" rx="4.00002" ry="4.00002"/>
</g>
<!-- WorkBreakdownStructure -->
<g id="node23" class="node"><title>WorkBreakdownStructure</title>
<ellipse fill="none" stroke="black" cx="462" cy="-378" rx="102.582" ry="18"/>
<text text-anchor="middle" x="462" y="-373.8" font-family="Times,serif" font-size="14.00">WorkBreakdownStructure</text>
</g>
<!-- Project&#45;&gt;WorkBreakdownStructure -->
<g id="edge8" class="edge"><title>Project&#45;&gt;WorkBreakdownStructure</title>
<path fill="none" stroke="#e2b072" d="M456.95,-514.499C458.074,-484.358 459.932,-434.504 461.053,-404.404"/>
<ellipse fill="none" stroke="#e2b072" cx="456.791" cy="-518.773" rx="4" ry="4"/>
<ellipse fill="#e2b072" stroke="#e2b072" cx="461.214" cy="-400.103" rx="4" ry="4"/>
</g>
<!-- RamEntry -->
<g id="node12" class="node"><title>RamEntry</title>
<ellipse fill="none" stroke="black" cx="476" cy="-90" rx="46.1851" ry="18"/>
<text text-anchor="middle" x="476" y="-85.8" font-family="Times,serif" font-size="14.00">RamEntry</text>
</g>
<!-- RamEntry&#45;&gt;Component -->
<g id="edge14" class="edge"><title>RamEntry&#45;&gt;Component</title>
<path fill="none" stroke="#03d837" d="M458.444,-65.8123C452.688,-58.2099 446.294,-49.7652 440.539,-42.1645"/>
<ellipse fill="none" stroke="#03d837" cx="461.025" cy="-69.2219" rx="4.00002" ry="4.00002"/>
<ellipse fill="#03d837" stroke="#03d837" cx="437.885" cy="-38.659" rx="4.00002" ry="4.00002"/>
</g>
<!-- Resource -->
<g id="node13" class="node"><title>Resource</title>
<ellipse fill="none" stroke="black" cx="581" cy="-18" rx="43.0161" ry="18"/>
<text text-anchor="middle" x="581" y="-13.8" font-family="Times,serif" font-size="14.00">Resource</text>
</g>
<!-- RamEntry&#45;&gt;Resource -->
<g id="edge13" class="edge"><title>RamEntry&#45;&gt;Resource</title>
<path fill="none" stroke="#3c58fe" d="M505.302,-69.4655C519.965,-59.6899 537.651,-47.8996 552.239,-38.1743"/>
<ellipse fill="none" stroke="#3c58fe" cx="501.596" cy="-71.936" rx="4.00002" ry="4.00002"/>
<ellipse fill="#3c58fe" stroke="#3c58fe" cx="555.796" cy="-35.8026" rx="4.00002" ry="4.00002"/>
</g>
<!-- ResourceAllocationMatrix -->
<g id="node14" class="node"><title>ResourceAllocationMatrix</title>
<ellipse fill="none" stroke="black" cx="557" cy="-162" rx="104.115" ry="18"/>
<text text-anchor="middle" x="557" y="-157.8" font-family="Times,serif" font-size="14.00">ResourceAllocationMatrix</text>
</g>
<!-- ResourceAllocationMatrix&#45;&gt;RamEntry -->
<g id="edge15" class="edge"><title>ResourceAllocationMatrix&#45;&gt;RamEntry</title>
<path fill="none" stroke="#29c177" d="M531.271,-138.765C521.805,-130.585 511.093,-121.327 501.636,-113.155"/>
<ellipse fill="none" stroke="#29c177" cx="534.366" cy="-141.439" rx="4.00002" ry="4.00002"/>
<polygon fill="#29c177" stroke="#29c177" points="501.609,-113.131 496.985,-103.188 497.826,-109.862 494.043,-106.592 494.043,-106.592 494.043,-106.592 497.826,-109.862 491.1,-109.997 501.609,-113.131 501.609,-113.131"/>
</g>
<!-- Type -->
<g id="node22" class="node"><title>Type</title>
<ellipse fill="none" stroke="black" cx="706" cy="-306" rx="27.4888" ry="18"/>
<text text-anchor="middle" x="706" y="-301.8" font-family="Times,serif" font-size="14.00">Type</text>
</g>
<!-- ResourceBreakdownStructure&#45;&gt;Type -->
<g id="edge16" class="edge"><title>ResourceBreakdownStructure&#45;&gt;Type</title>
<path fill="none" stroke="#2e17d7" d="M706,-423.558C706,-398.444 706,-360.164 706,-334.393"/>
<ellipse fill="none" stroke="#2e17d7" cx="706" cy="-427.871" rx="4" ry="4"/>
<polygon fill="#2e17d7" stroke="#2e17d7" points="706,-334.189 710.5,-324.189 706,-329.189 706,-324.189 706,-324.189 706,-324.189 706,-329.189 701.5,-324.189 706,-334.189 706,-334.189"/>
</g>
<!-- Roadmap&#45;&gt;Milestone -->
<g id="edge17" class="edge"><title>Roadmap&#45;&gt;Milestone</title>
<path fill="none" stroke="#cdc555" d="M555.813,-429.531C568.952,-420.333 584.656,-409.341 598.056,-399.961"/>
<ellipse fill="none" stroke="#cdc555" cx="552.484" cy="-431.861" rx="4.00002" ry="4.00002"/>
<polygon fill="#cdc555" stroke="#cdc555" points="598.286,-399.8 609.059,-397.752 602.382,-396.932 606.478,-394.065 606.478,-394.065 606.478,-394.065 602.382,-396.932 603.898,-390.379 598.286,-399.8 598.286,-399.8"/>
</g>
<!-- Role -->
<g id="node17" class="node"><title>Role</title>
<ellipse fill="none" stroke="black" cx="706" cy="-162" rx="27" ry="18"/>
<text text-anchor="middle" x="706" y="-157.8" font-family="Times,serif" font-size="14.00">Role</text>
</g>
<!-- Role&#45;&gt;Resource -->
<g id="edge18" class="edge"><title>Role&#45;&gt;Resource</title>
<path fill="none" stroke="#c693b2" d="M687.494,-139.977C664.567,-113.933 625.618,-69.6865 601.715,-42.5327"/>
<ellipse fill="none" stroke="#c693b2" cx="690.216" cy="-143.069" rx="4.00002" ry="4.00002"/>
<polygon fill="#c693b2" stroke="#c693b2" points="601.714,-42.5311 598.484,-32.0516 598.41,-38.7781 595.107,-35.025 595.107,-35.025 595.107,-35.025 598.41,-38.7781 591.729,-37.9984 601.714,-42.5311 601.714,-42.5311"/>
</g>
<!-- Round&#45;&gt;ExpertForm -->
<g id="edge19" class="edge"><title>Round&#45;&gt;ExpertForm</title>
<path fill="none" stroke="#159c6f" d="M329.413,-356.182C337.824,-348.004 347.514,-338.583 356.149,-330.189"/>
<ellipse fill="none" stroke="#159c6f" cx="326.491" cy="-359.023" rx="4.00002" ry="4.00002"/>
<polygon fill="#159c6f" stroke="#159c6f" points="356.235,-330.104 366.542,-326.36 359.82,-326.619 363.405,-323.134 363.405,-323.134 363.405,-323.134 359.82,-326.619 360.269,-319.907 356.235,-330.104 356.235,-330.104"/>
</g>
<!-- Round&#45;&gt;FormTemplate -->
<g id="edge20" class="edge"><title>Round&#45;&gt;FormTemplate</title>
<path fill="none" stroke="#fb4cf1" d="M287.885,-355.338C280.281,-347.149 271.613,-337.814 263.935,-329.546"/>
<ellipse fill="none" stroke="#fb4cf1" cx="290.853" cy="-358.534" rx="4.00002" ry="4.00002"/>
<ellipse fill="#fb4cf1" stroke="#fb4cf1" cx="261.013" cy="-326.398" rx="4.00002" ry="4.00002"/>
</g>
<!-- Subproduct&#45;&gt;Modul -->
<g id="edge21" class="edge"><title>Subproduct&#45;&gt;Modul</title>
<path fill="none" stroke="#fd7d68" d="M121.338,-215.393C176.911,-187.704 283.958,-134.368 338.028,-107.428"/>
<ellipse fill="none" stroke="#fd7d68" cx="117.687" cy="-217.212" rx="4.00002" ry="4.00002"/>
<polygon fill="#fd7d68" stroke="#fd7d68" points="338.221,-107.332 349.179,-106.9 342.696,-105.102 347.172,-102.872 347.172,-102.872 347.172,-102.872 342.696,-105.102 345.165,-98.8446 338.221,-107.332 338.221,-107.332"/>
</g>
<!-- Subtask -->
<g id="node20" class="node"><title>Subtask</title>
<ellipse fill="none" stroke="black" cx="489" cy="-234" rx="38.1712" ry="18"/>
<text text-anchor="middle" x="489" y="-229.8" font-family="Times,serif" font-size="14.00">Subtask</text>
</g>
<!-- Subtask&#45;&gt;Workpackage -->
<g id="edge22" class="edge"><title>Subtask&#45;&gt;Workpackage</title>
<path fill="none" stroke="#3b526d" d="M459.715,-214.859C444.361,-205.348 425.484,-193.654 409.545,-183.78"/>
<ellipse fill="none" stroke="#3b526d" cx="463.274" cy="-217.064" rx="4.00002" ry="4.00002"/>
<polygon fill="#3b526d" stroke="#3b526d" points="409.533,-183.773 403.402,-174.681 405.283,-181.14 401.032,-178.507 401.032,-178.507 401.032,-178.507 405.283,-181.14 398.663,-182.332 409.533,-183.773 409.533,-183.773"/>
</g>
<!-- Task -->
<g id="node21" class="node"><title>Task</title>
<ellipse fill="none" stroke="black" cx="486" cy="-306" rx="27" ry="18"/>
<text text-anchor="middle" x="486" y="-301.8" font-family="Times,serif" font-size="14.00">Task</text>
</g>
<!-- Task&#45;&gt;Subtask -->
<g id="edge23" class="edge"><title>Task&#45;&gt;Subtask</title>
<path fill="none" stroke="#739e83" d="M487.087,-279.64C487.326,-274.063 487.58,-268.132 487.822,-262.476"/>
<ellipse fill="none" stroke="#739e83" cx="486.913" cy="-283.7" rx="4" ry="4"/>
<polygon fill="#739e83" stroke="#739e83" points="487.839,-262.095 492.763,-252.297 488.053,-257.1 488.267,-252.104 488.267,-252.104 488.267,-252.104 488.053,-257.1 483.771,-251.912 487.839,-262.095 487.839,-262.095"/>
</g>
<!-- Type&#45;&gt;Role -->
<g id="edge24" class="edge"><title>Type&#45;&gt;Role</title>
<path fill="none" stroke="#bd6a99" d="M706,-279.558C706,-254.444 706,-216.164 706,-190.393"/>
<ellipse fill="none" stroke="#bd6a99" cx="706" cy="-283.871" rx="4" ry="4"/>
<polygon fill="#bd6a99" stroke="#bd6a99" points="706,-190.189 710.5,-180.189 706,-185.189 706,-180.189 706,-180.189 706,-180.189 706,-185.189 701.5,-180.189 706,-190.189 706,-190.189"/>
</g>
<!-- WorkBreakdownStructure&#45;&gt;Task -->
<g id="edge25" class="edge"><title>WorkBreakdownStructure&#45;&gt;Task</title>
<path fill="none" stroke="#10ca4d" d="M470.543,-352.082C472.618,-346.031 474.843,-339.541 476.941,-333.423"/>
<ellipse fill="none" stroke="#10ca4d" cx="469.23" cy="-355.913" rx="4.00001" ry="4.00001"/>
<polygon fill="#10ca4d" stroke="#10ca4d" points="477.058,-333.082 484.558,-325.082 478.679,-328.352 480.301,-323.622 480.301,-323.622 480.301,-323.622 478.679,-328.352 476.044,-322.163 477.058,-333.082 477.058,-333.082"/>
</g>
<!-- Workpackage&#45;&gt;RamEntry -->
<g id="edge26" class="edge"><title>Workpackage&#45;&gt;RamEntry</title>
<path fill="none" stroke="#3e61dc" d="M405.633,-140.257C418.968,-130.922 434.636,-119.955 447.798,-110.742"/>
<ellipse fill="none" stroke="#3e61dc" cx="401.968" cy="-142.822" rx="4.00002" ry="4.00002"/>
<ellipse fill="#3e61dc" stroke="#3e61dc" cx="451.15" cy="-108.395" rx="4.00002" ry="4.00002"/>
</g>
</g>
</svg>
