<?xml version="1.0" encoding="UTF-8" standalone="no"?>
<!DOCTYPE svg PUBLIC "-//W3C//DTD SVG 1.1//EN"
 "http://www.w3.org/Graphics/SVG/1.1/DTD/svg11.dtd">
<!-- Generated by graphviz version 2.36.0 (20140111.2315)
 -->
<!-- Title: models_diagram Pages: 1 -->
<svg width="1491pt" height="1284pt"
 viewBox="0.00 0.00 1491.00 1284.00" xmlns="http://www.w3.org/2000/svg" xmlns:xlink="http://www.w3.org/1999/xlink">
<g id="graph0" class="graph" transform="scale(1 1) rotate(0) translate(4 1280)">
<title>models_diagram</title>
<polygon fill="none" stroke="none" points="-4,4 -4,-1280 1487,-1280 1487,4 -4,4"/>
<!-- _diagram_info -->
<g id="node1" class="node"><title>_diagram_info</title>
<text text-anchor="start" x="315.312" y="-1254.1" font-family="Times,serif" font-size="13.00">Models diagram</text>
<text text-anchor="start" x="315.312" y="-1241.1" font-family="Times,serif" font-size="13.00">Date: Jan 30 2016 &#45; 15:47</text>
<text text-anchor="start" x="315.312" y="-1228.1" font-family="Times,serif" font-size="13.00">Migration version: 20160127163157</text>
<text text-anchor="start" x="315.312" y="-1215.1" font-family="Times,serif" font-size="13.00">Generated by RailRoady 1.4.2</text>
<text text-anchor="start" x="315.312" y="-1202.1" font-family="Times,serif" font-size="13.00">http://railroady.prestonlee.com</text>
</g>
<!-- Component -->
<g id="node2" class="node"><title>Component</title>
<path fill="none" stroke="black" d="M678.138,-167C678.138,-167 901.862,-167 901.862,-167 907.862,-167 913.862,-173 913.862,-179 913.862,-179 913.862,-255 913.862,-255 913.862,-261 907.862,-267 901.862,-267 901.862,-267 678.138,-267 678.138,-267 672.138,-267 666.138,-261 666.138,-255 666.138,-255 666.138,-179 666.138,-179 666.138,-173 672.138,-167 678.138,-167"/>
<text text-anchor="middle" x="790" y="-251.8" font-family="Times,serif" font-size="14.00">Component</text>
<polyline fill="none" stroke="black" points="666.138,-245 913.862,-245 "/>
<text text-anchor="start" x="674.138" y="-229.8" font-family="Times,serif" font-size="14.00">id :integer</text>
<text text-anchor="start" x="674.138" y="-215.8" font-family="Times,serif" font-size="14.00">name :character varying</text>
<text text-anchor="start" x="674.138" y="-201.8" font-family="Times,serif" font-size="14.00">modul_id :integer</text>
<text text-anchor="start" x="674.138" y="-187.8" font-family="Times,serif" font-size="14.00">created_at :timestamp without time zone</text>
<text text-anchor="start" x="674.138" y="-173.8" font-family="Times,serif" font-size="14.00">updated_at :timestamp without time zone</text>
</g>
<!-- Milestone -->
<g id="node8" class="node"><title>Milestone</title>
<path fill="none" stroke="black" d="M452.138,-1C452.138,-1 675.862,-1 675.862,-1 681.862,-1 687.862,-7 687.862,-13 687.862,-13 687.862,-103 687.862,-103 687.862,-109 681.862,-115 675.862,-115 675.862,-115 452.138,-115 452.138,-115 446.138,-115 440.138,-109 440.138,-103 440.138,-103 440.138,-13 440.138,-13 440.138,-7 446.138,-1 452.138,-1"/>
<text text-anchor="middle" x="564" y="-99.8" font-family="Times,serif" font-size="14.00">Milestone</text>
<polyline fill="none" stroke="black" points="440.138,-93 687.862,-93 "/>
<text text-anchor="start" x="448.138" y="-77.8" font-family="Times,serif" font-size="14.00">id :integer</text>
<text text-anchor="start" x="448.138" y="-63.8" font-family="Times,serif" font-size="14.00">roadmap_id :integer</text>
<text text-anchor="start" x="448.138" y="-49.8" font-family="Times,serif" font-size="14.00">component_id :integer</text>
<text text-anchor="start" x="448.138" y="-35.8" font-family="Times,serif" font-size="14.00">date :timestamp without time zone</text>
<text text-anchor="start" x="448.138" y="-21.8" font-family="Times,serif" font-size="14.00">created_at :timestamp without time zone</text>
<text text-anchor="start" x="448.138" y="-7.8" font-family="Times,serif" font-size="14.00">updated_at :timestamp without time zone</text>
</g>
<!-- Component&#45;&gt;Milestone -->
<g id="edge1" class="edge"><title>Component&#45;&gt;Milestone</title>
<path fill="none" stroke="#b59dc1" d="M712.683,-162.289C692.978,-148.6 671.659,-133.789 651.484,-119.775"/>
<ellipse fill="none" stroke="#b59dc1" cx="716.137" cy="-164.688" rx="4.00002" ry="4.00002"/>
<ellipse fill="#b59dc1" stroke="#b59dc1" cx="647.976" cy="-117.337" rx="4.00002" ry="4.00002"/>
</g>
<!-- DelphiEstimation -->
<g id="node3" class="node"><title>DelphiEstimation</title>
<path fill="none" stroke="black" d="M678.138,-1065C678.138,-1065 901.862,-1065 901.862,-1065 907.862,-1065 913.862,-1071 913.862,-1077 913.862,-1077 913.862,-1139 913.862,-1139 913.862,-1145 907.862,-1151 901.862,-1151 901.862,-1151 678.138,-1151 678.138,-1151 672.138,-1151 666.138,-1145 666.138,-1139 666.138,-1139 666.138,-1077 666.138,-1077 666.138,-1071 672.138,-1065 678.138,-1065"/>
<text text-anchor="middle" x="790" y="-1135.8" font-family="Times,serif" font-size="14.00">DelphiEstimation</text>
<polyline fill="none" stroke="black" points="666.138,-1129 913.862,-1129 "/>
<text text-anchor="start" x="674.138" y="-1113.8" font-family="Times,serif" font-size="14.00">id :integer</text>
<text text-anchor="start" x="674.138" y="-1099.8" font-family="Times,serif" font-size="14.00">p_id :integer</text>
<text text-anchor="start" x="674.138" y="-1085.8" font-family="Times,serif" font-size="14.00">created_at :timestamp without time zone</text>
<text text-anchor="start" x="674.138" y="-1071.8" font-family="Times,serif" font-size="14.00">updated_at :timestamp without time zone</text>
</g>
<!-- Round -->
<g id="node18" class="node"><title>Round</title>
<path fill="none" stroke="black" d="M678.138,-913C678.138,-913 901.862,-913 901.862,-913 907.862,-913 913.862,-919 913.862,-925 913.862,-925 913.862,-1015 913.862,-1015 913.862,-1021 907.862,-1027 901.862,-1027 901.862,-1027 678.138,-1027 678.138,-1027 672.138,-1027 666.138,-1021 666.138,-1015 666.138,-1015 666.138,-925 666.138,-925 666.138,-919 672.138,-913 678.138,-913"/>
<text text-anchor="middle" x="790" y="-1011.8" font-family="Times,serif" font-size="14.00">Round</text>
<polyline fill="none" stroke="black" points="666.138,-1005 913.862,-1005 "/>
<text text-anchor="start" x="674.138" y="-989.8" font-family="Times,serif" font-size="14.00">id :integer</text>
<text text-anchor="start" x="674.138" y="-975.8" font-family="Times,serif" font-size="14.00">delphiEstimation_id :integer</text>
<text text-anchor="start" x="674.138" y="-961.8" font-family="Times,serif" font-size="14.00">count :integer</text>
<text text-anchor="start" x="674.138" y="-947.8" font-family="Times,serif" font-size="14.00">closed :boolean</text>
<text text-anchor="start" x="674.138" y="-933.8" font-family="Times,serif" font-size="14.00">created_at :timestamp without time zone</text>
<text text-anchor="start" x="674.138" y="-919.8" font-family="Times,serif" font-size="14.00">updated_at :timestamp without time zone</text>
</g>
<!-- DelphiEstimation&#45;&gt;Round -->
<g id="edge2" class="edge"><title>DelphiEstimation&#45;&gt;Round</title>
<path fill="none" stroke="#4c570b" d="M790,-1056.49C790,-1050.24 790,-1043.78 790,-1037.34"/>
<ellipse fill="none" stroke="#4c570b" cx="790" cy="-1060.71" rx="4" ry="4"/>
<polygon fill="#4c570b" stroke="#4c570b" points="790,-1037.26 794.5,-1027.26 790,-1032.26 790,-1027.26 790,-1027.26 790,-1027.26 790,-1032.26 785.5,-1027.26 790,-1037.26 790,-1037.26"/>
</g>
<!-- Estimation -->
<g id="node4" class="node"><title>Estimation</title>
<path fill="none" stroke="black" d="M944.138,-623C944.138,-623 1167.86,-623 1167.86,-623 1173.86,-623 1179.86,-629 1179.86,-635 1179.86,-635 1179.86,-725 1179.86,-725 1179.86,-731 1173.86,-737 1167.86,-737 1167.86,-737 944.138,-737 944.138,-737 938.138,-737 932.138,-731 932.138,-725 932.138,-725 932.138,-635 932.138,-635 932.138,-629 938.138,-623 944.138,-623"/>
<text text-anchor="middle" x="1056" y="-721.8" font-family="Times,serif" font-size="14.00">Estimation</text>
<polyline fill="none" stroke="black" points="932.138,-715 1179.86,-715 "/>
<text text-anchor="start" x="940.138" y="-699.8" font-family="Times,serif" font-size="14.00">id :integer</text>
<text text-anchor="start" x="940.138" y="-685.8" font-family="Times,serif" font-size="14.00">expert_form_id :integer</text>
<text text-anchor="start" x="940.138" y="-671.8" font-family="Times,serif" font-size="14.00">workpackage_id :integer</text>
<text text-anchor="start" x="940.138" y="-657.8" font-family="Times,serif" font-size="14.00">duration :integer</text>
<text text-anchor="start" x="940.138" y="-643.8" font-family="Times,serif" font-size="14.00">created_at :timestamp without time zone</text>
<text text-anchor="start" x="940.138" y="-629.8" font-family="Times,serif" font-size="14.00">updated_at :timestamp without time zone</text>
</g>
<!-- Workpackage -->
<g id="node24" class="node"><title>Workpackage</title>
<path fill="none" stroke="black" d="M678.138,-485C678.138,-485 901.862,-485 901.862,-485 907.862,-485 913.862,-491 913.862,-497 913.862,-497 913.862,-573 913.862,-573 913.862,-579 907.862,-585 901.862,-585 901.862,-585 678.138,-585 678.138,-585 672.138,-585 666.138,-579 666.138,-573 666.138,-573 666.138,-497 666.138,-497 666.138,-491 672.138,-485 678.138,-485"/>
<text text-anchor="middle" x="790" y="-569.8" font-family="Times,serif" font-size="14.00">Workpackage</text>
<polyline fill="none" stroke="black" points="666.138,-563 913.862,-563 "/>
<text text-anchor="start" x="674.138" y="-547.8" font-family="Times,serif" font-size="14.00">id :integer</text>
<text text-anchor="start" x="674.138" y="-533.8" font-family="Times,serif" font-size="14.00">name :character varying</text>
<text text-anchor="start" x="674.138" y="-519.8" font-family="Times,serif" font-size="14.00">subtask_id :integer</text>
<text text-anchor="start" x="674.138" y="-505.8" font-family="Times,serif" font-size="14.00">created_at :timestamp without time zone</text>
<text text-anchor="start" x="674.138" y="-491.8" font-family="Times,serif" font-size="14.00">updated_at :timestamp without time zone</text>
</g>
<!-- Estimation&#45;&gt;Workpackage -->
<g id="edge3" class="edge"><title>Estimation&#45;&gt;Workpackage</title>
<path fill="none" stroke="#f57e8e" d="M944.548,-619.084C926.021,-609.124 906.921,-598.856 888.738,-589.081"/>
<ellipse fill="none" stroke="#f57e8e" cx="948.11" cy="-620.999" rx="4.00002" ry="4.00002"/>
<ellipse fill="#f57e8e" stroke="#f57e8e" cx="885.073" cy="-587.11" rx="4.00002" ry="4.00002"/>
</g>
<!-- EstimationTemplate -->
<g id="node5" class="node"><title>EstimationTemplate</title>
<path fill="none" stroke="black" d="M678.138,-623C678.138,-623 901.862,-623 901.862,-623 907.862,-623 913.862,-629 913.862,-635 913.862,-635 913.862,-725 913.862,-725 913.862,-731 907.862,-737 901.862,-737 901.862,-737 678.138,-737 678.138,-737 672.138,-737 666.138,-731 666.138,-725 666.138,-725 666.138,-635 666.138,-635 666.138,-629 672.138,-623 678.138,-623"/>
<text text-anchor="middle" x="790" y="-721.8" font-family="Times,serif" font-size="14.00">EstimationTemplate</text>
<polyline fill="none" stroke="black" points="666.138,-715 913.862,-715 "/>
<text text-anchor="start" x="674.138" y="-699.8" font-family="Times,serif" font-size="14.00">id :integer</text>
<text text-anchor="start" x="674.138" y="-685.8" font-family="Times,serif" font-size="14.00">form_template_id :integer</text>
<text text-anchor="start" x="674.138" y="-671.8" font-family="Times,serif" font-size="14.00">workpackage_id :integer</text>
<text text-anchor="start" x="674.138" y="-657.8" font-family="Times,serif" font-size="14.00">comment :character varying</text>
<text text-anchor="start" x="674.138" y="-643.8" font-family="Times,serif" font-size="14.00">created_at :timestamp without time zone</text>
<text text-anchor="start" x="674.138" y="-629.8" font-family="Times,serif" font-size="14.00">updated_at :timestamp without time zone</text>
</g>
<!-- EstimationTemplate&#45;&gt;Workpackage -->
<g id="edge4" class="edge"><title>EstimationTemplate&#45;&gt;Workpackage</title>
<path fill="none" stroke="#f5635a" d="M790,-614.704C790,-607.646 790,-600.493 790,-593.525"/>
<ellipse fill="none" stroke="#f5635a" cx="790" cy="-618.893" rx="4" ry="4"/>
<ellipse fill="#f5635a" stroke="#f5635a" cx="790" cy="-589.446" rx="4" ry="4"/>
</g>
<!-- ExpertForm -->
<g id="node6" class="node"><title>ExpertForm</title>
<path fill="none" stroke="black" d="M944.138,-775C944.138,-775 1167.86,-775 1167.86,-775 1173.86,-775 1179.86,-781 1179.86,-787 1179.86,-787 1179.86,-863 1179.86,-863 1179.86,-869 1173.86,-875 1167.86,-875 1167.86,-875 944.138,-875 944.138,-875 938.138,-875 932.138,-869 932.138,-863 932.138,-863 932.138,-787 932.138,-787 932.138,-781 938.138,-775 944.138,-775"/>
<text text-anchor="middle" x="1056" y="-859.8" font-family="Times,serif" font-size="14.00">ExpertForm</text>
<polyline fill="none" stroke="black" points="932.138,-853 1179.86,-853 "/>
<text text-anchor="start" x="940.138" y="-837.8" font-family="Times,serif" font-size="14.00">id :integer</text>
<text text-anchor="start" x="940.138" y="-823.8" font-family="Times,serif" font-size="14.00">round_id :integer</text>
<text text-anchor="start" x="940.138" y="-809.8" font-family="Times,serif" font-size="14.00">expertName :character varying</text>
<text text-anchor="start" x="940.138" y="-795.8" font-family="Times,serif" font-size="14.00">created_at :timestamp without time zone</text>
<text text-anchor="start" x="940.138" y="-781.8" font-family="Times,serif" font-size="14.00">updated_at :timestamp without time zone</text>
</g>
<!-- ExpertForm&#45;&gt;Estimation -->
<g id="edge5" class="edge"><title>ExpertForm&#45;&gt;Estimation</title>
<path fill="none" stroke="#91871e" d="M1056,-766.715C1056,-760.328 1056,-753.784 1056,-747.297"/>
<ellipse fill="none" stroke="#91871e" cx="1056" cy="-770.788" rx="4" ry="4"/>
<polygon fill="#91871e" stroke="#91871e" points="1056,-747.181 1060.5,-737.181 1056,-742.181 1056,-737.181 1056,-737.181 1056,-737.181 1056,-742.181 1051.5,-737.181 1056,-747.181 1056,-747.181"/>
</g>
<!-- FormTemplate -->
<g id="node7" class="node"><title>FormTemplate</title>
<path fill="none" stroke="black" d="M678.138,-782C678.138,-782 901.862,-782 901.862,-782 907.862,-782 913.862,-788 913.862,-794 913.862,-794 913.862,-856 913.862,-856 913.862,-862 907.862,-868 901.862,-868 901.862,-868 678.138,-868 678.138,-868 672.138,-868 666.138,-862 666.138,-856 666.138,-856 666.138,-794 666.138,-794 666.138,-788 672.138,-782 678.138,-782"/>
<text text-anchor="middle" x="790" y="-852.8" font-family="Times,serif" font-size="14.00">FormTemplate</text>
<polyline fill="none" stroke="black" points="666.138,-846 913.862,-846 "/>
<text text-anchor="start" x="674.138" y="-830.8" font-family="Times,serif" font-size="14.00">id :integer</text>
<text text-anchor="start" x="674.138" y="-816.8" font-family="Times,serif" font-size="14.00">round_id :integer</text>
<text text-anchor="start" x="674.138" y="-802.8" font-family="Times,serif" font-size="14.00">created_at :timestamp without time zone</text>
<text text-anchor="start" x="674.138" y="-788.8" font-family="Times,serif" font-size="14.00">updated_at :timestamp without time zone</text>
</g>
<!-- FormTemplate&#45;&gt;EstimationTemplate -->
<g id="edge6" class="edge"><title>FormTemplate&#45;&gt;EstimationTemplate</title>
<path fill="none" stroke="#24a6e6" d="M790,-773.817C790,-765.203 790,-756.135 790,-747.179"/>
<ellipse fill="none" stroke="#24a6e6" cx="790" cy="-777.869" rx="4" ry="4"/>
<polygon fill="#24a6e6" stroke="#24a6e6" points="790,-747.145 794.5,-737.145 790,-742.145 790,-737.145 790,-737.145 790,-737.145 790,-742.145 785.5,-737.145 790,-747.145 790,-747.145"/>
</g>
<!-- Modul -->
<g id="node9" class="node"><title>Modul</title>
<path fill="none" stroke="black" d="M1096.14,-333C1096.14,-333 1319.86,-333 1319.86,-333 1325.86,-333 1331.86,-339 1331.86,-345 1331.86,-345 1331.86,-421 1331.86,-421 1331.86,-427 1325.86,-433 1319.86,-433 1319.86,-433 1096.14,-433 1096.14,-433 1090.14,-433 1084.14,-427 1084.14,-421 1084.14,-421 1084.14,-345 1084.14,-345 1084.14,-339 1090.14,-333 1096.14,-333"/>
<text text-anchor="middle" x="1208" y="-417.8" font-family="Times,serif" font-size="14.00">Modul</text>
<polyline fill="none" stroke="black" points="1084.14,-411 1331.86,-411 "/>
<text text-anchor="start" x="1092.14" y="-395.8" font-family="Times,serif" font-size="14.00">id :integer</text>
<text text-anchor="start" x="1092.14" y="-381.8" font-family="Times,serif" font-size="14.00">name :character varying</text>
<text text-anchor="start" x="1092.14" y="-367.8" font-family="Times,serif" font-size="14.00">subproduct_id :integer</text>
<text text-anchor="start" x="1092.14" y="-353.8" font-family="Times,serif" font-size="14.00">created_at :timestamp without time zone</text>
<text text-anchor="start" x="1092.14" y="-339.8" font-family="Times,serif" font-size="14.00">updated_at :timestamp without time zone</text>
</g>
<!-- Modul&#45;&gt;Component -->
<g id="edge7" class="edge"><title>Modul&#45;&gt;Component</title>
<path fill="none" stroke="#9d3331" d="M1076.39,-330.365C1027.61,-311.226 972.278,-289.516 923.341,-270.316"/>
<ellipse fill="none" stroke="#9d3331" cx="1080.28" cy="-331.888" rx="4.00001" ry="4.00001"/>
<polygon fill="#9d3331" stroke="#9d3331" points="923.272,-270.288 915.606,-262.447 918.617,-268.462 913.963,-266.636 913.963,-266.636 913.963,-266.636 918.617,-268.462 912.319,-270.825 923.272,-270.288 923.272,-270.288"/>
</g>
<!-- ProductBreakdownStructure -->
<g id="node10" class="node"><title>ProductBreakdownStructure</title>
<path fill="none" stroke="black" d="M1248.14,-1065C1248.14,-1065 1471.86,-1065 1471.86,-1065 1477.86,-1065 1483.86,-1071 1483.86,-1077 1483.86,-1077 1483.86,-1139 1483.86,-1139 1483.86,-1145 1477.86,-1151 1471.86,-1151 1471.86,-1151 1248.14,-1151 1248.14,-1151 1242.14,-1151 1236.14,-1145 1236.14,-1139 1236.14,-1139 1236.14,-1077 1236.14,-1077 1236.14,-1071 1242.14,-1065 1248.14,-1065"/>
<text text-anchor="middle" x="1360" y="-1135.8" font-family="Times,serif" font-size="14.00">ProductBreakdownStructure</text>
<polyline fill="none" stroke="black" points="1236.14,-1129 1483.86,-1129 "/>
<text text-anchor="start" x="1244.14" y="-1113.8" font-family="Times,serif" font-size="14.00">id :integer</text>
<text text-anchor="start" x="1244.14" y="-1099.8" font-family="Times,serif" font-size="14.00">p_id :integer</text>
<text text-anchor="start" x="1244.14" y="-1085.8" font-family="Times,serif" font-size="14.00">created_at :timestamp without time zone</text>
<text text-anchor="start" x="1244.14" y="-1071.8" font-family="Times,serif" font-size="14.00">updated_at :timestamp without time zone</text>
</g>
<!-- Subproduct -->
<g id="node19" class="node"><title>Subproduct</title>
<path fill="none" stroke="black" d="M1248.14,-920C1248.14,-920 1471.86,-920 1471.86,-920 1477.86,-920 1483.86,-926 1483.86,-932 1483.86,-932 1483.86,-1008 1483.86,-1008 1483.86,-1014 1477.86,-1020 1471.86,-1020 1471.86,-1020 1248.14,-1020 1248.14,-1020 1242.14,-1020 1236.14,-1014 1236.14,-1008 1236.14,-1008 1236.14,-932 1236.14,-932 1236.14,-926 1242.14,-920 1248.14,-920"/>
<text text-anchor="middle" x="1360" y="-1004.8" font-family="Times,serif" font-size="14.00">Subproduct</text>
<polyline fill="none" stroke="black" points="1236.14,-998 1483.86,-998 "/>
<text text-anchor="start" x="1244.14" y="-982.8" font-family="Times,serif" font-size="14.00">id :integer</text>
<text text-anchor="start" x="1244.14" y="-968.8" font-family="Times,serif" font-size="14.00">name :character varying</text>
<text text-anchor="start" x="1244.14" y="-954.8" font-family="Times,serif" font-size="14.00">pbs_id :integer</text>
<text text-anchor="start" x="1244.14" y="-940.8" font-family="Times,serif" font-size="14.00">created_at :timestamp without time zone</text>
<text text-anchor="start" x="1244.14" y="-926.8" font-family="Times,serif" font-size="14.00">updated_at :timestamp without time zone</text>
</g>
<!-- ProductBreakdownStructure&#45;&gt;Subproduct -->
<g id="edge8" class="edge"><title>ProductBreakdownStructure&#45;&gt;Subproduct</title>
<path fill="none" stroke="#7acf75" d="M1360,-1056.66C1360,-1048.15 1360,-1039.24 1360,-1030.52"/>
<ellipse fill="none" stroke="#7acf75" cx="1360" cy="-1060.71" rx="4" ry="4"/>
<polygon fill="#7acf75" stroke="#7acf75" points="1360,-1030.41 1364.5,-1020.41 1360,-1025.41 1360,-1020.41 1360,-1020.41 1360,-1020.41 1360,-1025.41 1355.5,-1020.41 1360,-1030.41 1360,-1030.41"/>
</g>
<!-- Project -->
<g id="node11" class="node"><title>Project</title>
<path fill="none" stroke="black" d="M545.138,-1189C545.138,-1189 768.862,-1189 768.862,-1189 774.862,-1189 780.862,-1195 780.862,-1201 780.862,-1201 780.862,-1263 780.862,-1263 780.862,-1269 774.862,-1275 768.862,-1275 768.862,-1275 545.138,-1275 545.138,-1275 539.138,-1275 533.138,-1269 533.138,-1263 533.138,-1263 533.138,-1201 533.138,-1201 533.138,-1195 539.138,-1189 545.138,-1189"/>
<text text-anchor="middle" x="657" y="-1259.8" font-family="Times,serif" font-size="14.00">Project</text>
<polyline fill="none" stroke="black" points="533.138,-1253 780.862,-1253 "/>
<text text-anchor="start" x="541.138" y="-1237.8" font-family="Times,serif" font-size="14.00">id :integer</text>
<text text-anchor="start" x="541.138" y="-1223.8" font-family="Times,serif" font-size="14.00">name :character varying</text>
<text text-anchor="start" x="541.138" y="-1209.8" font-family="Times,serif" font-size="14.00">created_at :timestamp without time zone</text>
<text text-anchor="start" x="541.138" y="-1195.8" font-family="Times,serif" font-size="14.00">updated_at :timestamp without time zone</text>
</g>
<!-- Project&#45;&gt;DelphiEstimation -->
<g id="edge13" class="edge"><title>Project&#45;&gt;DelphiEstimation</title>
<path fill="none" stroke="#eb5b70" d="M709.094,-1183.21C718.528,-1174.56 728.367,-1165.54 737.804,-1156.88"/>
<ellipse fill="none" stroke="#eb5b70" cx="706.091" cy="-1185.97" rx="4.00002" ry="4.00002"/>
<ellipse fill="#eb5b70" stroke="#eb5b70" cx="740.99" cy="-1153.96" rx="4.00002" ry="4.00002"/>
</g>
<!-- Project&#45;&gt;ProductBreakdownStructure -->
<g id="edge10" class="edge"><title>Project&#45;&gt;ProductBreakdownStructure</title>
<path fill="none" stroke="#1092d0" d="M789.129,-1218.69C904.334,-1206.49 1075.47,-1184.84 1222,-1152 1224.04,-1151.54 1226.08,-1151.07 1228.14,-1150.59"/>
<ellipse fill="none" stroke="#1092d0" cx="784.91" cy="-1219.13" rx="4" ry="4"/>
<ellipse fill="#1092d0" stroke="#1092d0" cx="1232.24" cy="-1149.59" rx="4.00001" ry="4.00001"/>
</g>
<!-- ResourceAllocationMatrix -->
<g id="node14" class="node"><title>ResourceAllocationMatrix</title>
<path fill="none" stroke="black" d="M1020.14,-492C1020.14,-492 1243.86,-492 1243.86,-492 1249.86,-492 1255.86,-498 1255.86,-504 1255.86,-504 1255.86,-566 1255.86,-566 1255.86,-572 1249.86,-578 1243.86,-578 1243.86,-578 1020.14,-578 1020.14,-578 1014.14,-578 1008.14,-572 1008.14,-566 1008.14,-566 1008.14,-504 1008.14,-504 1008.14,-498 1014.14,-492 1020.14,-492"/>
<text text-anchor="middle" x="1132" y="-562.8" font-family="Times,serif" font-size="14.00">ResourceAllocationMatrix</text>
<polyline fill="none" stroke="black" points="1008.14,-556 1255.86,-556 "/>
<text text-anchor="start" x="1016.14" y="-540.8" font-family="Times,serif" font-size="14.00">id :integer</text>
<text text-anchor="start" x="1016.14" y="-526.8" font-family="Times,serif" font-size="14.00">p_id :integer</text>
<text text-anchor="start" x="1016.14" y="-512.8" font-family="Times,serif" font-size="14.00">created_at :timestamp without time zone</text>
<text text-anchor="start" x="1016.14" y="-498.8" font-family="Times,serif" font-size="14.00">updated_at :timestamp without time zone</text>
</g>
<!-- Project&#45;&gt;ResourceAllocationMatrix -->
<g id="edge14" class="edge"><title>Project&#45;&gt;ResourceAllocationMatrix</title>
<path fill="none" stroke="#1d37d6" d="M789.174,-1224.83C952.191,-1209.29 1208,-1155.5 1208,-971 1208,-971 1208,-971 1208,-824 1208,-733.783 1217.91,-707.114 1188,-622 1183.51,-609.213 1176.74,-596.432 1169.45,-584.782"/>
<ellipse fill="none" stroke="#1d37d6" cx="784.982" cy="-1225.21" rx="4" ry="4"/>
<ellipse fill="#1d37d6" stroke="#1d37d6" cx="1167.27" cy="-581.422" rx="4.00002" ry="4.00002"/>
</g>
<!-- ResourceBreakdownStructure -->
<g id="node15" class="node"><title>ResourceBreakdownStructure</title>
<path fill="none" stroke="black" d="M203.138,-927C203.138,-927 426.862,-927 426.862,-927 432.862,-927 438.862,-933 438.862,-939 438.862,-939 438.862,-1001 438.862,-1001 438.862,-1007 432.862,-1013 426.862,-1013 426.862,-1013 203.138,-1013 203.138,-1013 197.138,-1013 191.138,-1007 191.138,-1001 191.138,-1001 191.138,-939 191.138,-939 191.138,-933 197.138,-927 203.138,-927"/>
<text text-anchor="middle" x="315" y="-997.8" font-family="Times,serif" font-size="14.00">ResourceBreakdownStructure</text>
<polyline fill="none" stroke="black" points="191.138,-991 438.862,-991 "/>
<text text-anchor="start" x="199.138" y="-975.8" font-family="Times,serif" font-size="14.00">id :integer</text>
<text text-anchor="start" x="199.138" y="-961.8" font-family="Times,serif" font-size="14.00">p_id :integer</text>
<text text-anchor="start" x="199.138" y="-947.8" font-family="Times,serif" font-size="14.00">created_at :timestamp without time zone</text>
<text text-anchor="start" x="199.138" y="-933.8" font-family="Times,serif" font-size="14.00">updated_at :timestamp without time zone</text>
</g>
<!-- Project&#45;&gt;ResourceBreakdownStructure -->
<g id="edge11" class="edge"><title>Project&#45;&gt;ResourceBreakdownStructure</title>
<path fill="none" stroke="#4114e9" d="M525.158,-1188.64C524.437,-1188.43 523.717,-1188.21 523,-1188 464.702,-1170.71 436.727,-1192.09 391,-1152 352.558,-1118.3 333.073,-1061.95 323.527,-1021.06"/>
<ellipse fill="none" stroke="#4114e9" cx="529.118" cy="-1189.83" rx="4.00001" ry="4.00001"/>
<ellipse fill="#4114e9" stroke="#4114e9" cx="322.621" cy="-1017.01" rx="4.00001" ry="4.00001"/>
</g>
<!-- Roadmap -->
<g id="node16" class="node"><title>Roadmap</title>
<path fill="none" stroke="black" d="M11.1377,-492C11.1377,-492 234.862,-492 234.862,-492 240.862,-492 246.862,-498 246.862,-504 246.862,-504 246.862,-566 246.862,-566 246.862,-572 240.862,-578 234.862,-578 234.862,-578 11.1377,-578 11.1377,-578 5.1377,-578 -0.862305,-572 -0.862305,-566 -0.862305,-566 -0.862305,-504 -0.862305,-504 -0.862305,-498 5.1377,-492 11.1377,-492"/>
<text text-anchor="middle" x="123" y="-562.8" font-family="Times,serif" font-size="14.00">Roadmap</text>
<polyline fill="none" stroke="black" points="-0.862305,-556 246.862,-556 "/>
<text text-anchor="start" x="7.1377" y="-540.8" font-family="Times,serif" font-size="14.00">id :integer</text>
<text text-anchor="start" x="7.1377" y="-526.8" font-family="Times,serif" font-size="14.00">p_id :integer</text>
<text text-anchor="start" x="7.1377" y="-512.8" font-family="Times,serif" font-size="14.00">created_at :timestamp without time zone</text>
<text text-anchor="start" x="7.1377" y="-498.8" font-family="Times,serif" font-size="14.00">updated_at :timestamp without time zone</text>
</g>
<!-- Project&#45;&gt;Roadmap -->
<g id="edge12" class="edge"><title>Project&#45;&gt;Roadmap</title>
<path fill="none" stroke="#a5c3bf" d="M525.181,-1188.56C524.452,-1188.37 523.725,-1188.18 523,-1188 320.537,-1136.44 106,-1179.93 106,-971 106,-971 106,-971 106,-824 106,-740.695 113.176,-644.071 118.203,-586.597"/>
<ellipse fill="none" stroke="#a5c3bf" cx="529.177" cy="-1189.61" rx="4.00001" ry="4.00001"/>
<ellipse fill="#a5c3bf" stroke="#a5c3bf" cx="118.575" cy="-582.392" rx="4" ry="4"/>
</g>
<!-- WorkBreakdownStructure -->
<g id="node23" class="node"><title>WorkBreakdownStructure</title>
<path fill="none" stroke="black" d="M412.138,-1065C412.138,-1065 635.862,-1065 635.862,-1065 641.862,-1065 647.862,-1071 647.862,-1077 647.862,-1077 647.862,-1139 647.862,-1139 647.862,-1145 641.862,-1151 635.862,-1151 635.862,-1151 412.138,-1151 412.138,-1151 406.138,-1151 400.138,-1145 400.138,-1139 400.138,-1139 400.138,-1077 400.138,-1077 400.138,-1071 406.138,-1065 412.138,-1065"/>
<text text-anchor="middle" x="524" y="-1135.8" font-family="Times,serif" font-size="14.00">WorkBreakdownStructure</text>
<polyline fill="none" stroke="black" points="400.138,-1129 647.862,-1129 "/>
<text text-anchor="start" x="408.138" y="-1113.8" font-family="Times,serif" font-size="14.00">id :integer</text>
<text text-anchor="start" x="408.138" y="-1099.8" font-family="Times,serif" font-size="14.00">p_id :integer</text>
<text text-anchor="start" x="408.138" y="-1085.8" font-family="Times,serif" font-size="14.00">created_at :timestamp without time zone</text>
<text text-anchor="start" x="408.138" y="-1071.8" font-family="Times,serif" font-size="14.00">updated_at :timestamp without time zone</text>
</g>
<!-- Project&#45;&gt;WorkBreakdownStructure -->
<g id="edge9" class="edge"><title>Project&#45;&gt;WorkBreakdownStructure</title>
<path fill="none" stroke="#4841c6" d="M604.906,-1183.21C595.472,-1174.56 585.633,-1165.54 576.196,-1156.88"/>
<ellipse fill="none" stroke="#4841c6" cx="607.909" cy="-1185.97" rx="4.00002" ry="4.00002"/>
<ellipse fill="#4841c6" stroke="#4841c6" cx="573.01" cy="-1153.96" rx="4.00002" ry="4.00002"/>
</g>
<!-- RamEntry -->
<g id="node12" class="node"><title>RamEntry</title>
<path fill="none" stroke="black" d="M678.138,-319C678.138,-319 901.862,-319 901.862,-319 907.862,-319 913.862,-325 913.862,-331 913.862,-331 913.862,-435 913.862,-435 913.862,-441 907.862,-447 901.862,-447 901.862,-447 678.138,-447 678.138,-447 672.138,-447 666.138,-441 666.138,-435 666.138,-435 666.138,-331 666.138,-331 666.138,-325 672.138,-319 678.138,-319"/>
<text text-anchor="middle" x="790" y="-431.8" font-family="Times,serif" font-size="14.00">RamEntry</text>
<polyline fill="none" stroke="black" points="666.138,-425 913.862,-425 "/>
<text text-anchor="start" x="674.138" y="-409.8" font-family="Times,serif" font-size="14.00">id :integer</text>
<text text-anchor="start" x="674.138" y="-395.8" font-family="Times,serif" font-size="14.00">ram_id :integer</text>
<text text-anchor="start" x="674.138" y="-381.8" font-family="Times,serif" font-size="14.00">workpackage_id :integer</text>
<text text-anchor="start" x="674.138" y="-367.8" font-family="Times,serif" font-size="14.00">component_id :integer</text>
<text text-anchor="start" x="674.138" y="-353.8" font-family="Times,serif" font-size="14.00">resource_id :integer</text>
<text text-anchor="start" x="674.138" y="-339.8" font-family="Times,serif" font-size="14.00">created_at :timestamp without time zone</text>
<text text-anchor="start" x="674.138" y="-325.8" font-family="Times,serif" font-size="14.00">updated_at :timestamp without time zone</text>
</g>
<!-- RamEntry&#45;&gt;Component -->
<g id="edge16" class="edge"><title>RamEntry&#45;&gt;Component</title>
<path fill="none" stroke="#9a0281" d="M790,-310.537C790,-298.783 790,-286.735 790,-275.382"/>
<ellipse fill="none" stroke="#9a0281" cx="790" cy="-314.593" rx="4" ry="4"/>
<ellipse fill="#9a0281" stroke="#9a0281" cx="790" cy="-271.251" rx="4" ry="4"/>
</g>
<!-- Resource -->
<g id="node13" class="node"><title>Resource</title>
<path fill="none" stroke="black" d="M395.138,-153C395.138,-153 618.862,-153 618.862,-153 624.862,-153 630.862,-159 630.862,-165 630.862,-165 630.862,-269 630.862,-269 630.862,-275 624.862,-281 618.862,-281 618.862,-281 395.138,-281 395.138,-281 389.138,-281 383.138,-275 383.138,-269 383.138,-269 383.138,-165 383.138,-165 383.138,-159 389.138,-153 395.138,-153"/>
<text text-anchor="middle" x="507" y="-265.8" font-family="Times,serif" font-size="14.00">Resource</text>
<polyline fill="none" stroke="black" points="383.138,-259 630.862,-259 "/>
<text text-anchor="start" x="391.138" y="-243.8" font-family="Times,serif" font-size="14.00">id :integer</text>
<text text-anchor="start" x="391.138" y="-229.8" font-family="Times,serif" font-size="14.00">role_id :integer</text>
<text text-anchor="start" x="391.138" y="-215.8" font-family="Times,serif" font-size="14.00">qualification :character varying</text>
<text text-anchor="start" x="391.138" y="-201.8" font-family="Times,serif" font-size="14.00">experience :character varying</text>
<text text-anchor="start" x="391.138" y="-187.8" font-family="Times,serif" font-size="14.00">quantitiy :numeric</text>
<text text-anchor="start" x="391.138" y="-173.8" font-family="Times,serif" font-size="14.00">created_at :timestamp without time zone</text>
<text text-anchor="start" x="391.138" y="-159.8" font-family="Times,serif" font-size="14.00">updated_at :timestamp without time zone</text>
</g>
<!-- RamEntry&#45;&gt;Resource -->
<g id="edge15" class="edge"><title>RamEntry&#45;&gt;Resource</title>
<path fill="none" stroke="#19ebd2" d="M673.955,-314.752C657.173,-305.026 639.897,-295.015 623.114,-285.289"/>
<ellipse fill="none" stroke="#19ebd2" cx="677.529" cy="-316.822" rx="4.00002" ry="4.00002"/>
<ellipse fill="#19ebd2" stroke="#19ebd2" cx="619.415" cy="-283.145" rx="4.00002" ry="4.00002"/>
</g>
<!-- ResourceAllocationMatrix&#45;&gt;RamEntry -->
<g id="edge17" class="edge"><title>ResourceAllocationMatrix&#45;&gt;RamEntry</title>
<path fill="none" stroke="#5eaa40" d="M1028.21,-488.478C995.129,-473.969 958.058,-457.71 923.194,-442.419"/>
<ellipse fill="none" stroke="#5eaa40" cx="1032.16" cy="-490.211" rx="4.00002" ry="4.00002"/>
<polygon fill="#5eaa40" stroke="#5eaa40" points="923.063,-442.361 915.713,-434.223 918.484,-440.353 913.905,-438.344 913.905,-438.344 913.905,-438.344 918.484,-440.353 912.098,-442.465 923.063,-442.361 923.063,-442.361"/>
</g>
<!-- Type -->
<g id="node22" class="node"><title>Type</title>
<path fill="none" stroke="black" d="M146.138,-630C146.138,-630 369.862,-630 369.862,-630 375.862,-630 381.862,-636 381.862,-642 381.862,-642 381.862,-718 381.862,-718 381.862,-724 375.862,-730 369.862,-730 369.862,-730 146.138,-730 146.138,-730 140.138,-730 134.138,-724 134.138,-718 134.138,-718 134.138,-642 134.138,-642 134.138,-636 140.138,-630 146.138,-630"/>
<text text-anchor="middle" x="258" y="-714.8" font-family="Times,serif" font-size="14.00">Type</text>
<polyline fill="none" stroke="black" points="134.138,-708 381.862,-708 "/>
<text text-anchor="start" x="142.138" y="-692.8" font-family="Times,serif" font-size="14.00">id :integer</text>
<text text-anchor="start" x="142.138" y="-678.8" font-family="Times,serif" font-size="14.00">name :character varying</text>
<text text-anchor="start" x="142.138" y="-664.8" font-family="Times,serif" font-size="14.00">rbs_id :integer</text>
<text text-anchor="start" x="142.138" y="-650.8" font-family="Times,serif" font-size="14.00">created_at :timestamp without time zone</text>
<text text-anchor="start" x="142.138" y="-636.8" font-family="Times,serif" font-size="14.00">updated_at :timestamp without time zone</text>
</g>
<!-- ResourceBreakdownStructure&#45;&gt;Type -->
<g id="edge18" class="edge"><title>ResourceBreakdownStructure&#45;&gt;Type</title>
<path fill="none" stroke="#dd7d3d" d="M305.083,-918.892C295.221,-869.066 280.097,-792.65 269.665,-739.938"/>
<ellipse fill="none" stroke="#dd7d3d" cx="305.874" cy="-922.89" rx="4.00001" ry="4.00001"/>
<polygon fill="#dd7d3d" stroke="#dd7d3d" points="269.65,-739.864 272.123,-729.181 268.68,-734.96 267.709,-730.055 267.709,-730.055 267.709,-730.055 268.68,-734.96 263.294,-730.928 269.65,-739.864 269.65,-739.864"/>
</g>
<!-- Roadmap&#45;&gt;Milestone -->
<g id="edge19" class="edge"><title>Roadmap&#45;&gt;Milestone</title>
<path fill="none" stroke="#02283d" d="M143.334,-484.316C178.703,-403.696 258.941,-244.144 374,-152 391.355,-138.102 411.127,-125.576 431.203,-114.55"/>
<ellipse fill="none" stroke="#02283d" cx="141.646" cy="-488.198" rx="4.00002" ry="4.00002"/>
<polygon fill="#02283d" stroke="#02283d" points="431.32,-114.488 442.259,-113.719 435.724,-112.121 440.129,-109.754 440.129,-109.754 440.129,-109.754 435.724,-112.121 437.999,-105.79 431.32,-114.488 431.32,-114.488"/>
</g>
<!-- Role -->
<g id="node17" class="node"><title>Role</title>
<path fill="none" stroke="black" d="M262.138,-333C262.138,-333 485.862,-333 485.862,-333 491.862,-333 497.862,-339 497.862,-345 497.862,-345 497.862,-421 497.862,-421 497.862,-427 491.862,-433 485.862,-433 485.862,-433 262.138,-433 262.138,-433 256.138,-433 250.138,-427 250.138,-421 250.138,-421 250.138,-345 250.138,-345 250.138,-339 256.138,-333 262.138,-333"/>
<text text-anchor="middle" x="374" y="-417.8" font-family="Times,serif" font-size="14.00">Role</text>
<polyline fill="none" stroke="black" points="250.138,-411 497.862,-411 "/>
<text text-anchor="start" x="258.138" y="-395.8" font-family="Times,serif" font-size="14.00">id :integer</text>
<text text-anchor="start" x="258.138" y="-381.8" font-family="Times,serif" font-size="14.00">name :character varying</text>
<text text-anchor="start" x="258.138" y="-367.8" font-family="Times,serif" font-size="14.00">type_id :integer</text>
<text text-anchor="start" x="258.138" y="-353.8" font-family="Times,serif" font-size="14.00">created_at :timestamp without time zone</text>
<text text-anchor="start" x="258.138" y="-339.8" font-family="Times,serif" font-size="14.00">updated_at :timestamp without time zone</text>
</g>
<!-- Role&#45;&gt;Resource -->
<g id="edge20" class="edge"><title>Role&#45;&gt;Resource</title>
<path fill="none" stroke="#d5bab1" d="M419.23,-326.228C428.874,-314.336 439.185,-301.622 449.225,-289.241"/>
<ellipse fill="none" stroke="#d5bab1" cx="416.424" cy="-329.688" rx="4.00002" ry="4.00002"/>
<polygon fill="#d5bab1" stroke="#d5bab1" points="449.476,-288.932 459.27,-283.999 452.626,-285.048 455.775,-281.165 455.775,-281.165 455.775,-281.165 452.626,-285.048 452.28,-278.33 449.476,-288.932 449.476,-288.932"/>
</g>
<!-- Round&#45;&gt;ExpertForm -->
<g id="edge21" class="edge"><title>Round&#45;&gt;ExpertForm</title>
<path fill="none" stroke="#b69166" d="M901.452,-909.084C919.323,-899.477 937.727,-889.583 955.327,-880.121"/>
<ellipse fill="none" stroke="#b69166" cx="897.89" cy="-910.999" rx="4.00002" ry="4.00002"/>
<polygon fill="#b69166" stroke="#b69166" points="955.643,-879.952 966.581,-879.18 960.047,-877.584 964.451,-875.216 964.451,-875.216 964.451,-875.216 960.047,-877.584 962.32,-871.253 955.643,-879.952 955.643,-879.952"/>
</g>
<!-- Round&#45;&gt;FormTemplate -->
<g id="edge22" class="edge"><title>Round&#45;&gt;FormTemplate</title>
<path fill="none" stroke="#c84351" d="M790,-904.804C790,-895.312 790,-885.647 790,-876.487"/>
<ellipse fill="none" stroke="#c84351" cx="790" cy="-908.893" rx="4" ry="4"/>
<ellipse fill="#c84351" stroke="#c84351" cx="790" cy="-872.235" rx="4" ry="4"/>
</g>
<!-- Subproduct&#45;&gt;Modul -->
<g id="edge23" class="edge"><title>Subproduct&#45;&gt;Modul</title>
<path fill="none" stroke="#f718ea" d="M1354.56,-911.675C1344.49,-819.28 1318.79,-632.745 1264,-484 1258.83,-469.967 1251.87,-455.555 1244.62,-442.196"/>
<ellipse fill="none" stroke="#f718ea" cx="1355" cy="-915.802" rx="4" ry="4"/>
<polygon fill="#f718ea" stroke="#f718ea" points="1244.43,-441.868 1243.5,-430.942 1242,-437.5 1239.56,-433.133 1239.56,-433.133 1239.56,-433.133 1242,-437.5 1235.63,-435.324 1244.43,-441.868 1244.43,-441.868"/>
</g>
<!-- Subtask -->
<g id="node20" class="node"><title>Subtask</title>
<path fill="none" stroke="black" d="M412.138,-630C412.138,-630 635.862,-630 635.862,-630 641.862,-630 647.862,-636 647.862,-642 647.862,-642 647.862,-718 647.862,-718 647.862,-724 641.862,-730 635.862,-730 635.862,-730 412.138,-730 412.138,-730 406.138,-730 400.138,-724 400.138,-718 400.138,-718 400.138,-642 400.138,-642 400.138,-636 406.138,-630 412.138,-630"/>
<text text-anchor="middle" x="524" y="-714.8" font-family="Times,serif" font-size="14.00">Subtask</text>
<polyline fill="none" stroke="black" points="400.138,-708 647.862,-708 "/>
<text text-anchor="start" x="408.138" y="-692.8" font-family="Times,serif" font-size="14.00">id :integer</text>
<text text-anchor="start" x="408.138" y="-678.8" font-family="Times,serif" font-size="14.00">name :character varying</text>
<text text-anchor="start" x="408.138" y="-664.8" font-family="Times,serif" font-size="14.00">task_id :integer</text>
<text text-anchor="start" x="408.138" y="-650.8" font-family="Times,serif" font-size="14.00">created_at :timestamp without time zone</text>
<text text-anchor="start" x="408.138" y="-636.8" font-family="Times,serif" font-size="14.00">updated_at :timestamp without time zone</text>
</g>
<!-- Subtask&#45;&gt;Workpackage -->
<g id="edge24" class="edge"><title>Subtask&#45;&gt;Workpackage</title>
<path fill="none" stroke="#fc16b6" d="M622.484,-626.056C644.352,-614.3 667.557,-601.824 689.505,-590.026"/>
<ellipse fill="none" stroke="#fc16b6" cx="618.693" cy="-628.094" rx="4.00002" ry="4.00002"/>
<polygon fill="#fc16b6" stroke="#fc16b6" points="689.69,-589.926 700.629,-589.155 694.094,-587.559 698.498,-585.191 698.498,-585.191 698.498,-585.191 694.094,-587.559 696.367,-581.227 689.69,-589.926 689.69,-589.926"/>
</g>
<!-- Task -->
<g id="node21" class="node"><title>Task</title>
<path fill="none" stroke="black" d="M412.138,-775C412.138,-775 635.862,-775 635.862,-775 641.862,-775 647.862,-781 647.862,-787 647.862,-787 647.862,-863 647.862,-863 647.862,-869 641.862,-875 635.862,-875 635.862,-875 412.138,-875 412.138,-875 406.138,-875 400.138,-869 400.138,-863 400.138,-863 400.138,-787 400.138,-787 400.138,-781 406.138,-775 412.138,-775"/>
<text text-anchor="middle" x="524" y="-859.8" font-family="Times,serif" font-size="14.00">Task</text>
<polyline fill="none" stroke="black" points="400.138,-853 647.862,-853 "/>
<text text-anchor="start" x="408.138" y="-837.8" font-family="Times,serif" font-size="14.00">id :integer</text>
<text text-anchor="start" x="408.138" y="-823.8" font-family="Times,serif" font-size="14.00">name :character varying</text>
<text text-anchor="start" x="408.138" y="-809.8" font-family="Times,serif" font-size="14.00">wbs_id :integer</text>
<text text-anchor="start" x="408.138" y="-795.8" font-family="Times,serif" font-size="14.00">created_at :timestamp without time zone</text>
<text text-anchor="start" x="408.138" y="-781.8" font-family="Times,serif" font-size="14.00">updated_at :timestamp without time zone</text>
</g>
<!-- Task&#45;&gt;Subtask -->
<g id="edge25" class="edge"><title>Task&#45;&gt;Subtask</title>
<path fill="none" stroke="#53b21b" d="M524,-766.575C524,-757.939 524,-749.018 524,-740.342"/>
<ellipse fill="none" stroke="#53b21b" cx="524" cy="-770.788" rx="4" ry="4"/>
<polygon fill="#53b21b" stroke="#53b21b" points="524,-740.303 528.5,-730.303 524,-735.303 524,-730.303 524,-730.303 524,-730.303 524,-735.303 519.5,-730.303 524,-740.303 524,-740.303"/>
</g>
<!-- Type&#45;&gt;Role -->
<g id="edge26" class="edge"><title>Type&#45;&gt;Role</title>
<path fill="none" stroke="#4696cd" d="M280.253,-622.409C300.545,-570.803 330.407,-494.861 350.946,-442.628"/>
<ellipse fill="none" stroke="#4696cd" cx="278.749" cy="-626.233" rx="4.00001" ry="4.00001"/>
<polygon fill="#4696cd" stroke="#4696cd" points="351.009,-442.468 358.857,-434.808 352.839,-437.815 354.669,-433.162 354.669,-433.162 354.669,-433.162 352.839,-437.815 350.481,-431.515 351.009,-442.468 351.009,-442.468"/>
</g>
<!-- WorkBreakdownStructure&#45;&gt;Task -->
<g id="edge27" class="edge"><title>WorkBreakdownStructure&#45;&gt;Task</title>
<path fill="none" stroke="#3074d0" d="M524,-1056.64C524,-1008.68 524,-936.47 524,-885.652"/>
<ellipse fill="none" stroke="#3074d0" cx="524" cy="-1060.93" rx="4" ry="4"/>
<polygon fill="#3074d0" stroke="#3074d0" points="524,-885.468 528.5,-875.468 524,-880.468 524,-875.468 524,-875.468 524,-875.468 524,-880.468 519.5,-875.468 524,-885.468 524,-885.468"/>
</g>
<!-- Workpackage&#45;&gt;RamEntry -->
<g id="edge28" class="edge"><title>Workpackage&#45;&gt;RamEntry</title>
<path fill="none" stroke="#01a44d" d="M790,-476.848C790,-469.873 790,-462.68 790,-455.529"/>
<ellipse fill="none" stroke="#01a44d" cx="790" cy="-480.884" rx="4" ry="4"/>
<ellipse fill="#01a44d" stroke="#01a44d" cx="790" cy="-451.169" rx="4" ry="4"/>
</g>
</g>
</svg>
