<?xml version="1.0" encoding="UTF-8" standalone="no"?>
<!DOCTYPE svg PUBLIC "-//W3C//DTD SVG 1.1//EN"
 "http://www.w3.org/Graphics/SVG/1.1/DTD/svg11.dtd">
<!-- Generated by graphviz version 2.36.0 (20140111.2315)
 -->
<!-- Title: models_diagram Pages: 1 -->
<svg width="1109pt" height="442pt"
 viewBox="0.00 0.00 1109.00 442.00" xmlns="http://www.w3.org/2000/svg" xmlns:xlink="http://www.w3.org/1999/xlink">
<g id="graph0" class="graph" transform="scale(1 1) rotate(0) translate(4 438)">
<title>models_diagram</title>
<polygon fill="none" stroke="none" points="-4,4 -4,-438 1105,-438 1105,4 -4,4"/>
<!-- _diagram_info -->
<g id="node1" class="node"><title>_diagram_info</title>
<text text-anchor="start" x="280.312" y="-419.1" font-family="Times,serif" font-size="13.00">Models diagram</text>
<text text-anchor="start" x="280.312" y="-406.1" font-family="Times,serif" font-size="13.00">Date: Jan 26 2016 &#45; 16:29</text>
<text text-anchor="start" x="280.312" y="-393.1" font-family="Times,serif" font-size="13.00">Migration version: 20160126152926</text>
<text text-anchor="start" x="280.312" y="-380.1" font-family="Times,serif" font-size="13.00">Generated by RailRoady 1.4.2</text>
<text text-anchor="start" x="280.312" y="-367.1" font-family="Times,serif" font-size="13.00">http://railroady.prestonlee.com</text>
</g>
<!-- Component -->
<g id="node2" class="node"><title>Component</title>
<ellipse fill="none" stroke="black" cx="110" cy="-90" rx="51.0631" ry="18"/>
<text text-anchor="middle" x="110" y="-85.8" font-family="Times,serif" font-size="14.00">Component</text>
</g>
<!-- DelphiEstimation -->
<g id="node3" class="node"><title>DelphiEstimation</title>
<ellipse fill="none" stroke="black" cx="931" cy="-306" rx="72.2421" ry="18"/>
<text text-anchor="middle" x="931" y="-301.8" font-family="Times,serif" font-size="14.00">DelphiEstimation</text>
</g>
<!-- Round -->
<g id="node17" class="node"><title>Round</title>
<ellipse fill="none" stroke="black" cx="931" cy="-234" rx="33.5375" ry="18"/>
<text text-anchor="middle" x="931" y="-229.8" font-family="Times,serif" font-size="14.00">Round</text>
</g>
<!-- DelphiEstimation&#45;&gt;Round -->
<g id="edge1" class="edge"><title>DelphiEstimation&#45;&gt;Round</title>
<path fill="none" stroke="#4db6ae" d="M931,-279.64C931,-274.063 931,-268.132 931,-262.476"/>
<ellipse fill="none" stroke="#4db6ae" cx="931" cy="-283.697" rx="4" ry="4"/>
<polygon fill="#4db6ae" stroke="#4db6ae" points="931,-262.104 935.5,-252.104 931,-257.104 931,-252.104 931,-252.104 931,-252.104 931,-257.104 926.5,-252.104 931,-262.104 931,-262.104"/>
</g>
<!-- Estimation -->
<g id="node4" class="node"><title>Estimation</title>
<ellipse fill="none" stroke="black" cx="872" cy="-90" rx="48.1389" ry="18"/>
<text text-anchor="middle" x="872" y="-85.8" font-family="Times,serif" font-size="14.00">Estimation</text>
</g>
<!-- Workpackage -->
<g id="node23" class="node"><title>Workpackage</title>
<ellipse fill="none" stroke="black" cx="872" cy="-18" rx="58.2561" ry="18"/>
<text text-anchor="middle" x="872" y="-13.8" font-family="Times,serif" font-size="14.00">Workpackage</text>
</g>
<!-- Estimation&#45;&gt;Workpackage -->
<g id="edge2" class="edge"><title>Estimation&#45;&gt;Workpackage</title>
<path fill="none" stroke="#faa125" d="M872,-63.6398C872,-57.348 872,-50.6053 872,-44.3156"/>
<ellipse fill="none" stroke="#faa125" cx="872" cy="-67.6966" rx="4" ry="4"/>
<ellipse fill="#faa125" stroke="#faa125" cx="872" cy="-40.1043" rx="4" ry="4"/>
</g>
<!-- EstimationTemplate -->
<g id="node5" class="node"><title>EstimationTemplate</title>
<ellipse fill="none" stroke="black" cx="1020" cy="-90" rx="81.3002" ry="18"/>
<text text-anchor="middle" x="1020" y="-85.8" font-family="Times,serif" font-size="14.00">EstimationTemplate</text>
</g>
<!-- EstimationTemplate&#45;&gt;Workpackage -->
<g id="edge3" class="edge"><title>EstimationTemplate&#45;&gt;Workpackage</title>
<path fill="none" stroke="#37c270" d="M979.834,-70.0025C958.116,-59.7306 931.444,-47.1152 910.06,-37.0011"/>
<ellipse fill="none" stroke="#37c270" cx="983.538" cy="-71.7545" rx="4.00002" ry="4.00002"/>
<ellipse fill="#37c270" stroke="#37c270" cx="906.349" cy="-35.2462" rx="4.00002" ry="4.00002"/>
</g>
<!-- ExpertForm -->
<g id="node6" class="node"><title>ExpertForm</title>
<ellipse fill="none" stroke="black" cx="876" cy="-162" rx="52.2663" ry="18"/>
<text text-anchor="middle" x="876" y="-157.8" font-family="Times,serif" font-size="14.00">ExpertForm</text>
</g>
<!-- ExpertForm&#45;&gt;Estimation -->
<g id="edge4" class="edge"><title>ExpertForm&#45;&gt;Estimation</title>
<path fill="none" stroke="#ced401" d="M874.551,-135.64C874.232,-130.063 873.893,-124.132 873.57,-118.476"/>
<ellipse fill="none" stroke="#ced401" cx="874.783" cy="-139.703" rx="4" ry="4"/>
<polygon fill="#ced401" stroke="#ced401" points="873.548,-118.088 877.47,-107.848 873.263,-113.096 872.977,-108.104 872.977,-108.104 872.977,-108.104 873.263,-113.096 868.485,-108.361 873.548,-118.088 873.548,-118.088"/>
</g>
<!-- FormTemplate -->
<g id="node7" class="node"><title>FormTemplate</title>
<ellipse fill="none" stroke="black" cx="1016" cy="-162" rx="62.0674" ry="18"/>
<text text-anchor="middle" x="1016" y="-157.8" font-family="Times,serif" font-size="14.00">FormTemplate</text>
</g>
<!-- FormTemplate&#45;&gt;EstimationTemplate -->
<g id="edge5" class="edge"><title>FormTemplate&#45;&gt;EstimationTemplate</title>
<path fill="none" stroke="#d321e0" d="M1017.45,-135.64C1017.77,-130.063 1018.11,-124.132 1018.43,-118.476"/>
<ellipse fill="none" stroke="#d321e0" cx="1017.22" cy="-139.703" rx="4" ry="4"/>
<polygon fill="#d321e0" stroke="#d321e0" points="1018.45,-118.088 1023.52,-108.361 1018.74,-113.096 1019.02,-108.104 1019.02,-108.104 1019.02,-108.104 1018.74,-113.096 1014.53,-107.848 1018.45,-118.088 1018.45,-118.088"/>
</g>
<!-- Milestone -->
<g id="node8" class="node"><title>Milestone</title>
<ellipse fill="none" stroke="black" cx="533" cy="-234" rx="45.2147" ry="18"/>
<text text-anchor="middle" x="533" y="-229.8" font-family="Times,serif" font-size="14.00">Milestone</text>
</g>
<!-- Modul -->
<g id="node9" class="node"><title>Modul</title>
<ellipse fill="none" stroke="black" cx="110" cy="-162" rx="33.5375" ry="18"/>
<text text-anchor="middle" x="110" y="-157.8" font-family="Times,serif" font-size="14.00">Modul</text>
</g>
<!-- Modul&#45;&gt;Component -->
<g id="edge6" class="edge"><title>Modul&#45;&gt;Component</title>
<path fill="none" stroke="#33197e" d="M110,-135.64C110,-130.063 110,-124.132 110,-118.476"/>
<ellipse fill="none" stroke="#33197e" cx="110" cy="-139.697" rx="4" ry="4"/>
<polygon fill="#33197e" stroke="#33197e" points="110,-118.104 114.5,-108.104 110,-113.104 110,-108.104 110,-108.104 110,-108.104 110,-113.104 105.5,-108.104 110,-118.104 110,-118.104"/>
</g>
<!-- ProductBreakdownStructure -->
<g id="node10" class="node"><title>ProductBreakdownStructure</title>
<ellipse fill="none" stroke="black" cx="110" cy="-306" rx="110.202" ry="18"/>
<text text-anchor="middle" x="110" y="-301.8" font-family="Times,serif" font-size="14.00">ProductBreakdownStructure</text>
</g>
<!-- Subproduct -->
<g id="node18" class="node"><title>Subproduct</title>
<ellipse fill="none" stroke="black" cx="110" cy="-234" rx="50.3252" ry="18"/>
<text text-anchor="middle" x="110" y="-229.8" font-family="Times,serif" font-size="14.00">Subproduct</text>
</g>
<!-- ProductBreakdownStructure&#45;&gt;Subproduct -->
<g id="edge7" class="edge"><title>ProductBreakdownStructure&#45;&gt;Subproduct</title>
<path fill="none" stroke="#0da495" d="M110,-279.64C110,-274.063 110,-268.132 110,-262.476"/>
<ellipse fill="none" stroke="#0da495" cx="110" cy="-283.697" rx="4" ry="4"/>
<polygon fill="#0da495" stroke="#0da495" points="110,-262.104 114.5,-252.104 110,-257.104 110,-252.104 110,-252.104 110,-252.104 110,-257.104 105.5,-252.104 110,-262.104 110,-262.104"/>
</g>
<!-- Project -->
<g id="node11" class="node"><title>Project</title>
<ellipse fill="none" stroke="black" cx="533" cy="-397" rx="35.2345" ry="18"/>
<text text-anchor="middle" x="533" y="-392.8" font-family="Times,serif" font-size="14.00">Project</text>
</g>
<!-- Project&#45;&gt;DelphiEstimation -->
<g id="edge12" class="edge"><title>Project&#45;&gt;DelphiEstimation</title>
<path fill="none" stroke="#d3421c" d="M572.557,-387.154C642.575,-371.497 788.697,-338.821 871.115,-320.391"/>
<ellipse fill="none" stroke="#d3421c" cx="568.467" cy="-388.069" rx="4.00001" ry="4.00001"/>
<ellipse fill="#d3421c" stroke="#d3421c" cx="875.228" cy="-319.472" rx="4.00001" ry="4.00001"/>
</g>
<!-- Project&#45;&gt;ProductBreakdownStructure -->
<g id="edge9" class="edge"><title>Project&#45;&gt;ProductBreakdownStructure</title>
<path fill="none" stroke="#06d183" d="M511.638,-375.066C504.621,-369.299 496.442,-363.636 488,-360 381.666,-314.202 344.65,-340.12 230,-324 219.789,-322.564 209.089,-321.055 198.463,-319.554"/>
<ellipse fill="none" stroke="#06d183" cx="514.704" cy="-377.719" rx="4.00002" ry="4.00002"/>
<ellipse fill="#06d183" stroke="#06d183" cx="194.32" cy="-318.968" rx="4.00001" ry="4.00001"/>
</g>
<!-- ResourceBreakdownStructure -->
<g id="node14" class="node"><title>ResourceBreakdownStructure</title>
<ellipse fill="none" stroke="black" cx="355" cy="-306" rx="116.291" ry="18"/>
<text text-anchor="middle" x="355" y="-301.8" font-family="Times,serif" font-size="14.00">ResourceBreakdownStructure</text>
</g>
<!-- Project&#45;&gt;ResourceBreakdownStructure -->
<g id="edge10" class="edge"><title>Project&#45;&gt;ResourceBreakdownStructure</title>
<path fill="none" stroke="#aa2e4c" d="M509.895,-375.371C503.13,-369.938 495.523,-364.378 488,-360 463.961,-346.013 435.529,-334.128 411.135,-325.179"/>
<ellipse fill="none" stroke="#aa2e4c" cx="513.265" cy="-378.161" rx="4.00002" ry="4.00002"/>
<ellipse fill="#aa2e4c" stroke="#aa2e4c" cx="407.131" cy="-323.735" rx="4.00001" ry="4.00001"/>
</g>
<!-- Roadmap -->
<g id="node15" class="node"><title>Roadmap</title>
<ellipse fill="none" stroke="black" cx="533" cy="-306" rx="43.4994" ry="18"/>
<text text-anchor="middle" x="533" y="-301.8" font-family="Times,serif" font-size="14.00">Roadmap</text>
</g>
<!-- Project&#45;&gt;Roadmap -->
<g id="edge11" class="edge"><title>Project&#45;&gt;Roadmap</title>
<path fill="none" stroke="#1a7f69" d="M533,-370.546C533,-358.567 533,-344.318 533,-332.352"/>
<ellipse fill="none" stroke="#1a7f69" cx="533" cy="-374.84" rx="4" ry="4"/>
<ellipse fill="#1a7f69" stroke="#1a7f69" cx="533" cy="-328.107" rx="4" ry="4"/>
</g>
<!-- WorkBreakdownStructure -->
<g id="node22" class="node"><title>WorkBreakdownStructure</title>
<ellipse fill="none" stroke="black" cx="767" cy="-234" rx="102.582" ry="18"/>
<text text-anchor="middle" x="767" y="-229.8" font-family="Times,serif" font-size="14.00">WorkBreakdownStructure</text>
</g>
<!-- Project&#45;&gt;WorkBreakdownStructure -->
<g id="edge8" class="edge"><title>Project&#45;&gt;WorkBreakdownStructure</title>
<path fill="none" stroke="#58b455" d="M575.386,-391.341C646.084,-382.602 783.186,-361.194 812,-324 827.814,-303.587 809.929,-276.751 792.243,-257.905"/>
<ellipse fill="none" stroke="#58b455" cx="571.076" cy="-391.864" rx="4.00001" ry="4.00001"/>
<ellipse fill="#58b455" stroke="#58b455" cx="789.101" cy="-254.698" rx="4.00002" ry="4.00002"/>
</g>
<!-- Resource -->
<g id="node12" class="node"><title>Resource</title>
<ellipse fill="none" stroke="black" cx="534" cy="-90" rx="43.0161" ry="18"/>
<text text-anchor="middle" x="534" y="-85.8" font-family="Times,serif" font-size="14.00">Resource</text>
</g>
<!-- ResourceAllocationMatrix -->
<g id="node13" class="node"><title>ResourceAllocationMatrix</title>
<ellipse fill="none" stroke="black" cx="699" cy="-306" rx="104.115" ry="18"/>
<text text-anchor="middle" x="699" y="-301.8" font-family="Times,serif" font-size="14.00">ResourceAllocationMatrix</text>
</g>
<!-- Role -->
<g id="node16" class="node"><title>Role</title>
<ellipse fill="none" stroke="black" cx="534" cy="-162" rx="27" ry="18"/>
<text text-anchor="middle" x="534" y="-157.8" font-family="Times,serif" font-size="14.00">Role</text>
</g>
<!-- ResourceAllocationMatrix&#45;&gt;Role -->
<g id="edge14" class="edge"><title>ResourceAllocationMatrix&#45;&gt;Role</title>
<path fill="none" stroke="#d3239a" d="M673.306,-282.888C641.695,-255.683 588.455,-209.864 557.758,-183.446"/>
<ellipse fill="none" stroke="#d3239a" cx="676.393" cy="-285.544" rx="4.00002" ry="4.00002"/>
<polygon fill="#d3239a" stroke="#d3239a" points="557.68,-183.379 553.035,-173.445 553.89,-180.117 550.1,-176.856 550.1,-176.856 550.1,-176.856 553.89,-180.117 547.165,-180.267 557.68,-183.379 557.68,-183.379"/>
</g>
<!-- ResourceAllocationMatrix&#45;&gt;WorkBreakdownStructure -->
<g id="edge13" class="edge"><title>ResourceAllocationMatrix&#45;&gt;WorkBreakdownStructure</title>
<path fill="none" stroke="#1b58af" d="M721.223,-282.123C728.877,-274.245 737.438,-265.431 745.068,-257.577"/>
<ellipse fill="none" stroke="#1b58af" cx="718.248" cy="-285.186" rx="4.00002" ry="4.00002"/>
<ellipse fill="#1b58af" stroke="#1b58af" cx="747.904" cy="-254.658" rx="4.00002" ry="4.00002"/>
</g>
<!-- Type -->
<g id="node21" class="node"><title>Type</title>
<ellipse fill="none" stroke="black" cx="399" cy="-234" rx="27.4888" ry="18"/>
<text text-anchor="middle" x="399" y="-229.8" font-family="Times,serif" font-size="14.00">Type</text>
</g>
<!-- ResourceBreakdownStructure&#45;&gt;Type -->
<g id="edge15" class="edge"><title>ResourceBreakdownStructure&#45;&gt;Type</title>
<path fill="none" stroke="#3e2c0a" d="M370.04,-281.072C374.455,-274.049 379.286,-266.363 383.716,-259.316"/>
<ellipse fill="none" stroke="#3e2c0a" cx="367.78" cy="-284.668" rx="4.00002" ry="4.00002"/>
<polygon fill="#3e2c0a" stroke="#3e2c0a" points="383.728,-259.296 392.86,-253.224 386.389,-255.063 389.05,-250.829 389.05,-250.829 389.05,-250.829 386.389,-255.063 385.24,-248.435 383.728,-259.296 383.728,-259.296"/>
</g>
<!-- Roadmap&#45;&gt;Milestone -->
<g id="edge16" class="edge"><title>Roadmap&#45;&gt;Milestone</title>
<path fill="none" stroke="#82de44" d="M533,-279.64C533,-274.063 533,-268.132 533,-262.476"/>
<ellipse fill="none" stroke="#82de44" cx="533" cy="-283.697" rx="4" ry="4"/>
<polygon fill="#82de44" stroke="#82de44" points="533,-262.104 537.5,-252.104 533,-257.104 533,-252.104 533,-252.104 533,-252.104 533,-257.104 528.5,-252.104 533,-262.104 533,-262.104"/>
</g>
<!-- Role&#45;&gt;Resource -->
<g id="edge17" class="edge"><title>Role&#45;&gt;Resource</title>
<path fill="none" stroke="#bc71b1" d="M534,-135.64C534,-130.063 534,-124.132 534,-118.476"/>
<ellipse fill="none" stroke="#bc71b1" cx="534" cy="-139.697" rx="4" ry="4"/>
<polygon fill="#bc71b1" stroke="#bc71b1" points="534,-118.104 538.5,-108.104 534,-113.104 534,-108.104 534,-108.104 534,-108.104 534,-113.104 529.5,-108.104 534,-118.104 534,-118.104"/>
</g>
<!-- Round&#45;&gt;ExpertForm -->
<g id="edge18" class="edge"><title>Round&#45;&gt;ExpertForm</title>
<path fill="none" stroke="#12a382" d="M913.554,-210.796C907.885,-203.581 901.555,-195.525 895.732,-188.113"/>
<ellipse fill="none" stroke="#12a382" cx="916.048" cy="-213.971" rx="4.00002" ry="4.00002"/>
<polygon fill="#12a382" stroke="#12a382" points="895.376,-187.661 892.736,-177.017 892.287,-183.729 889.198,-179.797 889.198,-179.797 889.198,-179.797 892.287,-183.729 885.659,-182.578 895.376,-187.661 895.376,-187.661"/>
</g>
<!-- Round&#45;&gt;FormTemplate -->
<g id="edge19" class="edge"><title>Round&#45;&gt;FormTemplate</title>
<path fill="none" stroke="#0d7cd9" d="M955.134,-213.125C966.03,-204.152 978.92,-193.537 990.026,-184.39"/>
<ellipse fill="none" stroke="#0d7cd9" cx="951.7" cy="-215.953" rx="4.00002" ry="4.00002"/>
<ellipse fill="#0d7cd9" stroke="#0d7cd9" cx="993.243" cy="-181.741" rx="4.00002" ry="4.00002"/>
</g>
<!-- Subproduct&#45;&gt;Modul -->
<g id="edge20" class="edge"><title>Subproduct&#45;&gt;Modul</title>
<path fill="none" stroke="#c0fc85" d="M110,-207.64C110,-202.063 110,-196.132 110,-190.476"/>
<ellipse fill="none" stroke="#c0fc85" cx="110" cy="-211.697" rx="4" ry="4"/>
<polygon fill="#c0fc85" stroke="#c0fc85" points="110,-190.104 114.5,-180.104 110,-185.104 110,-180.104 110,-180.104 110,-180.104 110,-185.104 105.5,-180.104 110,-190.104 110,-190.104"/>
</g>
<!-- Subtask -->
<g id="node19" class="node"><title>Subtask</title>
<ellipse fill="none" stroke="black" cx="767" cy="-90" rx="38.1712" ry="18"/>
<text text-anchor="middle" x="767" y="-85.8" font-family="Times,serif" font-size="14.00">Subtask</text>
</g>
<!-- Subtask&#45;&gt;Workpackage -->
<g id="edge21" class="edge"><title>Subtask&#45;&gt;Workpackage</title>
<path fill="none" stroke="#433b9b" d="M795.124,-70.2506C808.964,-61.024 825.709,-49.8609 840.033,-40.3115"/>
<ellipse fill="none" stroke="#433b9b" cx="791.577" cy="-72.6156" rx="4.00002" ry="4.00002"/>
<polygon fill="#433b9b" stroke="#433b9b" points="840.271,-40.153 851.087,-38.3502 844.431,-37.3794 848.591,-34.6059 848.591,-34.6059 848.591,-34.6059 844.431,-37.3794 846.095,-30.8617 840.271,-40.153 840.271,-40.153"/>
</g>
<!-- Task -->
<g id="node20" class="node"><title>Task</title>
<ellipse fill="none" stroke="black" cx="767" cy="-162" rx="27" ry="18"/>
<text text-anchor="middle" x="767" y="-157.8" font-family="Times,serif" font-size="14.00">Task</text>
</g>
<!-- Task&#45;&gt;Subtask -->
<g id="edge22" class="edge"><title>Task&#45;&gt;Subtask</title>
<path fill="none" stroke="#7321b4" d="M767,-135.64C767,-130.063 767,-124.132 767,-118.476"/>
<ellipse fill="none" stroke="#7321b4" cx="767" cy="-139.697" rx="4" ry="4"/>
<polygon fill="#7321b4" stroke="#7321b4" points="767,-118.104 771.5,-108.104 767,-113.104 767,-108.104 767,-108.104 767,-108.104 767,-113.104 762.5,-108.104 767,-118.104 767,-118.104"/>
</g>
<!-- Type&#45;&gt;Role -->
<g id="edge23" class="edge"><title>Type&#45;&gt;Role</title>
<path fill="none" stroke="#b9668f" d="M427.051,-218.455C449.675,-206.724 481.408,-190.27 504.428,-178.334"/>
<ellipse fill="none" stroke="#b9668f" cx="423.349" cy="-220.375" rx="4.00002" ry="4.00002"/>
<polygon fill="#b9668f" stroke="#b9668f" points="504.522,-178.285 515.471,-177.676 508.961,-175.983 513.4,-173.681 513.4,-173.681 513.4,-173.681 508.961,-175.983 511.329,-169.687 504.522,-178.285 504.522,-178.285"/>
</g>
<!-- WorkBreakdownStructure&#45;&gt;Task -->
<g id="edge24" class="edge"><title>WorkBreakdownStructure&#45;&gt;Task</title>
<path fill="none" stroke="#19f663" d="M767,-207.64C767,-202.063 767,-196.132 767,-190.476"/>
<ellipse fill="none" stroke="#19f663" cx="767" cy="-211.697" rx="4" ry="4"/>
<polygon fill="#19f663" stroke="#19f663" points="767,-190.104 771.5,-180.104 767,-185.104 767,-180.104 767,-180.104 767,-180.104 767,-185.104 762.5,-180.104 767,-190.104 767,-190.104"/>
</g>
</g>
</svg>
