<?xml version="1.0" encoding="UTF-8" standalone="no"?>
<!DOCTYPE svg PUBLIC "-//W3C//DTD SVG 1.1//EN"
 "http://www.w3.org/Graphics/SVG/1.1/DTD/svg11.dtd">
<!-- Generated by graphviz version 2.36.0 (20140111.2315)
 -->
<!-- Title: models_diagram Pages: 1 -->
<svg width="848pt" height="814pt"
 viewBox="0.00 0.00 848.00 814.00" xmlns="http://www.w3.org/2000/svg" xmlns:xlink="http://www.w3.org/1999/xlink">
<g id="graph0" class="graph" transform="scale(1 1) rotate(0) translate(4 810)">
<title>models_diagram</title>
<polygon fill="none" stroke="none" points="-4,4 -4,-810 844,-810 844,4 -4,4"/>
<!-- _diagram_info -->
<g id="node1" class="node"><title>_diagram_info</title>
<text text-anchor="start" x="114.55" y="-784.1" font-family="Times,serif" font-size="13.00">Models diagram</text>
<text text-anchor="start" x="114.55" y="-771.1" font-family="Times,serif" font-size="13.00">Date: Jan 19 2016 &#45; 17:45</text>
<text text-anchor="start" x="114.55" y="-758.1" font-family="Times,serif" font-size="13.00">Migration version: 20160119154558</text>
<text text-anchor="start" x="114.55" y="-745.1" font-family="Times,serif" font-size="13.00">Generated by RailRoady 1.4.2</text>
<text text-anchor="start" x="114.55" y="-732.1" font-family="Times,serif" font-size="13.00">http://railroady.prestonlee.com</text>
</g>
<!-- Component -->
<g id="node2" class="node"><title>Component</title>
<path fill="none" stroke="black" d="M11.4946,-153C11.4946,-153 120.505,-153 120.505,-153 126.505,-153 132.505,-159 132.505,-165 132.505,-165 132.505,-241 132.505,-241 132.505,-247 126.505,-253 120.505,-253 120.505,-253 11.4946,-253 11.4946,-253 5.49463,-253 -0.505371,-247 -0.505371,-241 -0.505371,-241 -0.505371,-165 -0.505371,-165 -0.505371,-159 5.49463,-153 11.4946,-153"/>
<text text-anchor="middle" x="66" y="-237.8" font-family="Times,serif" font-size="14.00">Component</text>
<polyline fill="none" stroke="black" points="-0.505371,-231 132.505,-231 "/>
<text text-anchor="start" x="7.49463" y="-215.8" font-family="Times,serif" font-size="14.00">id :INTEGER</text>
<text text-anchor="start" x="7.49463" y="-201.8" font-family="Times,serif" font-size="14.00">name :varchar</text>
<text text-anchor="start" x="7.49463" y="-187.8" font-family="Times,serif" font-size="14.00">modul_id :integer</text>
<text text-anchor="start" x="7.49463" y="-173.8" font-family="Times,serif" font-size="14.00">created_at :datetime</text>
<text text-anchor="start" x="7.49463" y="-159.8" font-family="Times,serif" font-size="14.00">updated_at :datetime</text>
</g>
<!-- DelphiEstimation -->
<g id="node3" class="node"><title>DelphiEstimation</title>
<path fill="none" stroke="black" d="M295.495,-595C295.495,-595 404.505,-595 404.505,-595 410.505,-595 416.505,-601 416.505,-607 416.505,-607 416.505,-669 416.505,-669 416.505,-675 410.505,-681 404.505,-681 404.505,-681 295.495,-681 295.495,-681 289.495,-681 283.495,-675 283.495,-669 283.495,-669 283.495,-607 283.495,-607 283.495,-601 289.495,-595 295.495,-595"/>
<text text-anchor="middle" x="350" y="-665.8" font-family="Times,serif" font-size="14.00">DelphiEstimation</text>
<polyline fill="none" stroke="black" points="283.495,-659 416.505,-659 "/>
<text text-anchor="start" x="291.495" y="-643.8" font-family="Times,serif" font-size="14.00">id :INTEGER</text>
<text text-anchor="start" x="291.495" y="-629.8" font-family="Times,serif" font-size="14.00">p_id :integer</text>
<text text-anchor="start" x="291.495" y="-615.8" font-family="Times,serif" font-size="14.00">created_at :datetime</text>
<text text-anchor="start" x="291.495" y="-601.8" font-family="Times,serif" font-size="14.00">updated_at :datetime</text>
</g>
<!-- Round -->
<g id="node15" class="node"><title>Round</title>
<path fill="none" stroke="black" d="M274.098,-443C274.098,-443 425.902,-443 425.902,-443 431.902,-443 437.902,-449 437.902,-455 437.902,-455 437.902,-545 437.902,-545 437.902,-551 431.902,-557 425.902,-557 425.902,-557 274.098,-557 274.098,-557 268.098,-557 262.098,-551 262.098,-545 262.098,-545 262.098,-455 262.098,-455 262.098,-449 268.098,-443 274.098,-443"/>
<text text-anchor="middle" x="350" y="-541.8" font-family="Times,serif" font-size="14.00">Round</text>
<polyline fill="none" stroke="black" points="262.098,-535 437.902,-535 "/>
<text text-anchor="start" x="270.098" y="-519.8" font-family="Times,serif" font-size="14.00">id :INTEGER</text>
<text text-anchor="start" x="270.098" y="-505.8" font-family="Times,serif" font-size="14.00">delphiEstimation_id :integer</text>
<text text-anchor="start" x="270.098" y="-491.8" font-family="Times,serif" font-size="14.00">count :integer</text>
<text text-anchor="start" x="270.098" y="-477.8" font-family="Times,serif" font-size="14.00">closed :boolean</text>
<text text-anchor="start" x="270.098" y="-463.8" font-family="Times,serif" font-size="14.00">created_at :datetime</text>
<text text-anchor="start" x="270.098" y="-449.8" font-family="Times,serif" font-size="14.00">updated_at :datetime</text>
</g>
<!-- DelphiEstimation&#45;&gt;Round -->
<g id="edge1" class="edge"><title>DelphiEstimation&#45;&gt;Round</title>
<path fill="none" stroke="#724204" d="M350,-586.491C350,-580.24 350,-573.778 350,-567.335"/>
<ellipse fill="none" stroke="#724204" cx="350" cy="-590.714" rx="4" ry="4"/>
<polygon fill="#724204" stroke="#724204" points="350,-567.261 354.5,-557.261 350,-562.261 350,-557.261 350,-557.261 350,-557.261 350,-562.261 345.5,-557.261 350,-567.261 350,-567.261"/>
</g>
<!-- Estimation -->
<g id="node4" class="node"><title>Estimation</title>
<path fill="none" stroke="black" d="M162.612,-153C162.612,-153 293.388,-153 293.388,-153 299.388,-153 305.388,-159 305.388,-165 305.388,-165 305.388,-241 305.388,-241 305.388,-247 299.388,-253 293.388,-253 293.388,-253 162.612,-253 162.612,-253 156.612,-253 150.612,-247 150.612,-241 150.612,-241 150.612,-165 150.612,-165 150.612,-159 156.612,-153 162.612,-153"/>
<text text-anchor="middle" x="228" y="-237.8" font-family="Times,serif" font-size="14.00">Estimation</text>
<polyline fill="none" stroke="black" points="150.612,-231 305.388,-231 "/>
<text text-anchor="start" x="158.612" y="-215.8" font-family="Times,serif" font-size="14.00">id :INTEGER</text>
<text text-anchor="start" x="158.612" y="-201.8" font-family="Times,serif" font-size="14.00">workpackage_id :integer</text>
<text text-anchor="start" x="158.612" y="-187.8" font-family="Times,serif" font-size="14.00">duration :integer</text>
<text text-anchor="start" x="158.612" y="-173.8" font-family="Times,serif" font-size="14.00">created_at :datetime</text>
<text text-anchor="start" x="158.612" y="-159.8" font-family="Times,serif" font-size="14.00">updated_at :datetime</text>
</g>
<!-- Workpackage -->
<g id="node21" class="node"><title>Workpackage</title>
<path fill="none" stroke="black" d="M348.495,-1C348.495,-1 457.505,-1 457.505,-1 463.505,-1 469.505,-7 469.505,-13 469.505,-13 469.505,-89 469.505,-89 469.505,-95 463.505,-101 457.505,-101 457.505,-101 348.495,-101 348.495,-101 342.495,-101 336.495,-95 336.495,-89 336.495,-89 336.495,-13 336.495,-13 336.495,-7 342.495,-1 348.495,-1"/>
<text text-anchor="middle" x="403" y="-85.8" font-family="Times,serif" font-size="14.00">Workpackage</text>
<polyline fill="none" stroke="black" points="336.495,-79 469.505,-79 "/>
<text text-anchor="start" x="344.495" y="-63.8" font-family="Times,serif" font-size="14.00">id :INTEGER</text>
<text text-anchor="start" x="344.495" y="-49.8" font-family="Times,serif" font-size="14.00">name :varchar</text>
<text text-anchor="start" x="344.495" y="-35.8" font-family="Times,serif" font-size="14.00">subtask_id :integer</text>
<text text-anchor="start" x="344.495" y="-21.8" font-family="Times,serif" font-size="14.00">created_at :datetime</text>
<text text-anchor="start" x="344.495" y="-7.8" font-family="Times,serif" font-size="14.00">updated_at :datetime</text>
</g>
<!-- Estimation&#45;&gt;Workpackage -->
<g id="edge2" class="edge"><title>Estimation&#45;&gt;Workpackage</title>
<path fill="none" stroke="#940bda" d="M291.722,-147.381C307.27,-134.054 323.903,-119.798 339.444,-106.477"/>
<ellipse fill="none" stroke="#940bda" cx="288.339" cy="-150.281" rx="4.00002" ry="4.00002"/>
<ellipse fill="#940bda" stroke="#940bda" cx="342.533" cy="-103.829" rx="4.00002" ry="4.00002"/>
</g>
<!-- EstimationTemplate -->
<g id="node5" class="node"><title>EstimationTemplate</title>
<path fill="none" stroke="black" d="M335.376,-146C335.376,-146 470.624,-146 470.624,-146 476.624,-146 482.624,-152 482.624,-158 482.624,-158 482.624,-248 482.624,-248 482.624,-254 476.624,-260 470.624,-260 470.624,-260 335.376,-260 335.376,-260 329.376,-260 323.376,-254 323.376,-248 323.376,-248 323.376,-158 323.376,-158 323.376,-152 329.376,-146 335.376,-146"/>
<text text-anchor="middle" x="403" y="-244.8" font-family="Times,serif" font-size="14.00">EstimationTemplate</text>
<polyline fill="none" stroke="black" points="323.376,-238 482.624,-238 "/>
<text text-anchor="start" x="331.376" y="-222.8" font-family="Times,serif" font-size="14.00">id :INTEGER</text>
<text text-anchor="start" x="331.376" y="-208.8" font-family="Times,serif" font-size="14.00">formTemplate_id :integer</text>
<text text-anchor="start" x="331.376" y="-194.8" font-family="Times,serif" font-size="14.00">workpackage_id :integer</text>
<text text-anchor="start" x="331.376" y="-180.8" font-family="Times,serif" font-size="14.00">comment :varchar</text>
<text text-anchor="start" x="331.376" y="-166.8" font-family="Times,serif" font-size="14.00">created_at :datetime</text>
<text text-anchor="start" x="331.376" y="-152.8" font-family="Times,serif" font-size="14.00">updated_at :datetime</text>
</g>
<!-- EstimationTemplate&#45;&gt;Workpackage -->
<g id="edge3" class="edge"><title>EstimationTemplate&#45;&gt;Workpackage</title>
<path fill="none" stroke="#059a6d" d="M403,-137.398C403,-128.112 403,-118.61 403,-109.475"/>
<ellipse fill="none" stroke="#059a6d" cx="403" cy="-141.719" rx="4" ry="4"/>
<ellipse fill="#059a6d" stroke="#059a6d" cx="403" cy="-105.206" rx="4" ry="4"/>
</g>
<!-- ExpertForm -->
<g id="node6" class="node"><title>ExpertForm</title>
<path fill="none" stroke="black" d="M179.119,-305C179.119,-305 288.881,-305 288.881,-305 294.881,-305 300.881,-311 300.881,-317 300.881,-317 300.881,-393 300.881,-393 300.881,-399 294.881,-405 288.881,-405 288.881,-405 179.119,-405 179.119,-405 173.119,-405 167.119,-399 167.119,-393 167.119,-393 167.119,-317 167.119,-317 167.119,-311 173.119,-305 179.119,-305"/>
<text text-anchor="middle" x="234" y="-389.8" font-family="Times,serif" font-size="14.00">ExpertForm</text>
<polyline fill="none" stroke="black" points="167.119,-383 300.881,-383 "/>
<text text-anchor="start" x="175.119" y="-367.8" font-family="Times,serif" font-size="14.00">id :INTEGER</text>
<text text-anchor="start" x="175.119" y="-353.8" font-family="Times,serif" font-size="14.00">round_id :integer</text>
<text text-anchor="start" x="175.119" y="-339.8" font-family="Times,serif" font-size="14.00">expertName :varchar</text>
<text text-anchor="start" x="175.119" y="-325.8" font-family="Times,serif" font-size="14.00">created_at :datetime</text>
<text text-anchor="start" x="175.119" y="-311.8" font-family="Times,serif" font-size="14.00">updated_at :datetime</text>
</g>
<!-- ExpertForm&#45;&gt;Estimation -->
<g id="edge4" class="edge"><title>ExpertForm&#45;&gt;Estimation</title>
<path fill="none" stroke="#cc0112" d="M231.704,-296.588C231.27,-285.753 230.816,-274.399 230.38,-263.502"/>
<ellipse fill="none" stroke="#cc0112" cx="231.875" cy="-300.888" rx="4" ry="4"/>
<polygon fill="#cc0112" stroke="#cc0112" points="230.369,-263.218 234.465,-253.046 230.169,-258.222 229.969,-253.226 229.969,-253.226 229.969,-253.226 230.169,-258.222 225.473,-253.406 230.369,-263.218 230.369,-263.218"/>
</g>
<!-- FormTemplate -->
<g id="node7" class="node"><title>FormTemplate</title>
<path fill="none" stroke="black" d="M336.495,-312C336.495,-312 445.505,-312 445.505,-312 451.505,-312 457.505,-318 457.505,-324 457.505,-324 457.505,-386 457.505,-386 457.505,-392 451.505,-398 445.505,-398 445.505,-398 336.495,-398 336.495,-398 330.495,-398 324.495,-392 324.495,-386 324.495,-386 324.495,-324 324.495,-324 324.495,-318 330.495,-312 336.495,-312"/>
<text text-anchor="middle" x="391" y="-382.8" font-family="Times,serif" font-size="14.00">FormTemplate</text>
<polyline fill="none" stroke="black" points="324.495,-376 457.505,-376 "/>
<text text-anchor="start" x="332.495" y="-360.8" font-family="Times,serif" font-size="14.00">id :INTEGER</text>
<text text-anchor="start" x="332.495" y="-346.8" font-family="Times,serif" font-size="14.00">round_id :integer</text>
<text text-anchor="start" x="332.495" y="-332.8" font-family="Times,serif" font-size="14.00">created_at :datetime</text>
<text text-anchor="start" x="332.495" y="-318.8" font-family="Times,serif" font-size="14.00">updated_at :datetime</text>
</g>
<!-- FormTemplate&#45;&gt;EstimationTemplate -->
<g id="edge5" class="edge"><title>FormTemplate&#45;&gt;EstimationTemplate</title>
<path fill="none" stroke="#b9e43c" d="M395.021,-303.743C395.878,-293.027 396.796,-281.552 397.693,-270.339"/>
<ellipse fill="none" stroke="#b9e43c" cx="394.694" cy="-307.83" rx="4" ry="4"/>
<polygon fill="#b9e43c" stroke="#b9e43c" points="397.711,-270.112 402.994,-260.503 398.11,-265.128 398.509,-260.144 398.509,-260.144 398.509,-260.144 398.11,-265.128 394.023,-259.785 397.711,-270.112 397.711,-270.112"/>
</g>
<!-- Modul -->
<g id="node8" class="node"><title>Modul</title>
<path fill="none" stroke="black" d="M15.8188,-305C15.8188,-305 134.181,-305 134.181,-305 140.181,-305 146.181,-311 146.181,-317 146.181,-317 146.181,-393 146.181,-393 146.181,-399 140.181,-405 134.181,-405 134.181,-405 15.8188,-405 15.8188,-405 9.81885,-405 3.81885,-399 3.81885,-393 3.81885,-393 3.81885,-317 3.81885,-317 3.81885,-311 9.81885,-305 15.8188,-305"/>
<text text-anchor="middle" x="75" y="-389.8" font-family="Times,serif" font-size="14.00">Modul</text>
<polyline fill="none" stroke="black" points="3.81885,-383 146.181,-383 "/>
<text text-anchor="start" x="11.8188" y="-367.8" font-family="Times,serif" font-size="14.00">id :INTEGER</text>
<text text-anchor="start" x="11.8188" y="-353.8" font-family="Times,serif" font-size="14.00">name :varchar</text>
<text text-anchor="start" x="11.8188" y="-339.8" font-family="Times,serif" font-size="14.00">subproduct_id :integer</text>
<text text-anchor="start" x="11.8188" y="-325.8" font-family="Times,serif" font-size="14.00">created_at :datetime</text>
<text text-anchor="start" x="11.8188" y="-311.8" font-family="Times,serif" font-size="14.00">updated_at :datetime</text>
</g>
<!-- Modul&#45;&gt;Component -->
<g id="edge6" class="edge"><title>Modul&#45;&gt;Component</title>
<path fill="none" stroke="#e71622" d="M71.5553,-296.588C70.9052,-285.753 70.224,-274.399 69.5701,-263.502"/>
<ellipse fill="none" stroke="#e71622" cx="71.8134" cy="-300.892" rx="4" ry="4"/>
<polygon fill="#e71622" stroke="#e71622" points="69.5526,-263.208 73.4455,-252.956 69.2531,-258.217 68.9536,-253.226 68.9536,-253.226 68.9536,-253.226 69.2531,-258.217 64.4616,-253.496 69.5526,-263.208 69.5526,-263.208"/>
</g>
<!-- ProductBreakdownStructure -->
<g id="node9" class="node"><title>ProductBreakdownStructure</title>
<path fill="none" stroke="black" d="M75.2964,-595C75.2964,-595 226.704,-595 226.704,-595 232.704,-595 238.704,-601 238.704,-607 238.704,-607 238.704,-669 238.704,-669 238.704,-675 232.704,-681 226.704,-681 226.704,-681 75.2964,-681 75.2964,-681 69.2964,-681 63.2964,-675 63.2964,-669 63.2964,-669 63.2964,-607 63.2964,-607 63.2964,-601 69.2964,-595 75.2964,-595"/>
<text text-anchor="middle" x="151" y="-665.8" font-family="Times,serif" font-size="14.00">ProductBreakdownStructure</text>
<polyline fill="none" stroke="black" points="63.2964,-659 238.704,-659 "/>
<text text-anchor="start" x="71.2964" y="-643.8" font-family="Times,serif" font-size="14.00">id :INTEGER</text>
<text text-anchor="start" x="71.2964" y="-629.8" font-family="Times,serif" font-size="14.00">p_id :integer</text>
<text text-anchor="start" x="71.2964" y="-615.8" font-family="Times,serif" font-size="14.00">created_at :datetime</text>
<text text-anchor="start" x="71.2964" y="-601.8" font-family="Times,serif" font-size="14.00">updated_at :datetime</text>
</g>
<!-- Subproduct -->
<g id="node16" class="node"><title>Subproduct</title>
<path fill="none" stroke="black" d="M58.4946,-450C58.4946,-450 167.505,-450 167.505,-450 173.505,-450 179.505,-456 179.505,-462 179.505,-462 179.505,-538 179.505,-538 179.505,-544 173.505,-550 167.505,-550 167.505,-550 58.4946,-550 58.4946,-550 52.4946,-550 46.4946,-544 46.4946,-538 46.4946,-538 46.4946,-462 46.4946,-462 46.4946,-456 52.4946,-450 58.4946,-450"/>
<text text-anchor="middle" x="113" y="-534.8" font-family="Times,serif" font-size="14.00">Subproduct</text>
<polyline fill="none" stroke="black" points="46.4946,-528 179.505,-528 "/>
<text text-anchor="start" x="54.4946" y="-512.8" font-family="Times,serif" font-size="14.00">id :INTEGER</text>
<text text-anchor="start" x="54.4946" y="-498.8" font-family="Times,serif" font-size="14.00">name :varchar</text>
<text text-anchor="start" x="54.4946" y="-484.8" font-family="Times,serif" font-size="14.00">pbs_id :integer</text>
<text text-anchor="start" x="54.4946" y="-470.8" font-family="Times,serif" font-size="14.00">created_at :datetime</text>
<text text-anchor="start" x="54.4946" y="-456.8" font-family="Times,serif" font-size="14.00">updated_at :datetime</text>
</g>
<!-- ProductBreakdownStructure&#45;&gt;Subproduct -->
<g id="edge7" class="edge"><title>ProductBreakdownStructure&#45;&gt;Subproduct</title>
<path fill="none" stroke="#258f6d" d="M137.029,-586.999C134.579,-578.23 132.009,-569.031 129.498,-560.044"/>
<ellipse fill="none" stroke="#258f6d" cx="138.108" cy="-590.862" rx="4.00001" ry="4.00001"/>
<polygon fill="#258f6d" stroke="#258f6d" points="129.496,-560.037 131.139,-549.195 128.15,-555.221 126.805,-550.406 126.805,-550.406 126.805,-550.406 128.15,-555.221 122.471,-551.617 129.496,-560.037 129.496,-560.037"/>
</g>
<!-- Project -->
<g id="node10" class="node"><title>Project</title>
<path fill="none" stroke="black" d="M343.495,-719C343.495,-719 452.505,-719 452.505,-719 458.505,-719 464.505,-725 464.505,-731 464.505,-731 464.505,-793 464.505,-793 464.505,-799 458.505,-805 452.505,-805 452.505,-805 343.495,-805 343.495,-805 337.495,-805 331.495,-799 331.495,-793 331.495,-793 331.495,-731 331.495,-731 331.495,-725 337.495,-719 343.495,-719"/>
<text text-anchor="middle" x="398" y="-789.8" font-family="Times,serif" font-size="14.00">Project</text>
<polyline fill="none" stroke="black" points="331.495,-783 464.505,-783 "/>
<text text-anchor="start" x="339.495" y="-767.8" font-family="Times,serif" font-size="14.00">id :INTEGER</text>
<text text-anchor="start" x="339.495" y="-753.8" font-family="Times,serif" font-size="14.00">name :varchar</text>
<text text-anchor="start" x="339.495" y="-739.8" font-family="Times,serif" font-size="14.00">created_at :datetime</text>
<text text-anchor="start" x="339.495" y="-725.8" font-family="Times,serif" font-size="14.00">updated_at :datetime</text>
</g>
<!-- Project&#45;&gt;DelphiEstimation -->
<g id="edge11" class="edge"><title>Project&#45;&gt;DelphiEstimation</title>
<path fill="none" stroke="#791d74" d="M378.397,-711.175C375.527,-703.881 372.57,-696.366 369.699,-689.067"/>
<ellipse fill="none" stroke="#791d74" cx="379.882" cy="-714.95" rx="4.00001" ry="4.00001"/>
<ellipse fill="#791d74" stroke="#791d74" cx="368.088" cy="-684.975" rx="4.00001" ry="4.00001"/>
</g>
<!-- Project&#45;&gt;ProductBreakdownStructure -->
<g id="edge9" class="edge"><title>Project&#45;&gt;ProductBreakdownStructure</title>
<path fill="none" stroke="#6ca683" d="M324.337,-719.204C323.555,-718.799 322.776,-718.398 322,-718 297.766,-705.573 271.203,-692.871 246.39,-681.388"/>
<ellipse fill="none" stroke="#6ca683" cx="327.899" cy="-721.074" rx="4.00002" ry="4.00002"/>
<ellipse fill="#6ca683" stroke="#6ca683" cx="242.73" cy="-679.7" rx="4.00002" ry="4.00002"/>
</g>
<!-- ResourceBreakdownStructure -->
<g id="node13" class="node"><title>ResourceBreakdownStructure</title>
<path fill="none" stroke="black" d="M669.027,-595C669.027,-595 828.973,-595 828.973,-595 834.973,-595 840.973,-601 840.973,-607 840.973,-607 840.973,-669 840.973,-669 840.973,-675 834.973,-681 828.973,-681 828.973,-681 669.027,-681 669.027,-681 663.027,-681 657.027,-675 657.027,-669 657.027,-669 657.027,-607 657.027,-607 657.027,-601 663.027,-595 669.027,-595"/>
<text text-anchor="middle" x="749" y="-665.8" font-family="Times,serif" font-size="14.00">ResourceBreakdownStructure</text>
<polyline fill="none" stroke="black" points="657.027,-659 840.973,-659 "/>
<text text-anchor="start" x="665.027" y="-643.8" font-family="Times,serif" font-size="14.00">id :INTEGER</text>
<text text-anchor="start" x="665.027" y="-629.8" font-family="Times,serif" font-size="14.00">p_id :integer</text>
<text text-anchor="start" x="665.027" y="-615.8" font-family="Times,serif" font-size="14.00">created_at :datetime</text>
<text text-anchor="start" x="665.027" y="-601.8" font-family="Times,serif" font-size="14.00">updated_at :datetime</text>
</g>
<!-- Project&#45;&gt;ResourceBreakdownStructure -->
<g id="edge10" class="edge"><title>Project&#45;&gt;ResourceBreakdownStructure</title>
<path fill="none" stroke="#500abd" d="M472.46,-739.328C522.259,-724.357 589.035,-703.362 647,-682 647.71,-681.738 648.422,-681.475 649.137,-681.209"/>
<ellipse fill="none" stroke="#500abd" cx="468.449" cy="-740.53" rx="4.00001" ry="4.00001"/>
<ellipse fill="#500abd" stroke="#500abd" cx="653.116" cy="-679.705" rx="4.00001" ry="4.00001"/>
</g>
<!-- WorkBreakdownStructure -->
<g id="node20" class="node"><title>WorkBreakdownStructure</title>
<path fill="none" stroke="black" d="M475.691,-457C475.691,-457 614.309,-457 614.309,-457 620.309,-457 626.309,-463 626.309,-469 626.309,-469 626.309,-531 626.309,-531 626.309,-537 620.309,-543 614.309,-543 614.309,-543 475.691,-543 475.691,-543 469.691,-543 463.691,-537 463.691,-531 463.691,-531 463.691,-469 463.691,-469 463.691,-463 469.691,-457 475.691,-457"/>
<text text-anchor="middle" x="545" y="-527.8" font-family="Times,serif" font-size="14.00">WorkBreakdownStructure</text>
<polyline fill="none" stroke="black" points="463.691,-521 626.309,-521 "/>
<text text-anchor="start" x="471.691" y="-505.8" font-family="Times,serif" font-size="14.00">id :INTEGER</text>
<text text-anchor="start" x="471.691" y="-491.8" font-family="Times,serif" font-size="14.00">p_id :integer</text>
<text text-anchor="start" x="471.691" y="-477.8" font-family="Times,serif" font-size="14.00">created_at :datetime</text>
<text text-anchor="start" x="471.691" y="-463.8" font-family="Times,serif" font-size="14.00">updated_at :datetime</text>
</g>
<!-- Project&#45;&gt;WorkBreakdownStructure -->
<g id="edge8" class="edge"><title>Project&#45;&gt;WorkBreakdownStructure</title>
<path fill="none" stroke="#406950" d="M415.581,-711.146C430.588,-669.69 451.646,-614.31 464,-594 473.456,-578.454 485.56,-562.98 497.512,-549.244"/>
<ellipse fill="none" stroke="#406950" cx="414.21" cy="-714.951" rx="4.00001" ry="4.00001"/>
<ellipse fill="#406950" stroke="#406950" cx="500.332" cy="-546.057" rx="4.00002" ry="4.00002"/>
</g>
<!-- Resource -->
<g id="node11" class="node"><title>Resource</title>
<path fill="none" stroke="black" d="M683.329,-139C683.329,-139 794.671,-139 794.671,-139 800.671,-139 806.671,-145 806.671,-151 806.671,-151 806.671,-255 806.671,-255 806.671,-261 800.671,-267 794.671,-267 794.671,-267 683.329,-267 683.329,-267 677.329,-267 671.329,-261 671.329,-255 671.329,-255 671.329,-151 671.329,-151 671.329,-145 677.329,-139 683.329,-139"/>
<text text-anchor="middle" x="739" y="-251.8" font-family="Times,serif" font-size="14.00">Resource</text>
<polyline fill="none" stroke="black" points="671.329,-245 806.671,-245 "/>
<text text-anchor="start" x="679.329" y="-229.8" font-family="Times,serif" font-size="14.00">id :INTEGER</text>
<text text-anchor="start" x="679.329" y="-215.8" font-family="Times,serif" font-size="14.00">role_id :integer</text>
<text text-anchor="start" x="679.329" y="-201.8" font-family="Times,serif" font-size="14.00">qualification :varchar</text>
<text text-anchor="start" x="679.329" y="-187.8" font-family="Times,serif" font-size="14.00">experience :varchar</text>
<text text-anchor="start" x="679.329" y="-173.8" font-family="Times,serif" font-size="14.00">quantitiy :decimal</text>
<text text-anchor="start" x="679.329" y="-159.8" font-family="Times,serif" font-size="14.00">created_at :datetime</text>
<text text-anchor="start" x="679.329" y="-145.8" font-family="Times,serif" font-size="14.00">updated_at :datetime</text>
</g>
<!-- ResourceAllocationMatrix -->
<g id="node12" class="node"><title>ResourceAllocationMatrix</title>
<path fill="none" stroke="black" d="M485.355,-595C485.355,-595 626.645,-595 626.645,-595 632.645,-595 638.645,-601 638.645,-607 638.645,-607 638.645,-669 638.645,-669 638.645,-675 632.645,-681 626.645,-681 626.645,-681 485.355,-681 485.355,-681 479.355,-681 473.355,-675 473.355,-669 473.355,-669 473.355,-607 473.355,-607 473.355,-601 479.355,-595 485.355,-595"/>
<text text-anchor="middle" x="556" y="-665.8" font-family="Times,serif" font-size="14.00">ResourceAllocationMatrix</text>
<polyline fill="none" stroke="black" points="473.355,-659 638.645,-659 "/>
<text text-anchor="start" x="481.355" y="-643.8" font-family="Times,serif" font-size="14.00">id :INTEGER</text>
<text text-anchor="start" x="481.355" y="-629.8" font-family="Times,serif" font-size="14.00">p_id :integer</text>
<text text-anchor="start" x="481.355" y="-615.8" font-family="Times,serif" font-size="14.00">created_at :datetime</text>
<text text-anchor="start" x="481.355" y="-601.8" font-family="Times,serif" font-size="14.00">updated_at :datetime</text>
</g>
<!-- Role -->
<g id="node14" class="node"><title>Role</title>
<path fill="none" stroke="black" d="M684.495,-305C684.495,-305 793.505,-305 793.505,-305 799.505,-305 805.505,-311 805.505,-317 805.505,-317 805.505,-393 805.505,-393 805.505,-399 799.505,-405 793.505,-405 793.505,-405 684.495,-405 684.495,-405 678.495,-405 672.495,-399 672.495,-393 672.495,-393 672.495,-317 672.495,-317 672.495,-311 678.495,-305 684.495,-305"/>
<text text-anchor="middle" x="739" y="-389.8" font-family="Times,serif" font-size="14.00">Role</text>
<polyline fill="none" stroke="black" points="672.495,-383 805.505,-383 "/>
<text text-anchor="start" x="680.495" y="-367.8" font-family="Times,serif" font-size="14.00">id :INTEGER</text>
<text text-anchor="start" x="680.495" y="-353.8" font-family="Times,serif" font-size="14.00">name :varchar</text>
<text text-anchor="start" x="680.495" y="-339.8" font-family="Times,serif" font-size="14.00">type_id :integer</text>
<text text-anchor="start" x="680.495" y="-325.8" font-family="Times,serif" font-size="14.00">created_at :datetime</text>
<text text-anchor="start" x="680.495" y="-311.8" font-family="Times,serif" font-size="14.00">updated_at :datetime</text>
</g>
<!-- ResourceAllocationMatrix&#45;&gt;Role -->
<g id="edge13" class="edge"><title>ResourceAllocationMatrix&#45;&gt;Role</title>
<path fill="none" stroke="#404be9" d="M611.114,-588.816C619.95,-579.257 628.357,-568.812 635,-558 663.402,-511.777 647.68,-489.98 673,-442 678.044,-432.442 684.146,-422.845 690.577,-413.707"/>
<ellipse fill="none" stroke="#404be9" cx="608.325" cy="-591.75" rx="4.00002" ry="4.00002"/>
<polygon fill="#404be9" stroke="#404be9" points="690.686,-413.556 700.199,-408.1 693.621,-409.508 696.555,-405.459 696.555,-405.459 696.555,-405.459 693.621,-409.508 692.911,-402.818 690.686,-413.556 690.686,-413.556"/>
</g>
<!-- ResourceAllocationMatrix&#45;&gt;WorkBreakdownStructure -->
<g id="edge12" class="edge"><title>ResourceAllocationMatrix&#45;&gt;WorkBreakdownStructure</title>
<path fill="none" stroke="#99b37a" d="M551.914,-586.487C550.989,-575.042 550.006,-562.888 549.08,-551.445"/>
<ellipse fill="none" stroke="#99b37a" cx="552.257" cy="-590.727" rx="4" ry="4"/>
<ellipse fill="#99b37a" stroke="#99b37a" cx="548.741" cy="-547.247" rx="4" ry="4"/>
</g>
<!-- Type -->
<g id="node19" class="node"><title>Type</title>
<path fill="none" stroke="black" d="M694.495,-450C694.495,-450 803.505,-450 803.505,-450 809.505,-450 815.505,-456 815.505,-462 815.505,-462 815.505,-538 815.505,-538 815.505,-544 809.505,-550 803.505,-550 803.505,-550 694.495,-550 694.495,-550 688.495,-550 682.495,-544 682.495,-538 682.495,-538 682.495,-462 682.495,-462 682.495,-456 688.495,-450 694.495,-450"/>
<text text-anchor="middle" x="749" y="-534.8" font-family="Times,serif" font-size="14.00">Type</text>
<polyline fill="none" stroke="black" points="682.495,-528 815.505,-528 "/>
<text text-anchor="start" x="690.495" y="-512.8" font-family="Times,serif" font-size="14.00">id :INTEGER</text>
<text text-anchor="start" x="690.495" y="-498.8" font-family="Times,serif" font-size="14.00">name :varchar</text>
<text text-anchor="start" x="690.495" y="-484.8" font-family="Times,serif" font-size="14.00">rbs_id :integer</text>
<text text-anchor="start" x="690.495" y="-470.8" font-family="Times,serif" font-size="14.00">created_at :datetime</text>
<text text-anchor="start" x="690.495" y="-456.8" font-family="Times,serif" font-size="14.00">updated_at :datetime</text>
</g>
<!-- ResourceBreakdownStructure&#45;&gt;Type -->
<g id="edge14" class="edge"><title>ResourceBreakdownStructure&#45;&gt;Type</title>
<path fill="none" stroke="#902c67" d="M749,-586.658C749,-578.146 749,-569.238 749,-560.519"/>
<ellipse fill="none" stroke="#902c67" cx="749" cy="-590.714" rx="4" ry="4"/>
<polygon fill="#902c67" stroke="#902c67" points="749,-560.406 753.5,-550.406 749,-555.406 749,-550.406 749,-550.406 749,-550.406 749,-555.406 744.5,-550.406 749,-560.406 749,-560.406"/>
</g>
<!-- Role&#45;&gt;Resource -->
<g id="edge15" class="edge"><title>Role&#45;&gt;Resource</title>
<path fill="none" stroke="#f62fad" d="M739,-296.848C739,-290.48 739,-283.929 739,-277.395"/>
<ellipse fill="none" stroke="#f62fad" cx="739" cy="-300.884" rx="4" ry="4"/>
<polygon fill="#f62fad" stroke="#f62fad" points="739,-277.169 743.5,-267.169 739,-272.169 739,-267.169 739,-267.169 739,-267.169 739,-272.169 734.5,-267.169 739,-277.169 739,-277.169"/>
</g>
<!-- Round&#45;&gt;ExpertForm -->
<g id="edge16" class="edge"><title>Round&#45;&gt;ExpertForm</title>
<path fill="none" stroke="#9a23af" d="M299.276,-436.469C293.09,-428.844 286.793,-421.081 280.671,-413.534"/>
<ellipse fill="none" stroke="#9a23af" cx="301.967" cy="-439.787" rx="4.00002" ry="4.00002"/>
<polygon fill="#9a23af" stroke="#9a23af" points="280.41,-413.212 277.604,-402.611 277.26,-409.329 274.11,-405.446 274.11,-405.446 274.11,-405.446 277.26,-409.329 270.615,-408.281 280.41,-413.212 280.41,-413.212"/>
</g>
<!-- Round&#45;&gt;FormTemplate -->
<g id="edge17" class="edge"><title>Round&#45;&gt;FormTemplate</title>
<path fill="none" stroke="#6eb14c" d="M368.304,-435.159C371.106,-425.385 373.964,-415.419 376.664,-406.001"/>
<ellipse fill="none" stroke="#6eb14c" cx="367.189" cy="-439.048" rx="4.00001" ry="4.00001"/>
<ellipse fill="#6eb14c" stroke="#6eb14c" cx="377.788" cy="-402.08" rx="4.00001" ry="4.00001"/>
</g>
<!-- Subproduct&#45;&gt;Modul -->
<g id="edge18" class="edge"><title>Subproduct&#45;&gt;Modul</title>
<path fill="none" stroke="#52441b" d="M97.8323,-441.921C95.4922,-433.115 93.0713,-424.005 90.7194,-415.155"/>
<ellipse fill="none" stroke="#52441b" cx="98.8952" cy="-445.922" rx="4.00001" ry="4.00001"/>
<polygon fill="#52441b" stroke="#52441b" points="90.6698,-414.968 92.4506,-404.147 89.3857,-410.135 88.1015,-405.303 88.1015,-405.303 88.1015,-405.303 89.3857,-410.135 83.7525,-406.459 90.6698,-414.968 90.6698,-414.968"/>
</g>
<!-- Subtask -->
<g id="node17" class="node"><title>Subtask</title>
<path fill="none" stroke="black" d="M512.495,-153C512.495,-153 621.505,-153 621.505,-153 627.505,-153 633.505,-159 633.505,-165 633.505,-165 633.505,-241 633.505,-241 633.505,-247 627.505,-253 621.505,-253 621.505,-253 512.495,-253 512.495,-253 506.495,-253 500.495,-247 500.495,-241 500.495,-241 500.495,-165 500.495,-165 500.495,-159 506.495,-153 512.495,-153"/>
<text text-anchor="middle" x="567" y="-237.8" font-family="Times,serif" font-size="14.00">Subtask</text>
<polyline fill="none" stroke="black" points="500.495,-231 633.505,-231 "/>
<text text-anchor="start" x="508.495" y="-215.8" font-family="Times,serif" font-size="14.00">id :INTEGER</text>
<text text-anchor="start" x="508.495" y="-201.8" font-family="Times,serif" font-size="14.00">name :varchar</text>
<text text-anchor="start" x="508.495" y="-187.8" font-family="Times,serif" font-size="14.00">task_id :integer</text>
<text text-anchor="start" x="508.495" y="-173.8" font-family="Times,serif" font-size="14.00">created_at :datetime</text>
<text text-anchor="start" x="508.495" y="-159.8" font-family="Times,serif" font-size="14.00">updated_at :datetime</text>
</g>
<!-- Subtask&#45;&gt;Workpackage -->
<g id="edge19" class="edge"><title>Subtask&#45;&gt;Workpackage</title>
<path fill="none" stroke="#8bd27b" d="M507.284,-147.381C493.357,-134.644 478.503,-121.057 464.5,-108.25"/>
<ellipse fill="none" stroke="#8bd27b" cx="510.349" cy="-150.185" rx="4.00002" ry="4.00002"/>
<polygon fill="#8bd27b" stroke="#8bd27b" points="464.199,-107.975 459.857,-97.9054 460.51,-104.601 456.82,-101.226 456.82,-101.226 456.82,-101.226 460.51,-104.601 453.783,-104.547 464.199,-107.975 464.199,-107.975"/>
</g>
<!-- Task -->
<g id="node18" class="node"><title>Task</title>
<path fill="none" stroke="black" d="M500.495,-305C500.495,-305 609.505,-305 609.505,-305 615.505,-305 621.505,-311 621.505,-317 621.505,-317 621.505,-393 621.505,-393 621.505,-399 615.505,-405 609.505,-405 609.505,-405 500.495,-405 500.495,-405 494.495,-405 488.495,-399 488.495,-393 488.495,-393 488.495,-317 488.495,-317 488.495,-311 494.495,-305 500.495,-305"/>
<text text-anchor="middle" x="555" y="-389.8" font-family="Times,serif" font-size="14.00">Task</text>
<polyline fill="none" stroke="black" points="488.495,-383 621.505,-383 "/>
<text text-anchor="start" x="496.495" y="-367.8" font-family="Times,serif" font-size="14.00">id :INTEGER</text>
<text text-anchor="start" x="496.495" y="-353.8" font-family="Times,serif" font-size="14.00">name :varchar</text>
<text text-anchor="start" x="496.495" y="-339.8" font-family="Times,serif" font-size="14.00">wbs_id :integer</text>
<text text-anchor="start" x="496.495" y="-325.8" font-family="Times,serif" font-size="14.00">created_at :datetime</text>
<text text-anchor="start" x="496.495" y="-311.8" font-family="Times,serif" font-size="14.00">updated_at :datetime</text>
</g>
<!-- Task&#45;&gt;Subtask -->
<g id="edge20" class="edge"><title>Task&#45;&gt;Subtask</title>
<path fill="none" stroke="#7c9cda" d="M559.593,-296.588C560.46,-285.753 561.368,-274.399 562.24,-263.502"/>
<ellipse fill="none" stroke="#7c9cda" cx="559.248" cy="-300.897" rx="4" ry="4"/>
<polygon fill="#7c9cda" stroke="#7c9cda" points="562.264,-263.194 567.548,-253.585 562.663,-258.21 563.062,-253.226 563.062,-253.226 563.062,-253.226 562.663,-258.21 558.576,-252.867 562.264,-263.194 562.264,-263.194"/>
</g>
<!-- Type&#45;&gt;Role -->
<g id="edge21" class="edge"><title>Type&#45;&gt;Role</title>
<path fill="none" stroke="#4462d7" d="M744.984,-441.575C744.38,-432.939 743.756,-424.018 743.15,-415.342"/>
<ellipse fill="none" stroke="#4462d7" cx="745.279" cy="-445.797" rx="4" ry="4"/>
<polygon fill="#4462d7" stroke="#4462d7" points="743.145,-415.279 746.937,-404.989 742.797,-410.291 742.448,-405.303 742.448,-405.303 742.448,-405.303 742.797,-410.291 737.959,-405.617 743.145,-415.279 743.145,-415.279"/>
</g>
<!-- WorkBreakdownStructure&#45;&gt;Task -->
<g id="edge22" class="edge"><title>WorkBreakdownStructure&#45;&gt;Task</title>
<path fill="none" stroke="#08e61a" d="M548.517,-448.702C549.274,-437.875 550.081,-426.335 550.86,-415.205"/>
<ellipse fill="none" stroke="#08e61a" cx="548.225" cy="-452.878" rx="4" ry="4"/>
<polygon fill="#08e61a" stroke="#08e61a" points="550.867,-415.107 556.053,-405.445 551.215,-410.119 551.564,-405.131 551.564,-405.131 551.564,-405.131 551.215,-410.119 547.075,-404.817 550.867,-415.107 550.867,-415.107"/>
</g>
</g>
</svg>
