<?xml version="1.0" encoding="UTF-8" standalone="no"?>
<!DOCTYPE svg PUBLIC "-//W3C//DTD SVG 1.1//EN"
 "http://www.w3.org/Graphics/SVG/1.1/DTD/svg11.dtd">
<!-- Generated by graphviz version 2.36.0 (20140111.2315)
 -->
<!-- Title: models_diagram Pages: 1 -->
<svg width="840pt" height="1132pt"
 viewBox="0.00 0.00 840.00 1132.00" xmlns="http://www.w3.org/2000/svg" xmlns:xlink="http://www.w3.org/1999/xlink">
<g id="graph0" class="graph" transform="scale(1 1) rotate(0) translate(4 1128)">
<title>models_diagram</title>
<polygon fill="none" stroke="none" points="-4,4 -4,-1128 836,-1128 836,4 -4,4"/>
<!-- _diagram_info -->
<g id="node1" class="node"><title>_diagram_info</title>
<text text-anchor="start" x="186.312" y="-1102.1" font-family="Times,serif" font-size="13.00">Models diagram</text>
<text text-anchor="start" x="186.312" y="-1089.1" font-family="Times,serif" font-size="13.00">Date: Jan 28 2016 &#45; 10:25</text>
<text text-anchor="start" x="186.312" y="-1076.1" font-family="Times,serif" font-size="13.00">Migration version: 20160127163157</text>
<text text-anchor="start" x="186.312" y="-1063.1" font-family="Times,serif" font-size="13.00">Generated by RailRoady 1.4.2</text>
<text text-anchor="start" x="186.312" y="-1050.1" font-family="Times,serif" font-size="13.00">http://railroady.prestonlee.com</text>
</g>
<!-- Component -->
<g id="node2" class="node"><title>Component</title>
<path fill="none" stroke="black" d="M386.495,-15C386.495,-15 495.505,-15 495.505,-15 501.505,-15 507.505,-21 507.505,-27 507.505,-27 507.505,-103 507.505,-103 507.505,-109 501.505,-115 495.505,-115 495.505,-115 386.495,-115 386.495,-115 380.495,-115 374.495,-109 374.495,-103 374.495,-103 374.495,-27 374.495,-27 374.495,-21 380.495,-15 386.495,-15"/>
<text text-anchor="middle" x="441" y="-99.8" font-family="Times,serif" font-size="14.00">Component</text>
<polyline fill="none" stroke="black" points="374.495,-93 507.505,-93 "/>
<text text-anchor="start" x="382.495" y="-77.8" font-family="Times,serif" font-size="14.00">id :INTEGER</text>
<text text-anchor="start" x="382.495" y="-63.8" font-family="Times,serif" font-size="14.00">name :varchar</text>
<text text-anchor="start" x="382.495" y="-49.8" font-family="Times,serif" font-size="14.00">modul_id :integer</text>
<text text-anchor="start" x="382.495" y="-35.8" font-family="Times,serif" font-size="14.00">created_at :datetime</text>
<text text-anchor="start" x="382.495" y="-21.8" font-family="Times,serif" font-size="14.00">updated_at :datetime</text>
</g>
<!-- DelphiEstimation -->
<g id="node3" class="node"><title>DelphiEstimation</title>
<path fill="none" stroke="black" d="M274.495,-913C274.495,-913 383.505,-913 383.505,-913 389.505,-913 395.505,-919 395.505,-925 395.505,-925 395.505,-987 395.505,-987 395.505,-993 389.505,-999 383.505,-999 383.505,-999 274.495,-999 274.495,-999 268.495,-999 262.495,-993 262.495,-987 262.495,-987 262.495,-925 262.495,-925 262.495,-919 268.495,-913 274.495,-913"/>
<text text-anchor="middle" x="329" y="-983.8" font-family="Times,serif" font-size="14.00">DelphiEstimation</text>
<polyline fill="none" stroke="black" points="262.495,-977 395.505,-977 "/>
<text text-anchor="start" x="270.495" y="-961.8" font-family="Times,serif" font-size="14.00">id :INTEGER</text>
<text text-anchor="start" x="270.495" y="-947.8" font-family="Times,serif" font-size="14.00">p_id :integer</text>
<text text-anchor="start" x="270.495" y="-933.8" font-family="Times,serif" font-size="14.00">created_at :datetime</text>
<text text-anchor="start" x="270.495" y="-919.8" font-family="Times,serif" font-size="14.00">updated_at :datetime</text>
</g>
<!-- Round -->
<g id="node18" class="node"><title>Round</title>
<path fill="none" stroke="black" d="M208.098,-761C208.098,-761 359.902,-761 359.902,-761 365.902,-761 371.902,-767 371.902,-773 371.902,-773 371.902,-863 371.902,-863 371.902,-869 365.902,-875 359.902,-875 359.902,-875 208.098,-875 208.098,-875 202.098,-875 196.098,-869 196.098,-863 196.098,-863 196.098,-773 196.098,-773 196.098,-767 202.098,-761 208.098,-761"/>
<text text-anchor="middle" x="284" y="-859.8" font-family="Times,serif" font-size="14.00">Round</text>
<polyline fill="none" stroke="black" points="196.098,-853 371.902,-853 "/>
<text text-anchor="start" x="204.098" y="-837.8" font-family="Times,serif" font-size="14.00">id :INTEGER</text>
<text text-anchor="start" x="204.098" y="-823.8" font-family="Times,serif" font-size="14.00">delphiEstimation_id :integer</text>
<text text-anchor="start" x="204.098" y="-809.8" font-family="Times,serif" font-size="14.00">count :integer</text>
<text text-anchor="start" x="204.098" y="-795.8" font-family="Times,serif" font-size="14.00">closed :boolean</text>
<text text-anchor="start" x="204.098" y="-781.8" font-family="Times,serif" font-size="14.00">created_at :datetime</text>
<text text-anchor="start" x="204.098" y="-767.8" font-family="Times,serif" font-size="14.00">updated_at :datetime</text>
</g>
<!-- DelphiEstimation&#45;&gt;Round -->
<g id="edge1" class="edge"><title>DelphiEstimation&#45;&gt;Round</title>
<path fill="none" stroke="#463688" d="M312.478,-905.068C310.323,-898.552 308.088,-891.799 305.862,-885.07"/>
<ellipse fill="none" stroke="#463688" cx="313.752" cy="-908.917" rx="4.00001" ry="4.00001"/>
<polygon fill="#463688" stroke="#463688" points="305.757,-884.755 306.888,-873.848 304.187,-880.008 302.616,-875.261 302.616,-875.261 302.616,-875.261 304.187,-880.008 298.344,-876.675 305.757,-884.755 305.757,-884.755"/>
</g>
<!-- Estimation -->
<g id="node4" class="node"><title>Estimation</title>
<path fill="none" stroke="black" d="M357.612,-471C357.612,-471 488.388,-471 488.388,-471 494.388,-471 500.388,-477 500.388,-483 500.388,-483 500.388,-573 500.388,-573 500.388,-579 494.388,-585 488.388,-585 488.388,-585 357.612,-585 357.612,-585 351.612,-585 345.612,-579 345.612,-573 345.612,-573 345.612,-483 345.612,-483 345.612,-477 351.612,-471 357.612,-471"/>
<text text-anchor="middle" x="423" y="-569.8" font-family="Times,serif" font-size="14.00">Estimation</text>
<polyline fill="none" stroke="black" points="345.612,-563 500.388,-563 "/>
<text text-anchor="start" x="353.612" y="-547.8" font-family="Times,serif" font-size="14.00">id :INTEGER</text>
<text text-anchor="start" x="353.612" y="-533.8" font-family="Times,serif" font-size="14.00">expert_form_id :integer</text>
<text text-anchor="start" x="353.612" y="-519.8" font-family="Times,serif" font-size="14.00">workpackage_id :integer</text>
<text text-anchor="start" x="353.612" y="-505.8" font-family="Times,serif" font-size="14.00">duration :integer</text>
<text text-anchor="start" x="353.612" y="-491.8" font-family="Times,serif" font-size="14.00">created_at :datetime</text>
<text text-anchor="start" x="353.612" y="-477.8" font-family="Times,serif" font-size="14.00">updated_at :datetime</text>
</g>
<!-- Workpackage -->
<g id="node24" class="node"><title>Workpackage</title>
<path fill="none" stroke="black" d="M352.495,-333C352.495,-333 461.505,-333 461.505,-333 467.505,-333 473.505,-339 473.505,-345 473.505,-345 473.505,-421 473.505,-421 473.505,-427 467.505,-433 461.505,-433 461.505,-433 352.495,-433 352.495,-433 346.495,-433 340.495,-427 340.495,-421 340.495,-421 340.495,-345 340.495,-345 340.495,-339 346.495,-333 352.495,-333"/>
<text text-anchor="middle" x="407" y="-417.8" font-family="Times,serif" font-size="14.00">Workpackage</text>
<polyline fill="none" stroke="black" points="340.495,-411 473.505,-411 "/>
<text text-anchor="start" x="348.495" y="-395.8" font-family="Times,serif" font-size="14.00">id :INTEGER</text>
<text text-anchor="start" x="348.495" y="-381.8" font-family="Times,serif" font-size="14.00">name :varchar</text>
<text text-anchor="start" x="348.495" y="-367.8" font-family="Times,serif" font-size="14.00">subtask_id :integer</text>
<text text-anchor="start" x="348.495" y="-353.8" font-family="Times,serif" font-size="14.00">created_at :datetime</text>
<text text-anchor="start" x="348.495" y="-339.8" font-family="Times,serif" font-size="14.00">updated_at :datetime</text>
</g>
<!-- Estimation&#45;&gt;Workpackage -->
<g id="edge2" class="edge"><title>Estimation&#45;&gt;Workpackage</title>
<path fill="none" stroke="#7542c3" d="M415.806,-462.704C415.016,-455.646 414.216,-448.493 413.436,-441.525"/>
<ellipse fill="none" stroke="#7542c3" cx="416.277" cy="-466.918" rx="4.00001" ry="4.00001"/>
<ellipse fill="#7542c3" stroke="#7542c3" cx="412.977" cy="-437.421" rx="4.00001" ry="4.00001"/>
</g>
<!-- EstimationTemplate -->
<g id="node5" class="node"><title>EstimationTemplate</title>
<path fill="none" stroke="black" d="M176.719,-471C176.719,-471 315.281,-471 315.281,-471 321.281,-471 327.281,-477 327.281,-483 327.281,-483 327.281,-573 327.281,-573 327.281,-579 321.281,-585 315.281,-585 315.281,-585 176.719,-585 176.719,-585 170.719,-585 164.719,-579 164.719,-573 164.719,-573 164.719,-483 164.719,-483 164.719,-477 170.719,-471 176.719,-471"/>
<text text-anchor="middle" x="246" y="-569.8" font-family="Times,serif" font-size="14.00">EstimationTemplate</text>
<polyline fill="none" stroke="black" points="164.719,-563 327.281,-563 "/>
<text text-anchor="start" x="172.719" y="-547.8" font-family="Times,serif" font-size="14.00">id :INTEGER</text>
<text text-anchor="start" x="172.719" y="-533.8" font-family="Times,serif" font-size="14.00">form_template_id :integer</text>
<text text-anchor="start" x="172.719" y="-519.8" font-family="Times,serif" font-size="14.00">workpackage_id :integer</text>
<text text-anchor="start" x="172.719" y="-505.8" font-family="Times,serif" font-size="14.00">comment :varchar</text>
<text text-anchor="start" x="172.719" y="-491.8" font-family="Times,serif" font-size="14.00">created_at :datetime</text>
<text text-anchor="start" x="172.719" y="-477.8" font-family="Times,serif" font-size="14.00">updated_at :datetime</text>
</g>
<!-- EstimationTemplate&#45;&gt;Workpackage -->
<g id="edge3" class="edge"><title>EstimationTemplate&#45;&gt;Workpackage</title>
<path fill="none" stroke="#0874f9" d="M315.45,-465.315C325.453,-456.43 335.689,-447.338 345.523,-438.604"/>
<ellipse fill="none" stroke="#0874f9" cx="312.16" cy="-468.237" rx="4.00002" ry="4.00002"/>
<ellipse fill="#0874f9" stroke="#0874f9" cx="348.598" cy="-435.873" rx="4.00002" ry="4.00002"/>
</g>
<!-- ExpertForm -->
<g id="node6" class="node"><title>ExpertForm</title>
<path fill="none" stroke="black" d="M355.119,-623C355.119,-623 464.881,-623 464.881,-623 470.881,-623 476.881,-629 476.881,-635 476.881,-635 476.881,-711 476.881,-711 476.881,-717 470.881,-723 464.881,-723 464.881,-723 355.119,-723 355.119,-723 349.119,-723 343.119,-717 343.119,-711 343.119,-711 343.119,-635 343.119,-635 343.119,-629 349.119,-623 355.119,-623"/>
<text text-anchor="middle" x="410" y="-707.8" font-family="Times,serif" font-size="14.00">ExpertForm</text>
<polyline fill="none" stroke="black" points="343.119,-701 476.881,-701 "/>
<text text-anchor="start" x="351.119" y="-685.8" font-family="Times,serif" font-size="14.00">id :INTEGER</text>
<text text-anchor="start" x="351.119" y="-671.8" font-family="Times,serif" font-size="14.00">round_id :integer</text>
<text text-anchor="start" x="351.119" y="-657.8" font-family="Times,serif" font-size="14.00">expertName :varchar</text>
<text text-anchor="start" x="351.119" y="-643.8" font-family="Times,serif" font-size="14.00">created_at :datetime</text>
<text text-anchor="start" x="351.119" y="-629.8" font-family="Times,serif" font-size="14.00">updated_at :datetime</text>
</g>
<!-- ExpertForm&#45;&gt;Estimation -->
<g id="edge4" class="edge"><title>ExpertForm&#45;&gt;Estimation</title>
<path fill="none" stroke="#78d97d" d="M415.208,-614.715C415.788,-608.328 416.383,-601.784 416.973,-595.297"/>
<ellipse fill="none" stroke="#78d97d" cx="414.836" cy="-618.804" rx="4" ry="4"/>
<polygon fill="#78d97d" stroke="#78d97d" points="416.987,-595.14 422.374,-585.588 417.44,-590.16 417.893,-585.181 417.893,-585.181 417.893,-585.181 417.44,-590.16 413.411,-584.773 416.987,-595.14 416.987,-595.14"/>
</g>
<!-- FormTemplate -->
<g id="node7" class="node"><title>FormTemplate</title>
<path fill="none" stroke="black" d="M197.495,-630C197.495,-630 306.505,-630 306.505,-630 312.505,-630 318.505,-636 318.505,-642 318.505,-642 318.505,-704 318.505,-704 318.505,-710 312.505,-716 306.505,-716 306.505,-716 197.495,-716 197.495,-716 191.495,-716 185.495,-710 185.495,-704 185.495,-704 185.495,-642 185.495,-642 185.495,-636 191.495,-630 197.495,-630"/>
<text text-anchor="middle" x="252" y="-700.8" font-family="Times,serif" font-size="14.00">FormTemplate</text>
<polyline fill="none" stroke="black" points="185.495,-694 318.505,-694 "/>
<text text-anchor="start" x="193.495" y="-678.8" font-family="Times,serif" font-size="14.00">id :INTEGER</text>
<text text-anchor="start" x="193.495" y="-664.8" font-family="Times,serif" font-size="14.00">round_id :integer</text>
<text text-anchor="start" x="193.495" y="-650.8" font-family="Times,serif" font-size="14.00">created_at :datetime</text>
<text text-anchor="start" x="193.495" y="-636.8" font-family="Times,serif" font-size="14.00">updated_at :datetime</text>
</g>
<!-- FormTemplate&#45;&gt;EstimationTemplate -->
<g id="edge5" class="edge"><title>FormTemplate&#45;&gt;EstimationTemplate</title>
<path fill="none" stroke="#0a896c" d="M249.894,-621.817C249.533,-613.203 249.153,-604.135 248.777,-595.179"/>
<ellipse fill="none" stroke="#0a896c" cx="250.065" cy="-625.872" rx="4" ry="4"/>
<polygon fill="#0a896c" stroke="#0a896c" points="248.775,-595.137 252.852,-584.957 248.565,-590.141 248.356,-585.145 248.356,-585.145 248.356,-585.145 248.565,-590.141 243.86,-585.334 248.775,-595.137 248.775,-595.137"/>
</g>
<!-- Milestone -->
<g id="node8" class="node"><title>Milestone</title>
<path fill="none" stroke="black" d="M581.822,-761C581.822,-761 700.178,-761 700.178,-761 706.178,-761 712.178,-767 712.178,-773 712.178,-773 712.178,-863 712.178,-863 712.178,-869 706.178,-875 700.178,-875 700.178,-875 581.822,-875 581.822,-875 575.822,-875 569.822,-869 569.822,-863 569.822,-863 569.822,-773 569.822,-773 569.822,-767 575.822,-761 581.822,-761"/>
<text text-anchor="middle" x="641" y="-859.8" font-family="Times,serif" font-size="14.00">Milestone</text>
<polyline fill="none" stroke="black" points="569.822,-853 712.178,-853 "/>
<text text-anchor="start" x="577.822" y="-837.8" font-family="Times,serif" font-size="14.00">id :INTEGER</text>
<text text-anchor="start" x="577.822" y="-823.8" font-family="Times,serif" font-size="14.00">roadmap_id :integer</text>
<text text-anchor="start" x="577.822" y="-809.8" font-family="Times,serif" font-size="14.00">component_id :integer</text>
<text text-anchor="start" x="577.822" y="-795.8" font-family="Times,serif" font-size="14.00">date :datetime</text>
<text text-anchor="start" x="577.822" y="-781.8" font-family="Times,serif" font-size="14.00">created_at :datetime</text>
<text text-anchor="start" x="577.822" y="-767.8" font-family="Times,serif" font-size="14.00">updated_at :datetime</text>
</g>
<!-- Modul -->
<g id="node9" class="node"><title>Modul</title>
<path fill="none" stroke="black" d="M281.819,-181C281.819,-181 400.181,-181 400.181,-181 406.181,-181 412.181,-187 412.181,-193 412.181,-193 412.181,-269 412.181,-269 412.181,-275 406.181,-281 400.181,-281 400.181,-281 281.819,-281 281.819,-281 275.819,-281 269.819,-275 269.819,-269 269.819,-269 269.819,-193 269.819,-193 269.819,-187 275.819,-181 281.819,-181"/>
<text text-anchor="middle" x="341" y="-265.8" font-family="Times,serif" font-size="14.00">Modul</text>
<polyline fill="none" stroke="black" points="269.819,-259 412.181,-259 "/>
<text text-anchor="start" x="277.819" y="-243.8" font-family="Times,serif" font-size="14.00">id :INTEGER</text>
<text text-anchor="start" x="277.819" y="-229.8" font-family="Times,serif" font-size="14.00">name :varchar</text>
<text text-anchor="start" x="277.819" y="-215.8" font-family="Times,serif" font-size="14.00">subproduct_id :integer</text>
<text text-anchor="start" x="277.819" y="-201.8" font-family="Times,serif" font-size="14.00">created_at :datetime</text>
<text text-anchor="start" x="277.819" y="-187.8" font-family="Times,serif" font-size="14.00">updated_at :datetime</text>
</g>
<!-- Modul&#45;&gt;Component -->
<g id="edge6" class="edge"><title>Modul&#45;&gt;Component</title>
<path fill="none" stroke="#2af2e6" d="M375.224,-173.872C385.035,-157.782 395.749,-140.212 405.627,-124.012"/>
<ellipse fill="none" stroke="#2af2e6" cx="373.086" cy="-177.379" rx="4.00002" ry="4.00002"/>
<polygon fill="#2af2e6" stroke="#2af2e6" points="405.812,-123.709 414.86,-117.513 408.415,-119.44 411.018,-115.171 411.018,-115.171 411.018,-115.171 408.415,-119.44 407.176,-112.828 405.812,-123.709 405.812,-123.709"/>
</g>
<!-- ProductBreakdownStructure -->
<g id="node10" class="node"><title>ProductBreakdownStructure</title>
<path fill="none" stroke="black" d="M11.2964,-775C11.2964,-775 162.704,-775 162.704,-775 168.704,-775 174.704,-781 174.704,-787 174.704,-787 174.704,-849 174.704,-849 174.704,-855 168.704,-861 162.704,-861 162.704,-861 11.2964,-861 11.2964,-861 5.29639,-861 -0.703613,-855 -0.703613,-849 -0.703613,-849 -0.703613,-787 -0.703613,-787 -0.703613,-781 5.29639,-775 11.2964,-775"/>
<text text-anchor="middle" x="87" y="-845.8" font-family="Times,serif" font-size="14.00">ProductBreakdownStructure</text>
<polyline fill="none" stroke="black" points="-0.703613,-839 174.704,-839 "/>
<text text-anchor="start" x="7.29639" y="-823.8" font-family="Times,serif" font-size="14.00">id :INTEGER</text>
<text text-anchor="start" x="7.29639" y="-809.8" font-family="Times,serif" font-size="14.00">p_id :integer</text>
<text text-anchor="start" x="7.29639" y="-795.8" font-family="Times,serif" font-size="14.00">created_at :datetime</text>
<text text-anchor="start" x="7.29639" y="-781.8" font-family="Times,serif" font-size="14.00">updated_at :datetime</text>
</g>
<!-- Subproduct -->
<g id="node19" class="node"><title>Subproduct</title>
<path fill="none" stroke="black" d="M25.4946,-478C25.4946,-478 134.505,-478 134.505,-478 140.505,-478 146.505,-484 146.505,-490 146.505,-490 146.505,-566 146.505,-566 146.505,-572 140.505,-578 134.505,-578 134.505,-578 25.4946,-578 25.4946,-578 19.4946,-578 13.4946,-572 13.4946,-566 13.4946,-566 13.4946,-490 13.4946,-490 13.4946,-484 19.4946,-478 25.4946,-478"/>
<text text-anchor="middle" x="80" y="-562.8" font-family="Times,serif" font-size="14.00">Subproduct</text>
<polyline fill="none" stroke="black" points="13.4946,-556 146.505,-556 "/>
<text text-anchor="start" x="21.4946" y="-540.8" font-family="Times,serif" font-size="14.00">id :INTEGER</text>
<text text-anchor="start" x="21.4946" y="-526.8" font-family="Times,serif" font-size="14.00">name :varchar</text>
<text text-anchor="start" x="21.4946" y="-512.8" font-family="Times,serif" font-size="14.00">pbs_id :integer</text>
<text text-anchor="start" x="21.4946" y="-498.8" font-family="Times,serif" font-size="14.00">created_at :datetime</text>
<text text-anchor="start" x="21.4946" y="-484.8" font-family="Times,serif" font-size="14.00">updated_at :datetime</text>
</g>
<!-- ProductBreakdownStructure&#45;&gt;Subproduct -->
<g id="edge7" class="edge"><title>ProductBreakdownStructure&#45;&gt;Subproduct</title>
<path fill="none" stroke="#301e3e" d="M85.7742,-766.565C84.5653,-716.829 82.7181,-640.831 81.44,-588.245"/>
<ellipse fill="none" stroke="#301e3e" cx="85.8774" cy="-770.815" rx="4" ry="4"/>
<polygon fill="#301e3e" stroke="#301e3e" points="81.4354,-588.052 85.691,-577.945 81.3138,-583.053 81.1923,-578.055 81.1923,-578.055 81.1923,-578.055 81.3138,-583.053 76.6936,-578.164 81.4354,-588.052 81.4354,-588.052"/>
</g>
<!-- Project -->
<g id="node11" class="node"><title>Project</title>
<path fill="none" stroke="black" d="M415.495,-1037C415.495,-1037 524.505,-1037 524.505,-1037 530.505,-1037 536.505,-1043 536.505,-1049 536.505,-1049 536.505,-1111 536.505,-1111 536.505,-1117 530.505,-1123 524.505,-1123 524.505,-1123 415.495,-1123 415.495,-1123 409.495,-1123 403.495,-1117 403.495,-1111 403.495,-1111 403.495,-1049 403.495,-1049 403.495,-1043 409.495,-1037 415.495,-1037"/>
<text text-anchor="middle" x="470" y="-1107.8" font-family="Times,serif" font-size="14.00">Project</text>
<polyline fill="none" stroke="black" points="403.495,-1101 536.505,-1101 "/>
<text text-anchor="start" x="411.495" y="-1085.8" font-family="Times,serif" font-size="14.00">id :INTEGER</text>
<text text-anchor="start" x="411.495" y="-1071.8" font-family="Times,serif" font-size="14.00">name :varchar</text>
<text text-anchor="start" x="411.495" y="-1057.8" font-family="Times,serif" font-size="14.00">created_at :datetime</text>
<text text-anchor="start" x="411.495" y="-1043.8" font-family="Times,serif" font-size="14.00">updated_at :datetime</text>
</g>
<!-- Project&#45;&gt;DelphiEstimation -->
<g id="edge12" class="edge"><title>Project&#45;&gt;DelphiEstimation</title>
<path fill="none" stroke="#ee5cc5" d="M414.772,-1031.21C404.676,-1022.48 394.141,-1013.36 384.05,-1004.63"/>
<ellipse fill="none" stroke="#ee5cc5" cx="418.056" cy="-1034.06" rx="4.00002" ry="4.00002"/>
<ellipse fill="#ee5cc5" stroke="#ee5cc5" cx="380.858" cy="-1001.87" rx="4.00002" ry="4.00002"/>
</g>
<!-- Project&#45;&gt;ProductBreakdownStructure -->
<g id="edge9" class="edge"><title>Project&#45;&gt;ProductBreakdownStructure</title>
<path fill="none" stroke="#d0e650" d="M395.743,-1036.71C395.161,-1036.47 394.58,-1036.23 394,-1036 333.995,-1011.86 308.498,-1033.21 253,-1000 197.375,-966.711 149.271,-909.122 119.374,-867.837"/>
<ellipse fill="none" stroke="#d0e650" cx="399.675" cy="-1038.42" rx="4.00002" ry="4.00002"/>
<ellipse fill="#d0e650" stroke="#d0e650" cx="116.88" cy="-864.354" rx="4.00002" ry="4.00002"/>
</g>
<!-- ResourceBreakdownStructure -->
<g id="node15" class="node"><title>ResourceBreakdownStructure</title>
<path fill="none" stroke="black" d="M661.027,-913C661.027,-913 820.973,-913 820.973,-913 826.973,-913 832.973,-919 832.973,-925 832.973,-925 832.973,-987 832.973,-987 832.973,-993 826.973,-999 820.973,-999 820.973,-999 661.027,-999 661.027,-999 655.027,-999 649.027,-993 649.027,-987 649.027,-987 649.027,-925 649.027,-925 649.027,-919 655.027,-913 661.027,-913"/>
<text text-anchor="middle" x="741" y="-983.8" font-family="Times,serif" font-size="14.00">ResourceBreakdownStructure</text>
<polyline fill="none" stroke="black" points="649.027,-977 832.973,-977 "/>
<text text-anchor="start" x="657.027" y="-961.8" font-family="Times,serif" font-size="14.00">id :INTEGER</text>
<text text-anchor="start" x="657.027" y="-947.8" font-family="Times,serif" font-size="14.00">p_id :integer</text>
<text text-anchor="start" x="657.027" y="-933.8" font-family="Times,serif" font-size="14.00">created_at :datetime</text>
<text text-anchor="start" x="657.027" y="-919.8" font-family="Times,serif" font-size="14.00">updated_at :datetime</text>
</g>
<!-- Project&#45;&gt;ResourceBreakdownStructure -->
<g id="edge10" class="edge"><title>Project&#45;&gt;ResourceBreakdownStructure</title>
<path fill="none" stroke="#9366c1" d="M544.302,-1045.55C574.249,-1032.07 609.245,-1016.31 641.348,-1001.86"/>
<ellipse fill="none" stroke="#9366c1" cx="540.289" cy="-1047.36" rx="4.00002" ry="4.00002"/>
<ellipse fill="#9366c1" stroke="#9366c1" cx="645.362" cy="-1000.05" rx="4.00002" ry="4.00002"/>
</g>
<!-- Roadmap -->
<g id="node16" class="node"><title>Roadmap</title>
<path fill="none" stroke="black" d="M510.495,-913C510.495,-913 619.505,-913 619.505,-913 625.505,-913 631.505,-919 631.505,-925 631.505,-925 631.505,-987 631.505,-987 631.505,-993 625.505,-999 619.505,-999 619.505,-999 510.495,-999 510.495,-999 504.495,-999 498.495,-993 498.495,-987 498.495,-987 498.495,-925 498.495,-925 498.495,-919 504.495,-913 510.495,-913"/>
<text text-anchor="middle" x="565" y="-983.8" font-family="Times,serif" font-size="14.00">Roadmap</text>
<polyline fill="none" stroke="black" points="498.495,-977 631.505,-977 "/>
<text text-anchor="start" x="506.495" y="-961.8" font-family="Times,serif" font-size="14.00">id :INTEGER</text>
<text text-anchor="start" x="506.495" y="-947.8" font-family="Times,serif" font-size="14.00">p_id :integer</text>
<text text-anchor="start" x="506.495" y="-933.8" font-family="Times,serif" font-size="14.00">created_at :datetime</text>
<text text-anchor="start" x="506.495" y="-919.8" font-family="Times,serif" font-size="14.00">updated_at :datetime</text>
</g>
<!-- Project&#45;&gt;Roadmap -->
<g id="edge11" class="edge"><title>Project&#45;&gt;Roadmap</title>
<path fill="none" stroke="#04e1ae" d="M507.89,-1030.34C514.148,-1022.31 520.638,-1013.97 526.901,-1005.93"/>
<ellipse fill="none" stroke="#04e1ae" cx="505.417" cy="-1033.52" rx="4.00002" ry="4.00002"/>
<ellipse fill="#04e1ae" stroke="#04e1ae" cx="529.641" cy="-1002.41" rx="4.00002" ry="4.00002"/>
</g>
<!-- WorkBreakdownStructure -->
<g id="node23" class="node"><title>WorkBreakdownStructure</title>
<path fill="none" stroke="black" d="M401.691,-775C401.691,-775 540.309,-775 540.309,-775 546.309,-775 552.309,-781 552.309,-787 552.309,-787 552.309,-849 552.309,-849 552.309,-855 546.309,-861 540.309,-861 540.309,-861 401.691,-861 401.691,-861 395.691,-861 389.691,-855 389.691,-849 389.691,-849 389.691,-787 389.691,-787 389.691,-781 395.691,-775 401.691,-775"/>
<text text-anchor="middle" x="471" y="-845.8" font-family="Times,serif" font-size="14.00">WorkBreakdownStructure</text>
<polyline fill="none" stroke="black" points="389.691,-839 552.309,-839 "/>
<text text-anchor="start" x="397.691" y="-823.8" font-family="Times,serif" font-size="14.00">id :INTEGER</text>
<text text-anchor="start" x="397.691" y="-809.8" font-family="Times,serif" font-size="14.00">p_id :integer</text>
<text text-anchor="start" x="397.691" y="-795.8" font-family="Times,serif" font-size="14.00">created_at :datetime</text>
<text text-anchor="start" x="397.691" y="-781.8" font-family="Times,serif" font-size="14.00">updated_at :datetime</text>
</g>
<!-- Project&#45;&gt;WorkBreakdownStructure -->
<g id="edge8" class="edge"><title>Project&#45;&gt;WorkBreakdownStructure</title>
<path fill="none" stroke="#2bcc51" d="M470.193,-1028.73C470.37,-982.707 470.631,-914.975 470.808,-869.032"/>
<ellipse fill="none" stroke="#2bcc51" cx="470.177" cy="-1032.94" rx="4" ry="4"/>
<ellipse fill="#2bcc51" stroke="#2bcc51" cx="470.823" cy="-865.002" rx="4" ry="4"/>
</g>
<!-- RamEntry -->
<g id="node12" class="node"><title>RamEntry</title>
<path fill="none" stroke="black" d="M475.612,-167C475.612,-167 606.388,-167 606.388,-167 612.388,-167 618.388,-173 618.388,-179 618.388,-179 618.388,-283 618.388,-283 618.388,-289 612.388,-295 606.388,-295 606.388,-295 475.612,-295 475.612,-295 469.612,-295 463.612,-289 463.612,-283 463.612,-283 463.612,-179 463.612,-179 463.612,-173 469.612,-167 475.612,-167"/>
<text text-anchor="middle" x="541" y="-279.8" font-family="Times,serif" font-size="14.00">RamEntry</text>
<polyline fill="none" stroke="black" points="463.612,-273 618.388,-273 "/>
<text text-anchor="start" x="471.612" y="-257.8" font-family="Times,serif" font-size="14.00">id :INTEGER</text>
<text text-anchor="start" x="471.612" y="-243.8" font-family="Times,serif" font-size="14.00">ram_id :integer</text>
<text text-anchor="start" x="471.612" y="-229.8" font-family="Times,serif" font-size="14.00">workpackage_id :integer</text>
<text text-anchor="start" x="471.612" y="-215.8" font-family="Times,serif" font-size="14.00">component_id :integer</text>
<text text-anchor="start" x="471.612" y="-201.8" font-family="Times,serif" font-size="14.00">resource_id :integer</text>
<text text-anchor="start" x="471.612" y="-187.8" font-family="Times,serif" font-size="14.00">created_at :datetime</text>
<text text-anchor="start" x="471.612" y="-173.8" font-family="Times,serif" font-size="14.00">updated_at :datetime</text>
</g>
<!-- RamEntry&#45;&gt;Component -->
<g id="edge14" class="edge"><title>RamEntry&#45;&gt;Component</title>
<path fill="none" stroke="#79d0d7" d="M498.167,-159.753C490.528,-147.227 482.662,-134.326 475.301,-122.254"/>
<ellipse fill="none" stroke="#79d0d7" cx="500.255" cy="-163.178" rx="4.00002" ry="4.00002"/>
<ellipse fill="#79d0d7" stroke="#79d0d7" cx="473.114" cy="-118.667" rx="4.00002" ry="4.00002"/>
</g>
<!-- Resource -->
<g id="node13" class="node"><title>Resource</title>
<path fill="none" stroke="black" d="M561.329,-1C561.329,-1 672.671,-1 672.671,-1 678.671,-1 684.671,-7 684.671,-13 684.671,-13 684.671,-117 684.671,-117 684.671,-123 678.671,-129 672.671,-129 672.671,-129 561.329,-129 561.329,-129 555.329,-129 549.329,-123 549.329,-117 549.329,-117 549.329,-13 549.329,-13 549.329,-7 555.329,-1 561.329,-1"/>
<text text-anchor="middle" x="617" y="-113.8" font-family="Times,serif" font-size="14.00">Resource</text>
<polyline fill="none" stroke="black" points="549.329,-107 684.671,-107 "/>
<text text-anchor="start" x="557.329" y="-91.8" font-family="Times,serif" font-size="14.00">id :INTEGER</text>
<text text-anchor="start" x="557.329" y="-77.8" font-family="Times,serif" font-size="14.00">role_id :integer</text>
<text text-anchor="start" x="557.329" y="-63.8" font-family="Times,serif" font-size="14.00">qualification :varchar</text>
<text text-anchor="start" x="557.329" y="-49.8" font-family="Times,serif" font-size="14.00">experience :varchar</text>
<text text-anchor="start" x="557.329" y="-35.8" font-family="Times,serif" font-size="14.00">quantitiy :decimal</text>
<text text-anchor="start" x="557.329" y="-21.8" font-family="Times,serif" font-size="14.00">created_at :datetime</text>
<text text-anchor="start" x="557.329" y="-7.8" font-family="Times,serif" font-size="14.00">updated_at :datetime</text>
</g>
<!-- RamEntry&#45;&gt;Resource -->
<g id="edge13" class="edge"><title>RamEntry&#45;&gt;Resource</title>
<path fill="none" stroke="#c0abee" d="M573.874,-159.061C577.322,-151.621 580.827,-144.058 584.273,-136.622"/>
<ellipse fill="none" stroke="#c0abee" cx="572.065" cy="-162.964" rx="4.00002" ry="4.00002"/>
<ellipse fill="#c0abee" stroke="#c0abee" cx="586.013" cy="-132.867" rx="4.00002" ry="4.00002"/>
</g>
<!-- ResourceAllocationMatrix -->
<g id="node14" class="node"><title>ResourceAllocationMatrix</title>
<path fill="none" stroke="black" d="M503.355,-340C503.355,-340 644.645,-340 644.645,-340 650.645,-340 656.645,-346 656.645,-352 656.645,-352 656.645,-414 656.645,-414 656.645,-420 650.645,-426 644.645,-426 644.645,-426 503.355,-426 503.355,-426 497.355,-426 491.355,-420 491.355,-414 491.355,-414 491.355,-352 491.355,-352 491.355,-346 497.355,-340 503.355,-340"/>
<text text-anchor="middle" x="574" y="-410.8" font-family="Times,serif" font-size="14.00">ResourceAllocationMatrix</text>
<polyline fill="none" stroke="black" points="491.355,-404 656.645,-404 "/>
<text text-anchor="start" x="499.355" y="-388.8" font-family="Times,serif" font-size="14.00">id :INTEGER</text>
<text text-anchor="start" x="499.355" y="-374.8" font-family="Times,serif" font-size="14.00">p_id :integer</text>
<text text-anchor="start" x="499.355" y="-360.8" font-family="Times,serif" font-size="14.00">created_at :datetime</text>
<text text-anchor="start" x="499.355" y="-346.8" font-family="Times,serif" font-size="14.00">updated_at :datetime</text>
</g>
<!-- ResourceAllocationMatrix&#45;&gt;RamEntry -->
<g id="edge15" class="edge"><title>ResourceAllocationMatrix&#45;&gt;RamEntry</title>
<path fill="none" stroke="#611be7" d="M562.965,-331.839C561.064,-323.202 559.055,-314.07 557.055,-304.977"/>
<ellipse fill="none" stroke="#611be7" cx="563.86" cy="-335.911" rx="4.00001" ry="4.00001"/>
<polygon fill="#611be7" stroke="#611be7" points="557.042,-304.918 559.288,-294.185 555.968,-300.035 554.893,-295.152 554.893,-295.152 554.893,-295.152 555.968,-300.035 550.498,-296.119 557.042,-304.918 557.042,-304.918"/>
</g>
<!-- Type -->
<g id="node22" class="node"><title>Type</title>
<path fill="none" stroke="black" d="M686.495,-623C686.495,-623 795.505,-623 795.505,-623 801.505,-623 807.505,-629 807.505,-635 807.505,-635 807.505,-711 807.505,-711 807.505,-717 801.505,-723 795.505,-723 795.505,-723 686.495,-723 686.495,-723 680.495,-723 674.495,-717 674.495,-711 674.495,-711 674.495,-635 674.495,-635 674.495,-629 680.495,-623 686.495,-623"/>
<text text-anchor="middle" x="741" y="-707.8" font-family="Times,serif" font-size="14.00">Type</text>
<polyline fill="none" stroke="black" points="674.495,-701 807.505,-701 "/>
<text text-anchor="start" x="682.495" y="-685.8" font-family="Times,serif" font-size="14.00">id :INTEGER</text>
<text text-anchor="start" x="682.495" y="-671.8" font-family="Times,serif" font-size="14.00">name :varchar</text>
<text text-anchor="start" x="682.495" y="-657.8" font-family="Times,serif" font-size="14.00">rbs_id :integer</text>
<text text-anchor="start" x="682.495" y="-643.8" font-family="Times,serif" font-size="14.00">created_at :datetime</text>
<text text-anchor="start" x="682.495" y="-629.8" font-family="Times,serif" font-size="14.00">updated_at :datetime</text>
</g>
<!-- ResourceBreakdownStructure&#45;&gt;Type -->
<g id="edge16" class="edge"><title>ResourceBreakdownStructure&#45;&gt;Type</title>
<path fill="none" stroke="#259895" d="M741,-904.637C741,-856.679 741,-784.47 741,-733.652"/>
<ellipse fill="none" stroke="#259895" cx="741" cy="-908.931" rx="4" ry="4"/>
<polygon fill="#259895" stroke="#259895" points="741,-733.468 745.5,-723.468 741,-728.468 741,-723.468 741,-723.468 741,-723.468 741,-728.468 736.5,-723.468 741,-733.468 741,-733.468"/>
</g>
<!-- Roadmap&#45;&gt;Milestone -->
<g id="edge17" class="edge"><title>Roadmap&#45;&gt;Milestone</title>
<path fill="none" stroke="#4d0a27" d="M592.582,-905.643C596.459,-898.705 600.493,-891.487 604.504,-884.308"/>
<ellipse fill="none" stroke="#4d0a27" cx="590.582" cy="-909.222" rx="4.00002" ry="4.00002"/>
<polygon fill="#4d0a27" stroke="#4d0a27" points="604.682,-883.991 613.488,-877.456 607.121,-879.626 609.56,-875.261 609.56,-875.261 609.56,-875.261 607.121,-879.626 605.632,-873.066 604.682,-883.991 604.682,-883.991"/>
</g>
<!-- Role -->
<g id="node17" class="node"><title>Role</title>
<path fill="none" stroke="black" d="M686.495,-333C686.495,-333 795.505,-333 795.505,-333 801.505,-333 807.505,-339 807.505,-345 807.505,-345 807.505,-421 807.505,-421 807.505,-427 801.505,-433 795.505,-433 795.505,-433 686.495,-433 686.495,-433 680.495,-433 674.495,-427 674.495,-421 674.495,-421 674.495,-345 674.495,-345 674.495,-339 680.495,-333 686.495,-333"/>
<text text-anchor="middle" x="741" y="-417.8" font-family="Times,serif" font-size="14.00">Role</text>
<polyline fill="none" stroke="black" points="674.495,-411 807.505,-411 "/>
<text text-anchor="start" x="682.495" y="-395.8" font-family="Times,serif" font-size="14.00">id :INTEGER</text>
<text text-anchor="start" x="682.495" y="-381.8" font-family="Times,serif" font-size="14.00">name :varchar</text>
<text text-anchor="start" x="682.495" y="-367.8" font-family="Times,serif" font-size="14.00">type_id :integer</text>
<text text-anchor="start" x="682.495" y="-353.8" font-family="Times,serif" font-size="14.00">created_at :datetime</text>
<text text-anchor="start" x="682.495" y="-339.8" font-family="Times,serif" font-size="14.00">updated_at :datetime</text>
</g>
<!-- Role&#45;&gt;Resource -->
<g id="edge18" class="edge"><title>Role&#45;&gt;Resource</title>
<path fill="none" stroke="#8d7a4e" d="M718.781,-325.376C698.299,-273.182 667.793,-195.439 645.52,-138.679"/>
<ellipse fill="none" stroke="#8d7a4e" cx="720.3" cy="-329.248" rx="4.00001" ry="4.00001"/>
<polygon fill="#8d7a4e" stroke="#8d7a4e" points="645.393,-138.357 645.93,-127.405 643.567,-133.703 641.74,-129.048 641.74,-129.048 641.74,-129.048 643.567,-133.703 637.551,-130.692 645.393,-138.357 645.393,-138.357"/>
</g>
<!-- Round&#45;&gt;ExpertForm -->
<g id="edge19" class="edge"><title>Round&#45;&gt;ExpertForm</title>
<path fill="none" stroke="#227548" d="M338.838,-754.763C345.761,-746.906 352.818,-738.897 359.666,-731.125"/>
<ellipse fill="none" stroke="#227548" cx="336.081" cy="-757.892" rx="4.00002" ry="4.00002"/>
<polygon fill="#227548" stroke="#227548" points="359.822,-730.949 369.809,-726.421 363.127,-727.197 366.433,-723.446 366.433,-723.446 366.433,-723.446 363.127,-727.197 363.056,-720.471 359.822,-730.949 359.822,-730.949"/>
</g>
<!-- Round&#45;&gt;FormTemplate -->
<g id="edge20" class="edge"><title>Round&#45;&gt;FormTemplate</title>
<path fill="none" stroke="#9698c9" d="M269.635,-752.804C267.489,-743.216 265.303,-733.45 263.235,-724.206"/>
<ellipse fill="none" stroke="#9698c9" cx="270.571" cy="-756.99" rx="4.00001" ry="4.00001"/>
<ellipse fill="#9698c9" stroke="#9698c9" cx="262.325" cy="-720.139" rx="4.00001" ry="4.00001"/>
</g>
<!-- Subproduct&#45;&gt;Modul -->
<g id="edge21" class="edge"><title>Subproduct&#45;&gt;Modul</title>
<path fill="none" stroke="#3f4956" d="M128.883,-471.749C175.102,-419.509 244.14,-341.478 290.79,-288.751"/>
<ellipse fill="none" stroke="#3f4956" cx="126.042" cy="-474.96" rx="4.00002" ry="4.00002"/>
<polygon fill="#3f4956" stroke="#3f4956" points="290.878,-288.651 300.875,-284.144 294.191,-284.906 297.504,-281.162 297.504,-281.162 297.504,-281.162 294.191,-284.906 294.134,-278.18 290.878,-288.651 290.878,-288.651"/>
</g>
<!-- Subtask -->
<g id="node20" class="node"><title>Subtask</title>
<path fill="none" stroke="black" d="M530.495,-478C530.495,-478 639.505,-478 639.505,-478 645.505,-478 651.505,-484 651.505,-490 651.505,-490 651.505,-566 651.505,-566 651.505,-572 645.505,-578 639.505,-578 639.505,-578 530.495,-578 530.495,-578 524.495,-578 518.495,-572 518.495,-566 518.495,-566 518.495,-490 518.495,-490 518.495,-484 524.495,-478 530.495,-478"/>
<text text-anchor="middle" x="585" y="-562.8" font-family="Times,serif" font-size="14.00">Subtask</text>
<polyline fill="none" stroke="black" points="518.495,-556 651.505,-556 "/>
<text text-anchor="start" x="526.495" y="-540.8" font-family="Times,serif" font-size="14.00">id :INTEGER</text>
<text text-anchor="start" x="526.495" y="-526.8" font-family="Times,serif" font-size="14.00">name :varchar</text>
<text text-anchor="start" x="526.495" y="-512.8" font-family="Times,serif" font-size="14.00">task_id :integer</text>
<text text-anchor="start" x="526.495" y="-498.8" font-family="Times,serif" font-size="14.00">created_at :datetime</text>
<text text-anchor="start" x="526.495" y="-484.8" font-family="Times,serif" font-size="14.00">updated_at :datetime</text>
</g>
<!-- Subtask&#45;&gt;Workpackage -->
<g id="edge22" class="edge"><title>Subtask&#45;&gt;Workpackage</title>
<path fill="none" stroke="#c87057" d="M517.35,-472.652C503.809,-461.774 489.567,-450.332 475.982,-439.418"/>
<ellipse fill="none" stroke="#c87057" cx="520.624" cy="-475.282" rx="4.00002" ry="4.00002"/>
<polygon fill="#c87057" stroke="#c87057" points="475.865,-439.324 470.887,-429.553 471.967,-436.192 468.069,-433.061 468.069,-433.061 468.069,-433.061 471.967,-436.192 465.25,-436.569 475.865,-439.324 475.865,-439.324"/>
</g>
<!-- Task -->
<g id="node21" class="node"><title>Task</title>
<path fill="none" stroke="black" d="M524.495,-623C524.495,-623 633.505,-623 633.505,-623 639.505,-623 645.505,-629 645.505,-635 645.505,-635 645.505,-711 645.505,-711 645.505,-717 639.505,-723 633.505,-723 633.505,-723 524.495,-723 524.495,-723 518.495,-723 512.495,-717 512.495,-711 512.495,-711 512.495,-635 512.495,-635 512.495,-629 518.495,-623 524.495,-623"/>
<text text-anchor="middle" x="579" y="-707.8" font-family="Times,serif" font-size="14.00">Task</text>
<polyline fill="none" stroke="black" points="512.495,-701 645.505,-701 "/>
<text text-anchor="start" x="520.495" y="-685.8" font-family="Times,serif" font-size="14.00">id :INTEGER</text>
<text text-anchor="start" x="520.495" y="-671.8" font-family="Times,serif" font-size="14.00">name :varchar</text>
<text text-anchor="start" x="520.495" y="-657.8" font-family="Times,serif" font-size="14.00">wbs_id :integer</text>
<text text-anchor="start" x="520.495" y="-643.8" font-family="Times,serif" font-size="14.00">created_at :datetime</text>
<text text-anchor="start" x="520.495" y="-629.8" font-family="Times,serif" font-size="14.00">updated_at :datetime</text>
</g>
<!-- Task&#45;&gt;Subtask -->
<g id="edge23" class="edge"><title>Task&#45;&gt;Subtask</title>
<path fill="none" stroke="#6f343a" d="M581.409,-614.575C581.772,-605.939 582.146,-597.018 582.51,-588.342"/>
<ellipse fill="none" stroke="#6f343a" cx="581.233" cy="-618.791" rx="4" ry="4"/>
<polygon fill="#6f343a" stroke="#6f343a" points="582.512,-588.294 587.427,-578.492 582.722,-583.299 582.931,-578.303 582.931,-578.303 582.931,-578.303 582.722,-583.299 578.435,-578.115 582.512,-588.294 582.512,-588.294"/>
</g>
<!-- Type&#45;&gt;Role -->
<g id="edge24" class="edge"><title>Type&#45;&gt;Role</title>
<path fill="none" stroke="#967df7" d="M741,-614.537C741,-564.972 741,-493.664 741,-443.511"/>
<ellipse fill="none" stroke="#967df7" cx="741" cy="-618.818" rx="4" ry="4"/>
<polygon fill="#967df7" stroke="#967df7" points="741,-443.461 745.5,-433.461 741,-438.461 741,-433.461 741,-433.461 741,-433.461 741,-438.461 736.5,-433.461 741,-443.461 741,-443.461"/>
</g>
<!-- WorkBreakdownStructure&#45;&gt;Task -->
<g id="edge25" class="edge"><title>WorkBreakdownStructure&#45;&gt;Task</title>
<path fill="none" stroke="#55330d" d="M507.793,-768.283C516.821,-756.329 526.565,-743.427 535.862,-731.118"/>
<ellipse fill="none" stroke="#55330d" cx="505.23" cy="-771.677" rx="4.00002" ry="4.00002"/>
<polygon fill="#55330d" stroke="#55330d" points="535.867,-731.111 545.485,-725.843 538.881,-727.121 541.894,-723.131 541.894,-723.131 541.894,-723.131 538.881,-727.121 538.303,-720.419 535.867,-731.111 535.867,-731.111"/>
</g>
<!-- Workpackage&#45;&gt;RamEntry -->
<g id="edge26" class="edge"><title>Workpackage&#45;&gt;RamEntry</title>
<path fill="none" stroke="#e78d57" d="M456.241,-326.879C463.585,-318.659 471.236,-310.094 478.804,-301.622"/>
<ellipse fill="none" stroke="#e78d57" cx="453.541" cy="-329.901" rx="4.00002" ry="4.00002"/>
<ellipse fill="#e78d57" stroke="#e78d57" cx="481.905" cy="-298.152" rx="4.00002" ry="4.00002"/>
</g>
</g>
</svg>
