<?xml version="1.0" encoding="UTF-8" standalone="no"?>
<!DOCTYPE svg PUBLIC "-//W3C//DTD SVG 1.1//EN"
 "http://www.w3.org/Graphics/SVG/1.1/DTD/svg11.dtd">
<!-- Generated by graphviz version 2.36.0 (20140111.2315)
 -->
<!-- Title: models_diagram Pages: 1 -->
<svg width="839pt" height="1132pt"
 viewBox="0.00 0.00 839.00 1132.00" xmlns="http://www.w3.org/2000/svg" xmlns:xlink="http://www.w3.org/1999/xlink">
<g id="graph0" class="graph" transform="scale(1 1) rotate(0) translate(4 1128)">
<title>models_diagram</title>
<polygon fill="none" stroke="none" points="-4,4 -4,-1128 835,-1128 835,4 -4,4"/>
<!-- _diagram_info -->
<g id="node1" class="node"><title>_diagram_info</title>
<text text-anchor="start" x="279.312" y="-1102.1" font-family="Times,serif" font-size="13.00">Models diagram</text>
<text text-anchor="start" x="279.312" y="-1089.1" font-family="Times,serif" font-size="13.00">Date: Jan 28 2016 &#45; 14:56</text>
<text text-anchor="start" x="279.312" y="-1076.1" font-family="Times,serif" font-size="13.00">Migration version: 20160127163157</text>
<text text-anchor="start" x="279.312" y="-1063.1" font-family="Times,serif" font-size="13.00">Generated by RailRoady 1.4.2</text>
<text text-anchor="start" x="279.312" y="-1050.1" font-family="Times,serif" font-size="13.00">http://railroady.prestonlee.com</text>
</g>
<!-- Component -->
<g id="node2" class="node"><title>Component</title>
<path fill="none" stroke="black" d="M342.495,-15C342.495,-15 451.505,-15 451.505,-15 457.505,-15 463.505,-21 463.505,-27 463.505,-27 463.505,-103 463.505,-103 463.505,-109 457.505,-115 451.505,-115 451.505,-115 342.495,-115 342.495,-115 336.495,-115 330.495,-109 330.495,-103 330.495,-103 330.495,-27 330.495,-27 330.495,-21 336.495,-15 342.495,-15"/>
<text text-anchor="middle" x="397" y="-99.8" font-family="Times,serif" font-size="14.00">Component</text>
<polyline fill="none" stroke="black" points="330.495,-93 463.505,-93 "/>
<text text-anchor="start" x="338.495" y="-77.8" font-family="Times,serif" font-size="14.00">id :INTEGER</text>
<text text-anchor="start" x="338.495" y="-63.8" font-family="Times,serif" font-size="14.00">name :varchar</text>
<text text-anchor="start" x="338.495" y="-49.8" font-family="Times,serif" font-size="14.00">modul_id :integer</text>
<text text-anchor="start" x="338.495" y="-35.8" font-family="Times,serif" font-size="14.00">created_at :datetime</text>
<text text-anchor="start" x="338.495" y="-21.8" font-family="Times,serif" font-size="14.00">updated_at :datetime</text>
</g>
<!-- DelphiEstimation -->
<g id="node3" class="node"><title>DelphiEstimation</title>
<path fill="none" stroke="black" d="M287.495,-913C287.495,-913 396.505,-913 396.505,-913 402.505,-913 408.505,-919 408.505,-925 408.505,-925 408.505,-987 408.505,-987 408.505,-993 402.505,-999 396.505,-999 396.505,-999 287.495,-999 287.495,-999 281.495,-999 275.495,-993 275.495,-987 275.495,-987 275.495,-925 275.495,-925 275.495,-919 281.495,-913 287.495,-913"/>
<text text-anchor="middle" x="342" y="-983.8" font-family="Times,serif" font-size="14.00">DelphiEstimation</text>
<polyline fill="none" stroke="black" points="275.495,-977 408.505,-977 "/>
<text text-anchor="start" x="283.495" y="-961.8" font-family="Times,serif" font-size="14.00">id :INTEGER</text>
<text text-anchor="start" x="283.495" y="-947.8" font-family="Times,serif" font-size="14.00">p_id :integer</text>
<text text-anchor="start" x="283.495" y="-933.8" font-family="Times,serif" font-size="14.00">created_at :datetime</text>
<text text-anchor="start" x="283.495" y="-919.8" font-family="Times,serif" font-size="14.00">updated_at :datetime</text>
</g>
<!-- Round -->
<g id="node18" class="node"><title>Round</title>
<path fill="none" stroke="black" d="M266.098,-761C266.098,-761 417.902,-761 417.902,-761 423.902,-761 429.902,-767 429.902,-773 429.902,-773 429.902,-863 429.902,-863 429.902,-869 423.902,-875 417.902,-875 417.902,-875 266.098,-875 266.098,-875 260.098,-875 254.098,-869 254.098,-863 254.098,-863 254.098,-773 254.098,-773 254.098,-767 260.098,-761 266.098,-761"/>
<text text-anchor="middle" x="342" y="-859.8" font-family="Times,serif" font-size="14.00">Round</text>
<polyline fill="none" stroke="black" points="254.098,-853 429.902,-853 "/>
<text text-anchor="start" x="262.098" y="-837.8" font-family="Times,serif" font-size="14.00">id :INTEGER</text>
<text text-anchor="start" x="262.098" y="-823.8" font-family="Times,serif" font-size="14.00">delphiEstimation_id :integer</text>
<text text-anchor="start" x="262.098" y="-809.8" font-family="Times,serif" font-size="14.00">count :integer</text>
<text text-anchor="start" x="262.098" y="-795.8" font-family="Times,serif" font-size="14.00">closed :boolean</text>
<text text-anchor="start" x="262.098" y="-781.8" font-family="Times,serif" font-size="14.00">created_at :datetime</text>
<text text-anchor="start" x="262.098" y="-767.8" font-family="Times,serif" font-size="14.00">updated_at :datetime</text>
</g>
<!-- DelphiEstimation&#45;&gt;Round -->
<g id="edge1" class="edge"><title>DelphiEstimation&#45;&gt;Round</title>
<path fill="none" stroke="#91b7b3" d="M342,-904.491C342,-898.24 342,-891.778 342,-885.335"/>
<ellipse fill="none" stroke="#91b7b3" cx="342" cy="-908.714" rx="4" ry="4"/>
<polygon fill="#91b7b3" stroke="#91b7b3" points="342,-885.261 346.5,-875.261 342,-880.261 342,-875.261 342,-875.261 342,-875.261 342,-880.261 337.5,-875.261 342,-885.261 342,-885.261"/>
</g>
<!-- Estimation -->
<g id="node4" class="node"><title>Estimation</title>
<path fill="none" stroke="black" d="M343.612,-471C343.612,-471 474.388,-471 474.388,-471 480.388,-471 486.388,-477 486.388,-483 486.388,-483 486.388,-573 486.388,-573 486.388,-579 480.388,-585 474.388,-585 474.388,-585 343.612,-585 343.612,-585 337.612,-585 331.612,-579 331.612,-573 331.612,-573 331.612,-483 331.612,-483 331.612,-477 337.612,-471 343.612,-471"/>
<text text-anchor="middle" x="409" y="-569.8" font-family="Times,serif" font-size="14.00">Estimation</text>
<polyline fill="none" stroke="black" points="331.612,-563 486.388,-563 "/>
<text text-anchor="start" x="339.612" y="-547.8" font-family="Times,serif" font-size="14.00">id :INTEGER</text>
<text text-anchor="start" x="339.612" y="-533.8" font-family="Times,serif" font-size="14.00">expert_form_id :integer</text>
<text text-anchor="start" x="339.612" y="-519.8" font-family="Times,serif" font-size="14.00">workpackage_id :integer</text>
<text text-anchor="start" x="339.612" y="-505.8" font-family="Times,serif" font-size="14.00">duration :integer</text>
<text text-anchor="start" x="339.612" y="-491.8" font-family="Times,serif" font-size="14.00">created_at :datetime</text>
<text text-anchor="start" x="339.612" y="-477.8" font-family="Times,serif" font-size="14.00">updated_at :datetime</text>
</g>
<!-- Workpackage -->
<g id="node24" class="node"><title>Workpackage</title>
<path fill="none" stroke="black" d="M374.495,-333C374.495,-333 483.505,-333 483.505,-333 489.505,-333 495.505,-339 495.505,-345 495.505,-345 495.505,-421 495.505,-421 495.505,-427 489.505,-433 483.505,-433 483.505,-433 374.495,-433 374.495,-433 368.495,-433 362.495,-427 362.495,-421 362.495,-421 362.495,-345 362.495,-345 362.495,-339 368.495,-333 374.495,-333"/>
<text text-anchor="middle" x="429" y="-417.8" font-family="Times,serif" font-size="14.00">Workpackage</text>
<polyline fill="none" stroke="black" points="362.495,-411 495.505,-411 "/>
<text text-anchor="start" x="370.495" y="-395.8" font-family="Times,serif" font-size="14.00">id :INTEGER</text>
<text text-anchor="start" x="370.495" y="-381.8" font-family="Times,serif" font-size="14.00">name :varchar</text>
<text text-anchor="start" x="370.495" y="-367.8" font-family="Times,serif" font-size="14.00">subtask_id :integer</text>
<text text-anchor="start" x="370.495" y="-353.8" font-family="Times,serif" font-size="14.00">created_at :datetime</text>
<text text-anchor="start" x="370.495" y="-339.8" font-family="Times,serif" font-size="14.00">updated_at :datetime</text>
</g>
<!-- Estimation&#45;&gt;Workpackage -->
<g id="edge2" class="edge"><title>Estimation&#45;&gt;Workpackage</title>
<path fill="none" stroke="#5c258a" d="M417.992,-462.704C418.98,-455.646 419.98,-448.493 420.955,-441.525"/>
<ellipse fill="none" stroke="#5c258a" cx="417.401" cy="-466.932" rx="4.00001" ry="4.00001"/>
<ellipse fill="#5c258a" stroke="#5c258a" cx="421.53" cy="-437.407" rx="4.00001" ry="4.00001"/>
</g>
<!-- EstimationTemplate -->
<g id="node5" class="node"><title>EstimationTemplate</title>
<path fill="none" stroke="black" d="M162.719,-471C162.719,-471 301.281,-471 301.281,-471 307.281,-471 313.281,-477 313.281,-483 313.281,-483 313.281,-573 313.281,-573 313.281,-579 307.281,-585 301.281,-585 301.281,-585 162.719,-585 162.719,-585 156.719,-585 150.719,-579 150.719,-573 150.719,-573 150.719,-483 150.719,-483 150.719,-477 156.719,-471 162.719,-471"/>
<text text-anchor="middle" x="232" y="-569.8" font-family="Times,serif" font-size="14.00">EstimationTemplate</text>
<polyline fill="none" stroke="black" points="150.719,-563 313.281,-563 "/>
<text text-anchor="start" x="158.719" y="-547.8" font-family="Times,serif" font-size="14.00">id :INTEGER</text>
<text text-anchor="start" x="158.719" y="-533.8" font-family="Times,serif" font-size="14.00">form_template_id :integer</text>
<text text-anchor="start" x="158.719" y="-519.8" font-family="Times,serif" font-size="14.00">workpackage_id :integer</text>
<text text-anchor="start" x="158.719" y="-505.8" font-family="Times,serif" font-size="14.00">comment :varchar</text>
<text text-anchor="start" x="158.719" y="-491.8" font-family="Times,serif" font-size="14.00">created_at :datetime</text>
<text text-anchor="start" x="158.719" y="-477.8" font-family="Times,serif" font-size="14.00">updated_at :datetime</text>
</g>
<!-- EstimationTemplate&#45;&gt;Workpackage -->
<g id="edge3" class="edge"><title>EstimationTemplate&#45;&gt;Workpackage</title>
<path fill="none" stroke="#387068" d="M315.923,-466.081C329.163,-456.47 342.763,-446.599 355.736,-437.181"/>
<ellipse fill="none" stroke="#387068" cx="312.531" cy="-468.543" rx="4.00002" ry="4.00002"/>
<ellipse fill="#387068" stroke="#387068" cx="359.221" cy="-434.652" rx="4.00002" ry="4.00002"/>
</g>
<!-- ExpertForm -->
<g id="node6" class="node"><title>ExpertForm</title>
<path fill="none" stroke="black" d="M311.119,-623C311.119,-623 420.881,-623 420.881,-623 426.881,-623 432.881,-629 432.881,-635 432.881,-635 432.881,-711 432.881,-711 432.881,-717 426.881,-723 420.881,-723 420.881,-723 311.119,-723 311.119,-723 305.119,-723 299.119,-717 299.119,-711 299.119,-711 299.119,-635 299.119,-635 299.119,-629 305.119,-623 311.119,-623"/>
<text text-anchor="middle" x="366" y="-707.8" font-family="Times,serif" font-size="14.00">ExpertForm</text>
<polyline fill="none" stroke="black" points="299.119,-701 432.881,-701 "/>
<text text-anchor="start" x="307.119" y="-685.8" font-family="Times,serif" font-size="14.00">id :INTEGER</text>
<text text-anchor="start" x="307.119" y="-671.8" font-family="Times,serif" font-size="14.00">round_id :integer</text>
<text text-anchor="start" x="307.119" y="-657.8" font-family="Times,serif" font-size="14.00">expertName :varchar</text>
<text text-anchor="start" x="307.119" y="-643.8" font-family="Times,serif" font-size="14.00">created_at :datetime</text>
<text text-anchor="start" x="307.119" y="-629.8" font-family="Times,serif" font-size="14.00">updated_at :datetime</text>
</g>
<!-- ExpertForm&#45;&gt;Estimation -->
<g id="edge4" class="edge"><title>ExpertForm&#45;&gt;Estimation</title>
<path fill="none" stroke="#b96f05" d="M383.138,-615.007C385.122,-608.408 387.158,-601.636 389.175,-594.931"/>
<ellipse fill="none" stroke="#b96f05" cx="381.95" cy="-618.957" rx="4.00001" ry="4.00001"/>
<polygon fill="#b96f05" stroke="#b96f05" points="389.227,-594.757 396.416,-586.477 390.667,-589.969 392.107,-585.181 392.107,-585.181 392.107,-585.181 390.667,-589.969 387.797,-583.885 389.227,-594.757 389.227,-594.757"/>
</g>
<!-- FormTemplate -->
<g id="node7" class="node"><title>FormTemplate</title>
<path fill="none" stroke="black" d="M160.495,-630C160.495,-630 269.505,-630 269.505,-630 275.505,-630 281.505,-636 281.505,-642 281.505,-642 281.505,-704 281.505,-704 281.505,-710 275.505,-716 269.505,-716 269.505,-716 160.495,-716 160.495,-716 154.495,-716 148.495,-710 148.495,-704 148.495,-704 148.495,-642 148.495,-642 148.495,-636 154.495,-630 160.495,-630"/>
<text text-anchor="middle" x="215" y="-700.8" font-family="Times,serif" font-size="14.00">FormTemplate</text>
<polyline fill="none" stroke="black" points="148.495,-694 281.505,-694 "/>
<text text-anchor="start" x="156.495" y="-678.8" font-family="Times,serif" font-size="14.00">id :INTEGER</text>
<text text-anchor="start" x="156.495" y="-664.8" font-family="Times,serif" font-size="14.00">round_id :integer</text>
<text text-anchor="start" x="156.495" y="-650.8" font-family="Times,serif" font-size="14.00">created_at :datetime</text>
<text text-anchor="start" x="156.495" y="-636.8" font-family="Times,serif" font-size="14.00">updated_at :datetime</text>
</g>
<!-- FormTemplate&#45;&gt;EstimationTemplate -->
<g id="edge5" class="edge"><title>FormTemplate&#45;&gt;EstimationTemplate</title>
<path fill="none" stroke="#cbf0ce" d="M220.966,-621.817C221.99,-613.203 223.068,-604.135 224.133,-595.179"/>
<ellipse fill="none" stroke="#cbf0ce" cx="220.481" cy="-625.897" rx="4.00001" ry="4.00001"/>
<polygon fill="#cbf0ce" stroke="#cbf0ce" points="224.145,-595.075 229.794,-585.677 224.735,-590.11 225.325,-585.145 225.325,-585.145 225.325,-585.145 224.735,-590.11 220.857,-584.614 224.145,-595.075 224.145,-595.075"/>
</g>
<!-- Milestone -->
<g id="node8" class="node"><title>Milestone</title>
<path fill="none" stroke="black" d="M656.822,-761C656.822,-761 775.178,-761 775.178,-761 781.178,-761 787.178,-767 787.178,-773 787.178,-773 787.178,-863 787.178,-863 787.178,-869 781.178,-875 775.178,-875 775.178,-875 656.822,-875 656.822,-875 650.822,-875 644.822,-869 644.822,-863 644.822,-863 644.822,-773 644.822,-773 644.822,-767 650.822,-761 656.822,-761"/>
<text text-anchor="middle" x="716" y="-859.8" font-family="Times,serif" font-size="14.00">Milestone</text>
<polyline fill="none" stroke="black" points="644.822,-853 787.178,-853 "/>
<text text-anchor="start" x="652.822" y="-837.8" font-family="Times,serif" font-size="14.00">id :INTEGER</text>
<text text-anchor="start" x="652.822" y="-823.8" font-family="Times,serif" font-size="14.00">roadmap_id :integer</text>
<text text-anchor="start" x="652.822" y="-809.8" font-family="Times,serif" font-size="14.00">component_id :integer</text>
<text text-anchor="start" x="652.822" y="-795.8" font-family="Times,serif" font-size="14.00">date :datetime</text>
<text text-anchor="start" x="652.822" y="-781.8" font-family="Times,serif" font-size="14.00">created_at :datetime</text>
<text text-anchor="start" x="652.822" y="-767.8" font-family="Times,serif" font-size="14.00">updated_at :datetime</text>
</g>
<!-- Modul -->
<g id="node9" class="node"><title>Modul</title>
<path fill="none" stroke="black" d="M120.819,-333C120.819,-333 239.181,-333 239.181,-333 245.181,-333 251.181,-339 251.181,-345 251.181,-345 251.181,-421 251.181,-421 251.181,-427 245.181,-433 239.181,-433 239.181,-433 120.819,-433 120.819,-433 114.819,-433 108.819,-427 108.819,-421 108.819,-421 108.819,-345 108.819,-345 108.819,-339 114.819,-333 120.819,-333"/>
<text text-anchor="middle" x="180" y="-417.8" font-family="Times,serif" font-size="14.00">Modul</text>
<polyline fill="none" stroke="black" points="108.819,-411 251.181,-411 "/>
<text text-anchor="start" x="116.819" y="-395.8" font-family="Times,serif" font-size="14.00">id :INTEGER</text>
<text text-anchor="start" x="116.819" y="-381.8" font-family="Times,serif" font-size="14.00">name :varchar</text>
<text text-anchor="start" x="116.819" y="-367.8" font-family="Times,serif" font-size="14.00">subproduct_id :integer</text>
<text text-anchor="start" x="116.819" y="-353.8" font-family="Times,serif" font-size="14.00">created_at :datetime</text>
<text text-anchor="start" x="116.819" y="-339.8" font-family="Times,serif" font-size="14.00">updated_at :datetime</text>
</g>
<!-- Modul&#45;&gt;Component -->
<g id="edge6" class="edge"><title>Modul&#45;&gt;Component</title>
<path fill="none" stroke="#927855" d="M218.311,-326.21C257.474,-269.181 318.01,-181.027 357.573,-123.415"/>
<ellipse fill="none" stroke="#927855" cx="215.933" cy="-329.674" rx="4.00002" ry="4.00002"/>
<polygon fill="#927855" stroke="#927855" points="357.592,-123.387 366.962,-117.691 360.422,-119.265 363.253,-115.143 363.253,-115.143 363.253,-115.143 360.422,-119.265 359.543,-112.596 357.592,-123.387 357.592,-123.387"/>
</g>
<!-- ProductBreakdownStructure -->
<g id="node10" class="node"><title>ProductBreakdownStructure</title>
<path fill="none" stroke="black" d="M34.2964,-775C34.2964,-775 185.704,-775 185.704,-775 191.704,-775 197.704,-781 197.704,-787 197.704,-787 197.704,-849 197.704,-849 197.704,-855 191.704,-861 185.704,-861 185.704,-861 34.2964,-861 34.2964,-861 28.2964,-861 22.2964,-855 22.2964,-849 22.2964,-849 22.2964,-787 22.2964,-787 22.2964,-781 28.2964,-775 34.2964,-775"/>
<text text-anchor="middle" x="110" y="-845.8" font-family="Times,serif" font-size="14.00">ProductBreakdownStructure</text>
<polyline fill="none" stroke="black" points="22.2964,-839 197.704,-839 "/>
<text text-anchor="start" x="30.2964" y="-823.8" font-family="Times,serif" font-size="14.00">id :INTEGER</text>
<text text-anchor="start" x="30.2964" y="-809.8" font-family="Times,serif" font-size="14.00">p_id :integer</text>
<text text-anchor="start" x="30.2964" y="-795.8" font-family="Times,serif" font-size="14.00">created_at :datetime</text>
<text text-anchor="start" x="30.2964" y="-781.8" font-family="Times,serif" font-size="14.00">updated_at :datetime</text>
</g>
<!-- Subproduct -->
<g id="node19" class="node"><title>Subproduct</title>
<path fill="none" stroke="black" d="M11.4946,-478C11.4946,-478 120.505,-478 120.505,-478 126.505,-478 132.505,-484 132.505,-490 132.505,-490 132.505,-566 132.505,-566 132.505,-572 126.505,-578 120.505,-578 120.505,-578 11.4946,-578 11.4946,-578 5.49463,-578 -0.505371,-572 -0.505371,-566 -0.505371,-566 -0.505371,-490 -0.505371,-490 -0.505371,-484 5.49463,-478 11.4946,-478"/>
<text text-anchor="middle" x="66" y="-562.8" font-family="Times,serif" font-size="14.00">Subproduct</text>
<polyline fill="none" stroke="black" points="-0.505371,-556 132.505,-556 "/>
<text text-anchor="start" x="7.49463" y="-540.8" font-family="Times,serif" font-size="14.00">id :INTEGER</text>
<text text-anchor="start" x="7.49463" y="-526.8" font-family="Times,serif" font-size="14.00">name :varchar</text>
<text text-anchor="start" x="7.49463" y="-512.8" font-family="Times,serif" font-size="14.00">pbs_id :integer</text>
<text text-anchor="start" x="7.49463" y="-498.8" font-family="Times,serif" font-size="14.00">created_at :datetime</text>
<text text-anchor="start" x="7.49463" y="-484.8" font-family="Times,serif" font-size="14.00">updated_at :datetime</text>
</g>
<!-- ProductBreakdownStructure&#45;&gt;Subproduct -->
<g id="edge7" class="edge"><title>ProductBreakdownStructure&#45;&gt;Subproduct</title>
<path fill="none" stroke="#1c7215" d="M102.345,-766.892C94.7481,-717.169 83.1061,-640.967 75.0546,-588.267"/>
<ellipse fill="none" stroke="#1c7215" cx="102.951" cy="-770.86" rx="4.00001" ry="4.00001"/>
<polygon fill="#1c7215" stroke="#1c7215" points="75.0048,-587.94 77.9429,-577.375 74.2496,-582.997 73.4945,-578.055 73.4945,-578.055 73.4945,-578.055 74.2496,-582.997 69.0461,-578.734 75.0048,-587.94 75.0048,-587.94"/>
</g>
<!-- Project -->
<g id="node11" class="node"><title>Project</title>
<path fill="none" stroke="black" d="M508.495,-1037C508.495,-1037 617.505,-1037 617.505,-1037 623.505,-1037 629.505,-1043 629.505,-1049 629.505,-1049 629.505,-1111 629.505,-1111 629.505,-1117 623.505,-1123 617.505,-1123 617.505,-1123 508.495,-1123 508.495,-1123 502.495,-1123 496.495,-1117 496.495,-1111 496.495,-1111 496.495,-1049 496.495,-1049 496.495,-1043 502.495,-1037 508.495,-1037"/>
<text text-anchor="middle" x="563" y="-1107.8" font-family="Times,serif" font-size="14.00">Project</text>
<polyline fill="none" stroke="black" points="496.495,-1101 629.505,-1101 "/>
<text text-anchor="start" x="504.495" y="-1085.8" font-family="Times,serif" font-size="14.00">id :INTEGER</text>
<text text-anchor="start" x="504.495" y="-1071.8" font-family="Times,serif" font-size="14.00">name :varchar</text>
<text text-anchor="start" x="504.495" y="-1057.8" font-family="Times,serif" font-size="14.00">created_at :datetime</text>
<text text-anchor="start" x="504.495" y="-1043.8" font-family="Times,serif" font-size="14.00">updated_at :datetime</text>
</g>
<!-- Project&#45;&gt;DelphiEstimation -->
<g id="edge12" class="edge"><title>Project&#45;&gt;DelphiEstimation</title>
<path fill="none" stroke="#89e41f" d="M489.309,-1037.26C488.536,-1036.84 487.766,-1036.42 487,-1036 456.61,-1019.48 448.39,-1016.52 418,-1000 417.234,-999.584 416.464,-999.164 415.691,-998.742"/>
<ellipse fill="none" stroke="#89e41f" cx="492.837" cy="-1039.19" rx="4.00002" ry="4.00002"/>
<ellipse fill="#89e41f" stroke="#89e41f" cx="412.163" cy="-996.807" rx="4.00002" ry="4.00002"/>
</g>
<!-- Project&#45;&gt;ProductBreakdownStructure -->
<g id="edge9" class="edge"><title>Project&#45;&gt;ProductBreakdownStructure</title>
<path fill="none" stroke="#2e0c95" d="M488.772,-1036.64C488.181,-1036.42 487.59,-1036.21 487,-1036 393.12,-1002.98 352.83,-1048.62 266,-1000 210.455,-968.897 165.446,-910.044 138.301,-867.886"/>
<ellipse fill="none" stroke="#2e0c95" cx="492.752" cy="-1038.2" rx="4.00001" ry="4.00001"/>
<ellipse fill="#2e0c95" stroke="#2e0c95" cx="136.079" cy="-864.385" rx="4.00002" ry="4.00002"/>
</g>
<!-- ResourceAllocationMatrix -->
<g id="node14" class="node"><title>ResourceAllocationMatrix</title>
<path fill="none" stroke="black" d="M554.355,-485C554.355,-485 695.645,-485 695.645,-485 701.645,-485 707.645,-491 707.645,-497 707.645,-497 707.645,-559 707.645,-559 707.645,-565 701.645,-571 695.645,-571 695.645,-571 554.355,-571 554.355,-571 548.355,-571 542.355,-565 542.355,-559 542.355,-559 542.355,-497 542.355,-497 542.355,-491 548.355,-485 554.355,-485"/>
<text text-anchor="middle" x="625" y="-555.8" font-family="Times,serif" font-size="14.00">ResourceAllocationMatrix</text>
<polyline fill="none" stroke="black" points="542.355,-549 707.645,-549 "/>
<text text-anchor="start" x="550.355" y="-533.8" font-family="Times,serif" font-size="14.00">id :INTEGER</text>
<text text-anchor="start" x="550.355" y="-519.8" font-family="Times,serif" font-size="14.00">p_id :integer</text>
<text text-anchor="start" x="550.355" y="-505.8" font-family="Times,serif" font-size="14.00">created_at :datetime</text>
<text text-anchor="start" x="550.355" y="-491.8" font-family="Times,serif" font-size="14.00">updated_at :datetime</text>
</g>
<!-- Project&#45;&gt;ResourceAllocationMatrix -->
<g id="edge13" class="edge"><title>Project&#45;&gt;ResourceAllocationMatrix</title>
<path fill="none" stroke="#d2ea3e" d="M588.189,-1029.41C592.109,-1019.86 595.636,-1009.78 598,-1000 634.164,-850.378 631.782,-666.596 627.958,-579.448"/>
<ellipse fill="none" stroke="#d2ea3e" cx="586.547" cy="-1033.26" rx="4.00002" ry="4.00002"/>
<ellipse fill="#d2ea3e" stroke="#d2ea3e" cx="627.768" cy="-575.316" rx="4" ry="4"/>
</g>
<!-- ResourceBreakdownStructure -->
<g id="node15" class="node"><title>ResourceBreakdownStructure</title>
<path fill="none" stroke="black" d="M660.027,-630C660.027,-630 819.973,-630 819.973,-630 825.973,-630 831.973,-636 831.973,-642 831.973,-642 831.973,-704 831.973,-704 831.973,-710 825.973,-716 819.973,-716 819.973,-716 660.027,-716 660.027,-716 654.027,-716 648.027,-710 648.027,-704 648.027,-704 648.027,-642 648.027,-642 648.027,-636 654.027,-630 660.027,-630"/>
<text text-anchor="middle" x="740" y="-700.8" font-family="Times,serif" font-size="14.00">ResourceBreakdownStructure</text>
<polyline fill="none" stroke="black" points="648.027,-694 831.973,-694 "/>
<text text-anchor="start" x="656.027" y="-678.8" font-family="Times,serif" font-size="14.00">id :INTEGER</text>
<text text-anchor="start" x="656.027" y="-664.8" font-family="Times,serif" font-size="14.00">p_id :integer</text>
<text text-anchor="start" x="656.027" y="-650.8" font-family="Times,serif" font-size="14.00">created_at :datetime</text>
<text text-anchor="start" x="656.027" y="-636.8" font-family="Times,serif" font-size="14.00">updated_at :datetime</text>
</g>
<!-- Project&#45;&gt;ResourceBreakdownStructure -->
<g id="edge10" class="edge"><title>Project&#45;&gt;ResourceBreakdownStructure</title>
<path fill="none" stroke="#0886e7" d="M637.805,-1073.79C689.023,-1065.95 753.815,-1046.72 789,-1000 853.194,-914.756 826.371,-862.299 796,-760 792.221,-747.27 785.895,-734.663 778.827,-723.186"/>
<ellipse fill="none" stroke="#0886e7" cx="633.667" cy="-1074.39" rx="4.00001" ry="4.00001"/>
<ellipse fill="#0886e7" stroke="#0886e7" cx="776.504" cy="-719.563" rx="4.00002" ry="4.00002"/>
</g>
<!-- Roadmap -->
<g id="node16" class="node"><title>Roadmap</title>
<path fill="none" stroke="black" d="M659.495,-913C659.495,-913 768.505,-913 768.505,-913 774.505,-913 780.505,-919 780.505,-925 780.505,-925 780.505,-987 780.505,-987 780.505,-993 774.505,-999 768.505,-999 768.505,-999 659.495,-999 659.495,-999 653.495,-999 647.495,-993 647.495,-987 647.495,-987 647.495,-925 647.495,-925 647.495,-919 653.495,-913 659.495,-913"/>
<text text-anchor="middle" x="714" y="-983.8" font-family="Times,serif" font-size="14.00">Roadmap</text>
<polyline fill="none" stroke="black" points="647.495,-977 780.505,-977 "/>
<text text-anchor="start" x="655.495" y="-961.8" font-family="Times,serif" font-size="14.00">id :INTEGER</text>
<text text-anchor="start" x="655.495" y="-947.8" font-family="Times,serif" font-size="14.00">p_id :integer</text>
<text text-anchor="start" x="655.495" y="-933.8" font-family="Times,serif" font-size="14.00">created_at :datetime</text>
<text text-anchor="start" x="655.495" y="-919.8" font-family="Times,serif" font-size="14.00">updated_at :datetime</text>
</g>
<!-- Project&#45;&gt;Roadmap -->
<g id="edge11" class="edge"><title>Project&#45;&gt;Roadmap</title>
<path fill="none" stroke="#d0ef34" d="M621.822,-1031.47C632.889,-1022.53 644.46,-1013.18 655.516,-1004.25"/>
<ellipse fill="none" stroke="#d0ef34" cx="618.5" cy="-1034.16" rx="4.00002" ry="4.00002"/>
<ellipse fill="#d0ef34" stroke="#d0ef34" cx="658.848" cy="-1001.56" rx="4.00002" ry="4.00002"/>
</g>
<!-- WorkBreakdownStructure -->
<g id="node23" class="node"><title>WorkBreakdownStructure</title>
<path fill="none" stroke="black" d="M438.691,-913C438.691,-913 577.309,-913 577.309,-913 583.309,-913 589.309,-919 589.309,-925 589.309,-925 589.309,-987 589.309,-987 589.309,-993 583.309,-999 577.309,-999 577.309,-999 438.691,-999 438.691,-999 432.691,-999 426.691,-993 426.691,-987 426.691,-987 426.691,-925 426.691,-925 426.691,-919 432.691,-913 438.691,-913"/>
<text text-anchor="middle" x="508" y="-983.8" font-family="Times,serif" font-size="14.00">WorkBreakdownStructure</text>
<polyline fill="none" stroke="black" points="426.691,-977 589.309,-977 "/>
<text text-anchor="start" x="434.691" y="-961.8" font-family="Times,serif" font-size="14.00">id :INTEGER</text>
<text text-anchor="start" x="434.691" y="-947.8" font-family="Times,serif" font-size="14.00">p_id :integer</text>
<text text-anchor="start" x="434.691" y="-933.8" font-family="Times,serif" font-size="14.00">created_at :datetime</text>
<text text-anchor="start" x="434.691" y="-919.8" font-family="Times,serif" font-size="14.00">updated_at :datetime</text>
</g>
<!-- Project&#45;&gt;WorkBreakdownStructure -->
<g id="edge8" class="edge"><title>Project&#45;&gt;WorkBreakdownStructure</title>
<path fill="none" stroke="#67fce8" d="M540.538,-1029.18C537.18,-1021.73 533.718,-1014.05 530.361,-1006.6"/>
<ellipse fill="none" stroke="#67fce8" cx="542.274" cy="-1033.03" rx="4.00002" ry="4.00002"/>
<ellipse fill="#67fce8" stroke="#67fce8" cx="528.692" cy="-1002.9" rx="4.00002" ry="4.00002"/>
</g>
<!-- RamEntry -->
<g id="node12" class="node"><title>RamEntry</title>
<path fill="none" stroke="black" d="M395.612,-167C395.612,-167 526.388,-167 526.388,-167 532.388,-167 538.388,-173 538.388,-179 538.388,-179 538.388,-283 538.388,-283 538.388,-289 532.388,-295 526.388,-295 526.388,-295 395.612,-295 395.612,-295 389.612,-295 383.612,-289 383.612,-283 383.612,-283 383.612,-179 383.612,-179 383.612,-173 389.612,-167 395.612,-167"/>
<text text-anchor="middle" x="461" y="-279.8" font-family="Times,serif" font-size="14.00">RamEntry</text>
<polyline fill="none" stroke="black" points="383.612,-273 538.388,-273 "/>
<text text-anchor="start" x="391.612" y="-257.8" font-family="Times,serif" font-size="14.00">id :INTEGER</text>
<text text-anchor="start" x="391.612" y="-243.8" font-family="Times,serif" font-size="14.00">ram_id :integer</text>
<text text-anchor="start" x="391.612" y="-229.8" font-family="Times,serif" font-size="14.00">workpackage_id :integer</text>
<text text-anchor="start" x="391.612" y="-215.8" font-family="Times,serif" font-size="14.00">component_id :integer</text>
<text text-anchor="start" x="391.612" y="-201.8" font-family="Times,serif" font-size="14.00">resource_id :integer</text>
<text text-anchor="start" x="391.612" y="-187.8" font-family="Times,serif" font-size="14.00">created_at :datetime</text>
<text text-anchor="start" x="391.612" y="-173.8" font-family="Times,serif" font-size="14.00">updated_at :datetime</text>
</g>
<!-- RamEntry&#45;&gt;Component -->
<g id="edge15" class="edge"><title>RamEntry&#45;&gt;Component</title>
<path fill="none" stroke="#52e6b5" d="M433.27,-158.943C428.554,-146.857 423.711,-134.448 419.163,-122.792"/>
<ellipse fill="none" stroke="#52e6b5" cx="434.802" cy="-162.867" rx="4.00001" ry="4.00001"/>
<ellipse fill="#52e6b5" stroke="#52e6b5" cx="417.674" cy="-118.978" rx="4.00001" ry="4.00001"/>
</g>
<!-- Resource -->
<g id="node13" class="node"><title>Resource</title>
<path fill="none" stroke="black" d="M561.329,-1C561.329,-1 672.671,-1 672.671,-1 678.671,-1 684.671,-7 684.671,-13 684.671,-13 684.671,-117 684.671,-117 684.671,-123 678.671,-129 672.671,-129 672.671,-129 561.329,-129 561.329,-129 555.329,-129 549.329,-123 549.329,-117 549.329,-117 549.329,-13 549.329,-13 549.329,-7 555.329,-1 561.329,-1"/>
<text text-anchor="middle" x="617" y="-113.8" font-family="Times,serif" font-size="14.00">Resource</text>
<polyline fill="none" stroke="black" points="549.329,-107 684.671,-107 "/>
<text text-anchor="start" x="557.329" y="-91.8" font-family="Times,serif" font-size="14.00">id :INTEGER</text>
<text text-anchor="start" x="557.329" y="-77.8" font-family="Times,serif" font-size="14.00">role_id :integer</text>
<text text-anchor="start" x="557.329" y="-63.8" font-family="Times,serif" font-size="14.00">qualification :varchar</text>
<text text-anchor="start" x="557.329" y="-49.8" font-family="Times,serif" font-size="14.00">experience :varchar</text>
<text text-anchor="start" x="557.329" y="-35.8" font-family="Times,serif" font-size="14.00">quantitiy :decimal</text>
<text text-anchor="start" x="557.329" y="-21.8" font-family="Times,serif" font-size="14.00">created_at :datetime</text>
<text text-anchor="start" x="557.329" y="-7.8" font-family="Times,serif" font-size="14.00">updated_at :datetime</text>
</g>
<!-- RamEntry&#45;&gt;Resource -->
<g id="edge14" class="edge"><title>RamEntry&#45;&gt;Resource</title>
<path fill="none" stroke="#7e04c4" d="M527.093,-160.518C535.116,-152.083 543.312,-143.467 551.329,-135.039"/>
<ellipse fill="none" stroke="#7e04c4" cx="524.071" cy="-163.695" rx="4.00002" ry="4.00002"/>
<ellipse fill="#7e04c4" stroke="#7e04c4" cx="554.09" cy="-132.136" rx="4.00002" ry="4.00002"/>
</g>
<!-- ResourceAllocationMatrix&#45;&gt;RamEntry -->
<g id="edge16" class="edge"><title>ResourceAllocationMatrix&#45;&gt;RamEntry</title>
<path fill="none" stroke="#4ca2e1" d="M597.505,-477.542C571.1,-430.045 530.913,-357.759 500.972,-303.901"/>
<ellipse fill="none" stroke="#4ca2e1" cx="599.559" cy="-481.238" rx="4.00002" ry="4.00002"/>
<polygon fill="#4ca2e1" stroke="#4ca2e1" points="500.93,-303.826 500.004,-292.899 498.501,-299.456 496.071,-295.086 496.071,-295.086 496.071,-295.086 498.501,-299.456 492.138,-297.272 500.93,-303.826 500.93,-303.826"/>
</g>
<!-- Type -->
<g id="node22" class="node"><title>Type</title>
<path fill="none" stroke="black" d="M663.495,-333C663.495,-333 772.505,-333 772.505,-333 778.505,-333 784.505,-339 784.505,-345 784.505,-345 784.505,-421 784.505,-421 784.505,-427 778.505,-433 772.505,-433 772.505,-433 663.495,-433 663.495,-433 657.495,-433 651.495,-427 651.495,-421 651.495,-421 651.495,-345 651.495,-345 651.495,-339 657.495,-333 663.495,-333"/>
<text text-anchor="middle" x="718" y="-417.8" font-family="Times,serif" font-size="14.00">Type</text>
<polyline fill="none" stroke="black" points="651.495,-411 784.505,-411 "/>
<text text-anchor="start" x="659.495" y="-395.8" font-family="Times,serif" font-size="14.00">id :INTEGER</text>
<text text-anchor="start" x="659.495" y="-381.8" font-family="Times,serif" font-size="14.00">name :varchar</text>
<text text-anchor="start" x="659.495" y="-367.8" font-family="Times,serif" font-size="14.00">rbs_id :integer</text>
<text text-anchor="start" x="659.495" y="-353.8" font-family="Times,serif" font-size="14.00">created_at :datetime</text>
<text text-anchor="start" x="659.495" y="-339.8" font-family="Times,serif" font-size="14.00">updated_at :datetime</text>
</g>
<!-- ResourceBreakdownStructure&#45;&gt;Type -->
<g id="edge17" class="edge"><title>ResourceBreakdownStructure&#45;&gt;Type</title>
<path fill="none" stroke="#43fada" d="M736.147,-621.565C732.348,-571.829 726.543,-495.831 722.526,-443.245"/>
<ellipse fill="none" stroke="#43fada" cx="736.473" cy="-625.826" rx="4" ry="4"/>
<polygon fill="#43fada" stroke="#43fada" points="722.509,-443.026 726.234,-432.712 722.128,-438.04 721.747,-433.055 721.747,-433.055 721.747,-433.055 722.128,-438.04 717.26,-433.398 722.509,-443.026 722.509,-443.026"/>
</g>
<!-- Roadmap&#45;&gt;Milestone -->
<g id="edge18" class="edge"><title>Roadmap&#45;&gt;Milestone</title>
<path fill="none" stroke="#fae688" d="M714.743,-904.491C714.835,-898.24 714.93,-891.778 715.024,-885.335"/>
<ellipse fill="none" stroke="#fae688" cx="714.681" cy="-908.715" rx="4" ry="4"/>
<polygon fill="#fae688" stroke="#fae688" points="715.025,-885.26 719.672,-875.327 715.099,-880.261 715.173,-875.261 715.173,-875.261 715.173,-875.261 715.099,-880.261 710.673,-875.195 715.025,-885.26 715.025,-885.26"/>
</g>
<!-- Role -->
<g id="node17" class="node"><title>Role</title>
<path fill="none" stroke="black" d="M631.495,-181C631.495,-181 740.505,-181 740.505,-181 746.505,-181 752.505,-187 752.505,-193 752.505,-193 752.505,-269 752.505,-269 752.505,-275 746.505,-281 740.505,-281 740.505,-281 631.495,-281 631.495,-281 625.495,-281 619.495,-275 619.495,-269 619.495,-269 619.495,-193 619.495,-193 619.495,-187 625.495,-181 631.495,-181"/>
<text text-anchor="middle" x="686" y="-265.8" font-family="Times,serif" font-size="14.00">Role</text>
<polyline fill="none" stroke="black" points="619.495,-259 752.505,-259 "/>
<text text-anchor="start" x="627.495" y="-243.8" font-family="Times,serif" font-size="14.00">id :INTEGER</text>
<text text-anchor="start" x="627.495" y="-229.8" font-family="Times,serif" font-size="14.00">name :varchar</text>
<text text-anchor="start" x="627.495" y="-215.8" font-family="Times,serif" font-size="14.00">type_id :integer</text>
<text text-anchor="start" x="627.495" y="-201.8" font-family="Times,serif" font-size="14.00">created_at :datetime</text>
<text text-anchor="start" x="627.495" y="-187.8" font-family="Times,serif" font-size="14.00">updated_at :datetime</text>
</g>
<!-- Role&#45;&gt;Resource -->
<g id="edge19" class="edge"><title>Role&#45;&gt;Resource</title>
<path fill="none" stroke="#fe9151" d="M662.039,-173.05C657.336,-161.871 652.343,-150.005 647.46,-138.399"/>
<ellipse fill="none" stroke="#fe9151" cx="663.746" cy="-177.108" rx="4.00001" ry="4.00001"/>
<polygon fill="#fe9151" stroke="#fe9151" points="647.454,-138.382 647.723,-127.42 645.514,-133.773 643.575,-129.165 643.575,-129.165 643.575,-129.165 645.514,-133.773 639.428,-130.91 647.454,-138.382 647.454,-138.382"/>
</g>
<!-- Round&#45;&gt;ExpertForm -->
<g id="edge20" class="edge"><title>Round&#45;&gt;ExpertForm</title>
<path fill="none" stroke="#157c30" d="M352.742,-752.998C353.834,-746.492 354.94,-739.902 356.023,-733.447"/>
<ellipse fill="none" stroke="#157c30" cx="352.079" cy="-756.948" rx="4.00001" ry="4.00001"/>
<polygon fill="#157c30" stroke="#157c30" points="356.046,-733.308 362.139,-724.19 356.874,-728.377 357.701,-723.446 357.701,-723.446 357.701,-723.446 356.874,-728.377 353.264,-722.701 356.046,-733.308 356.046,-733.308"/>
</g>
<!-- Round&#45;&gt;FormTemplate -->
<g id="edge21" class="edge"><title>Round&#45;&gt;FormTemplate</title>
<path fill="none" stroke="#b9e00d" d="M286.558,-754.573C276.94,-743.744 267.072,-732.632 257.855,-722.254"/>
<ellipse fill="none" stroke="#b9e00d" cx="289.515" cy="-757.902" rx="4.00002" ry="4.00002"/>
<ellipse fill="#b9e00d" stroke="#b9e00d" cx="255.166" cy="-719.226" rx="4.00002" ry="4.00002"/>
</g>
<!-- Subproduct&#45;&gt;Modul -->
<g id="edge22" class="edge"><title>Subproduct&#45;&gt;Modul</title>
<path fill="none" stroke="#516350" d="M110.401,-471.304C118.285,-461.414 126.508,-451.099 134.425,-441.169"/>
<ellipse fill="none" stroke="#516350" cx="107.726" cy="-474.66" rx="4.00002" ry="4.00002"/>
<polygon fill="#516350" stroke="#516350" points="134.462,-441.123 144.214,-436.108 137.579,-437.213 140.695,-433.303 140.695,-433.303 140.695,-433.303 137.579,-437.213 137.177,-430.498 134.462,-441.123 134.462,-441.123"/>
</g>
<!-- Subtask -->
<g id="node20" class="node"><title>Subtask</title>
<path fill="none" stroke="black" d="M462.495,-623C462.495,-623 571.505,-623 571.505,-623 577.505,-623 583.505,-629 583.505,-635 583.505,-635 583.505,-711 583.505,-711 583.505,-717 577.505,-723 571.505,-723 571.505,-723 462.495,-723 462.495,-723 456.495,-723 450.495,-717 450.495,-711 450.495,-711 450.495,-635 450.495,-635 450.495,-629 456.495,-623 462.495,-623"/>
<text text-anchor="middle" x="517" y="-707.8" font-family="Times,serif" font-size="14.00">Subtask</text>
<polyline fill="none" stroke="black" points="450.495,-701 583.505,-701 "/>
<text text-anchor="start" x="458.495" y="-685.8" font-family="Times,serif" font-size="14.00">id :INTEGER</text>
<text text-anchor="start" x="458.495" y="-671.8" font-family="Times,serif" font-size="14.00">name :varchar</text>
<text text-anchor="start" x="458.495" y="-657.8" font-family="Times,serif" font-size="14.00">task_id :integer</text>
<text text-anchor="start" x="458.495" y="-643.8" font-family="Times,serif" font-size="14.00">created_at :datetime</text>
<text text-anchor="start" x="458.495" y="-629.8" font-family="Times,serif" font-size="14.00">updated_at :datetime</text>
</g>
<!-- Subtask&#45;&gt;Workpackage -->
<g id="edge23" class="edge"><title>Subtask&#45;&gt;Workpackage</title>
<path fill="none" stroke="#65abed" d="M518.889,-614.777C518.351,-573.206 513.594,-516.348 495,-470 491.123,-460.337 485.84,-450.834 479.939,-441.874"/>
<ellipse fill="none" stroke="#65abed" cx="518.916" cy="-618.88" rx="4" ry="4"/>
<polygon fill="#65abed" stroke="#65abed" points="479.809,-441.685 477.819,-430.901 476.963,-437.573 474.118,-433.462 474.118,-433.462 474.118,-433.462 476.963,-437.573 470.418,-436.022 479.809,-441.685 479.809,-441.685"/>
</g>
<!-- Task -->
<g id="node21" class="node"><title>Task</title>
<path fill="none" stroke="black" d="M462.495,-768C462.495,-768 571.505,-768 571.505,-768 577.505,-768 583.505,-774 583.505,-780 583.505,-780 583.505,-856 583.505,-856 583.505,-862 577.505,-868 571.505,-868 571.505,-868 462.495,-868 462.495,-868 456.495,-868 450.495,-862 450.495,-856 450.495,-856 450.495,-780 450.495,-780 450.495,-774 456.495,-768 462.495,-768"/>
<text text-anchor="middle" x="517" y="-852.8" font-family="Times,serif" font-size="14.00">Task</text>
<polyline fill="none" stroke="black" points="450.495,-846 583.505,-846 "/>
<text text-anchor="start" x="458.495" y="-830.8" font-family="Times,serif" font-size="14.00">id :INTEGER</text>
<text text-anchor="start" x="458.495" y="-816.8" font-family="Times,serif" font-size="14.00">name :varchar</text>
<text text-anchor="start" x="458.495" y="-802.8" font-family="Times,serif" font-size="14.00">wbs_id :integer</text>
<text text-anchor="start" x="458.495" y="-788.8" font-family="Times,serif" font-size="14.00">created_at :datetime</text>
<text text-anchor="start" x="458.495" y="-774.8" font-family="Times,serif" font-size="14.00">updated_at :datetime</text>
</g>
<!-- Task&#45;&gt;Subtask -->
<g id="edge24" class="edge"><title>Task&#45;&gt;Subtask</title>
<path fill="none" stroke="#3f5f94" d="M517,-759.575C517,-750.939 517,-742.018 517,-733.342"/>
<ellipse fill="none" stroke="#3f5f94" cx="517" cy="-763.788" rx="4" ry="4"/>
<polygon fill="#3f5f94" stroke="#3f5f94" points="517,-733.303 521.5,-723.303 517,-728.303 517,-723.303 517,-723.303 517,-723.303 517,-728.303 512.5,-723.303 517,-733.303 517,-733.303"/>
</g>
<!-- Type&#45;&gt;Role -->
<g id="edge25" class="edge"><title>Type&#45;&gt;Role</title>
<path fill="none" stroke="#c6df20" d="M705.838,-324.988C703.483,-313.953 701.011,-302.365 698.642,-291.26"/>
<ellipse fill="none" stroke="#c6df20" cx="706.687" cy="-328.972" rx="4.00001" ry="4.00001"/>
<polygon fill="#c6df20" stroke="#c6df20" points="698.588,-291.006 700.903,-280.287 697.545,-286.116 696.502,-281.226 696.502,-281.226 696.502,-281.226 697.545,-286.116 692.101,-282.165 698.588,-291.006 698.588,-291.006"/>
</g>
<!-- WorkBreakdownStructure&#45;&gt;Task -->
<g id="edge26" class="edge"><title>WorkBreakdownStructure&#45;&gt;Task</title>
<path fill="none" stroke="#6909e2" d="M511.331,-904.658C511.895,-896.146 512.484,-887.238 513.061,-878.519"/>
<ellipse fill="none" stroke="#6909e2" cx="511.062" cy="-908.723" rx="4" ry="4"/>
<polygon fill="#6909e2" stroke="#6909e2" points="513.07,-878.384 518.221,-868.703 513.4,-873.395 513.731,-868.406 513.731,-868.406 513.731,-868.406 513.4,-873.395 509.24,-868.108 513.07,-878.384 513.07,-878.384"/>
</g>
<!-- Workpackage&#45;&gt;RamEntry -->
<g id="edge27" class="edge"><title>Workpackage&#45;&gt;RamEntry</title>
<path fill="none" stroke="#14d388" d="M441.192,-324.848C442.713,-317.722 444.282,-310.367 445.84,-303.062"/>
<ellipse fill="none" stroke="#14d388" cx="440.313" cy="-328.972" rx="4.00001" ry="4.00001"/>
<ellipse fill="#14d388" stroke="#14d388" cx="446.689" cy="-299.081" rx="4.00001" ry="4.00001"/>
</g>
</g>
</svg>
