<?xml version="1.0" encoding="UTF-8" standalone="no"?>
<!DOCTYPE svg PUBLIC "-//W3C//DTD SVG 1.1//EN"
 "http://www.w3.org/Graphics/SVG/1.1/DTD/svg11.dtd">
<!-- Generated by graphviz version 2.36.0 (20140111.2315)
 -->
<!-- Title: models_diagram Pages: 1 -->
<svg width="873pt" height="586pt"
 viewBox="0.00 0.00 873.00 586.00" xmlns="http://www.w3.org/2000/svg" xmlns:xlink="http://www.w3.org/1999/xlink">
<g id="graph0" class="graph" transform="scale(1 1) rotate(0) translate(4 582)">
<title>models_diagram</title>
<polygon fill="none" stroke="none" points="-4,4 -4,-582 869,-582 869,4 -4,4"/>
<!-- _diagram_info -->
<g id="node1" class="node"><title>_diagram_info</title>
<text text-anchor="start" x="286.312" y="-563.1" font-family="Times,serif" font-size="13.00">Models diagram</text>
<text text-anchor="start" x="286.312" y="-550.1" font-family="Times,serif" font-size="13.00">Date: Jan 28 2016 &#45; 14:56</text>
<text text-anchor="start" x="286.312" y="-537.1" font-family="Times,serif" font-size="13.00">Migration version: 20160127163157</text>
<text text-anchor="start" x="286.312" y="-524.1" font-family="Times,serif" font-size="13.00">Generated by RailRoady 1.4.2</text>
<text text-anchor="start" x="286.312" y="-511.1" font-family="Times,serif" font-size="13.00">http://railroady.prestonlee.com</text>
</g>
<!-- Component -->
<g id="node2" class="node"><title>Component</title>
<ellipse fill="none" stroke="black" cx="428" cy="-18" rx="51.0631" ry="18"/>
<text text-anchor="middle" x="428" y="-13.8" font-family="Times,serif" font-size="14.00">Component</text>
</g>
<!-- DelphiEstimation -->
<g id="node3" class="node"><title>DelphiEstimation</title>
<ellipse fill="none" stroke="black" cx="280" cy="-450" rx="72.2421" ry="18"/>
<text text-anchor="middle" x="280" y="-445.8" font-family="Times,serif" font-size="14.00">DelphiEstimation</text>
</g>
<!-- Round -->
<g id="node18" class="node"><title>Round</title>
<ellipse fill="none" stroke="black" cx="280" cy="-378" rx="33.5375" ry="18"/>
<text text-anchor="middle" x="280" y="-373.8" font-family="Times,serif" font-size="14.00">Round</text>
</g>
<!-- DelphiEstimation&#45;&gt;Round -->
<g id="edge1" class="edge"><title>DelphiEstimation&#45;&gt;Round</title>
<path fill="none" stroke="#bb0f77" d="M280,-423.64C280,-418.063 280,-412.132 280,-406.476"/>
<ellipse fill="none" stroke="#bb0f77" cx="280" cy="-427.697" rx="4" ry="4"/>
<polygon fill="#bb0f77" stroke="#bb0f77" points="280,-406.104 284.5,-396.104 280,-401.104 280,-396.104 280,-396.104 280,-396.104 280,-401.104 275.5,-396.104 280,-406.104 280,-406.104"/>
</g>
<!-- Estimation -->
<g id="node4" class="node"><title>Estimation</title>
<ellipse fill="none" stroke="black" cx="400" cy="-234" rx="48.1389" ry="18"/>
<text text-anchor="middle" x="400" y="-229.8" font-family="Times,serif" font-size="14.00">Estimation</text>
</g>
<!-- Workpackage -->
<g id="node24" class="node"><title>Workpackage</title>
<ellipse fill="none" stroke="black" cx="430" cy="-162" rx="58.2561" ry="18"/>
<text text-anchor="middle" x="430" y="-157.8" font-family="Times,serif" font-size="14.00">Workpackage</text>
</g>
<!-- Estimation&#45;&gt;Workpackage -->
<g id="edge2" class="edge"><title>Estimation&#45;&gt;Workpackage</title>
<path fill="none" stroke="#e90aa9" d="M410.48,-208.548C413.352,-201.846 416.468,-194.575 419.35,-187.851"/>
<ellipse fill="none" stroke="#e90aa9" cx="408.838" cy="-212.378" rx="4.00002" ry="4.00002"/>
<ellipse fill="#e90aa9" stroke="#e90aa9" cx="421.021" cy="-183.952" rx="4.00002" ry="4.00002"/>
</g>
<!-- EstimationTemplate -->
<g id="node5" class="node"><title>EstimationTemplate</title>
<ellipse fill="none" stroke="black" cx="252" cy="-234" rx="81.3002" ry="18"/>
<text text-anchor="middle" x="252" y="-229.8" font-family="Times,serif" font-size="14.00">EstimationTemplate</text>
</g>
<!-- EstimationTemplate&#45;&gt;Workpackage -->
<g id="edge3" class="edge"><title>EstimationTemplate&#45;&gt;Workpackage</title>
<path fill="none" stroke="#fdeced" d="M297.73,-215.016C325.472,-204.107 360.627,-190.281 387.721,-179.627"/>
<ellipse fill="none" stroke="#fdeced" cx="293.908" cy="-216.519" rx="4.00001" ry="4.00001"/>
<ellipse fill="#fdeced" stroke="#fdeced" cx="391.771" cy="-178.034" rx="4.00001" ry="4.00001"/>
</g>
<!-- ExpertForm -->
<g id="node6" class="node"><title>ExpertForm</title>
<ellipse fill="none" stroke="black" cx="376" cy="-306" rx="52.2663" ry="18"/>
<text text-anchor="middle" x="376" y="-301.8" font-family="Times,serif" font-size="14.00">ExpertForm</text>
</g>
<!-- ExpertForm&#45;&gt;Estimation -->
<g id="edge4" class="edge"><title>ExpertForm&#45;&gt;Estimation</title>
<path fill="none" stroke="#1205df" d="M384.48,-280.267C386.512,-274.34 388.692,-267.981 390.757,-261.959"/>
<ellipse fill="none" stroke="#1205df" cx="383.107" cy="-284.271" rx="4.00001" ry="4.00001"/>
<polygon fill="#1205df" stroke="#1205df" points="390.834,-261.735 398.334,-253.735 392.455,-257.005 394.077,-252.275 394.077,-252.275 394.077,-252.275 392.455,-257.005 389.82,-250.816 390.834,-261.735 390.834,-261.735"/>
</g>
<!-- FormTemplate -->
<g id="node7" class="node"><title>FormTemplate</title>
<ellipse fill="none" stroke="black" cx="243" cy="-306" rx="62.0674" ry="18"/>
<text text-anchor="middle" x="243" y="-301.8" font-family="Times,serif" font-size="14.00">FormTemplate</text>
</g>
<!-- FormTemplate&#45;&gt;EstimationTemplate -->
<g id="edge5" class="edge"><title>FormTemplate&#45;&gt;EstimationTemplate</title>
<path fill="none" stroke="#1b48c2" d="M246.261,-279.64C246.996,-273.92 247.779,-267.828 248.523,-262.042"/>
<ellipse fill="none" stroke="#1b48c2" cx="245.735" cy="-283.729" rx="4.00001" ry="4.00001"/>
<polygon fill="#1b48c2" stroke="#1b48c2" points="248.526,-262.023 254.264,-252.678 249.163,-257.064 249.801,-252.104 249.801,-252.104 249.801,-252.104 249.163,-257.064 245.338,-251.53 248.526,-262.023 248.526,-262.023"/>
</g>
<!-- Milestone -->
<g id="node8" class="node"><title>Milestone</title>
<ellipse fill="none" stroke="black" cx="677" cy="-378" rx="45.2147" ry="18"/>
<text text-anchor="middle" x="677" y="-373.8" font-family="Times,serif" font-size="14.00">Milestone</text>
</g>
<!-- Modul -->
<g id="node9" class="node"><title>Modul</title>
<ellipse fill="none" stroke="black" cx="226" cy="-162" rx="33.5375" ry="18"/>
<text text-anchor="middle" x="226" y="-157.8" font-family="Times,serif" font-size="14.00">Modul</text>
</g>
<!-- Modul&#45;&gt;Component -->
<g id="edge6" class="edge"><title>Modul&#45;&gt;Component</title>
<path fill="none" stroke="#abebce" d="M252.346,-142.479C289.756,-116.181 358.103,-68.1358 397.608,-40.3647"/>
<ellipse fill="none" stroke="#abebce" cx="249.009" cy="-144.826" rx="4.00002" ry="4.00002"/>
<polygon fill="#abebce" stroke="#abebce" points="397.87,-40.1807 408.639,-38.1111 401.96,-37.3052 406.051,-34.4297 406.051,-34.4297 406.051,-34.4297 401.96,-37.3052 403.463,-30.7483 397.87,-40.1807 397.87,-40.1807"/>
</g>
<!-- ProductBreakdownStructure -->
<g id="node10" class="node"><title>ProductBreakdownStructure</title>
<ellipse fill="none" stroke="black" cx="110" cy="-378" rx="110.202" ry="18"/>
<text text-anchor="middle" x="110" y="-373.8" font-family="Times,serif" font-size="14.00">ProductBreakdownStructure</text>
</g>
<!-- Subproduct -->
<g id="node19" class="node"><title>Subproduct</title>
<ellipse fill="none" stroke="black" cx="102" cy="-234" rx="50.3252" ry="18"/>
<text text-anchor="middle" x="102" y="-229.8" font-family="Times,serif" font-size="14.00">Subproduct</text>
</g>
<!-- ProductBreakdownStructure&#45;&gt;Subproduct -->
<g id="edge7" class="edge"><title>ProductBreakdownStructure&#45;&gt;Subproduct</title>
<path fill="none" stroke="#5b1abc" d="M108.567,-351.558C107.152,-326.444 104.995,-288.164 103.543,-262.393"/>
<ellipse fill="none" stroke="#5b1abc" cx="108.81" cy="-355.878" rx="4" ry="4"/>
<polygon fill="#5b1abc" stroke="#5b1abc" points="103.531,-262.173 107.461,-251.936 103.25,-257.181 102.968,-252.189 102.968,-252.189 102.968,-252.189 103.25,-257.181 98.4755,-252.442 103.531,-262.173 103.531,-262.173"/>
</g>
<!-- Project -->
<g id="node11" class="node"><title>Project</title>
<ellipse fill="none" stroke="black" cx="539" cy="-541" rx="35.2345" ry="18"/>
<text text-anchor="middle" x="539" y="-536.8" font-family="Times,serif" font-size="14.00">Project</text>
</g>
<!-- Project&#45;&gt;DelphiEstimation -->
<g id="edge12" class="edge"><title>Project&#45;&gt;DelphiEstimation</title>
<path fill="none" stroke="#30d3ab" d="M517.39,-519.602C510.364,-513.856 502.242,-508.071 494,-504 480.111,-497.14 398.212,-477.762 339.872,-464.441"/>
<ellipse fill="none" stroke="#30d3ab" cx="520.463" cy="-522.221" rx="4.00002" ry="4.00002"/>
<ellipse fill="#30d3ab" stroke="#30d3ab" cx="335.705" cy="-463.492" rx="4.00001" ry="4.00001"/>
</g>
<!-- Project&#45;&gt;ProductBreakdownStructure -->
<g id="edge9" class="edge"><title>Project&#45;&gt;ProductBreakdownStructure</title>
<path fill="none" stroke="#b275b6" d="M518.026,-519.265C510.933,-513.394 502.614,-507.623 494,-504 372.245,-452.797 317.738,-525.858 199,-468 168.513,-453.144 142.28,-423.589 126.348,-402.618"/>
<ellipse fill="none" stroke="#b275b6" cx="521.154" cy="-521.994" rx="4.00002" ry="4.00002"/>
<ellipse fill="#b275b6" stroke="#b275b6" cx="123.928" cy="-399.354" rx="4.00002" ry="4.00002"/>
</g>
<!-- ResourceAllocationMatrix -->
<g id="node14" class="node"><title>ResourceAllocationMatrix</title>
<ellipse fill="none" stroke="black" cx="608" cy="-234" rx="104.115" ry="18"/>
<text text-anchor="middle" x="608" y="-229.8" font-family="Times,serif" font-size="14.00">ResourceAllocationMatrix</text>
</g>
<!-- Project&#45;&gt;ResourceAllocationMatrix -->
<g id="edge13" class="edge"><title>Project&#45;&gt;ResourceAllocationMatrix</title>
<path fill="none" stroke="#20e578" d="M556.773,-517.57C566.522,-504.011 577.847,-485.928 584,-468 608.814,-395.702 610.128,-303.957 609.073,-260.301"/>
<ellipse fill="none" stroke="#20e578" cx="554.232" cy="-521.007" rx="4.00002" ry="4.00002"/>
<ellipse fill="#20e578" stroke="#20e578" cx="608.954" cy="-256.23" rx="4" ry="4"/>
</g>
<!-- ResourceBreakdownStructure -->
<g id="node15" class="node"><title>ResourceBreakdownStructure</title>
<ellipse fill="none" stroke="black" cx="749" cy="-306" rx="116.291" ry="18"/>
<text text-anchor="middle" x="749" y="-301.8" font-family="Times,serif" font-size="14.00">ResourceBreakdownStructure</text>
</g>
<!-- Project&#45;&gt;ResourceBreakdownStructure -->
<g id="edge10" class="edge"><title>Project&#45;&gt;ResourceBreakdownStructure</title>
<path fill="none" stroke="#ddbac1" d="M581.67,-536.183C625.615,-529.828 692.538,-512.922 728,-468 758.915,-428.839 757.119,-366.865 753.067,-332.345"/>
<ellipse fill="none" stroke="#ddbac1" cx="577.438" cy="-536.752" rx="4.00001" ry="4.00001"/>
<ellipse fill="#ddbac1" stroke="#ddbac1" cx="752.522" cy="-328.158" rx="4.00001" ry="4.00001"/>
</g>
<!-- Roadmap -->
<g id="node16" class="node"><title>Roadmap</title>
<ellipse fill="none" stroke="black" cx="676" cy="-450" rx="43.4994" ry="18"/>
<text text-anchor="middle" x="676" y="-445.8" font-family="Times,serif" font-size="14.00">Roadmap</text>
</g>
<!-- Project&#45;&gt;Roadmap -->
<g id="edge11" class="edge"><title>Project&#45;&gt;Roadmap</title>
<path fill="none" stroke="#61587b" d="M566.691,-522.011C589.996,-506.871 623.219,-485.288 646.91,-469.898"/>
<ellipse fill="none" stroke="#61587b" cx="563.162" cy="-524.304" rx="4.00002" ry="4.00002"/>
<ellipse fill="#61587b" stroke="#61587b" cx="650.274" cy="-467.712" rx="4.00002" ry="4.00002"/>
</g>
<!-- WorkBreakdownStructure -->
<g id="node23" class="node"><title>WorkBreakdownStructure</title>
<ellipse fill="none" stroke="black" cx="473" cy="-450" rx="102.582" ry="18"/>
<text text-anchor="middle" x="473" y="-445.8" font-family="Times,serif" font-size="14.00">WorkBreakdownStructure</text>
</g>
<!-- Project&#45;&gt;WorkBreakdownStructure -->
<g id="edge8" class="edge"><title>Project&#45;&gt;WorkBreakdownStructure</title>
<path fill="none" stroke="#666632" d="M521.952,-517.011C512.31,-504.009 500.276,-487.781 490.553,-474.67"/>
<ellipse fill="none" stroke="#666632" cx="524.512" cy="-520.463" rx="4.00002" ry="4.00002"/>
<ellipse fill="#666632" stroke="#666632" cx="488.086" cy="-471.343" rx="4.00002" ry="4.00002"/>
</g>
<!-- RamEntry -->
<g id="node12" class="node"><title>RamEntry</title>
<ellipse fill="none" stroke="black" cx="475" cy="-90" rx="46.1851" ry="18"/>
<text text-anchor="middle" x="475" y="-85.8" font-family="Times,serif" font-size="14.00">RamEntry</text>
</g>
<!-- RamEntry&#45;&gt;Component -->
<g id="edge15" class="edge"><title>RamEntry&#45;&gt;Component</title>
<path fill="none" stroke="#18d74e" d="M459.308,-65.6295C454.419,-58.348 449.022,-50.3088 444.105,-42.9858"/>
<ellipse fill="none" stroke="#18d74e" cx="461.632" cy="-69.0901" rx="4.00002" ry="4.00002"/>
<ellipse fill="#18d74e" stroke="#18d74e" cx="441.615" cy="-39.2771" rx="4.00002" ry="4.00002"/>
</g>
<!-- Resource -->
<g id="node13" class="node"><title>Resource</title>
<ellipse fill="none" stroke="black" cx="598" cy="-18" rx="43.0161" ry="18"/>
<text text-anchor="middle" x="598" y="-13.8" font-family="Times,serif" font-size="14.00">Resource</text>
</g>
<!-- RamEntry&#45;&gt;Resource -->
<g id="edge14" class="edge"><title>RamEntry&#45;&gt;Resource</title>
<path fill="none" stroke="#460e1d" d="M507.231,-70.6574C525.46,-60.2829 548.164,-47.3621 566.304,-37.0381"/>
<ellipse fill="none" stroke="#460e1d" cx="503.664" cy="-72.687" rx="4.00002" ry="4.00002"/>
<ellipse fill="#460e1d" stroke="#460e1d" cx="569.79" cy="-35.0546" rx="4.00002" ry="4.00002"/>
</g>
<!-- ResourceAllocationMatrix&#45;&gt;RamEntry -->
<g id="edge16" class="edge"><title>ResourceAllocationMatrix&#45;&gt;RamEntry</title>
<path fill="none" stroke="#c5fa5c" d="M586.44,-209.981C561.905,-183.786 522.033,-141.215 497.225,-114.729"/>
<ellipse fill="none" stroke="#c5fa5c" cx="589.486" cy="-213.234" rx="4.00002" ry="4.00002"/>
<polygon fill="#c5fa5c" stroke="#c5fa5c" points="497.184,-114.685 493.632,-104.31 493.766,-111.036 490.348,-107.387 490.348,-107.387 490.348,-107.387 493.766,-111.036 487.064,-110.463 497.184,-114.685 497.184,-114.685"/>
</g>
<!-- Type -->
<g id="node22" class="node"><title>Type</title>
<ellipse fill="none" stroke="black" cx="703" cy="-162" rx="27.4888" ry="18"/>
<text text-anchor="middle" x="703" y="-157.8" font-family="Times,serif" font-size="14.00">Type</text>
</g>
<!-- ResourceBreakdownStructure&#45;&gt;Type -->
<g id="edge17" class="edge"><title>ResourceBreakdownStructure&#45;&gt;Type</title>
<path fill="none" stroke="#5079ca" d="M741.363,-280.201C735.816,-262.321 728.074,-237.628 721,-216 718.134,-207.237 714.92,-197.69 712.01,-189.143"/>
<ellipse fill="none" stroke="#5079ca" cx="742.564" cy="-284.08" rx="4.00001" ry="4.00001"/>
<polygon fill="#5079ca" stroke="#5079ca" points="712.008,-189.139 713.029,-178.221 710.39,-184.408 708.772,-179.677 708.772,-179.677 708.772,-179.677 710.39,-184.408 704.514,-181.133 712.008,-189.139 712.008,-189.139"/>
</g>
<!-- Roadmap&#45;&gt;Milestone -->
<g id="edge18" class="edge"><title>Roadmap&#45;&gt;Milestone</title>
<path fill="none" stroke="#bebfac" d="M676.362,-423.64C676.442,-418.063 676.527,-412.132 676.607,-406.476"/>
<ellipse fill="none" stroke="#bebfac" cx="676.304" cy="-427.697" rx="4" ry="4"/>
<polygon fill="#bebfac" stroke="#bebfac" points="676.613,-406.103 681.255,-396.169 676.684,-401.104 676.756,-396.104 676.756,-396.104 676.756,-396.104 676.684,-401.104 672.256,-396.04 676.613,-406.103 676.613,-406.103"/>
</g>
<!-- Role -->
<g id="node17" class="node"><title>Role</title>
<ellipse fill="none" stroke="black" cx="657" cy="-90" rx="27" ry="18"/>
<text text-anchor="middle" x="657" y="-85.8" font-family="Times,serif" font-size="14.00">Role</text>
</g>
<!-- Role&#45;&gt;Resource -->
<g id="edge19" class="edge"><title>Role&#45;&gt;Resource</title>
<path fill="none" stroke="#526700" d="M638.956,-67.5924C632.35,-59.7539 624.835,-50.8384 618.063,-42.8031"/>
<ellipse fill="none" stroke="#526700" cx="641.62" cy="-70.7525" rx="4.00002" ry="4.00002"/>
<polygon fill="#526700" stroke="#526700" points="618.043,-42.7799 615.039,-32.2334 614.821,-38.9567 611.598,-35.1336 611.598,-35.1336 611.598,-35.1336 614.821,-38.9567 608.157,-38.0337 618.043,-42.7799 618.043,-42.7799"/>
</g>
<!-- Round&#45;&gt;ExpertForm -->
<g id="edge20" class="edge"><title>Round&#45;&gt;ExpertForm</title>
<path fill="none" stroke="#33d4ab" d="M305.704,-358.257C318.279,-349.088 333.478,-338.005 346.522,-328.494"/>
<ellipse fill="none" stroke="#33d4ab" cx="302.199" cy="-360.814" rx="4.00002" ry="4.00002"/>
<polygon fill="#33d4ab" stroke="#33d4ab" points="346.653,-328.399 357.385,-326.143 350.694,-325.453 354.734,-322.507 354.734,-322.507 354.734,-322.507 350.694,-325.453 352.082,-318.871 346.653,-328.399 346.653,-328.399"/>
</g>
<!-- Round&#45;&gt;FormTemplate -->
<g id="edge21" class="edge"><title>Round&#45;&gt;FormTemplate</title>
<path fill="none" stroke="#2bf6d7" d="M267.347,-353.062C263.632,-346.034 259.567,-338.343 255.84,-331.293"/>
<ellipse fill="none" stroke="#2bf6d7" cx="269.362" cy="-356.875" rx="4.00002" ry="4.00002"/>
<ellipse fill="#2bf6d7" stroke="#2bf6d7" cx="253.832" cy="-327.493" rx="4.00002" ry="4.00002"/>
</g>
<!-- Subproduct&#45;&gt;Modul -->
<g id="edge22" class="edge"><title>Subproduct&#45;&gt;Modul</title>
<path fill="none" stroke="#6c40b0" d="M134.804,-214.482C153.396,-203.986 176.527,-190.928 194.841,-180.59"/>
<ellipse fill="none" stroke="#6c40b0" cx="131.176" cy="-216.53" rx="4.00002" ry="4.00002"/>
<polygon fill="#6c40b0" stroke="#6c40b0" points="194.957,-180.524 205.878,-179.527 199.312,-178.066 203.666,-175.608 203.666,-175.608 203.666,-175.608 199.312,-178.066 201.453,-171.689 194.957,-180.524 194.957,-180.524"/>
</g>
<!-- Subtask -->
<g id="node20" class="node"><title>Subtask</title>
<ellipse fill="none" stroke="black" cx="485" cy="-306" rx="38.1712" ry="18"/>
<text text-anchor="middle" x="485" y="-301.8" font-family="Times,serif" font-size="14.00">Subtask</text>
</g>
<!-- Subtask&#45;&gt;Workpackage -->
<g id="edge23" class="edge"><title>Subtask&#45;&gt;Workpackage</title>
<path fill="none" stroke="#0a8a0f" d="M478.395,-280.19C473.295,-262.117 465.662,-237.194 457,-216 453.31,-206.971 448.667,-197.39 444.277,-188.893"/>
<ellipse fill="none" stroke="#0a8a0f" cx="479.485" cy="-284.119" rx="4.00001" ry="4.00001"/>
<polygon fill="#0a8a0f" stroke="#0a8a0f" points="444.169,-188.687 443.47,-177.744 441.831,-184.268 439.493,-179.848 439.493,-179.848 439.493,-179.848 441.831,-184.268 435.515,-181.952 444.169,-188.687 444.169,-188.687"/>
</g>
<!-- Task -->
<g id="node21" class="node"><title>Task</title>
<ellipse fill="none" stroke="black" cx="479" cy="-378" rx="27" ry="18"/>
<text text-anchor="middle" x="479" y="-373.8" font-family="Times,serif" font-size="14.00">Task</text>
</g>
<!-- Task&#45;&gt;Subtask -->
<g id="edge24" class="edge"><title>Task&#45;&gt;Subtask</title>
<path fill="none" stroke="#029b0f" d="M481.174,-351.64C481.652,-346.063 482.16,-340.132 482.645,-334.476"/>
<ellipse fill="none" stroke="#029b0f" cx="480.825" cy="-355.711" rx="4" ry="4"/>
<polygon fill="#029b0f" stroke="#029b0f" points="482.68,-334.068 488.017,-324.489 483.107,-329.086 483.534,-324.104 483.534,-324.104 483.534,-324.104 483.107,-329.086 479.05,-323.72 482.68,-334.068 482.68,-334.068"/>
</g>
<!-- Type&#45;&gt;Role -->
<g id="edge25" class="edge"><title>Type&#45;&gt;Role</title>
<path fill="none" stroke="#de91d7" d="M688.088,-138.308C683.231,-130.917 677.823,-122.687 672.897,-115.19"/>
<ellipse fill="none" stroke="#de91d7" cx="690.365" cy="-141.773" rx="4.00002" ry="4.00002"/>
<polygon fill="#de91d7" stroke="#de91d7" points="672.889,-115.178 671.157,-104.35 670.143,-111 667.397,-106.821 667.397,-106.821 667.397,-106.821 670.143,-111 663.636,-109.293 672.889,-115.178 672.889,-115.178"/>
</g>
<!-- WorkBreakdownStructure&#45;&gt;Task -->
<g id="edge26" class="edge"><title>WorkBreakdownStructure&#45;&gt;Task</title>
<path fill="none" stroke="#1244ce" d="M475.174,-423.64C475.652,-418.063 476.16,-412.132 476.645,-406.476"/>
<ellipse fill="none" stroke="#1244ce" cx="474.825" cy="-427.711" rx="4" ry="4"/>
<polygon fill="#1244ce" stroke="#1244ce" points="476.68,-406.068 482.017,-396.489 477.107,-401.086 477.534,-396.104 477.534,-396.104 477.534,-396.104 477.107,-401.086 473.05,-395.72 476.68,-406.068 476.68,-406.068"/>
</g>
<!-- Workpackage&#45;&gt;RamEntry -->
<g id="edge27" class="edge"><title>Workpackage&#45;&gt;RamEntry</title>
<path fill="none" stroke="#9533a8" d="M445.249,-137.28C449.918,-130.016 455.054,-122.027 459.725,-114.761"/>
<ellipse fill="none" stroke="#9533a8" cx="443.056" cy="-140.69" rx="4.00002" ry="4.00002"/>
<ellipse fill="#9533a8" stroke="#9533a8" cx="462.044" cy="-111.154" rx="4.00002" ry="4.00002"/>
</g>
</g>
</svg>
